<svg width="288" height="257" viewBox="0 0 288 257" fill="none" xmlns="http://www.w3.org/2000/svg">
<path d="M253.41 16.3086C258.386 16.5694 262.329 16.7733 265.488 17.1988C268.688 17.6298 271.389 18.3219 273.82 19.7252C277.752 21.9954 280.864 25.4519 282.711 29.5996C283.853 32.1636 284.259 34.9231 284.353 38.1504C284.446 41.3367 284.236 45.2788 283.976 50.2546L282.127 85.5246C281.866 90.5003 281.662 94.4429 281.237 97.602C280.806 100.802 280.114 103.504 278.711 105.934C276.44 109.866 272.984 112.979 268.836 114.825C266.272 115.967 263.513 116.373 260.285 116.467C257.099 116.56 253.157 116.35 248.181 116.09L58.2123 106.134C53.2365 105.873 49.2941 105.669 46.135 105.244C42.9353 104.813 40.2333 104.121 37.8026 102.717C33.8706 100.447 30.7575 96.9906 28.9108 92.8428C27.7692 90.2789 27.3643 87.5192 27.2701 84.2921C27.1771 81.1059 27.3865 77.1635 27.6473 72.1879L29.7908 31.286C29.908 29.0495 29.8857 28.7046 29.8182 28.4505C29.7286 28.1138 29.5693 27.799 29.3512 27.5274C29.1866 27.3224 28.9225 27.1005 27.051 25.8695L7.37706 12.9296C6.69795 12.4829 6.01042 12.0339 5.50154 11.6402C5.2417 11.4391 4.89824 11.1547 4.5825 10.797C4.28208 10.4565 3.79059 9.80938 3.59505 8.87061C3.26813 7.30047 3.80132 5.67513 4.99507 4.60405L5.12921 4.48884C5.80479 3.93533 6.51608 3.72793 6.93209 3.63769C7.39853 3.53655 7.8438 3.5112 8.17227 3.5032C8.81544 3.48755 9.63442 3.53289 10.446 3.57542L253.41 16.3086Z" fill="#F7F7F7" stroke="black" stroke-width="7"/>
<path d="M46.289 38.2699L43.1027 20.9231L45.689 21.0586L47.8364 33.5983C47.8784 33.8431 47.9065 34.0519 47.9209 34.2247C47.9358 34.3898 47.952 34.6019 47.9697 34.861L48.0751 34.8665C48.1198 34.6107 48.1581 34.4014 48.1901 34.2388C48.2303 34.0688 48.2879 33.8645 48.363 33.6259L52.0669 21.3929L54.782 21.5352L57.2805 34.0933C57.3302 34.3384 57.3623 34.5474 57.3767 34.7203C57.3993 34.8858 57.4195 35.098 57.4372 35.3571L57.5308 35.362C57.5677 35.1058 57.6061 34.8966 57.6459 34.7344C57.6861 34.5644 57.7359 34.3597 57.7954 34.1203L61.1599 21.8694L63.5707 21.9958L58.6237 38.9163L55.9437 38.7758L53.4138 26.1457C53.3714 25.9087 53.3328 25.6759 53.2978 25.4472C53.2629 25.2185 53.2366 24.9746 53.2188 24.7155L53.1369 24.7112C53.0844 24.9666 53.0288 25.2063 52.9702 25.4301C52.9193 25.6543 52.8565 25.8818 52.7818 26.1125L48.9572 38.4097L46.289 38.2699ZM63.8824 33.2893L63.902 32.9148C63.9977 31.0892 64.5899 29.6416 65.6786 28.5721C66.7677 27.4948 68.1471 26.9999 69.8167 27.0874C71.4863 27.1749 72.7496 27.7731 73.6068 28.882C74.4645 29.9831 74.8452 31.4503 74.7491 33.2838L74.7001 34.22L65.4315 33.7342L65.5242 31.9671L72.2883 32.3216L72.3006 32.0876C72.3423 31.2918 72.1518 30.5973 71.7291 30.004C71.3069 29.403 70.6472 29.0789 69.75 29.0319C68.7201 28.978 67.9236 29.3235 67.3604 30.0684C66.8054 30.806 66.4967 31.7717 66.4341 32.9653L66.4077 33.4686C66.3452 34.6622 66.5704 35.6637 67.0834 36.4729C67.5969 37.2743 68.4114 37.7042 69.5271 37.7627C70.2449 37.8003 70.8696 37.6727 71.4013 37.3798C71.9412 37.0795 72.3829 36.7115 72.7265 36.2758L74.3965 37.5485C73.9963 38.169 73.3699 38.7034 72.5171 39.1516C71.6648 39.5919 70.6379 39.7806 69.4364 39.7177C67.564 39.6195 66.1462 38.982 65.183 37.8049C64.2203 36.6201 63.7867 35.1149 63.8824 33.2893ZM81.2969 29.9304L81.3969 28.0229L88.4653 28.3933L88.3653 30.3009L81.2969 29.9304ZM82.9633 36.8709L83.3705 29.1003L83.3976 28.8084L83.6018 24.9114L86.0945 25.042L85.4726 36.9085C85.4403 37.5249 85.5274 37.9519 85.734 38.1896C85.9406 38.4273 86.2662 38.5578 86.7109 38.5811C86.9138 38.5917 87.1138 38.5827 87.3108 38.5539C87.5079 38.5251 87.706 38.4768 87.9052 38.409L87.8034 40.3517C87.6038 40.4273 87.3425 40.4879 87.0193 40.5335C86.6958 40.587 86.3351 40.6033 85.9372 40.5824C84.9776 40.5321 84.2238 40.211 83.6759 39.619C83.1358 39.0274 82.8983 38.1114 82.9633 36.8709ZM89.8865 40.4608L90.5133 28.5007L92.8655 28.624L92.8572 30.1256L92.9157 30.1286C93.2301 29.6523 93.6386 29.2473 94.1411 28.9138C94.6515 28.5806 95.2343 28.4313 95.8896 28.4656C96.0613 28.4746 96.2358 28.5033 96.4132 28.5517C96.5988 28.5927 96.7298 28.6309 96.8062 28.6662L96.6903 30.878C96.5437 30.839 96.385 30.8072 96.2141 30.7826C96.0437 30.7502 95.8571 30.7287 95.6543 30.7181C95.0301 30.6854 94.4709 30.8321 93.9766 31.1582C93.4823 31.4844 93.104 31.9105 92.8417 32.4365L92.4142 40.5933L89.8865 40.4608ZM97.0914 37.3297C97.156 36.097 97.6898 35.1667 98.6928 34.5386C99.7036 33.911 100.97 33.637 102.491 33.7167L105.136 33.8553L105.18 33.0127C105.215 32.3418 105.068 31.7982 104.737 31.3819C104.415 30.9582 103.833 30.7243 102.991 30.6801C102.156 30.6364 101.542 30.7724 101.15 31.0883C100.758 31.4041 100.549 31.8078 100.523 32.2993L100.516 32.4397L98.0469 32.3103L98.0554 32.1465C98.1074 31.1557 98.5962 30.3364 99.522 29.6886C100.456 29.0413 101.675 28.7571 103.181 28.836C104.679 28.9145 105.824 29.3109 106.616 30.0252C107.408 30.7317 107.768 31.7793 107.695 33.168L107.41 38.5981C107.384 39.0974 107.398 39.5753 107.453 40.0319C107.507 40.4807 107.6 40.8728 107.731 41.2083L107.721 41.3955L105.275 41.2673C105.176 41.0666 105.092 40.8157 105.022 40.5147C104.959 40.2064 104.925 39.8994 104.917 39.5939C104.619 40.0633 104.136 40.4722 103.468 40.8206C102.809 41.1615 101.98 41.3058 100.981 41.2535C99.8188 41.1926 98.8638 40.8296 98.1164 40.1646C97.3693 39.4917 97.0277 38.5468 97.0914 37.3297ZM99.6161 37.2977C99.5826 37.9375 99.7398 38.4464 100.088 38.8245C100.443 39.203 101.007 39.4125 101.78 39.453C102.575 39.4947 103.296 39.2625 103.94 38.7565C104.593 38.2509 104.936 37.6743 104.97 37.0268L105.049 35.5054L102.779 35.3864C101.757 35.3329 100.983 35.4761 100.457 35.8162C99.9302 36.1564 99.65 36.6502 99.6161 37.2977ZM110.471 41.5396L111.098 29.5795L113.614 29.7114L112.988 41.6715L110.471 41.5396ZM111.023 25.8673C111.044 25.4616 111.191 25.129 111.462 24.8694C111.742 24.6025 112.128 24.4819 112.62 24.5076C113.111 24.5334 113.482 24.6898 113.733 24.9767C113.984 25.2637 114.099 25.6139 114.077 26.0274C114.056 26.4331 113.905 26.7694 113.625 27.0364C113.346 27.2956 112.96 27.4123 112.469 27.3865C111.977 27.3607 111.606 27.2044 111.355 26.9174C111.112 26.6231 111.002 26.273 111.023 25.8673ZM116.194 41.8396L116.821 29.8794L119.161 30.0021L119.152 31.5271L119.21 31.5302C119.621 31.0041 120.151 30.6015 120.799 30.3226C121.448 30.0358 122.162 29.9129 122.943 29.9538C124.144 30.0168 125.09 30.4105 125.779 31.1351C126.477 31.8601 126.783 33.0379 126.697 34.6685L126.294 42.3688L123.777 42.237L124.179 34.5717C124.227 33.6667 124.061 33.0126 123.684 32.6095C123.306 32.2064 122.754 31.9858 122.028 31.9477C121.412 31.9154 120.849 32.0581 120.34 32.3756C119.838 32.6935 119.44 33.1264 119.145 33.6742L118.71 41.9714L116.194 41.8396ZM128.926 36.6981L128.946 36.3236C129.041 34.498 129.633 33.0504 130.722 31.9809C131.811 30.9036 133.191 30.4087 134.86 30.4962C136.53 30.5837 137.793 31.1819 138.65 32.2908C139.508 33.3919 139.889 34.8591 139.793 36.6926L139.744 37.6288L130.475 37.143L130.568 35.3759L137.332 35.7304L137.344 35.4964C137.386 34.7006 137.195 34.0061 136.773 33.4128C136.35 32.8118 135.691 32.4877 134.794 32.4407C133.764 32.3867 132.967 32.7322 132.404 33.4772C131.849 34.2148 131.54 35.1805 131.478 36.3741L131.451 36.8773C131.389 38.071 131.614 39.0725 132.127 39.8817C132.64 40.6831 133.455 41.113 134.571 41.1715C135.288 41.2091 135.913 41.0815 136.445 40.7886C136.985 40.4883 137.426 40.1203 137.77 39.6845L139.44 40.9573C139.04 41.5778 138.413 42.1122 137.561 42.5603C136.708 43.0007 135.681 43.1894 134.48 43.1264C132.607 43.0283 131.19 42.3907 130.227 41.2137C129.264 40.0289 128.83 38.5237 128.926 36.6981ZM141.401 37.3518L141.421 36.9774C141.513 35.222 142.049 33.8028 143.028 32.7197C144.008 31.6367 145.259 31.1351 146.78 31.2148C147.6 31.2577 148.294 31.4389 148.864 31.7582C149.434 32.0775 149.874 32.484 150.185 32.9774L150.559 25.8388L153.063 25.9701L152.133 43.723L149.804 43.601L149.815 42.0525L149.756 42.0495C149.434 42.5255 148.952 42.9226 148.309 43.241C147.675 43.552 146.948 43.686 146.129 43.6431C144.576 43.5617 143.377 42.9317 142.532 41.753C141.686 40.5743 141.309 39.1073 141.401 37.3518ZM143.962 37.5213C143.902 38.6759 144.101 39.6486 144.56 40.4394C145.028 41.2227 145.784 41.6418 146.829 41.6966C147.539 41.7338 148.15 41.5741 148.662 41.2176C149.182 40.8537 149.568 40.4241 149.821 39.9288L150.065 35.2712C149.873 34.7526 149.537 34.293 149.057 33.8923C148.586 33.4843 147.995 33.2617 147.285 33.2245C146.232 33.1693 145.432 33.5107 144.885 34.2487C144.346 34.9793 144.046 35.9219 143.985 37.0766L143.962 37.5213ZM160.38 40.6465C160.444 39.4138 160.978 38.4834 161.981 37.8554C162.992 37.2277 164.258 36.9538 165.779 37.0335L168.424 37.1721L168.468 36.3295C168.503 35.6586 168.356 35.115 168.026 34.6987C167.704 34.275 167.121 34.0411 166.279 33.9969C165.444 33.9532 164.83 34.0892 164.438 34.4051C164.046 34.7209 163.837 35.1246 163.812 35.6161L163.804 35.7565L161.335 35.6271L161.344 35.4633C161.396 34.4725 161.884 33.6532 162.81 33.0054C163.744 32.3581 164.963 32.0739 166.469 32.1528C167.967 32.2313 169.112 32.6277 169.904 33.342C170.696 34.0485 171.056 35.0961 170.983 36.4848L170.698 41.9148C170.672 42.4142 170.686 42.8921 170.741 43.3487C170.795 43.7975 170.888 44.1896 171.019 44.5251L171.009 44.7123L168.564 44.5841C168.465 44.3834 168.38 44.1325 168.31 43.8315C168.248 43.5232 168.213 43.2162 168.205 42.9107C167.907 43.3801 167.424 43.789 166.756 44.1374C166.097 44.4783 165.268 44.6226 164.269 44.5703C163.107 44.5094 162.152 44.1464 161.405 43.4814C160.657 42.8085 160.316 41.8636 160.38 40.6465ZM162.904 40.6145C162.871 41.2543 163.028 41.7632 163.376 42.1413C163.731 42.5198 164.295 42.7293 165.068 42.7698C165.864 42.8115 166.584 42.5793 167.228 42.0733C167.881 41.5677 168.224 40.9911 168.258 40.3436L168.338 38.8222L166.067 38.7032C165.045 38.6497 164.271 38.7929 163.745 39.133C163.218 39.4731 162.938 39.967 162.904 40.6145ZM178.85 39.3144L178.869 38.94C178.966 37.0909 179.555 35.6354 180.635 34.5733C181.716 33.5112 183.13 33.0259 184.878 33.1175C186.531 33.2042 187.765 33.6952 188.579 34.5906C189.393 35.4782 189.777 36.5036 189.732 37.6669L189.737 37.7962L187.291 37.668L187.297 37.5627C187.331 36.9074 187.145 36.3422 186.74 35.8672C186.335 35.3922 185.683 35.1312 184.786 35.0842C183.741 35.0294 182.937 35.3667 182.374 36.0961C181.812 36.8255 181.499 37.7948 181.436 39.0041L181.409 39.5073C181.347 40.6931 181.553 41.6858 182.028 42.4851C182.502 43.2845 183.266 43.7118 184.319 43.767C185.24 43.8152 185.923 43.6202 186.368 43.182C186.814 42.7438 187.058 42.1972 187.1 41.5422L187.105 41.4369L189.539 41.5645L189.533 41.6815C189.473 42.8362 188.983 43.8236 188.064 44.6438C187.145 45.4562 185.863 45.8193 184.216 45.733C182.469 45.6414 181.113 45.011 180.15 43.8418C179.186 42.6648 178.753 41.1557 178.85 39.3144ZM191.691 41.4778L192.093 33.8242L194.609 33.9561L194.208 41.6096C194.159 42.5303 194.324 43.1921 194.702 43.5953C195.088 43.9988 195.639 44.2194 196.357 44.257C196.989 44.2901 197.552 44.1436 198.047 43.8175C198.549 43.4918 198.947 43.0589 199.241 42.5189L199.676 34.2217L202.192 34.3535L201.565 46.3137L199.225 46.191L199.223 44.6537L199.176 44.6512C198.742 45.1839 198.2 45.5897 197.552 45.8686C196.911 46.148 196.201 46.2672 195.421 46.2263C194.227 46.1638 193.286 45.7663 192.596 45.0339C191.908 44.2937 191.606 43.1084 191.691 41.4778ZM204.214 42.8029L206.67 42.9434L206.664 43.0721C206.629 43.7431 206.837 44.2508 207.288 44.5952C207.74 44.9318 208.356 45.1205 209.136 45.1614C209.924 45.2027 210.54 45.0864 210.985 44.8124C211.438 44.531 211.677 44.1368 211.704 43.6297C211.731 43.1226 211.556 42.73 211.179 42.4521C210.803 42.1664 209.986 41.8459 208.73 41.4906C207.412 41.1164 206.412 40.6299 205.732 40.0309C205.059 39.4324 204.748 38.6416 204.8 37.6586C204.855 36.6132 205.32 35.7926 206.196 35.1971C207.072 34.6015 208.224 34.3411 209.652 34.4159C211.08 34.4907 212.206 34.8783 213.029 35.5786C213.862 36.2716 214.248 37.1876 214.188 38.3266L214.182 38.4437L211.724 38.3149L211.732 38.1627C211.762 37.5932 211.598 37.1504 211.239 36.8343C210.88 36.5104 210.315 36.3282 209.542 36.2877C208.785 36.2481 208.224 36.3556 207.859 36.6102C207.494 36.8571 207.3 37.2029 207.277 37.6476C207.254 38.0767 207.443 38.4269 207.843 38.6982C208.244 38.9695 209.068 39.2827 210.317 39.6376C211.635 40.0117 212.627 40.5018 213.291 41.1077C213.956 41.7058 214.261 42.5276 214.206 43.5731C214.148 44.6965 213.683 45.5757 212.813 46.2108C211.942 46.8458 210.688 47.1203 209.049 47.0345C207.419 46.949 206.189 46.5403 205.359 45.8084C204.536 45.0768 204.157 44.1142 204.219 42.9206L204.214 42.8029ZM215.457 36.9615L215.556 35.0539L222.625 35.4244L222.525 37.3319L215.457 36.9615ZM217.123 43.9019L217.53 36.1313L217.557 35.8394L217.761 31.9424L220.254 32.073L219.632 43.9396C219.6 44.5559 219.687 44.9829 219.894 45.2206C220.1 45.4583 220.426 45.5888 220.871 45.6121C221.073 45.6228 221.273 45.6137 221.47 45.5849C221.668 45.5561 221.866 45.5078 222.065 45.44L221.963 47.3827C221.763 47.4583 221.502 47.5189 221.179 47.5645C220.855 47.618 220.495 47.6343 220.097 47.6134C219.137 47.5631 218.383 47.242 217.836 46.65C217.295 46.0584 217.058 45.1424 217.123 43.9019ZM223.413 41.6499L223.433 41.2755C223.529 39.442 224.137 37.9914 225.257 36.9235C226.377 35.8557 227.815 35.3678 229.57 35.4598C231.325 35.5518 232.704 36.1873 233.706 37.3664C234.709 38.5454 235.162 40.0517 235.066 41.8851L235.046 42.2596C234.95 44.0852 234.342 45.5358 233.222 46.6115C232.102 47.6793 230.664 48.1673 228.909 48.0753C227.154 47.9833 225.775 47.3477 224.773 46.1687C223.771 44.9818 223.318 43.4756 223.413 41.6499ZM225.999 41.3513L225.973 41.8428C225.911 43.0364 226.136 44.0301 226.65 44.8237C227.164 45.6173 227.952 46.0419 229.013 46.0975C230.081 46.1535 230.909 45.8136 231.495 45.0776C232.089 44.3421 232.418 43.3735 232.481 42.1721L232.506 41.6923C232.569 40.4908 232.343 39.4971 231.829 38.7113C231.315 37.9177 230.527 37.4931 229.466 37.4375C228.405 37.3819 227.578 37.7219 226.984 38.4574C226.39 39.1852 226.062 40.1498 225.999 41.3513ZM237.177 48.18L237.803 36.2198L240.144 36.3425L240.133 37.8909L240.192 37.894C240.626 37.3613 241.156 36.9549 241.781 36.6747C242.406 36.3867 243.086 36.262 243.819 36.3004C244.638 36.3433 245.336 36.5481 245.911 36.9146C246.494 37.2816 246.908 37.8235 247.152 38.5404L247.199 38.5428C247.696 37.8648 248.277 37.375 248.942 37.0735C249.615 36.7723 250.357 36.643 251.168 36.6856C252.37 36.7485 253.303 37.1495 253.969 37.8884C254.642 38.62 254.936 39.8011 254.851 41.4317L254.45 49.0852L251.934 48.9534L252.335 41.2881C252.382 40.3909 252.225 39.7411 251.862 39.3388C251.508 38.9291 250.984 38.706 250.29 38.6696C249.674 38.6373 249.13 38.781 248.66 39.1005C248.189 39.4201 247.803 39.8536 247.5 40.401L247.065 48.6982L244.549 48.5664L244.95 40.9128C244.998 40.0078 244.84 39.3541 244.478 38.9518C244.124 38.5421 243.596 38.3188 242.894 38.282C242.285 38.2501 241.746 38.394 241.275 38.7135C240.805 39.0331 240.422 39.4668 240.127 40.0146L239.693 48.3118L237.177 48.18ZM42.358 62.0029L43.2509 44.9638L45.8372 45.0993L45.0534 60.0554L52.6719 60.4546L52.5627 62.5377L42.358 62.0029ZM54.8798 62.6591L55.7728 45.62L58.3591 45.7556L57.5753 60.7116L65.1937 61.1109L65.0846 63.194L54.8798 62.6591ZM67.4017 63.3154L68.2947 46.2763L71.6768 46.4535L75.6781 58.9965C75.7591 59.2433 75.832 59.4935 75.897 59.7473C75.9619 60.001 76.0147 60.262 76.0554 60.5301L76.1374 60.5344C76.2059 60.272 76.2857 60.018 76.3768 59.7724C76.4679 59.5269 76.5666 59.2856 76.6729 59.0487L81.9634 46.9926L85.3689 47.1711L84.4759 64.2102L81.9364 64.0771L82.562 52.1404C82.5751 51.8907 82.5935 51.614 82.6173 51.3101C82.641 51.0062 82.675 50.7303 82.7193 50.4823L82.6374 50.478C82.5775 50.7252 82.4928 50.9985 82.3832 51.2978C82.2815 51.5976 82.1772 51.8699 82.0705 52.1146L76.9511 63.8158L74.7159 63.6987L70.8476 51.5265C70.7671 51.2719 70.6884 50.9822 70.6115 50.6574C70.5425 50.3331 70.4942 50.0606 70.4666 49.8401L70.3847 49.8358C70.3967 50.0555 70.3982 50.3255 70.3892 50.6458C70.388 50.9665 70.3809 51.2516 70.3678 51.5013L69.7422 63.438L67.4017 63.3154ZM93.9551 64.707L94.669 51.0851C94.7442 49.6495 95.1873 48.5853 95.9981 47.8924C96.8093 47.1917 97.8625 46.8753 99.1576 46.9432C99.4228 46.9571 99.6834 46.9864 99.9392 47.0311C100.195 47.0758 100.438 47.1355 100.669 47.2102L100.45 49.1584C100.287 49.1186 100.113 49.0821 99.9273 49.0489C99.7417 49.0079 99.5514 48.9822 99.3563 48.972C98.701 48.9377 98.1834 49.11 97.8037 49.4891C97.4244 49.8604 97.213 50.4595 97.1697 51.2865L97.0477 53.6154L97.036 53.8377L96.4595 64.8382L93.9551 64.707ZM92.6095 54.5563L92.7095 52.6487L95.483 52.7941L95.9277 52.8174L99.5556 53.0075L99.4556 54.915L92.6095 54.5563ZM100.005 59.2153L100.024 58.8408C100.12 57.0074 100.728 55.5568 101.848 54.4889C102.968 53.421 104.406 52.9331 106.161 53.0251C107.917 53.1171 109.296 53.7526 110.298 54.9317C111.3 56.1108 111.753 57.617 111.657 59.4504L111.637 59.8249C111.542 61.6505 110.934 63.1012 109.813 64.1768C108.693 65.2447 107.256 65.7326 105.5 65.6406C103.745 65.5486 102.366 64.9131 101.364 63.734C100.362 62.5472 99.909 61.0409 100.005 59.2153ZM102.59 58.9166L102.565 59.4081C102.502 60.6018 102.728 61.5954 103.241 62.389C103.755 63.1827 104.543 63.6073 105.604 63.6629C106.673 63.7189 107.5 63.3789 108.086 62.643C108.68 61.9074 109.009 60.9389 109.072 59.7374L109.097 59.2576C109.16 58.0561 108.934 57.0625 108.42 56.2767C107.906 55.4831 107.119 55.0585 106.058 55.0029C104.997 54.9473 104.169 55.2872 103.575 56.0228C102.982 56.7505 102.653 57.7151 102.59 58.9166ZM113.768 65.7453L114.395 53.7852L116.747 53.9085L116.739 55.4101L116.797 55.4131C117.111 54.9368 117.52 54.5318 118.022 54.1983C118.533 53.8651 119.116 53.7158 119.771 53.7501C119.943 53.7591 120.117 53.7878 120.295 53.8362C120.48 53.8772 120.611 53.9154 120.687 53.9507L120.572 56.1625C120.425 56.1235 120.266 56.0917 120.095 56.0671C119.925 56.0347 119.738 56.0132 119.536 56.0026C118.911 55.9699 118.352 56.1166 117.858 56.4427C117.364 56.7689 116.985 57.195 116.723 57.721L116.296 65.8778L113.768 65.7453ZM126.741 54.4322L129.21 54.5616L130.888 62.1716C130.958 62.4882 131.01 62.7608 131.045 62.9895C131.088 63.2108 131.13 63.4634 131.17 63.7471L131.24 63.7508C131.309 63.4728 131.377 63.226 131.443 63.0104C131.509 62.787 131.598 62.5217 131.708 62.2145L134.5 54.8388L136.805 54.9597L138.857 62.601C138.943 62.9106 139.007 63.1799 139.05 63.409C139.092 63.6381 139.138 63.8909 139.186 64.1672L139.244 64.1703C139.313 63.9001 139.377 63.6531 139.436 63.4293C139.503 63.1981 139.583 62.9363 139.677 62.6439L142.107 55.2375L144.365 55.3559L140.111 67.1259L137.875 67.0088L135.801 59.3428C135.73 59.0574 135.663 58.7723 135.599 58.4873C135.536 58.2024 135.481 57.9178 135.433 57.6337L135.374 57.6306C135.289 57.9078 135.201 58.1848 135.108 58.4616C135.023 58.7388 134.93 59.0155 134.83 59.2919L131.989 66.7003L129.742 66.5825L126.741 54.4322ZM145.529 67.4099L146.156 55.4497L148.508 55.573L148.5 57.0746L148.558 57.0777C148.873 56.6013 149.281 56.1963 149.784 55.8628C150.294 55.5297 150.877 55.3803 151.532 55.4146C151.704 55.4236 151.878 55.4523 152.056 55.5007C152.241 55.5418 152.372 55.5799 152.449 55.6152L152.333 57.827C152.186 57.7881 152.027 57.7563 151.857 57.7317C151.686 57.6993 151.5 57.6777 151.297 57.6671C150.673 57.6344 150.113 57.7811 149.619 58.1073C149.125 58.4334 148.746 58.8595 148.484 59.3856L148.057 67.5423L145.529 67.4099ZM153.732 67.8398L154.359 55.8796L156.875 56.0115L156.249 67.9717L153.732 67.8398ZM154.284 52.1675C154.305 51.7618 154.452 51.4292 154.723 51.1696C155.003 50.9026 155.389 50.782 155.881 50.8078C156.372 50.8335 156.743 50.9899 156.994 51.2769C157.245 51.5638 157.36 51.9141 157.338 52.3276C157.317 52.7333 157.166 53.0696 156.886 53.3365C156.607 53.5957 156.221 53.7124 155.73 53.6866C155.238 53.6609 154.867 53.5045 154.616 53.2176C154.373 52.9232 154.263 52.5732 154.284 52.1675ZM158.425 58.0055L158.525 56.098L165.594 56.4684L165.494 58.376L158.425 58.0055ZM160.092 64.946L160.499 57.1754L160.526 56.8835L160.73 52.9865L163.223 53.1171L162.601 64.9836C162.569 65.6 162.656 66.027 162.863 66.2647C163.069 66.5024 163.395 66.6329 163.839 66.6562C164.042 66.6668 164.242 66.6577 164.439 66.629C164.636 66.6002 164.835 66.5519 165.034 66.4841L164.932 68.4267C164.732 68.5023 164.471 68.563 164.148 68.6086C163.824 68.6621 163.464 68.6784 163.066 68.6575C162.106 68.6072 161.352 68.2861 160.804 67.6941C160.264 67.1025 160.027 66.1865 160.092 64.946ZM167.097 68.5402L167.724 56.58L170.24 56.7119L169.613 68.6721L167.097 68.5402ZM167.648 52.8679C167.67 52.4622 167.816 52.1296 168.088 51.87C168.368 51.603 168.754 51.4824 169.245 51.5082C169.737 51.5339 170.108 51.6903 170.359 51.9773C170.61 52.2642 170.724 52.6145 170.703 53.028C170.682 53.4337 170.531 53.77 170.251 54.0369C169.971 54.2961 169.586 54.4128 169.094 54.387C168.603 54.3613 168.232 54.2049 167.981 53.918C167.738 53.6236 167.627 53.2736 167.648 52.8679ZM172.82 68.8401L173.446 56.88L175.787 57.0026L175.777 58.5276L175.836 58.5307C176.247 58.0046 176.776 57.6021 177.425 57.3231C178.073 57.0364 178.788 56.9135 179.568 56.9543C180.77 57.0173 181.715 57.4111 182.405 58.1357C183.102 58.8607 183.408 60.0384 183.323 61.669L182.919 69.3694L180.403 69.2375L180.805 61.5723C180.852 60.6673 180.687 60.0132 180.309 59.61C179.931 59.2069 179.379 58.9863 178.654 58.9483C178.037 58.916 177.475 59.0586 176.965 59.3761C176.463 59.6941 176.065 60.1269 175.77 60.6748L175.336 68.972L172.82 68.8401ZM185.605 72.9719L186.937 71.2933C187.247 71.6459 187.711 71.9831 188.327 72.3049C188.944 72.6267 189.639 72.8078 190.411 72.8483C191.371 72.8986 192.158 72.6504 192.774 72.1037C193.397 71.5575 193.739 70.707 193.799 69.5524L193.853 68.5225C193.484 68.996 192.995 69.3655 192.387 69.6309C191.786 69.8967 191.069 70.0077 190.234 69.964C188.72 69.8846 187.536 69.2632 186.682 68.0997C185.836 66.9289 185.459 65.4618 185.551 63.6986L185.571 63.3241C185.663 61.5609 186.192 60.1413 187.155 59.0653C188.12 57.9814 189.366 57.4796 190.896 57.5597C191.699 57.6018 192.408 57.8072 193.023 58.1758C193.637 58.5444 194.079 58.9861 194.35 59.501L194.408 59.504L194.558 57.9864L196.91 58.1096L196.308 69.6017C196.214 71.4039 195.623 72.7537 194.535 73.6512C193.455 74.5568 192.088 74.9663 190.434 74.8796C189.427 74.8269 188.507 74.6222 187.673 74.2655C186.847 73.9093 186.158 73.4781 185.605 72.9719ZM188.112 63.868C188.052 65.0227 188.251 65.9915 188.711 66.7744C189.171 67.5574 189.931 67.9767 190.992 68.0323C191.694 68.0691 192.305 67.9055 192.825 67.5416C193.345 67.1699 193.724 66.7399 193.961 66.2516L194.201 61.6641C194.01 61.13 193.675 60.6586 193.195 60.2502C192.724 59.8343 192.134 59.6078 191.424 59.5706C190.371 59.5154 189.574 59.857 189.035 60.5954C188.496 61.326 188.196 62.2687 188.136 63.4233L188.112 63.868ZM204.507 66.992C204.571 65.7593 205.105 64.829 206.108 64.2009C207.119 63.5733 208.385 63.2993 209.906 63.379L212.551 63.5177L212.595 62.6751C212.63 62.0041 212.483 61.4605 212.153 61.0442C211.831 60.6205 211.248 60.3866 210.406 60.3424C209.571 60.2987 208.957 60.4347 208.565 60.7506C208.173 61.0664 207.964 61.4701 207.939 61.9616L207.931 62.1021L205.462 61.9727L205.471 61.8088C205.522 60.818 206.011 59.9987 206.937 59.351C207.871 58.7036 209.09 58.4194 210.596 58.4983C212.094 58.5768 213.239 58.9732 214.031 59.6875C214.823 60.394 215.183 61.4416 215.11 62.8303L214.825 68.2604C214.799 68.7597 214.813 69.2376 214.868 69.6942C214.922 70.143 215.015 70.5351 215.146 70.8706L215.136 71.0578L212.691 70.9297C212.592 70.7289 212.507 70.478 212.437 70.1771C212.375 69.8687 212.34 69.5618 212.332 69.2563C212.034 69.7257 211.551 70.1345 210.883 70.4829C210.224 70.8239 209.395 70.9682 208.396 70.9158C207.234 70.8549 206.279 70.4919 205.531 69.8269C204.784 69.1541 204.443 68.2091 204.507 66.992ZM207.031 66.9601C206.998 67.5998 207.155 68.1087 207.503 68.4868C207.858 68.8653 208.422 69.0748 209.195 69.1153C209.991 69.157 210.711 68.9249 211.355 68.4188C212.008 67.9132 212.351 67.3366 212.385 66.6891L212.465 65.1677L210.194 65.0488C209.172 64.9952 208.398 65.1385 207.872 65.4786C207.345 65.8187 207.065 66.3125 207.031 66.9601ZM217.805 71.1977L218.431 59.2375L220.772 59.3602L220.763 60.8852L220.821 60.8883C221.232 60.3622 221.762 59.9597 222.41 59.6807C223.059 59.394 223.773 59.271 224.553 59.3119C225.755 59.3749 226.7 59.7687 227.39 60.4932C228.087 61.2182 228.393 62.396 228.308 64.0266L227.904 71.727L225.388 71.5951L225.79 63.9298C225.837 63.0248 225.672 62.3708 225.294 61.9676C224.916 61.5645 224.365 61.3439 223.639 61.3059C223.023 61.2736 222.46 61.4162 221.95 61.7337C221.448 62.0516 221.05 62.4845 220.756 63.0323L220.321 71.3295L217.805 71.1977ZM230.537 66.0562L230.556 65.6817C230.648 63.9263 231.184 62.5071 232.164 61.4241C233.144 60.3411 234.395 59.8394 235.916 59.9191C236.735 59.9621 237.43 60.1432 238 60.4625C238.57 60.7819 239.01 61.1883 239.32 61.6818L239.695 54.5431L242.199 54.6744L241.269 72.4274L238.94 72.3053L238.95 70.7569L238.892 70.7538C238.57 71.2298 238.087 71.627 237.445 71.9453C236.81 72.2563 236.084 72.3903 235.265 72.3474C233.712 72.266 232.513 71.636 231.667 70.4573C230.821 69.2786 230.445 67.8116 230.537 66.0562ZM233.098 66.2256C233.037 67.3803 233.236 68.353 233.696 69.1437C234.163 69.9271 234.92 70.3461 235.965 70.4009C236.675 70.4381 237.286 70.2785 237.797 69.9219C238.317 69.558 238.703 69.1284 238.956 68.6332L239.2 63.9755C239.008 63.4569 238.673 62.9973 238.193 62.5967C237.721 62.1886 237.131 61.966 236.421 61.9288C235.368 61.8736 234.567 62.215 234.02 62.953C233.481 63.6836 233.181 64.6262 233.121 65.7809L233.098 66.2256ZM40.4693 80.1281L40.4889 79.7536C40.5858 77.9046 41.1745 76.449 42.255 75.3869C43.3355 74.3249 44.7496 73.8396 46.4972 73.9312C48.1511 74.0179 49.3849 74.5089 50.1986 75.4043C51.0126 76.2918 51.397 77.3173 51.3517 78.4805L51.3566 78.6099L48.9107 78.4817L48.9163 78.3764C48.9506 77.721 48.7651 77.1559 48.3597 76.6809C47.9543 76.2059 47.303 75.9449 46.4058 75.8979C45.3604 75.8431 44.5565 76.1804 43.9941 76.9097C43.4317 77.6391 43.1188 78.6084 43.0555 79.8177L43.0291 80.3209C42.9669 81.5068 43.1731 82.4994 43.6475 83.2988C44.122 84.0982 44.8858 84.5254 45.939 84.5806C46.8597 84.6289 47.5427 84.4339 47.9881 83.9957C48.4335 83.5574 48.6773 83.0109 48.7194 82.3559L48.725 82.2506L51.1591 82.3782L51.153 82.4952C51.0925 83.6499 50.6026 84.6373 49.6834 85.4575C48.7647 86.2699 47.4822 86.633 45.836 86.5467C44.0884 86.4551 42.7328 85.8247 41.7693 84.6555C40.8061 83.4785 40.3728 81.9693 40.4693 80.1281ZM52.7305 83.0707C52.7951 81.838 53.3289 80.9077 54.3319 80.2796C55.3427 79.652 56.6088 79.378 58.1301 79.4577L60.7749 79.5963L60.8191 78.7538C60.8542 78.0828 60.7067 77.5392 60.3765 77.1229C60.0545 76.6992 59.4722 76.4653 58.6296 76.4211C57.7948 76.3774 57.1813 76.5134 56.7893 76.8293C56.3972 77.1451 56.1883 77.5488 56.1625 78.0403L56.1552 78.1808L53.6859 78.0513L53.6945 77.8875C53.7464 76.8967 54.2353 76.0774 55.1611 75.4296C56.0947 74.7823 57.3143 74.4981 58.8201 74.577C60.318 74.6555 61.4629 75.0519 62.2547 75.7662C63.047 76.4727 63.4067 77.5203 63.3339 78.909L63.0494 84.3391C63.0232 84.8384 63.0373 85.3163 63.0916 85.7729C63.1463 86.2217 63.2392 86.6138 63.3702 86.9493L63.3604 87.1365L60.9145 87.0083C60.8155 86.8076 60.7309 86.5567 60.6606 86.2557C60.5985 85.9474 60.5638 85.6405 60.5563 85.335C60.2579 85.8044 59.7749 86.2132 59.1073 86.5616C58.4479 86.9025 57.6189 87.0469 56.6203 86.9945C55.4579 86.9336 54.5029 86.5706 53.7554 85.9056C53.0084 85.2328 52.6667 84.2878 52.7305 83.0707ZM55.2552 83.0387C55.2216 83.6785 55.3788 84.1874 55.7267 84.5655C56.0824 84.944 56.6464 85.1535 57.4188 85.194C58.2146 85.2357 58.9347 85.0035 59.5793 84.4975C60.2316 83.9919 60.5748 83.4153 60.6087 82.7678L60.6884 81.2464L58.4181 81.1274C57.3961 81.0739 56.6219 81.2172 56.0956 81.5573C55.5692 81.8974 55.2891 82.3912 55.2552 83.0387ZM66.0871 87.2794L67.0175 69.5264L69.5336 69.6583L68.6032 87.4113L66.0871 87.2794ZM71.8449 87.5812L72.7752 69.8282L75.2913 69.9601L74.3609 87.713L71.8449 87.5812ZM77.1455 82.0502L77.1651 81.6757C77.2608 79.8501 77.853 78.4026 78.9417 77.3331C80.0308 76.2558 81.4102 75.7609 83.0798 75.8484C84.7494 75.9359 86.0127 76.5341 86.8699 77.643C87.7276 78.7441 88.1083 80.2113 88.0122 82.0447L87.9632 82.9809L78.6946 82.4952L78.7873 80.7281L85.5514 81.0826L85.5637 80.8485C85.6054 80.0527 85.4149 79.3582 84.9922 78.765C84.57 78.1639 83.9103 77.8399 83.0131 77.7929C81.9832 77.7389 81.1867 78.0844 80.6235 78.8294C80.0685 79.567 79.7598 80.5326 79.6972 81.7263L79.6708 82.2295C79.6083 83.4232 79.8335 84.4246 80.3465 85.2338C80.86 86.0352 81.6745 86.4652 82.7902 86.5237C83.508 86.5613 84.1327 86.4336 84.6644 86.1407C85.2043 85.8405 85.646 85.4725 85.9896 85.0367L87.6596 86.3095C87.2594 86.93 86.633 87.4643 85.7802 87.9125C84.9279 88.3529 83.901 88.5416 82.6995 88.4786C80.8271 88.3805 79.4093 87.7429 78.4461 86.5659C77.4834 85.3811 77.0498 83.8758 77.1455 82.0502ZM89.6206 82.704L89.6402 82.3295C89.7322 80.5741 90.2681 79.1549 91.248 78.0719C92.2279 76.9889 93.4786 76.4873 94.9999 76.567C95.8191 76.6099 96.5137 76.7911 97.0837 77.1104C97.6537 77.4297 98.094 77.8361 98.4045 78.3296L98.7786 71.191L101.283 71.3222L100.353 89.0752L98.0238 88.9532L98.0345 87.4047L97.976 87.4017C97.6538 87.8776 97.1714 88.2748 96.5288 88.5932C95.8945 88.9042 95.1678 89.0382 94.3486 88.9952C92.796 88.9139 91.5969 88.2838 90.7511 87.1052C89.9054 85.9265 89.5286 84.4594 89.6206 82.704ZM92.1816 82.8734C92.1211 84.0281 92.3205 85.0008 92.7797 85.7916C93.2472 86.5749 94.0036 86.994 95.0491 87.0488C95.759 87.086 96.3698 86.9263 96.8813 86.5698C97.4011 86.2059 97.7874 85.7763 98.0402 85.281L98.2843 80.6233C98.0924 80.1048 97.7566 79.6452 97.277 79.2445C96.8055 78.8365 96.2148 78.6138 95.5048 78.5766C94.4515 78.5214 93.6513 78.8628 93.1041 79.6008C92.5652 80.3314 92.2654 81.2741 92.2049 82.4287L92.1816 82.8734ZM109.153 89.5364L109.78 77.5763L112.296 77.7081L111.669 89.6683L109.153 89.5364ZM109.704 73.8641C109.726 73.4584 109.872 73.1258 110.144 72.8662C110.424 72.5993 110.81 72.4787 111.301 72.5044C111.793 72.5302 112.164 72.6865 112.415 72.9735C112.666 73.2605 112.781 73.6107 112.759 74.0242C112.738 74.4299 112.587 74.7662 112.307 75.0332C112.027 75.2923 111.642 75.409 111.15 75.3833C110.659 75.3575 110.288 75.2012 110.037 74.9142C109.794 74.6198 109.683 74.2698 109.704 73.8641ZM113.846 79.7021L113.946 77.7946L121.014 78.165L120.914 80.0726L113.846 79.7021ZM115.512 86.6426L115.92 78.872L115.947 78.5801L116.151 74.6831L118.644 74.8137L118.022 86.6802C117.989 87.2966 118.077 87.7236 118.283 87.9613C118.49 88.199 118.815 88.3295 119.26 88.3528C119.463 88.3634 119.663 88.3544 119.86 88.3256C120.057 88.2968 120.255 88.2485 120.454 88.1807L120.353 90.1234C120.153 90.199 119.892 90.2596 119.568 90.3052C119.245 90.3587 118.884 90.375 118.486 90.3541C117.527 90.3038 116.773 89.9827 116.225 89.3907C115.685 88.7991 115.447 87.8831 115.512 86.6426Z" fill="black"/>
<path d="M254.533 98.2924L257.433 85.774L264.018 86.1191L263.707 87.5773L263.759 87.58C264.088 87.1014 264.631 86.7036 265.387 86.3866C266.143 86.0695 267.033 85.9378 268.057 85.9915C269.428 86.0633 270.471 86.4921 271.186 87.2777C271.911 88.0551 272.071 89.3292 271.665 91.1L269.823 99.0937L263.148 98.7439L264.801 91.6015C264.89 91.2321 264.873 90.9702 264.751 90.8159C264.637 90.6534 264.451 90.5653 264.19 90.5517C263.973 90.5403 263.744 90.6065 263.501 90.7504C263.259 90.8943 263.052 91.1096 262.88 91.3964L261.209 98.6422L254.533 98.2924Z" fill="black"/>
<path d="M245.918 97.8405L248.806 85.3215L255.586 85.6768L252.685 98.1952L245.918 97.8405ZM249.419 81.5955C249.622 80.7015 250.109 79.9658 250.878 79.3885C251.657 78.8116 252.631 78.5539 253.803 78.6153C254.965 78.6762 255.786 79.0237 256.266 79.6578C256.755 80.2924 256.893 81.0651 256.68 81.9761C256.476 82.8701 255.985 83.6142 255.206 84.2085C254.427 84.794 253.452 85.0561 252.281 84.9947C251.118 84.9337 250.298 84.5776 249.818 83.9261C249.34 83.266 249.207 82.4891 249.419 81.5955Z" fill="black"/>
<path d="M229.279 96.9689L230.292 77.6445L236.968 77.9944L236.461 87.6631L239.089 84.8127L246.494 85.2007L236.082 94.8984L235.955 97.3188L229.279 96.9689ZM237.681 97.4093L234.432 92.1891L238.769 87.8623L245.372 97.8123L237.681 97.4093Z" fill="black"/>
<path d="M211.677 96.0467L216.098 76.914L222.748 77.2625L220.825 85.5652C221.219 85.0204 221.787 84.5673 222.528 84.206C223.277 83.8451 224.22 83.6945 225.357 83.754C226.667 83.8227 227.662 84.2576 228.342 85.0588C229.022 85.8512 229.172 87.0683 228.79 88.7098L226.915 96.8453L220.239 96.4955L221.873 89.4825C221.963 89.0784 221.94 88.7858 221.801 88.6045C221.672 88.4151 221.477 88.3135 221.217 88.2999C220.965 88.2867 220.74 88.3618 220.54 88.5254C220.34 88.6802 220.158 88.9229 219.993 89.2535L218.352 96.3966L211.677 96.0467Z" fill="black"/>
<path d="M196.39 90.9523L202.423 91.3468L202.37 91.6181C202.283 91.9614 202.34 92.195 202.542 92.3187C202.753 92.4428 203.054 92.5151 203.444 92.5356C203.861 92.5574 204.163 92.5167 204.351 92.4135C204.539 92.3102 204.655 92.1641 204.7 91.9751C204.745 91.7773 204.675 91.6258 204.489 91.5203C204.303 91.4149 203.406 91.1896 201.797 90.8443C200.017 90.4639 198.832 89.919 198.242 89.2095C197.653 88.5001 197.487 87.5998 197.745 86.5085C198.061 85.1244 198.941 84.1006 200.385 83.4368C201.838 82.7735 203.683 82.5005 205.921 82.6178C208.108 82.7324 209.748 83.2099 210.844 84.0502C211.949 84.8823 212.326 85.9895 211.975 87.3717L211.908 87.6422L205.883 87.3264L205.938 87.0292C206.004 86.7717 205.953 86.5733 205.787 86.4341C205.629 86.2866 205.355 86.2027 204.965 86.1822C204.583 86.1622 204.303 86.191 204.125 86.2687C203.956 86.3468 203.849 86.476 203.805 86.6564C203.769 86.8459 203.856 87.0027 204.067 87.1269C204.287 87.2515 205.189 87.464 206.774 87.7646C208.497 88.0897 209.727 88.5892 210.466 89.263C211.214 89.9285 211.454 90.8371 211.185 91.9887C210.858 93.4069 209.96 94.4516 208.489 95.1227C207.027 95.7942 205.125 96.0686 202.783 95.9458C200.51 95.8267 198.799 95.3586 197.65 94.5415C196.501 93.7245 196.068 92.597 196.353 91.1592L196.39 90.9523Z" fill="black"/>
<path d="M180.706 89.6864L181.121 81.7744L187.796 82.1243L187.423 89.2554C187.399 89.7066 187.461 90.0186 187.608 90.1916C187.765 90.3651 187.968 90.4584 188.22 90.4716C188.463 90.4843 188.684 90.409 188.884 90.2455C189.093 90.0824 189.247 89.873 189.348 89.6173L189.735 82.2259L196.411 82.5757L195.749 95.2114L189.164 94.8663L189.202 93.3938L189.176 93.3925C188.897 93.8998 188.406 94.309 187.702 94.6201C187.008 94.923 186.136 95.0469 185.086 94.9919C183.759 94.9223 182.674 94.4696 181.83 93.6338C180.986 92.798 180.612 91.4822 180.706 89.6864Z" fill="black"/>
<path d="M162.513 93.4695L163.506 74.5225L173.318 75.0367C175.496 75.1508 177.151 75.8552 178.283 77.1498C179.416 78.4445 179.925 80.1849 179.81 82.3711C179.696 84.5486 179.022 86.2183 177.786 87.3801C176.56 88.5424 174.793 89.0631 172.485 88.9422L169.674 88.7949L169.41 93.8309L162.513 93.4695ZM169.912 84.2533L171.2 84.3208C171.808 84.3527 172.235 84.175 172.481 83.7877C172.736 83.4009 172.883 82.8475 172.92 82.1274C172.959 81.3987 172.871 80.833 172.657 80.4303C172.452 80.0194 172.046 79.7981 171.439 79.7663L170.151 79.6987L169.912 84.2533Z" fill="black"/>
<path d="M145.887 92.5985L150.308 73.4658L157.036 73.8184L152.615 92.9511L145.887 92.5985Z" fill="black"/>
<path d="M137.841 92.1765L140.728 79.6574L147.508 80.0127L144.607 92.5311L137.841 92.1765ZM141.341 75.9315C141.544 75.0374 142.031 74.3017 142.801 73.7244C143.579 73.1476 144.554 72.8898 145.725 72.9512C146.887 73.0121 147.709 73.3596 148.189 73.9937C148.677 74.6283 148.815 75.4011 148.602 76.312C148.399 77.2061 147.907 77.9502 147.128 78.5444C146.349 79.1299 145.374 79.392 144.203 79.3306C143.041 79.2697 142.22 78.9135 141.741 78.262C141.262 77.6019 141.129 76.8251 141.341 75.9315Z" fill="black"/>
<path d="M130.931 91.8143L131.943 72.5029L138.67 72.8555L137.658 92.1669L130.931 91.8143Z" fill="black"/>
<rect x="126.016" y="70.9688" width="4" height="21.7743" transform="rotate(3 126.016 70.9688)" fill="#FF0000"/>
<path d="M10.9054 93.6917C9.90024 92.7068 9.39766 92.2144 9.37658 91.8263C9.35834 91.4905 9.51016 91.1679 9.78063 90.968C10.0931 90.737 10.7929 90.8105 12.1924 90.9576L247.173 115.655C257.303 116.72 262.368 117.252 266.012 119.636C269.216 121.733 271.669 124.797 273.012 128.383C274.54 132.46 273.949 137.519 272.768 147.636L264.633 217.334C263.476 227.244 262.898 232.199 260.534 235.777C258.453 238.924 255.436 241.339 251.909 242.679C247.9 244.202 242.939 243.68 233.017 242.638L51 223.507C40.8466 222.44 35.7699 221.906 32.122 219.515C28.9139 217.413 26.4614 214.34 25.122 210.746C23.599 206.659 24.2038 201.59 25.4133 191.453L33.7783 121.34C33.9836 119.62 34.0862 118.759 33.9579 117.941C33.8443 117.217 33.5987 116.519 33.2334 115.883C32.821 115.165 32.2022 114.558 30.9646 113.346L10.9054 93.6917Z" fill="#FF0000"/>
<path d="M46.2877 126.053L48.0712 109.084L50.6585 109.356L48.875 126.325L46.2877 126.053ZM51.7803 116.508L51.9799 114.608L59.0193 115.348L58.8196 117.248L51.7803 116.508ZM53.0811 123.526L53.8945 115.788L53.9368 115.498L54.3447 111.617L56.8271 111.878L55.585 123.695C55.5205 124.309 55.5852 124.74 55.779 124.988C55.9729 125.236 56.2913 125.384 56.7342 125.43C56.9362 125.452 57.1363 125.453 57.3347 125.435C57.533 125.416 57.7334 125.378 57.9358 125.321L57.7324 127.256C57.5292 127.321 57.265 127.368 56.94 127.396C56.614 127.433 56.253 127.43 55.8567 127.388C54.901 127.288 54.1651 126.928 53.649 126.308C53.1406 125.689 52.9513 124.762 53.0811 123.526ZM64.4599 110.783L64.3044 112.263C64.2211 113.055 63.9427 113.835 63.4693 114.602C63.0045 115.363 62.3857 115.981 61.6129 116.458L60.2473 115.324C60.6655 114.858 60.9969 114.358 61.2413 113.826C61.4944 113.287 61.6556 112.687 61.725 112.027L61.8843 110.512L64.4599 110.783ZM63.929 124.242L66.3752 124.511L66.3618 124.639C66.2915 125.308 66.4728 125.825 66.9055 126.193C67.339 126.553 67.9442 126.774 68.7212 126.855C69.5059 126.938 70.1275 126.854 70.5859 126.603C71.0528 126.346 71.3128 125.965 71.3659 125.46C71.419 124.955 71.2648 124.554 70.9032 124.257C70.5425 123.952 69.744 123.589 68.5078 123.168C67.211 122.725 66.2385 122.187 65.5902 121.554C64.9498 120.921 64.681 120.115 64.7839 119.136C64.8933 118.095 65.4011 117.3 66.3072 116.751C67.2132 116.202 68.3772 116.002 69.7991 116.151C71.2209 116.301 72.3249 116.747 73.111 117.489C73.9056 118.225 74.2433 119.16 74.1241 120.294L74.1119 120.411L71.6644 120.153L71.6803 120.002C71.7399 119.435 71.5988 118.984 71.2569 118.65C70.9158 118.307 70.3606 118.096 69.5914 118.015C68.8378 117.936 68.2718 118.014 67.8936 118.249C67.5162 118.476 67.3042 118.811 67.2577 119.254C67.2128 119.682 67.3831 120.041 67.7688 120.333C68.1545 120.625 68.9615 120.981 70.19 121.401C71.4868 121.843 72.4511 122.385 73.083 123.025C73.7157 123.657 73.9774 124.493 73.8679 125.534C73.7503 126.653 73.2403 127.507 72.3379 128.096C71.4355 128.684 70.1685 128.893 68.5369 128.721C66.913 128.55 65.7058 128.078 64.9152 127.304C64.1324 126.53 63.8035 125.549 63.9284 124.36L63.929 124.242ZM81.2213 126.201C81.3503 124.974 81.9321 124.072 82.9666 123.498C84.0089 122.924 85.2875 122.717 86.8026 122.876L89.4366 123.153L89.5247 122.313C89.595 121.645 89.4761 121.095 89.1681 120.662C88.8687 120.222 88.2994 119.958 87.4603 119.869C86.629 119.782 86.0092 119.886 85.6012 120.181C85.1931 120.476 84.9634 120.868 84.9119 121.357L84.8972 121.497L82.4381 121.239L82.4553 121.076C82.559 120.089 83.09 119.296 84.0485 118.698C85.0147 118.1 86.2475 117.88 87.7471 118.038C89.2389 118.195 90.3614 118.65 91.1148 119.405C91.869 120.152 92.1734 121.217 92.028 122.6L91.4597 128.008C91.4074 128.505 91.3964 128.983 91.4268 129.442C91.4579 129.893 91.5301 130.289 91.6435 130.631L91.6239 130.818L89.1881 130.562C89.0997 130.356 89.0283 130.101 88.9739 129.797C88.928 129.486 88.9094 129.177 88.9179 128.872C88.5953 129.325 88.0916 129.708 87.4067 130.021C86.7304 130.327 85.895 130.428 84.9005 130.323C83.7428 130.202 82.8081 129.789 82.0965 129.086C81.3856 128.375 81.0939 127.413 81.2213 126.201ZM83.7442 126.301C83.6772 126.939 83.8076 127.455 84.1352 127.851C84.4705 128.247 85.0228 128.486 85.792 128.567C86.5845 128.65 87.3159 128.456 87.986 127.984C88.664 127.514 89.0368 126.956 89.1046 126.311L89.2638 124.796L87.0029 124.558C85.985 124.451 85.2044 124.554 84.661 124.866C84.1176 125.178 83.812 125.657 83.7442 126.301ZM99.8869 131.686L101.745 114.006L104.251 114.27L102.393 131.95L99.8869 131.686ZM105.47 126.44L105.509 126.067C105.701 124.241 106.384 122.825 107.558 121.817C108.733 120.809 110.194 120.397 111.942 120.581C113.69 120.765 115.034 121.471 115.973 122.701C116.912 123.931 117.286 125.459 117.094 127.285L117.054 127.658C116.863 129.476 116.18 130.893 115.005 131.908C113.831 132.916 112.37 133.328 110.621 133.144C108.873 132.961 107.53 132.254 106.591 131.024C105.652 129.786 105.279 128.258 105.47 126.44ZM108.067 126.277L108.016 126.767C107.891 127.956 108.064 128.96 108.536 129.779C109.008 130.598 109.772 131.064 110.828 131.175C111.893 131.287 112.737 130.99 113.361 130.286C113.993 129.583 114.371 128.633 114.497 127.436L114.547 126.958C114.673 125.762 114.5 124.758 114.027 123.946C113.556 123.127 112.792 122.661 111.735 122.55C110.678 122.439 109.834 122.736 109.202 123.439C108.572 124.135 108.193 125.081 108.067 126.277ZM118.779 127.839L118.818 127.466C119.012 125.625 119.676 124.202 120.811 123.198C121.945 122.194 123.383 121.783 125.123 121.966C126.77 122.139 127.977 122.694 128.742 123.631C129.509 124.56 129.839 125.604 129.733 126.763L129.731 126.893L127.295 126.637L127.306 126.532C127.375 125.879 127.219 125.305 126.839 124.81C126.459 124.314 125.823 124.019 124.929 123.925C123.888 123.816 123.068 124.111 122.468 124.81C121.868 125.509 121.505 126.46 121.378 127.665L121.326 128.166C121.201 129.347 121.355 130.349 121.787 131.172C122.219 131.995 122.96 132.462 124.009 132.572C124.925 132.668 125.618 132.509 126.085 132.095C126.553 131.681 126.825 131.148 126.902 130.496L126.913 130.391L129.337 130.646L129.324 130.762C129.204 131.912 128.663 132.873 127.702 133.643C126.742 134.407 125.442 134.702 123.803 134.53C122.062 134.347 120.742 133.646 119.841 132.428C118.94 131.203 118.587 129.673 118.779 127.839ZM130.87 131.419C130.999 130.192 131.581 129.291 132.615 128.716C133.657 128.142 134.936 127.935 136.451 128.094L139.085 128.371L139.173 127.532C139.243 126.864 139.124 126.313 138.817 125.88C138.517 125.44 137.948 125.176 137.109 125.088C136.277 125 135.658 125.104 135.25 125.399C134.842 125.694 134.612 126.086 134.56 126.576L134.546 126.715L132.087 126.457L132.104 126.294C132.207 125.307 132.738 124.514 133.697 123.916C134.663 123.318 135.896 123.098 137.395 123.256C138.887 123.413 140.01 123.869 140.763 124.623C141.517 125.37 141.822 126.435 141.676 127.818L141.108 133.226C141.056 133.723 141.045 134.201 141.075 134.66C141.106 135.111 141.179 135.508 141.292 135.85L141.272 136.036L138.836 135.78C138.748 135.574 138.677 135.319 138.622 135.015C138.576 134.704 138.558 134.396 138.566 134.09C138.244 134.543 137.74 134.926 137.055 135.239C136.379 135.545 135.543 135.646 134.549 135.541C133.391 135.42 132.457 135.007 131.745 134.304C131.034 133.593 130.742 132.632 130.87 131.419ZM133.393 131.52C133.326 132.157 133.456 132.673 133.784 133.069C134.119 133.466 134.671 133.704 135.44 133.785C136.233 133.868 136.964 133.674 137.634 133.203C138.312 132.732 138.685 132.174 138.753 131.529L138.912 130.014L136.651 129.777C135.633 129.67 134.853 129.772 134.309 130.084C133.766 130.396 133.46 130.875 133.393 131.52ZM143.988 136.321L145.846 118.641L148.352 118.905L146.494 136.585L143.988 136.321ZM155.211 137.501L156.463 125.59L158.794 125.835L158.702 127.381L158.76 127.387C159.222 126.878 159.773 126.5 160.411 126.253C161.051 125.998 161.736 125.909 162.466 125.985C163.282 126.071 163.968 126.312 164.523 126.708C165.086 127.105 165.471 127.668 165.677 128.397L165.724 128.402C166.256 127.751 166.862 127.292 167.542 127.026C168.229 126.76 168.977 126.67 169.785 126.755C170.982 126.88 171.893 127.33 172.519 128.102C173.153 128.868 173.385 130.063 173.214 131.687L172.413 139.309L169.908 139.046L170.71 131.412C170.804 130.518 170.68 129.861 170.34 129.441C170.008 129.013 169.496 128.763 168.804 128.69C168.19 128.626 167.64 128.741 167.154 129.035C166.667 129.33 166.258 129.742 165.928 130.273L165.059 138.536L162.553 138.273L163.355 130.651C163.449 129.749 163.326 129.088 162.986 128.668C162.654 128.24 162.138 127.989 161.439 127.916C160.833 127.852 160.286 127.968 159.8 128.262C159.313 128.557 158.908 128.97 158.585 129.501L157.717 137.764L155.211 137.501ZM175.327 133.783L175.366 133.41C175.558 131.584 176.241 130.167 177.416 129.159C178.59 128.151 180.051 127.739 181.799 127.923C183.548 128.107 184.891 128.814 185.83 130.044C186.769 131.273 187.143 132.801 186.951 134.627L186.912 135C186.721 136.818 186.038 138.235 184.863 139.251C183.688 140.258 182.227 140.67 180.479 140.487C178.731 140.303 177.387 139.596 176.448 138.366C175.51 137.129 175.136 135.601 175.327 133.783ZM177.925 133.62L177.873 134.109C177.748 135.298 177.922 136.302 178.393 137.121C178.865 137.941 179.629 138.406 180.686 138.517C181.75 138.629 182.594 138.333 183.218 137.629C183.85 136.925 184.229 135.975 184.355 134.779L184.405 134.301C184.531 133.104 184.357 132.1 183.885 131.288C183.413 130.469 182.649 130.004 181.592 129.893C180.536 129.782 179.691 130.078 179.06 130.781C178.429 131.477 178.051 132.423 177.925 133.62ZM188.637 135.181L188.676 134.809C188.86 133.06 189.469 131.671 190.504 130.641C191.54 129.611 192.815 129.175 194.33 129.334C195.146 129.42 195.83 129.637 196.382 129.986C196.935 130.335 197.353 130.764 197.638 131.273L198.385 124.164L200.879 124.426L199.021 142.106L196.701 141.862L196.793 140.316L196.735 140.31C196.388 140.768 195.886 141.14 195.227 141.424C194.578 141.701 193.845 141.797 193.029 141.712C191.483 141.549 190.318 140.857 189.535 139.636C188.753 138.414 188.453 136.93 188.637 135.181ZM191.185 135.485C191.064 136.635 191.213 137.616 191.63 138.43C192.056 139.237 192.789 139.695 193.83 139.804C194.537 139.879 195.156 139.751 195.685 139.422C196.223 139.086 196.632 138.677 196.91 138.196L197.397 133.557C197.233 133.029 196.922 132.553 196.464 132.127C196.014 131.695 195.436 131.442 194.729 131.368C193.68 131.257 192.863 131.557 192.278 132.265C191.701 132.966 191.353 133.892 191.232 135.042L191.185 135.485ZM202.063 136.593L202.102 136.22C202.293 134.402 202.96 132.987 204.103 131.976C205.247 130.957 206.651 130.535 208.313 130.71C209.976 130.885 211.207 131.548 212.005 132.7C212.803 133.845 213.107 135.33 212.915 137.156L212.817 138.088L203.586 137.118L203.771 135.358L210.508 136.066L210.532 135.833C210.616 135.041 210.462 134.337 210.071 133.723C209.68 133.1 209.039 132.742 208.145 132.648C207.119 132.54 206.306 132.844 205.705 133.558C205.112 134.266 204.753 135.214 204.628 136.403L204.575 136.904C204.45 138.093 204.623 139.104 205.093 139.939C205.564 140.767 206.355 141.239 207.466 141.355C208.18 141.43 208.811 141.336 209.357 141.071C209.912 140.799 210.372 140.455 210.738 140.038L212.34 141.396C211.907 141.995 211.254 142.496 210.379 142.899C209.505 143.294 208.469 143.429 207.273 143.303C205.408 143.107 204.025 142.396 203.125 141.17C202.226 139.937 201.872 138.411 202.063 136.593ZM214.638 143.747L216.496 126.067L219.002 126.33L217.143 144.01L214.638 143.747ZM224.708 138.407L225.067 136.336L235.312 137.412L234.952 139.484L224.708 138.407ZM44.2627 136.574L45.7894 136.735L45.2767 145.2C45.2817 145.452 45.2858 145.787 45.2892 146.203C45.3011 146.613 45.2844 146.922 45.239 147.129L45.3089 147.136C45.4173 146.928 45.582 146.631 45.8032 146.246C46.0321 145.861 46.2179 145.551 46.3606 145.314L50.8358 137.265L53.2134 137.515L52.7369 145.973C52.7341 146.224 52.7451 146.567 52.7702 147.001C52.7952 147.436 52.8009 147.755 52.7875 147.958L52.8458 147.964C52.9222 147.76 53.0757 147.458 53.3063 147.058C53.5377 146.65 53.7286 146.328 53.879 146.093L58.4696 138.068L60.311 138.261L53.5571 150.949L51.8323 150.768L51.7638 140.32C51.7584 140.147 51.7647 140.05 51.7827 140.028C51.8093 139.999 51.8297 139.88 51.844 139.669L51.7741 139.662C51.6416 139.876 51.5341 140.002 51.4515 140.04C51.3775 140.072 51.2857 140.16 51.1761 140.306L45.7719 150.131L44.0703 149.952L44.2627 136.574ZM59.5411 145.698L59.9899 144.119C60.4836 142.262 61.3863 140.849 62.6979 139.879C64.0182 138.902 65.5369 138.504 67.254 138.685C68.9789 138.866 70.2154 139.546 70.9635 140.724C71.7116 141.903 71.8333 143.435 71.3285 145.323L70.881 146.89C70.3702 148.761 69.4554 150.177 68.1368 151.138C66.819 152.091 65.3054 152.478 63.5961 152.299C61.8867 152.119 60.6537 151.443 59.897 150.272C59.1489 149.094 59.0303 147.569 59.5411 145.698ZM61.5154 144.067L60.9397 146.069C60.5796 147.178 60.6536 148.081 61.1616 148.779C61.6773 149.477 62.6151 149.898 63.9748 150.041C65.3345 150.184 66.479 149.982 67.4084 149.435C68.3378 148.889 68.9826 148.061 69.3427 146.952L69.9183 144.951C70.2911 143.796 70.2187 142.877 69.7013 142.194C69.184 141.511 68.2415 141.098 66.8741 140.954C65.5144 140.811 64.3698 141.013 63.4404 141.56C62.5196 142.099 61.8779 142.935 61.5154 144.067ZM71.6916 152.855L75.1822 139.824L76.5574 139.969L76.1633 141.589L76.14 141.586C76.6462 141.105 77.2533 140.71 77.9616 140.399C78.6706 140.081 79.433 139.965 80.2488 140.05C80.4586 140.072 80.6547 140.113 80.8371 140.171C81.0203 140.222 81.1573 140.264 81.2481 140.297L80.8302 142.928C80.6555 142.87 80.4801 142.82 80.3038 142.778C80.1284 142.728 79.9358 142.692 79.726 142.67C78.9335 142.587 78.1815 142.716 77.47 143.058C76.7671 143.392 76.1728 143.852 75.6871 144.437L73.1251 153.006L71.6916 152.855ZM79.4769 153.673L84.7219 133.816L86.1554 133.967L82.6095 146.402L89.2609 141.304L92.3727 141.631L82.0641 149.574L80.9104 153.824L79.4769 153.673ZM87.3087 154.496L85.0821 146.533L86.4473 145.427L89.2783 154.703L87.3087 154.496ZM91.097 150.629L92.5305 150.78L92.4116 151.239C92.1803 151.945 92.3061 152.504 92.7891 152.916C93.2729 153.32 93.9966 153.573 94.96 153.675C95.8924 153.772 96.6654 153.704 97.2792 153.47C97.8938 153.229 98.3065 152.777 98.5174 152.116C98.7181 151.477 98.6475 150.916 98.3055 150.432C97.9713 149.949 97.215 149.485 96.0364 149.039C94.7584 148.567 93.9229 147.996 93.5298 147.326C93.1445 146.657 93.0755 145.857 93.3227 144.924C93.6276 143.668 94.2693 142.832 95.2477 142.416C96.2271 141.993 97.4238 141.856 98.8378 142.004C100.267 142.154 101.266 142.668 101.834 143.545C102.402 144.421 102.533 145.413 102.228 146.52L102.123 146.957L100.69 146.806L100.766 146.531C100.998 145.747 100.936 145.139 100.58 144.709C100.226 144.271 99.5938 144.004 98.6848 143.909C97.7913 143.815 97.072 143.857 96.5269 144.035C95.9827 144.206 95.6131 144.584 95.4181 145.168C95.2411 145.731 95.1796 146.203 95.2337 146.586C95.2885 146.961 95.965 147.401 97.263 147.907C98.7511 148.472 99.7392 149.086 100.227 149.75C100.723 150.415 100.831 151.291 100.552 152.377C100.227 153.6 99.5767 154.482 98.6007 155.023C97.6332 155.558 96.3687 155.743 94.8069 155.579C93.2452 155.415 92.1284 154.979 91.4564 154.272C90.7922 153.566 90.6375 152.497 90.9922 151.066L91.097 150.629ZM107.768 150.767L108.216 149.188C108.71 147.331 109.613 145.918 110.924 144.948C112.245 143.971 113.763 143.573 115.481 143.753C117.205 143.935 118.442 144.615 119.19 145.793C119.938 146.971 120.06 148.504 119.555 150.391L119.108 151.959C118.597 153.83 117.682 155.246 116.363 156.207C115.046 157.16 113.532 157.547 111.823 157.368C110.113 157.188 108.88 156.512 108.124 155.341C107.375 154.162 107.257 152.638 107.768 150.767ZM109.742 149.136L109.166 151.138C108.806 152.247 108.88 153.15 109.388 153.848C109.904 154.546 110.842 154.967 112.201 155.11C113.561 155.252 114.706 155.051 115.635 154.504C116.564 153.958 117.209 153.13 117.569 152.021L118.145 150.019C118.518 148.864 118.445 147.946 117.928 147.263C117.41 146.58 116.468 146.167 115.101 146.023C113.741 145.88 112.596 146.082 111.667 146.628C110.746 147.168 110.104 148.004 109.742 149.136ZM120.99 158.037L125.062 143.181C125.462 141.464 126.118 140.197 127.028 139.382C127.939 138.566 129.015 138.224 130.259 138.355C130.507 138.381 130.75 138.422 130.988 138.478C131.233 138.536 131.45 138.602 131.639 138.676L131.178 140.702C131.036 140.64 130.857 140.586 130.642 140.539C130.427 140.485 130.204 140.446 129.971 140.422C129.147 140.335 128.435 140.531 127.835 141.01C127.236 141.481 126.785 142.259 126.482 143.343L125.746 146.199L125.708 146.337L122.424 158.187L120.99 158.037ZM121.809 146.999L122.173 144.763L125.005 145.061L125.308 145.093L128.875 145.468L128.51 147.703L121.809 146.999ZM127.843 158.757L131.914 143.902C132.315 142.184 132.97 140.918 133.881 140.102C134.792 139.287 135.868 138.944 137.112 139.075C137.36 139.101 137.603 139.142 137.841 139.199C138.086 139.256 138.303 139.322 138.492 139.397L138.031 141.422C137.889 141.36 137.71 141.306 137.495 141.26C137.28 141.206 137.057 141.166 136.824 141.142C136 141.055 135.288 141.252 134.688 141.731C134.088 142.202 133.638 142.979 133.335 144.063L132.599 146.919L132.561 147.057L129.277 158.907L127.843 158.757ZM128.662 147.719L129.026 145.483L131.858 145.781L132.161 145.813L135.728 146.188L135.363 148.424L128.662 147.719ZM133.694 159.372L138.939 139.514L140.372 139.665L135.127 159.522L133.694 159.372ZM138.193 159.845L141.671 146.813L143.105 146.963L139.614 159.994L138.193 159.845ZM142.424 144.252C142.493 143.969 142.634 143.744 142.848 143.578C143.07 143.405 143.322 143.333 143.601 143.363C143.889 143.393 144.096 143.513 144.223 143.723C144.359 143.925 144.392 144.168 144.323 144.452C144.253 144.743 144.111 144.975 143.897 145.149C143.683 145.315 143.436 145.384 143.156 145.354C142.869 145.324 142.657 145.208 142.521 145.005C142.394 144.795 142.362 144.544 142.424 144.252ZM142.645 160.312L146.135 147.282L147.51 147.426L147.068 149.277L147.033 149.273C147.708 148.614 148.447 148.157 149.251 147.904C150.063 147.651 150.932 147.574 151.856 147.671C153.068 147.798 153.949 148.205 154.497 148.891C155.053 149.578 155.113 150.877 154.677 152.787L152.283 161.325L150.849 161.175L153.278 152.534C153.532 151.759 153.436 151.14 152.99 150.677C152.552 150.207 151.867 149.923 150.935 149.825C150.08 149.735 149.283 149.879 148.544 150.257C147.806 150.635 147.179 151.099 146.666 151.65L144.078 160.463L142.645 160.312ZM156.041 155.841L156.501 154.263C156.999 152.367 157.884 150.94 159.155 149.982C160.434 149.024 161.877 148.63 163.486 148.799C165.094 148.968 166.208 149.58 166.828 150.635C167.448 151.682 167.5 153.172 166.982 155.105L166.624 156.835L157.044 155.828L157.37 153.954L165.459 154.804L165.565 154.909C165.921 153.69 165.982 152.742 165.746 152.065C165.512 151.38 164.56 150.95 162.889 150.775C161.739 150.654 160.716 150.9 159.819 151.513C158.922 152.125 158.289 153.021 157.922 154.2L157.358 156.203C156.963 157.489 157.028 158.478 157.553 159.169C158.078 159.853 159.032 160.267 160.415 160.413C161.254 160.501 161.991 160.555 162.625 160.574C163.268 160.587 163.913 160.47 164.559 160.224L165.217 161.023C164.686 161.596 163.991 162.006 163.132 162.254C162.281 162.502 161.292 162.567 160.166 162.449C158.402 162.263 157.144 161.605 156.391 160.473C155.645 159.342 155.529 157.798 156.041 155.841ZM172.318 157.033L172.677 154.961L182.921 156.038L182.562 158.11L172.318 157.033ZM188.777 155.039L188.976 153.14L196.016 153.879L195.816 155.779L188.777 155.039ZM190.077 162.057L190.891 154.319L190.933 154.029L191.341 150.148L193.823 150.409L192.581 162.226C192.517 162.84 192.581 163.271 192.775 163.519C192.969 163.768 193.288 163.915 193.73 163.961C193.932 163.983 194.133 163.984 194.331 163.966C194.529 163.947 194.73 163.909 194.932 163.852L194.729 165.787C194.526 165.852 194.261 165.899 193.936 165.927C193.61 165.964 193.249 165.961 192.853 165.92C191.897 165.819 191.161 165.459 190.645 164.839C190.137 164.22 189.948 163.293 190.077 162.057ZM196.803 166.005L198.661 148.325L201.156 148.587L200.389 155.883C200.834 155.387 201.391 155.014 202.062 154.762C202.733 154.503 203.477 154.416 204.293 154.502C205.419 154.62 206.304 155.063 206.946 155.83C207.589 156.588 207.827 157.76 207.66 159.345L206.849 167.061L204.344 166.797L205.142 159.199C205.238 158.289 205.104 157.619 204.741 157.189C204.378 156.758 203.835 156.504 203.112 156.428C202.483 156.362 201.913 156.479 201.402 156.779C200.9 157.072 200.491 157.488 200.175 158.028L199.309 166.268L196.803 166.005ZM209.593 163.826C209.722 162.598 210.304 161.697 211.339 161.122C212.381 160.548 213.659 160.341 215.175 160.5L217.809 160.777L217.897 159.938C217.967 159.27 217.848 158.719 217.54 158.286C217.241 157.846 216.671 157.582 215.832 157.494C215.001 157.407 214.381 157.51 213.973 157.805C213.565 158.1 213.335 158.492 213.284 158.982L213.269 159.122L210.81 158.863L210.827 158.7C210.931 157.713 211.462 156.921 212.42 156.322C213.387 155.725 214.619 155.505 216.119 155.662C217.611 155.819 218.733 156.275 219.487 157.03C220.241 157.777 220.545 158.842 220.4 160.225L219.832 165.632C219.779 166.13 219.768 166.608 219.799 167.067C219.83 167.518 219.902 167.914 220.015 168.256L219.996 168.442L217.56 168.186C217.472 167.981 217.4 167.726 217.346 167.422C217.3 167.11 217.281 166.802 217.29 166.497C216.967 166.95 216.464 167.333 215.779 167.646C215.102 167.952 214.267 168.052 213.272 167.948C212.115 167.826 211.18 167.414 210.468 166.71C209.758 165.999 209.466 165.038 209.593 163.826ZM212.116 163.926C212.049 164.563 212.18 165.08 212.507 165.475C212.843 165.872 213.395 166.111 214.164 166.192C214.957 166.275 215.688 166.081 216.358 165.609C217.036 165.138 217.409 164.581 217.477 163.936L217.636 162.421L215.375 162.183C214.357 162.076 213.576 162.178 213.033 162.491C212.49 162.803 212.184 163.281 212.116 163.926ZM222.155 158.548L222.355 156.648L229.394 157.388L229.195 159.287L222.155 158.548ZM223.456 165.566L224.269 157.827L224.312 157.537L224.72 153.656L227.202 153.917L225.96 165.735C225.895 166.348 225.96 166.779 226.154 167.028C226.348 167.276 226.666 167.423 227.109 167.47C227.311 167.491 227.511 167.492 227.71 167.474C227.908 167.455 228.108 167.418 228.311 167.36L228.107 169.295C227.904 169.36 227.64 169.407 227.315 169.436C226.989 169.472 226.628 169.469 226.232 169.428C225.276 169.327 224.54 168.967 224.024 168.347C223.516 167.728 223.326 166.801 223.456 165.566ZM234.835 152.822L234.679 154.302C234.596 155.095 234.318 155.874 233.844 156.642C233.379 157.402 232.761 158.02 231.988 158.497L230.622 157.364C231.041 156.897 231.372 156.398 231.616 155.866C231.869 155.327 232.031 154.727 232.1 154.066L232.259 152.551L234.835 152.822ZM234.304 166.282L236.75 166.551L236.737 166.679C236.666 167.347 236.848 167.865 237.28 168.232C237.714 168.592 238.319 168.813 239.096 168.895C239.881 168.977 240.502 168.893 240.961 168.643C241.428 168.385 241.688 168.004 241.741 167.499C241.794 166.994 241.64 166.593 241.278 166.296C240.917 165.991 240.119 165.628 238.883 165.207C237.586 164.765 236.613 164.227 235.965 163.593C235.325 162.96 235.056 162.154 235.159 161.175C235.268 160.134 235.776 159.339 236.682 158.79C237.588 158.241 238.752 158.041 240.174 158.191C241.596 158.34 242.7 158.786 243.486 159.529C244.281 160.264 244.618 161.199 244.499 162.333L244.487 162.45L242.039 162.193L242.055 162.041C242.115 161.474 241.974 161.023 241.632 160.689C241.291 160.347 240.736 160.135 239.966 160.054C239.213 159.975 238.647 160.053 238.269 160.288C237.891 160.516 237.679 160.851 237.633 161.294C237.588 161.721 237.758 162.081 238.144 162.373C238.529 162.664 239.337 163.02 240.565 163.44C241.862 163.883 242.826 164.424 243.458 165.064C244.091 165.696 244.352 166.533 244.243 167.574C244.125 168.693 243.615 169.546 242.713 170.135C241.81 170.723 240.543 170.932 238.912 170.76C237.288 170.59 236.081 170.117 235.29 169.343C234.507 168.569 234.178 167.588 234.303 166.399L234.304 166.282ZM40.9022 161.709L43.3613 161.967L44.639 169.654C44.6918 169.974 44.7296 170.249 44.7526 170.479C44.7841 170.703 44.8124 170.957 44.8373 171.242L44.9073 171.25C44.9911 170.976 45.0716 170.733 45.1488 170.521C45.2269 170.301 45.3289 170.041 45.4548 169.74L48.6292 162.521L50.9251 162.762L52.5745 170.5C52.6437 170.814 52.6936 171.086 52.7243 171.317C52.755 171.548 52.7871 171.803 52.8207 172.082L52.879 172.088C52.962 171.821 53.0386 171.578 53.1089 171.358C53.1878 171.13 53.2816 170.873 53.3903 170.586L56.2046 163.317L58.454 163.553L53.5892 175.085L51.3631 174.851L49.6929 167.087C49.6368 166.798 49.5846 166.51 49.5363 166.222C49.488 165.934 49.4475 165.647 49.4147 165.361L49.3565 165.354C49.2571 165.627 49.1539 165.899 49.0468 166.17C48.9475 166.443 48.8404 166.714 48.7256 166.985L45.5009 174.234L43.2632 173.999L40.9022 161.709ZM58.9852 175.652L60.8434 157.972L63.3375 158.234L62.5707 165.53C63.0155 165.034 63.5733 164.661 64.2439 164.409C64.9153 164.15 65.6589 164.063 66.4747 164.149C67.6013 164.267 68.4857 164.71 69.1278 165.476C69.7708 166.235 70.0089 167.407 69.8423 168.992L69.0314 176.708L66.5257 176.444L67.3244 168.845C67.4199 167.936 67.2861 167.266 66.9229 166.835C66.5597 166.405 66.0168 166.151 65.2942 166.075C64.6649 166.009 64.0949 166.126 63.5842 166.426C63.0821 166.718 62.673 167.135 62.357 167.675L61.4909 175.915L58.9852 175.652ZM70.6546 181.78L70.8617 179.81C71.0649 179.895 71.2853 179.965 71.5229 180.021C71.7597 180.086 71.9907 180.129 72.2161 180.153C72.7522 180.209 73.2365 180.048 73.6691 179.67C74.1086 179.299 74.5915 178.517 75.1176 177.324L75.0838 177.308L71.8101 164.957L74.2925 165.218L76.2173 173.138C76.2951 173.445 76.3558 173.726 76.3996 173.982C76.4442 174.231 76.4854 174.475 76.523 174.714L76.5813 174.72C76.668 174.494 76.7628 174.264 76.8658 174.031C76.9696 173.791 77.088 173.524 77.2208 173.232L80.6442 165.886L82.9635 166.129L76.6495 179.005C76.0894 180.148 75.4512 180.988 74.7349 181.525C74.0263 182.064 73.1825 182.281 72.2035 182.179C71.8694 182.143 71.5801 182.093 71.3355 182.028C71.091 181.963 70.864 181.881 70.6546 181.78ZM88.2997 168.611L88.4994 166.711L95.5387 167.451L95.3391 169.351L88.2997 168.611ZM89.6006 175.629L90.414 167.89L90.4562 167.6L90.8641 163.719L93.3466 163.98L92.1045 175.798C92.04 176.412 92.1046 176.843 92.2985 177.091C92.4924 177.339 92.8107 177.487 93.2536 177.533C93.4556 177.554 93.6558 177.556 93.8541 177.537C94.0525 177.519 94.2528 177.481 94.4552 177.424L94.2519 179.358C94.0487 179.423 93.7845 179.47 93.4594 179.499C93.1335 179.535 92.7724 179.533 92.3762 179.491C91.4205 179.391 90.6846 179.031 90.1684 178.411C89.66 177.792 89.4708 176.864 89.6006 175.629ZM96.3264 179.576L98.1846 161.896L100.679 162.159L99.9119 169.454C100.357 168.959 100.914 168.586 101.585 168.334C102.256 168.075 103 167.988 103.816 168.074C104.942 168.192 105.827 168.635 106.469 169.401C107.112 170.16 107.35 171.332 107.184 172.917L106.373 180.632L103.867 180.369L104.666 172.77C104.761 171.861 104.627 171.191 104.264 170.76C103.901 170.329 103.358 170.076 102.635 170C102.006 169.934 101.436 170.051 100.925 170.35C100.423 170.643 100.014 171.06 99.6982 171.6L98.8321 179.84L96.3264 179.576ZM109.31 175.108L109.349 174.735C109.54 172.917 110.207 171.503 111.351 170.492C112.495 169.473 113.898 169.051 115.561 169.226C117.223 169.4 118.454 170.064 119.252 171.216C120.05 172.36 120.354 173.846 120.162 175.672L120.064 176.604L110.834 175.634L111.019 173.874L117.755 174.582L117.779 174.349C117.863 173.556 117.709 172.853 117.318 172.238C116.928 171.616 116.286 171.258 115.392 171.164C114.367 171.056 113.553 171.359 112.952 172.074C112.359 172.781 112 173.73 111.875 174.918L111.822 175.42C111.697 176.608 111.87 177.62 112.34 178.455C112.811 179.282 113.602 179.754 114.713 179.871C115.428 179.946 116.058 179.851 116.604 179.587C117.159 179.315 117.62 178.971 117.986 178.554L119.587 179.912C119.155 180.511 118.501 181.012 117.626 181.414C116.752 181.81 115.716 181.944 114.52 181.819C112.655 181.623 111.273 180.912 110.372 179.686C109.473 178.452 109.119 176.926 109.31 175.108ZM127.088 179.286C127.217 178.059 127.799 177.158 128.833 176.583C129.875 176.009 131.154 175.802 132.669 175.961L135.303 176.238L135.391 175.399C135.461 174.73 135.343 174.18 135.035 173.747C134.735 173.307 134.166 173.043 133.327 172.955C132.495 172.867 131.876 172.971 131.468 173.266C131.06 173.561 130.83 173.953 130.778 174.442L130.764 174.582L128.305 174.324L128.322 174.161C128.425 173.174 128.956 172.381 129.915 171.783C130.881 171.185 132.114 170.965 133.614 171.123C135.105 171.28 136.228 171.736 136.981 172.49C137.735 173.237 138.04 174.302 137.894 175.685L137.326 181.093C137.274 181.59 137.263 182.068 137.293 182.527C137.324 182.978 137.397 183.375 137.51 183.716L137.49 183.903L135.054 183.647C134.966 183.441 134.895 183.186 134.84 182.882C134.794 182.571 134.776 182.263 134.784 181.957C134.462 182.41 133.958 182.793 133.273 183.106C132.597 183.412 131.761 183.513 130.767 183.408C129.609 183.287 128.675 182.874 127.963 182.171C127.252 181.46 126.96 180.498 127.088 179.286ZM129.611 179.387C129.544 180.024 129.674 180.54 130.002 180.936C130.337 181.333 130.889 181.571 131.658 181.652C132.451 181.735 133.182 181.541 133.852 181.07C134.53 180.599 134.903 180.041 134.971 179.396L135.13 177.881L132.869 177.643C131.851 177.536 131.071 177.639 130.527 177.951C129.984 178.263 129.678 178.742 129.611 179.387ZM139.632 189.089L141.399 172.271L143.719 172.515L143.629 174.037L143.688 174.044C144.027 173.584 144.529 173.217 145.194 172.941C145.867 172.666 146.611 172.572 147.427 172.657C148.942 172.817 150.092 173.499 150.877 174.705C151.67 175.904 151.972 177.397 151.785 179.184L151.745 179.557C151.558 181.336 150.955 182.738 149.937 183.762C148.918 184.778 147.656 185.207 146.148 185.049C145.333 184.963 144.641 184.745 144.073 184.394C143.512 184.045 143.083 183.607 142.785 183.081L142.126 189.351L139.632 189.089ZM143.026 180.785C143.191 181.313 143.501 181.797 143.958 182.238C144.422 182.679 145.007 182.937 145.714 183.012C146.763 183.122 147.572 182.83 148.14 182.135C148.715 181.442 149.064 180.512 149.187 179.347L149.238 178.857C149.361 177.692 149.212 176.714 148.793 175.923C148.381 175.134 147.65 174.684 146.601 174.574C145.886 174.499 145.26 174.629 144.722 174.965C144.192 175.295 143.788 175.7 143.51 176.181L143.026 180.785ZM153.058 190.5L154.825 173.682L157.145 173.926L157.055 175.449L157.114 175.455C157.453 174.995 157.955 174.628 158.62 174.352C159.293 174.077 160.037 173.983 160.853 174.068C162.368 174.228 163.518 174.91 164.303 176.116C165.096 177.315 165.398 178.808 165.211 180.595L165.171 180.968C164.984 182.747 164.381 184.149 163.363 185.173C162.344 186.189 161.082 186.618 159.574 186.46C158.759 186.374 158.067 186.156 157.499 185.806C156.938 185.456 156.509 185.018 156.211 184.492L155.552 190.762L153.058 190.5ZM156.452 182.196C156.617 182.724 156.927 183.208 157.384 183.649C157.848 184.09 158.433 184.348 159.14 184.423C160.189 184.533 160.998 184.241 161.566 183.546C162.141 182.853 162.49 181.923 162.613 180.758L162.664 180.268C162.787 179.103 162.638 178.125 162.219 177.335C161.807 176.545 161.076 176.095 160.027 175.985C159.313 175.91 158.686 176.04 158.148 176.376C157.618 176.706 157.215 177.111 156.936 177.592L156.452 182.196ZM172.547 187.588L174.405 169.908L176.899 170.17L176.133 177.465C176.578 176.97 177.135 176.597 177.806 176.345C178.477 176.086 179.221 175.999 180.037 176.085C181.163 176.203 182.048 176.646 182.69 177.412C183.333 178.171 183.571 179.343 183.404 180.928L182.593 188.643L180.088 188.38L180.886 180.781C180.982 179.872 180.848 179.202 180.485 178.771C180.122 178.34 179.579 178.087 178.856 178.011C178.227 177.945 177.657 178.062 177.146 178.361C176.644 178.654 176.235 179.071 175.919 179.611L175.053 187.851L172.547 187.588ZM185.337 185.409C185.466 184.181 186.048 183.28 187.082 182.705C188.125 182.131 189.403 181.924 190.918 182.083L193.552 182.36L193.641 181.521C193.711 180.853 193.592 180.302 193.284 179.869C192.985 179.429 192.415 179.165 191.576 179.077C190.745 178.989 190.125 179.093 189.717 179.388C189.309 179.683 189.079 180.075 189.028 180.565L189.013 180.705L186.554 180.446L186.571 180.283C186.675 179.296 187.206 178.504 188.164 177.905C189.131 177.308 190.363 177.088 191.863 177.245C193.355 177.402 194.477 177.858 195.231 178.613C195.985 179.36 196.289 180.425 196.144 181.808L195.576 187.215C195.523 187.713 195.512 188.191 195.543 188.649C195.574 189.1 195.646 189.497 195.759 189.839L195.74 190.025L193.304 189.769C193.216 189.563 193.144 189.309 193.09 189.004C193.044 188.693 193.025 188.385 193.034 188.079C192.711 188.532 192.207 188.915 191.523 189.228C190.846 189.534 190.011 189.635 189.016 189.531C187.859 189.409 186.924 188.996 186.212 188.293C185.502 187.582 185.21 186.621 185.337 185.409ZM187.86 185.509C187.793 186.146 187.923 186.662 188.251 187.058C188.586 187.455 189.139 187.694 189.908 187.774C190.7 187.858 191.432 187.663 192.102 187.192C192.78 186.721 193.153 186.163 193.22 185.518L193.38 184.003L191.119 183.766C190.101 183.659 189.32 183.761 188.777 184.073C188.233 184.385 187.928 184.864 187.86 185.509ZM198.09 186.608L200.537 186.877L200.523 187.005C200.453 187.673 200.634 188.191 201.067 188.558C201.5 188.918 202.106 189.139 202.883 189.221C203.667 189.303 204.289 189.219 204.747 188.969C205.214 188.711 205.474 188.33 205.527 187.825C205.58 187.32 205.426 186.919 205.065 186.622C204.704 186.317 203.905 185.954 202.669 185.533C201.372 185.091 200.4 184.553 199.752 183.919C199.111 183.286 198.842 182.48 198.945 181.501C199.055 180.46 199.562 179.665 200.468 179.116C201.375 178.567 202.539 178.367 203.96 178.517C205.382 178.666 206.486 179.112 207.272 179.855C208.067 180.59 208.405 181.525 208.285 182.659L208.273 182.776L205.826 182.519L205.842 182.367C205.901 181.8 205.76 181.349 205.418 181.015C205.077 180.673 204.522 180.461 203.753 180.38C202.999 180.301 202.433 180.379 202.055 180.614C201.678 180.842 201.466 181.177 201.419 181.62C201.374 182.047 201.544 182.407 201.93 182.699C202.316 182.99 203.123 183.346 204.351 183.766C205.648 184.209 206.612 184.75 207.244 185.39C207.877 186.022 208.139 186.859 208.029 187.9C207.912 189.019 207.402 189.872 206.499 190.461C205.597 191.049 204.33 191.258 202.698 191.086C201.074 190.916 199.867 190.443 199.077 189.669C198.294 188.895 197.965 187.914 198.09 186.725L198.09 186.608ZM38.1752 193.932L40.6215 194.201L40.608 194.329C40.5378 194.997 40.719 195.515 41.1517 195.883C41.5852 196.243 42.1905 196.463 42.9674 196.545C43.7522 196.627 44.3737 196.544 44.8321 196.293C45.299 196.036 45.5591 195.655 45.6121 195.15C45.6652 194.645 45.511 194.244 45.1495 193.946C44.7887 193.641 43.9902 193.279 42.754 192.858C41.4572 192.415 40.4847 191.877 39.8365 191.243C39.196 190.61 38.9272 189.804 39.0301 188.825C39.1395 187.784 39.6473 186.989 40.5534 186.44C41.4595 185.891 42.6235 185.692 44.0453 185.841C45.4672 185.991 46.5711 186.437 47.3572 187.179C48.1519 187.915 48.4896 188.85 48.3703 189.984L48.3581 190.1L45.9106 189.843L45.9266 189.692C45.9862 189.125 45.845 188.674 45.5031 188.339C45.162 187.997 44.6069 187.786 43.8377 187.705C43.084 187.625 42.5181 187.703 42.1398 187.939C41.7624 188.166 41.5505 188.501 41.5039 188.944C41.459 189.371 41.6294 189.731 42.015 190.023C42.4007 190.315 43.2078 190.671 44.4362 191.09C45.733 191.533 46.6973 192.074 47.3292 192.714C47.9619 193.346 48.2236 194.183 48.1142 195.224C47.9966 196.343 47.4866 197.197 46.5842 197.785C45.6817 198.374 44.4147 198.582 42.7831 198.411C41.1592 198.24 39.952 197.768 39.1614 196.993C38.3786 196.22 38.0497 195.239 38.1746 194.05L38.1752 193.932ZM48.7994 203.615L49.0064 201.646C49.2097 201.73 49.4301 201.8 49.6677 201.856C49.9045 201.921 50.1355 201.965 50.3608 201.988C50.8969 202.045 51.3813 201.883 51.8139 201.505C52.2534 201.135 52.7362 200.353 53.2623 199.159L53.2286 199.143L49.9548 186.792L52.4373 187.053L54.3621 194.974C54.4398 195.28 54.5006 195.562 54.5444 195.818C54.589 196.066 54.6301 196.31 54.6678 196.549L54.7261 196.555C54.8127 196.329 54.9076 196.099 55.0106 195.867C55.1144 195.626 55.2327 195.36 55.3656 195.067L58.789 187.721L61.1082 187.965L54.7942 200.84C54.2342 201.983 53.596 202.823 52.8796 203.361C52.171 203.899 51.3272 204.117 50.3483 204.014C50.0142 203.979 49.7248 203.928 49.4803 203.863C49.2358 203.799 49.0088 203.716 48.7994 203.615ZM61.0881 196.34L63.5343 196.609L63.5208 196.737C63.4506 197.406 63.6318 197.923 64.0645 198.291C64.4981 198.651 65.1033 198.872 65.8803 198.953C66.665 199.036 67.2866 198.952 67.7449 198.701C68.2119 198.444 68.4719 198.063 68.525 197.558C68.5781 197.053 68.4238 196.652 68.0623 196.355C67.7016 196.05 66.9031 195.687 65.6669 195.266C64.3701 194.823 63.3976 194.285 62.7493 193.652C62.1089 193.019 61.8401 192.213 61.943 191.234C62.0524 190.193 62.5601 189.398 63.4662 188.849C64.3723 188.3 65.5363 188.1 66.9582 188.249C68.38 188.399 69.484 188.845 70.27 189.587C71.0647 190.323 71.4024 191.258 71.2832 192.392L71.2709 192.509L68.8235 192.251L68.8394 192.1C68.899 191.533 68.7579 191.082 68.416 190.748C68.0749 190.405 67.5197 190.194 66.7505 190.113C65.9969 190.034 65.4309 190.112 65.0527 190.347C64.6753 190.574 64.4633 190.909 64.4168 191.352C64.3719 191.78 64.5422 192.139 64.9279 192.431C65.3136 192.723 66.1206 193.079 67.3491 193.499C68.6459 193.941 69.6102 194.483 70.2421 195.123C70.8748 195.755 71.1364 196.591 71.027 197.632C70.9094 198.751 70.3994 199.605 69.497 200.194C68.5946 200.782 67.3276 200.991 65.6959 200.819C64.0721 200.648 62.8649 200.176 62.0743 199.402C61.2915 198.628 60.9625 197.647 61.0875 196.458L61.0881 196.34ZM72.6214 191.095L72.8211 189.196L79.8604 189.935L79.6608 191.835L72.6214 191.095ZM73.9223 198.113L74.7356 190.375L74.7779 190.085L75.1858 186.204L77.6682 186.465L76.4261 198.282C76.3616 198.896 76.4263 199.327 76.6202 199.575C76.814 199.824 77.1324 199.971 77.5753 200.017C77.7773 200.039 77.9775 200.04 78.1758 200.022C78.3741 200.003 78.5745 199.965 78.7769 199.908L78.5736 201.843C78.3703 201.908 78.1062 201.955 77.7811 201.983C77.4552 202.02 77.0941 202.017 76.6978 201.975C75.7422 201.875 75.0063 201.515 74.4901 200.895C73.9817 200.276 73.7924 199.349 73.9223 198.113ZM80.5551 196.218L80.5943 195.845C80.7854 194.027 81.4526 192.613 82.5958 191.602C83.7398 190.583 85.1431 190.161 86.8059 190.335C88.4686 190.51 89.6989 191.174 90.4969 192.326C91.2957 193.47 91.5992 194.956 91.4073 196.781L91.3093 197.714L82.0789 196.744L82.2638 194.984L89.0002 195.692L89.0247 195.459C89.108 194.666 88.9541 193.963 88.5631 193.348C88.1729 192.726 87.531 192.368 86.6375 192.274C85.6119 192.166 84.7984 192.469 84.197 193.184C83.6041 193.891 83.2452 194.84 83.1203 196.028L83.0676 196.529C82.9427 197.718 83.1152 198.73 83.5852 199.565C84.056 200.392 84.8469 200.864 85.958 200.981C86.6728 201.056 87.3034 200.961 87.8496 200.697C88.4045 200.425 88.8649 200.081 89.2308 199.664L90.832 201.022C90.3998 201.621 89.7463 202.121 88.8712 202.524C87.997 202.92 86.9616 203.054 85.7651 202.929C83.9004 202.733 82.5179 202.022 81.6176 200.796C80.7182 199.562 80.3641 198.036 80.5551 196.218ZM93.0718 203.367L94.3237 191.456L96.6546 191.701L96.5629 193.246L96.6211 193.252C97.0831 192.743 97.6335 192.365 98.2722 192.118C98.9117 191.863 99.5966 191.774 100.327 191.851C101.143 191.937 101.828 192.178 102.384 192.574C102.947 192.971 103.332 193.534 103.538 194.262L103.584 194.267C104.116 193.616 104.722 193.157 105.402 192.891C106.09 192.626 106.838 192.535 107.646 192.62C108.843 192.746 109.754 193.195 110.38 193.968C111.014 194.734 111.246 195.929 111.075 197.552L110.274 205.175L107.768 204.911L108.571 197.277C108.664 196.384 108.541 195.727 108.2 195.306C107.868 194.878 107.356 194.628 106.665 194.556C106.051 194.491 105.501 194.606 105.014 194.901C104.528 195.195 104.119 195.608 103.788 196.139L102.92 204.402L100.414 204.138L101.215 196.516C101.31 195.615 101.187 194.954 100.846 194.533C100.514 194.105 99.9985 193.855 99.2993 193.781C98.6932 193.718 98.1469 193.833 97.6604 194.128C97.1738 194.422 96.769 194.835 96.446 195.367L95.5776 203.63L93.0718 203.367ZM118.828 206.074L120.08 194.163L122.423 194.409L122.336 195.908L122.394 195.914C122.733 195.455 123.162 195.072 123.682 194.765C124.209 194.459 124.798 194.34 125.451 194.409C125.622 194.427 125.795 194.465 125.969 194.522C126.153 194.573 126.281 194.618 126.356 194.657L126.124 196.86C125.98 196.813 125.823 196.773 125.654 196.74C125.485 196.699 125.3 196.667 125.098 196.646C124.477 196.581 123.91 196.698 123.4 196.998C122.889 197.298 122.489 197.703 122.2 198.215L121.346 206.338L118.828 206.074ZM126.591 201.057L126.63 200.684C126.821 198.866 127.488 197.451 128.631 196.44C129.775 195.421 131.179 194.999 132.841 195.174C134.504 195.349 135.734 196.012 136.532 197.164C137.331 198.309 137.635 199.794 137.443 201.62L137.345 202.552L128.114 201.582L128.299 199.822L135.036 200.53L135.06 200.297C135.143 199.505 134.99 198.801 134.599 198.187C134.208 197.564 133.566 197.206 132.673 197.112C131.647 197.005 130.834 197.308 130.232 198.022C129.64 198.73 129.281 199.678 129.156 200.867L129.103 201.368C128.978 202.557 129.151 203.569 129.621 204.404C130.091 205.231 130.882 205.703 131.993 205.819C132.708 205.895 133.339 205.8 133.885 205.535C134.44 205.264 134.9 204.919 135.266 204.502L136.867 205.86C136.435 206.459 135.782 206.96 134.907 207.363C134.032 207.758 132.997 207.893 131.801 207.767C129.936 207.571 128.553 206.86 127.653 205.634C126.754 204.401 126.4 202.875 126.591 201.057ZM139.014 202.363L139.054 201.99C139.238 200.234 139.848 198.844 140.882 197.822C141.917 196.792 143.185 196.355 144.684 196.513C145.539 196.603 146.248 196.846 146.811 197.243C147.382 197.641 147.793 198.101 148.045 198.622L148.103 198.628L148.331 197.132L150.65 197.376L148.883 214.193L146.389 213.931L147.05 207.638C146.657 208.091 146.153 208.435 145.539 208.669C144.933 208.904 144.207 208.977 143.36 208.888C141.845 208.728 140.696 208.042 139.912 206.828C139.129 205.607 138.83 204.119 139.014 202.363ZM141.563 202.666C141.441 203.831 141.588 204.817 142.006 205.623C142.425 206.421 143.155 206.875 144.196 206.984C144.903 207.059 145.526 206.931 146.063 206.603C146.609 206.268 147.014 205.855 147.277 205.364L147.763 200.737C147.599 200.209 147.288 199.732 146.83 199.307C146.38 198.875 145.798 198.621 145.083 198.546C144.042 198.437 143.233 198.733 142.657 199.434C142.081 200.128 141.732 201.057 141.61 202.223L141.563 202.666ZM152.868 205.315L153.669 197.693L156.174 197.956L155.373 205.578C155.277 206.495 155.407 207.165 155.763 207.587C156.127 208.01 156.667 208.26 157.381 208.335C158.011 208.401 158.581 208.284 159.091 207.984C159.61 207.685 160.03 207.274 160.352 206.75L161.221 198.487L163.727 198.75L162.475 210.661L160.144 210.416L160.223 208.881L160.176 208.876C159.714 209.385 159.152 209.762 158.49 210.007C157.836 210.252 157.12 210.334 156.343 210.252C155.154 210.127 154.235 209.681 153.585 208.914C152.936 208.138 152.697 206.939 152.868 205.315ZM165.691 210.999L166.943 199.088L169.449 199.352L168.197 211.263L165.691 210.999ZM167.062 195.377C167.105 194.973 167.268 194.649 167.553 194.404C167.847 194.152 168.239 194.051 168.728 194.103C169.218 194.154 169.58 194.33 169.816 194.63C170.051 194.929 170.147 195.285 170.104 195.697C170.062 196.101 169.894 196.429 169.6 196.681C169.307 196.925 168.916 197.021 168.427 196.97C167.937 196.918 167.575 196.743 167.339 196.443C167.112 196.137 167.02 195.781 167.062 195.377ZM171.39 211.598L172.642 199.687L174.985 199.933L174.898 201.433L174.956 201.439C175.295 200.979 175.724 200.596 176.244 200.29C176.771 199.984 177.361 199.865 178.013 199.934C178.184 199.952 178.357 199.989 178.532 200.047C178.715 200.098 178.844 200.143 178.918 200.182L178.686 202.385C178.542 202.338 178.385 202.298 178.216 202.264C178.047 202.223 177.862 202.192 177.66 202.171C177.039 202.105 176.473 202.223 175.962 202.522C175.451 202.822 175.051 203.228 174.762 203.74L173.908 211.863L171.39 211.598ZM179.153 206.581L179.192 206.208C179.383 204.39 180.05 202.976 181.193 201.965C182.337 200.946 183.741 200.524 185.403 200.699C187.066 200.873 188.296 201.537 189.094 202.689C189.893 203.833 190.197 205.319 190.005 207.144L189.907 208.077L180.676 207.107L180.861 205.347L187.598 206.055L187.622 205.822C187.705 205.029 187.552 204.326 187.161 203.711C186.77 203.089 186.129 202.731 185.235 202.637C184.209 202.529 183.396 202.832 182.794 203.547C182.202 204.254 181.843 205.203 181.718 206.391L181.665 206.892C181.54 208.081 181.713 209.093 182.183 209.928C182.654 210.755 183.444 211.227 184.556 211.344C185.27 211.419 185.901 211.324 186.447 211.06C187.002 210.788 187.462 210.444 187.828 210.027L189.43 211.385C188.997 211.984 188.344 212.484 187.469 212.887C186.595 213.283 185.559 213.417 184.363 213.292C182.498 213.096 181.115 212.385 180.215 211.159C179.316 209.925 178.962 208.399 179.153 206.581ZM191.669 213.73L192.921 201.819L195.252 202.064L195.16 203.609L195.219 203.615C195.681 203.106 196.231 202.728 196.87 202.481C197.509 202.226 198.194 202.137 198.925 202.214C199.74 202.3 200.426 202.541 200.981 202.937C201.544 203.334 201.929 203.897 202.135 204.625L202.182 204.63C202.714 203.979 203.32 203.52 204 203.254C204.688 202.989 205.436 202.898 206.244 202.983C207.44 203.109 208.351 203.558 208.977 204.331C209.611 205.097 209.843 206.292 209.673 207.915L208.871 215.538L206.366 215.274L207.168 207.64C207.262 206.747 207.139 206.09 206.798 205.669C206.466 205.241 205.954 204.991 205.262 204.919C204.649 204.854 204.098 204.969 203.612 205.264C203.125 205.558 202.717 205.971 202.386 206.502L201.517 214.765L199.012 214.501L199.813 206.879C199.908 205.978 199.785 205.317 199.444 204.896C199.112 204.468 198.596 204.218 197.897 204.144C197.291 204.081 196.744 204.196 196.258 204.491C195.771 204.785 195.367 205.198 195.044 205.73L194.175 213.993L191.669 213.73ZM211.785 210.011L211.825 209.638C212.016 207.82 212.683 206.405 213.826 205.394C214.97 204.376 216.373 203.954 218.036 204.128C219.699 204.303 220.929 204.967 221.727 206.119C222.526 207.263 222.829 208.748 222.638 210.574L222.54 211.507L213.309 210.537L213.494 208.777L220.23 209.485L220.255 209.252C220.338 208.459 220.184 207.756 219.793 207.141C219.403 206.519 218.761 206.161 217.868 206.067C216.842 205.959 216.029 206.262 215.427 206.977C214.834 207.684 214.476 208.632 214.351 209.821L214.298 210.322C214.173 211.511 214.345 212.523 214.815 213.358C215.286 214.185 216.077 214.657 217.188 214.774C217.903 214.849 218.534 214.754 219.08 214.49C219.635 214.218 220.095 213.874 220.461 213.456L222.062 214.815C221.63 215.414 220.977 215.914 220.101 216.317C219.227 216.712 218.192 216.847 216.995 216.721C215.131 216.525 213.748 215.814 212.848 214.589C211.948 213.355 211.594 211.829 211.785 210.011ZM224.302 217.159L225.554 205.248L227.885 205.493L227.796 207.016L227.854 207.022C228.292 206.518 228.842 206.144 229.504 205.899C230.167 205.647 230.886 205.561 231.663 205.643C232.86 205.769 233.784 206.212 234.434 206.971C235.093 207.732 235.337 208.924 235.166 210.548L234.36 218.217L231.854 217.953L232.657 210.319C232.751 209.418 232.621 208.756 232.264 208.334C231.908 207.912 231.369 207.662 230.646 207.586C230.032 207.522 229.463 207.635 228.937 207.925C228.42 208.217 227.999 208.628 227.676 209.16L226.808 217.423L224.302 217.159ZM236.881 208.36L237.08 206.46L244.12 207.2L243.92 209.099L236.881 208.36ZM238.182 215.378L238.995 207.639L239.037 207.349L239.445 203.468L241.928 203.729L240.685 215.547C240.621 216.16 240.686 216.591 240.879 216.84C241.073 217.088 241.392 217.235 241.835 217.282C242.037 217.303 242.237 217.304 242.435 217.286C242.633 217.268 242.834 217.23 243.036 217.172L242.833 219.107C242.63 219.172 242.365 219.219 242.04 219.248C241.714 219.284 241.353 219.281 240.957 219.24C240.001 219.139 239.266 218.779 238.749 218.159C238.241 217.54 238.052 216.613 238.182 215.378ZM244.601 215.628L247.047 215.897L247.033 216.025C246.963 216.694 247.144 217.211 247.577 217.579C248.011 217.939 248.616 218.159 249.393 218.241C250.178 218.324 250.799 218.24 251.258 217.989C251.724 217.732 251.985 217.351 252.038 216.846C252.091 216.341 251.936 215.94 251.575 215.642C251.214 215.337 250.416 214.975 249.179 214.554C247.883 214.111 246.91 213.573 246.262 212.94C245.621 212.307 245.353 211.501 245.456 210.522C245.565 209.481 246.073 208.686 246.979 208.137C247.885 207.588 249.049 207.388 250.471 207.537C251.893 207.687 252.997 208.133 253.783 208.875C254.577 209.611 254.915 210.546 254.796 211.68L254.784 211.797L252.336 211.539L252.352 211.388C252.412 210.821 252.27 210.37 251.929 210.035C251.587 209.693 251.032 209.482 250.263 209.401C249.509 209.322 248.944 209.4 248.565 209.635C248.188 209.862 247.976 210.197 247.929 210.64C247.884 211.068 248.055 211.427 248.44 211.719C248.826 212.011 249.633 212.367 250.862 212.787C252.158 213.229 253.123 213.771 253.755 214.41C254.387 215.043 254.649 215.879 254.54 216.92C254.422 218.039 253.912 218.893 253.01 219.481C252.107 220.07 250.84 220.279 249.209 220.107C247.585 219.936 246.377 219.464 245.587 218.69C244.804 217.916 244.475 216.935 244.6 215.746L244.601 215.628ZM35.8803 215.655L35.9195 215.282C36.1114 213.456 36.7945 212.039 37.9688 211.032C39.143 210.024 40.6043 209.612 42.3524 209.795C44.1006 209.979 45.4443 210.686 46.3833 211.916C47.3224 213.146 47.696 214.674 47.5041 216.5L47.4649 216.873C47.2738 218.691 46.5907 220.107 45.4156 221.123C44.2414 222.131 42.7801 222.543 41.032 222.359C39.2838 222.175 37.9401 221.469 37.0011 220.239C36.0628 219.001 35.6892 217.473 35.8803 215.655ZM38.478 215.492L38.4265 215.981C38.3016 217.17 38.4749 218.174 38.9465 218.994C39.4181 219.813 40.1823 220.278 41.239 220.389C42.3034 220.501 43.1476 220.205 43.7715 219.501C44.4032 218.797 44.7819 217.847 44.9077 216.651L44.9579 216.173C45.0836 214.977 44.9103 213.972 44.4379 213.161C43.9663 212.341 43.2021 211.876 42.1454 211.765C41.0887 211.654 40.2446 211.95 39.6129 212.654C38.982 213.349 38.6037 214.295 38.478 215.492ZM49.8072 222.951L51.233 209.386C51.3833 207.956 51.8814 206.916 52.7273 206.267C53.5741 205.61 54.6424 205.349 55.9322 205.484C56.1963 205.512 56.455 205.555 56.7081 205.613C56.9613 205.671 57.2011 205.743 57.4277 205.83L57.1065 207.764C56.9466 207.716 56.7747 207.67 56.5907 207.627C56.4075 207.577 56.2187 207.541 56.0245 207.521C55.3718 207.452 54.846 207.597 54.4469 207.956C54.0487 208.307 53.8063 208.894 53.7197 209.718L53.476 212.037L53.4527 212.258L52.3012 223.214L49.8072 222.951ZM48.9947 212.744L49.1943 210.844L51.9565 211.135L52.3993 211.181L56.0122 211.561L55.8126 213.461L48.9947 212.744ZM61.49 220.656C61.619 219.429 62.2008 218.527 63.2353 217.953C64.2775 217.379 65.5562 217.171 67.0713 217.331L69.7052 217.608L69.7934 216.768C69.8637 216.1 69.7448 215.55 69.4368 215.117C69.1374 214.677 68.5681 214.413 67.729 214.324C66.8976 214.237 66.2779 214.341 65.8699 214.636C65.4618 214.931 65.232 215.323 65.1806 215.812L65.1659 215.952L62.7068 215.694L62.7239 215.53C62.8277 214.544 63.3587 213.751 64.3171 213.153C65.2833 212.555 66.5162 212.335 68.0158 212.493C69.5076 212.65 70.6301 213.105 71.3835 213.86C72.1377 214.607 72.4421 215.672 72.2967 217.055L71.7283 222.463C71.6761 222.96 71.6651 223.438 71.6954 223.897C71.7266 224.348 71.7988 224.744 71.9121 225.086L71.8925 225.273L69.4567 225.017C69.3684 224.811 69.297 224.556 69.2426 224.252C69.1967 223.941 69.178 223.632 69.1866 223.327C68.864 223.78 68.3603 224.163 67.6754 224.476C66.9991 224.782 66.1637 224.883 65.1691 224.778C64.0114 224.656 63.0768 224.244 62.3651 223.541C61.6543 222.83 61.3626 221.868 61.49 220.656ZM64.0129 220.756C63.9459 221.393 64.0762 221.91 64.4038 222.306C64.7392 222.702 65.2915 222.941 66.0607 223.022C66.8532 223.105 67.5846 222.911 68.2547 222.439C68.9326 221.969 69.3055 221.411 69.3733 220.766L69.5325 219.251L67.2715 219.013C66.2537 218.906 65.4731 219.009 64.9297 219.321C64.3863 219.633 64.0807 220.111 64.0129 220.756ZM77.8839 231.947L79.9401 228.416C80.4967 228.875 81.3745 229.305 82.5735 229.706C83.7803 230.108 85.0986 230.384 86.5282 230.534C87.818 230.67 88.9715 230.607 89.9889 230.344C91.014 230.083 91.6535 229.53 91.9073 228.684L92.4018 225.437C91.6728 226.02 90.7517 226.45 89.6387 226.725C88.5342 226.994 87.2672 227.054 85.8376 226.903C83.4056 226.648 81.5833 225.898 80.3707 224.656C79.158 223.413 78.8245 221.803 79.3701 219.825L79.4627 219.505C80.0152 217.536 81.186 216.077 82.9749 215.126C84.7646 214.167 86.8909 213.817 89.3539 214.076C90.7059 214.218 91.8595 214.528 92.8148 215.005C93.7709 215.475 94.3924 216.027 94.6791 216.662L94.7607 216.671L95.2358 214.953L101.168 215.577L97.9884 228.451C97.3365 230.842 95.8927 232.509 93.6568 233.452C91.4287 234.396 88.8618 234.715 85.9559 234.41C84.1067 234.216 82.4681 233.886 81.04 233.422C79.6112 232.965 78.5592 232.474 77.8839 231.947ZM85.436 220.746C85.2272 221.462 85.4152 222.028 86 222.443C86.5857 222.85 87.4845 223.117 88.6966 223.245C89.7688 223.357 90.6848 223.312 91.4445 223.109C92.2121 222.907 92.7833 222.629 93.1582 222.276L93.8578 220.217C93.6892 219.728 93.2808 219.316 92.6326 218.98C91.9922 218.646 91.1514 218.424 90.1103 218.315C88.8283 218.18 87.815 218.254 87.0704 218.537C86.3258 218.82 85.8605 219.286 85.6745 219.934L85.436 220.746ZM100.606 224.508C100.995 223.127 102.015 222.17 103.665 221.636C105.325 221.096 107.526 220.97 110.269 221.258L114.905 221.769L115.104 220.883C115.201 220.626 115.015 220.418 114.545 220.258C114.075 220.099 113.276 219.96 112.15 219.842C111.046 219.726 110.215 219.709 109.657 219.792C109.099 219.867 108.776 220.06 108.688 220.373L108.635 220.544L102.889 219.941L102.931 219.768C103.335 218.318 104.472 217.33 106.342 216.804C108.219 216.278 110.572 216.164 113.4 216.462C116.26 216.762 118.347 217.343 119.663 218.204C120.987 219.058 121.443 220.21 121.032 221.659L119.435 227.654C119.301 228.111 119.234 228.56 119.235 229C119.244 229.433 119.316 229.798 119.45 230.094L119.397 230.266L113.418 229.637C113.343 229.449 113.297 229.212 113.28 228.928C113.263 228.643 113.282 228.35 113.337 228.05C112.835 228.492 111.929 228.817 110.619 229.025C109.316 229.234 107.783 229.245 106.02 229.06C104.062 228.854 102.581 228.365 101.578 227.592C100.576 226.811 100.252 225.783 100.606 224.508ZM106.748 224.706C106.628 225.102 106.778 225.396 107.197 225.59C107.617 225.783 108.39 225.939 109.517 226.057C110.667 226.178 111.685 226.132 112.571 225.919C113.458 225.706 113.986 225.31 114.157 224.731L114.292 224.344L110.774 223.963C109.538 223.833 108.584 223.834 107.91 223.968C107.244 224.102 106.857 224.348 106.748 224.706ZM121.389 230.475L124.827 218.063L130.759 218.687L130.329 220.762C131.182 219.965 132.176 219.441 133.31 219.191C134.452 218.941 135.644 218.882 136.887 219.013C138.27 219.158 139.398 219.528 140.27 220.122C141.143 220.717 141.672 221.432 141.859 222.269L141.813 222.264C142.725 221.504 143.894 220.959 145.319 220.629C146.753 220.293 148.181 220.2 149.602 220.349C151.475 220.546 152.905 221.219 153.892 222.367C154.879 223.508 155.068 225.264 154.457 227.635L152.659 233.762L146.598 233.125L148.379 227.055C148.542 226.255 148.431 225.623 148.048 225.158C147.674 224.687 146.997 224.396 146.019 224.285C145.181 224.189 144.429 224.279 143.764 224.555C143.098 224.831 142.509 225.24 141.997 225.783L140.048 232.436L133.976 231.798L135.728 225.784C135.916 224.963 135.816 224.313 135.426 223.832C135.045 223.352 134.361 223.06 133.374 222.956C132.566 222.871 131.826 222.958 131.155 223.218C130.491 223.478 129.897 223.899 129.372 224.48L127.45 231.112L121.389 230.475ZM156.118 227.868L156.197 227.558C156.753 225.559 158.133 224.089 160.337 223.151C162.55 222.205 165.136 221.887 168.096 222.199C171.088 222.513 173.278 223.313 174.667 224.598C176.064 225.876 176.488 227.488 175.938 229.433L175.541 230.97L159.9 229.326L160.506 227.033L170.215 228.054L170.255 228.235C170.394 227.652 170.26 227.179 169.85 226.813C169.449 226.449 168.459 226.184 166.882 226.018C165.577 225.881 164.528 225.952 163.737 226.23C162.947 226.5 162.438 227.044 162.211 227.861L161.937 228.786C161.706 229.634 161.892 230.254 162.495 230.648C163.098 231.041 164.133 231.315 165.602 231.469C166.651 231.579 167.56 231.596 168.33 231.52C169.101 231.436 169.843 231.18 170.556 230.753L174.274 233.382C173.454 234.309 172.225 234.938 170.588 235.269C168.959 235.593 166.995 235.634 164.695 235.392C161.595 235.066 159.248 234.262 157.655 232.979C156.062 231.688 155.55 229.984 156.118 227.868Z" fill="black"/>
<rect x="41.1492" y="100.372" width="239.447" height="129.502" rx="18" transform="rotate(6 41.1492 100.372)" stroke="black" stroke-width="3"/>
</svg>
