<svg width="539" height="245" viewBox="0 0 539 245" fill="none" xmlns="http://www.w3.org/2000/svg">
<path d="M259.905 28.5469C264.881 28.8077 268.823 29.0116 271.982 29.4371C275.182 29.868 277.884 30.5602 280.315 31.9635C284.247 34.2337 287.359 37.6901 289.205 41.8379C290.347 44.4019 290.753 47.1614 290.847 50.3886C290.94 53.5749 290.731 57.5171 290.47 62.4929L288.622 97.7629C288.361 102.739 288.157 106.681 287.731 109.84C287.3 113.04 286.608 115.742 285.205 118.173C282.935 122.104 279.478 125.217 275.331 127.063C272.767 128.205 270.007 128.611 266.78 128.705C263.594 128.798 259.651 128.589 254.676 128.328L64.7068 118.372C59.731 118.111 55.7886 117.907 52.6294 117.482C49.4297 117.051 46.7278 116.359 44.2971 114.956C40.365 112.685 37.2519 109.229 35.4052 105.081C34.2637 102.517 33.8587 99.7575 33.7645 96.5304C33.6716 93.3441 33.8809 89.4018 34.1417 84.4261L36.2853 43.5243C36.4025 41.2878 36.3801 40.9429 36.3126 40.6888C36.223 40.3521 36.0638 40.0373 35.8456 39.7656C35.681 39.5607 35.4169 39.3388 33.5455 38.1078L13.8715 25.1679C13.1924 24.7212 12.5049 24.2722 11.996 23.8785C11.7361 23.6774 11.3927 23.393 11.0769 23.0353C10.7765 22.6948 10.285 22.0477 10.0895 21.1089C9.76258 19.5388 10.2958 17.9134 11.4895 16.8423L11.6237 16.7271C12.2992 16.1736 13.0105 15.9662 13.4265 15.876C13.893 15.7748 14.3382 15.7495 14.6667 15.7415C15.3099 15.7258 16.1289 15.7712 16.9405 15.8137L259.905 28.5469Z" fill="#F7F7F7" stroke="black" stroke-width="7"/>
<path d="M52.7833 50.5081L49.5969 33.1614L52.1832 33.2969L54.3307 45.8366C54.3726 46.0813 54.4008 46.2901 54.4152 46.463C54.43 46.6281 54.4463 46.8401 54.464 47.0992L54.5693 47.1048C54.614 46.8489 54.6524 46.6397 54.6844 46.4771C54.7246 46.3071 54.7822 46.1028 54.8573 45.8642L58.5612 33.6312L61.2762 33.7734L63.7747 46.3316C63.8245 46.5767 63.8566 46.7857 63.871 46.9586C63.8936 47.124 63.9138 47.3363 63.9315 47.5954L64.0251 47.6003C64.062 47.3441 64.1003 47.1349 64.1401 46.9727C64.1803 46.8027 64.2302 46.598 64.2897 46.3586L67.6542 34.1077L70.0649 34.234L65.1179 51.1546L62.438 51.0141L59.9081 38.3839C59.8657 38.147 59.8271 37.9142 59.7921 37.6855C59.7571 37.4568 59.7308 37.2129 59.7131 36.9538L59.6312 36.9495C59.5787 37.2049 59.5231 37.4445 59.4644 37.6683C59.4136 37.8925 59.3508 38.12 59.2761 38.3508L55.4515 50.648L52.7833 50.5081ZM70.3767 45.5276L70.3963 45.1531C70.492 43.3274 71.0842 41.8799 72.1729 40.8104C73.262 39.7331 74.6413 39.2382 76.3109 39.3257C77.9805 39.4132 79.2439 40.0114 80.1011 41.1203C80.9587 42.2214 81.3395 43.6886 81.2434 45.522L81.1943 46.4583L71.9258 45.9725L72.0184 44.2054L78.7826 44.5599L78.7948 44.3259C78.8365 43.5301 78.6461 42.8356 78.2234 42.2423C77.8012 41.6413 77.1414 41.3172 76.2442 41.2702C75.2144 41.2162 74.4179 41.5617 73.8547 42.3067C73.2997 43.0443 72.9909 44.0099 72.9284 45.2036L72.902 45.7068C72.8394 46.9005 73.0647 47.902 73.5777 48.7112C74.0912 49.5126 74.9057 49.9425 76.0214 50.001C76.7391 50.0386 77.3639 49.911 77.8955 49.6181C78.4354 49.3178 78.8772 48.9498 79.2208 48.514L80.8908 49.7868C80.4906 50.4073 79.8641 50.9417 79.0114 51.3898C78.159 51.8302 77.1321 52.0189 75.9306 51.9559C74.0582 51.8578 72.6404 51.2202 71.6773 50.0432C70.7145 48.8584 70.281 47.3532 70.3767 45.5276ZM87.7912 42.1687L87.8911 40.2612L94.9595 40.6316L94.8596 42.5392L87.7912 42.1687ZM89.4575 49.1092L89.8648 41.3386L89.8918 41.0467L90.0961 37.1497L92.5887 37.2803L91.9668 49.1468C91.9345 49.7632 92.0217 50.1902 92.2283 50.4279C92.4349 50.6656 92.7605 50.7961 93.2052 50.8194C93.4081 50.83 93.608 50.821 93.8051 50.7922C94.0022 50.7634 94.2003 50.7151 94.3994 50.6473L94.2976 52.5899C94.0981 52.6655 93.8367 52.7262 93.5136 52.7718C93.1901 52.8253 92.8293 52.8416 92.4314 52.8207C91.4718 52.7704 90.7181 52.4493 90.1702 51.8573C89.6301 51.2657 89.3925 50.3497 89.4575 49.1092ZM96.3807 52.6991L97.0075 40.739L99.3598 40.8622L99.3515 42.3639L99.41 42.3669C99.7244 41.8905 100.133 41.4856 100.635 41.152C101.146 40.8189 101.729 40.6695 102.384 40.7039C102.556 40.7129 102.73 40.7416 102.907 40.79C103.093 40.831 103.224 40.8692 103.3 40.9045L103.185 43.1163C103.038 43.0773 102.879 43.0455 102.708 43.0209C102.538 42.9885 102.351 42.967 102.149 42.9564C101.524 42.9237 100.965 43.0704 100.471 43.3965C99.9765 43.7227 99.5982 44.1488 99.336 44.6748L98.9085 52.8316L96.3807 52.6991ZM103.586 49.568C103.65 48.3353 104.184 47.4049 105.187 46.7769C106.198 46.1492 107.464 45.8753 108.985 45.955L111.63 46.0936L111.674 45.251C111.709 44.5801 111.562 44.0364 111.232 43.6202C110.91 43.1965 110.327 42.9626 109.485 42.9184C108.65 42.8746 108.037 43.0107 107.644 43.3265C107.252 43.6424 107.044 44.0461 107.018 44.5376L107.01 44.678L104.541 44.5486L104.55 44.3848C104.602 43.3939 105.09 42.5747 106.016 41.9269C106.95 41.2796 108.17 40.9954 109.675 41.0743C111.173 41.1528 112.318 41.5492 113.11 42.2635C113.902 42.97 114.262 44.0176 114.189 45.4063L113.905 50.8363C113.878 51.3357 113.892 51.8136 113.947 52.2702C114.001 52.719 114.094 53.1111 114.225 53.4466L114.216 53.6338L111.77 53.5056C111.671 53.3048 111.586 53.054 111.516 52.753C111.454 52.4447 111.419 52.1377 111.412 51.8322C111.113 52.3016 110.63 52.7105 109.963 53.0589C109.303 53.3998 108.474 53.5441 107.476 53.4918C106.313 53.4309 105.358 53.0679 104.611 52.4029C103.864 51.73 103.522 50.7851 103.586 49.568ZM106.11 49.536C106.077 50.1758 106.234 50.6847 106.582 51.0628C106.938 51.4413 107.502 51.6508 108.274 51.6913C109.07 51.733 109.79 51.5008 110.434 50.9948C111.087 50.4892 111.43 49.9126 111.464 49.265L111.544 47.7437L109.273 47.6247C108.251 47.5712 107.477 47.7144 106.951 48.0545C106.424 48.3946 106.144 48.8885 106.11 49.536ZM116.966 53.7779L117.593 41.8178L120.109 41.9496L119.482 53.9098L116.966 53.7779ZM117.517 38.1056C117.538 37.6999 117.685 37.3673 117.957 37.1077C118.237 36.8408 118.622 36.7202 119.114 36.7459C119.605 36.7717 119.977 36.928 120.228 37.215C120.479 37.502 120.593 37.8522 120.572 38.2657C120.55 38.6714 120.4 39.0077 120.12 39.2747C119.84 39.5338 119.455 39.6505 118.963 39.6248C118.472 39.599 118.1 39.4427 117.849 39.1557C117.607 38.8613 117.496 38.5113 117.517 38.1056ZM122.688 54.0778L123.315 42.1177L125.656 42.2403L125.646 43.7654L125.705 43.7684C126.116 43.2424 126.645 42.8398 127.294 42.5609C127.942 42.2741 128.657 42.1512 129.437 42.1921C130.638 42.255 131.584 42.6488 132.273 43.3734C132.971 44.0984 133.277 45.2762 133.191 46.9068L132.788 54.6071L130.272 54.4753L130.673 46.81C130.721 45.905 130.556 45.2509 130.178 44.8478C129.8 44.4446 129.248 44.2241 128.523 44.186C127.906 44.1537 127.343 44.2963 126.834 44.6139C126.332 44.9318 125.934 45.3647 125.639 45.9125L125.204 54.2097L122.688 54.0778ZM135.42 48.9363L135.44 48.5619C135.536 46.7362 136.128 45.2887 137.216 44.2192C138.306 43.1419 139.685 42.647 141.354 42.7345C143.024 42.822 144.287 43.4202 145.145 44.5291C146.002 45.6302 146.383 47.0974 146.287 48.9308L146.238 49.867L136.969 49.3813L137.062 47.6142L143.826 47.9687L143.838 47.7346C143.88 46.9389 143.69 46.2443 143.267 45.6511C142.845 45.05 142.185 44.726 141.288 44.679C140.258 44.625 139.461 44.9705 138.898 45.7155C138.343 46.4531 138.034 47.4187 137.972 48.6124L137.946 49.1156C137.883 50.3093 138.108 51.3107 138.621 52.12C139.135 52.9214 139.949 53.3513 141.065 53.4098C141.783 53.4474 142.407 53.3197 142.939 53.0269C143.479 52.7266 143.921 52.3586 144.264 51.9228L145.934 53.1956C145.534 53.8161 144.908 54.3504 144.055 54.7986C143.203 55.239 142.176 55.4277 140.974 55.3647C139.102 55.2666 137.684 54.629 136.721 53.452C135.758 52.2672 135.325 50.762 135.42 48.9363ZM147.895 49.5901L147.915 49.2156C148.007 47.4602 148.543 46.041 149.523 44.958C150.503 43.875 151.753 43.3734 153.275 43.4531C154.094 43.496 154.788 43.6772 155.358 43.9965C155.928 44.3158 156.369 44.7222 156.679 45.2157L157.053 38.0771L159.558 38.2083L158.627 55.9613L156.298 55.8393L156.309 54.2908L156.251 54.2878C155.928 54.7637 155.446 55.1609 154.804 55.4793C154.169 55.7903 153.442 55.9243 152.623 55.8814C151.071 55.8 149.872 55.17 149.026 53.9913C148.18 52.8126 147.803 51.3455 147.895 49.5901ZM150.456 49.7596C150.396 50.9142 150.595 51.8869 151.054 52.6777C151.522 53.461 152.278 53.8801 153.324 53.9349C154.034 53.9721 154.644 53.8124 155.156 53.4559C155.676 53.092 156.062 52.6624 156.315 52.1671L156.559 47.5095C156.367 46.9909 156.031 46.5313 155.552 46.1306C155.08 45.7226 154.489 45.4999 153.78 45.4627C152.726 45.4075 151.926 45.7489 151.379 46.4869C150.84 47.2175 150.54 48.1602 150.48 49.3149L150.456 49.7596ZM166.874 52.8848C166.938 51.6521 167.472 50.7217 168.475 50.0937C169.486 49.466 170.752 49.1921 172.273 49.2718L174.918 49.4104L174.962 48.5678C174.998 47.8969 174.85 47.3532 174.52 46.9369C174.198 46.5133 173.616 46.2793 172.773 46.2352C171.938 46.1914 171.325 46.3275 170.933 46.6433C170.541 46.9592 170.332 47.3629 170.306 47.8544L170.299 47.9948L167.829 47.8654L167.838 47.7016C167.89 46.7107 168.379 45.8915 169.304 45.2437C170.238 44.5964 171.458 44.3122 172.963 44.3911C174.461 44.4696 175.606 44.866 176.398 45.5803C177.19 46.2868 177.55 47.3344 177.477 48.7231L177.193 54.1531C177.167 54.6524 177.181 55.1304 177.235 55.587C177.29 56.0358 177.383 56.4279 177.514 56.7633L177.504 56.9506L175.058 56.8224C174.959 56.6216 174.874 56.3708 174.804 56.0698C174.742 55.7614 174.707 55.4545 174.7 55.149C174.401 55.6184 173.918 56.0273 173.251 56.3756C172.591 56.7166 171.762 56.8609 170.764 56.8086C169.601 56.7477 168.646 56.3847 167.899 55.7196C167.152 55.0468 166.81 54.1019 166.874 52.8848ZM169.399 52.8528C169.365 53.4926 169.522 54.0015 169.87 54.3796C170.226 54.7581 170.79 54.9676 171.562 55.0081C172.358 55.0498 173.078 54.8176 173.723 54.3116C174.375 53.806 174.718 53.2294 174.752 52.5818L174.832 51.0605L172.561 50.9415C171.539 50.8879 170.765 51.0312 170.239 51.3713C169.713 51.7114 169.432 52.2053 169.399 52.8528ZM185.344 51.5527L185.364 51.1782C185.46 49.3292 186.049 47.8737 187.13 46.8116C188.21 45.7495 189.624 45.2642 191.372 45.3558C193.026 45.4425 194.26 45.9335 195.073 46.8289C195.887 47.7165 196.272 48.7419 196.226 49.9052L196.231 50.0345L193.785 49.9063L193.791 49.801C193.825 49.1457 193.64 48.5805 193.234 48.1055C192.829 47.6305 192.178 47.3695 191.28 47.3225C190.235 47.2677 189.431 47.605 188.869 48.3344C188.306 49.0637 187.993 50.0331 187.93 51.2423L187.904 51.7456C187.842 52.9314 188.048 53.924 188.522 54.7234C188.997 55.5228 189.76 55.9501 190.814 56.0053C191.734 56.0535 192.417 55.8585 192.863 55.4203C193.308 54.9821 193.552 54.4355 193.594 53.7805L193.6 53.6752L196.034 53.8028L196.028 53.9198C195.967 55.0745 195.477 56.0619 194.558 56.8821C193.639 57.6945 192.357 58.0576 190.711 57.9713C188.963 57.8797 187.607 57.2493 186.644 56.0801C185.681 54.9031 185.247 53.394 185.344 51.5527ZM198.186 53.7161L198.587 46.0625L201.103 46.1944L200.702 53.8479C200.654 54.7685 200.818 55.4304 201.196 55.8336C201.582 56.2371 202.134 56.4577 202.851 56.4953C203.483 56.5284 204.046 56.3819 204.541 56.0558C205.043 55.73 205.441 55.2972 205.735 54.7571L206.17 46.4599L208.686 46.5918L208.059 58.5519L205.719 58.4293L205.717 56.8919L205.671 56.8895C205.236 57.4221 204.694 57.828 204.046 58.1069C203.406 58.3863 202.695 58.5055 201.915 58.4646C200.721 58.4021 199.78 58.0046 199.091 57.2722C198.402 56.532 198.1 55.3466 198.186 53.7161ZM210.708 55.0412L213.165 55.1817L213.158 55.3104C213.123 55.9814 213.331 56.4891 213.782 56.8335C214.234 57.1701 214.85 57.3588 215.63 57.3997C216.418 57.441 217.034 57.3247 217.479 57.0507C217.932 56.7693 218.172 56.3751 218.198 55.8679C218.225 55.3608 218.05 54.9683 217.673 54.6904C217.297 54.4047 216.481 54.0842 215.224 53.7289C213.906 53.3547 212.907 52.8681 212.226 52.2692C211.553 51.6707 211.243 50.8799 211.294 49.8969C211.349 48.8514 211.814 48.0309 212.691 47.4353C213.567 46.8397 214.719 46.5794 216.146 46.6542C217.574 46.729 218.7 47.1166 219.524 47.8169C220.356 48.5098 220.742 49.4258 220.682 50.5649L220.676 50.6819L218.219 50.5531L218.227 50.401C218.256 49.8315 218.092 49.3887 217.733 49.0726C217.374 48.7487 216.809 48.5665 216.037 48.526C215.28 48.4863 214.719 48.5938 214.353 48.8485C213.988 49.0954 213.794 49.4411 213.771 49.8859C213.748 50.315 213.937 50.6652 214.338 50.9365C214.738 51.2078 215.563 51.5209 216.811 51.8758C218.13 52.25 219.121 52.7401 219.786 53.346C220.45 53.9441 220.755 54.7659 220.701 55.8113C220.642 56.9348 220.177 57.814 219.307 58.449C218.436 59.084 217.182 59.3586 215.544 59.2728C213.913 59.1873 212.683 58.7786 211.853 58.0467C211.031 57.3151 210.651 56.3525 210.713 55.1588L210.708 55.0412ZM221.951 49.1997L222.051 47.2922L229.119 47.6626L229.019 49.5702L221.951 49.1997ZM223.617 56.1402L224.024 48.3696L224.051 48.0777L224.256 44.1807L226.748 44.3113L226.126 56.1778C226.094 56.7942 226.181 57.2212 226.388 57.4589C226.594 57.6966 226.92 57.8271 227.365 57.8504C227.568 57.861 227.768 57.852 227.965 57.8232C228.162 57.7944 228.36 57.7461 228.559 57.6783L228.457 59.6209C228.258 59.6965 227.996 59.7572 227.673 59.8028C227.35 59.8563 226.989 59.8726 226.591 59.8517C225.631 59.8014 224.878 59.4803 224.33 58.8883C223.79 58.2967 223.552 57.3807 223.617 56.1402ZM229.908 53.8882L229.927 53.5137C230.023 51.6803 230.631 50.2297 231.751 49.1618C232.871 48.094 234.309 47.606 236.064 47.698C237.82 47.79 239.199 48.4256 240.201 49.6046C241.203 50.7837 241.656 52.2899 241.56 54.1234L241.54 54.4979C241.445 56.3235 240.837 57.7741 239.716 58.8498C238.596 59.9176 237.159 60.4055 235.403 60.3135C233.648 60.2215 232.269 59.586 231.267 58.4069C230.265 57.2201 229.812 55.7138 229.908 53.8882ZM232.493 53.5895L232.468 54.081C232.405 55.2747 232.631 56.2684 233.144 57.062C233.658 57.8556 234.446 58.2802 235.507 58.3358C236.576 58.3918 237.403 58.0518 237.989 57.3159C238.583 56.5803 238.912 55.6118 238.975 54.4103L239 53.9305C239.063 52.7291 238.837 51.7354 238.323 50.9496C237.809 50.156 237.022 49.7314 235.961 49.6758C234.9 49.6202 234.072 49.9602 233.478 50.6957C232.885 51.4234 232.556 52.3881 232.493 53.5895ZM243.671 60.4183L244.298 48.4581L246.638 48.5808L246.627 50.1292L246.686 50.1323C247.121 49.5996 247.65 49.1932 248.275 48.913C248.901 48.625 249.58 48.5002 250.313 48.5387C251.133 48.5816 251.83 48.7864 252.405 49.1529C252.988 49.5199 253.402 50.0618 253.646 50.7787L253.693 50.7811C254.19 50.1031 254.771 49.6133 255.436 49.3118C256.109 49.0106 256.851 48.8813 257.663 48.9238C258.864 48.9868 259.797 49.3878 260.463 50.1267C261.136 50.8583 261.43 52.0394 261.345 53.6699L260.944 61.3235L258.428 61.1916L258.83 53.5264C258.877 52.6292 258.719 51.9794 258.357 51.5771C258.003 51.1674 257.478 50.9443 256.784 50.9079C256.168 50.8756 255.624 51.0193 255.154 51.3388C254.683 51.6584 254.297 52.0919 253.994 52.6393L253.56 60.9365L251.043 60.8046L251.445 53.1511C251.492 52.2461 251.335 51.5924 250.972 51.1901C250.618 50.7804 250.09 50.5571 249.388 50.5203C248.779 50.4884 248.24 50.6323 247.769 50.9518C247.299 51.2714 246.916 51.7051 246.622 52.2529L246.187 60.5501L243.671 60.4183ZM48.8522 74.2412L49.7452 57.2021L52.3315 57.3376L51.5477 72.2936L59.1661 72.6929L59.057 74.776L48.8522 74.2412ZM61.3741 74.8974L62.2671 57.8583L64.8534 57.9938L64.0696 72.9499L71.688 73.3492L71.5788 75.4322L61.3741 74.8974ZM73.896 75.5537L74.789 58.5146L78.171 58.6918L82.1724 71.2348C82.2534 71.4816 82.3263 71.7318 82.3912 71.9856C82.4562 72.2393 82.509 72.5003 82.5497 72.7684L82.6316 72.7727C82.7001 72.5103 82.7799 72.2563 82.871 72.0107C82.9621 71.7651 83.0608 71.5239 83.1671 71.2869L88.4577 59.2309L91.8632 59.4094L90.9702 76.4485L88.4307 76.3154L89.0563 64.3787C89.0694 64.129 89.0878 63.8522 89.1115 63.5484C89.1353 63.2445 89.1693 62.9686 89.2136 62.7206L89.1317 62.7163C89.0718 62.9635 88.9871 63.2368 88.8775 63.5361C88.7757 63.8359 88.6715 64.1081 88.5648 64.3529L83.4454 76.0541L81.2102 75.937L77.3419 63.7647C77.2614 63.5102 77.1827 63.2205 77.1058 62.8957C77.0367 62.5713 76.9884 62.2989 76.9609 62.0784L76.879 62.0741C76.8909 62.2938 76.8924 62.5638 76.8835 62.8841C76.8823 63.2048 76.8752 63.4899 76.8621 63.7396L76.2365 75.6763L73.896 75.5537ZM100.449 76.9453L101.163 63.3233C101.239 61.8878 101.682 60.8236 102.492 60.1307C103.304 59.43 104.357 59.1136 105.652 59.1815C105.917 59.1954 106.178 59.2247 106.433 59.2694C106.689 59.3141 106.933 59.3738 107.163 59.4485L106.944 61.3967C106.782 61.3569 106.608 61.3204 106.422 61.2872C106.236 61.2461 106.046 61.2205 105.851 61.2103C105.195 61.1759 104.678 61.3483 104.298 61.7274C103.919 62.0987 103.707 62.6978 103.664 63.5248L103.542 65.8536L103.53 66.076L102.954 77.0765L100.449 76.9453ZM99.1038 66.7945L99.2037 64.887L101.977 65.0323L102.422 65.0557L106.05 65.2458L105.95 67.1533L99.1038 66.7945ZM106.499 71.4536L106.519 71.0791C106.615 69.2457 107.223 67.795 108.343 66.7272C109.463 65.6593 110.9 65.1714 112.656 65.2634C114.411 65.3554 115.79 65.9909 116.792 67.17C117.794 68.3491 118.247 69.8553 118.151 71.6887L118.131 72.0632C118.036 73.8888 117.428 75.3395 116.307 76.4151C115.188 77.483 113.75 77.9709 111.994 77.8789C110.239 77.7869 108.86 77.1514 107.858 75.9723C106.856 74.7854 106.403 73.2792 106.499 71.4536ZM109.085 71.1549L109.059 71.6464C108.996 72.8401 109.222 73.8337 109.736 74.6273C110.25 75.4209 111.037 75.8455 112.098 75.9011C113.167 75.9572 113.994 75.6172 114.581 74.8812C115.175 74.1457 115.503 73.1772 115.566 71.9757L115.591 71.4959C115.654 70.2944 115.429 69.3008 114.914 68.515C114.4 67.7214 113.613 67.2968 112.552 67.2412C111.491 67.1855 110.663 67.5255 110.069 68.2611C109.476 68.9888 109.148 69.9534 109.085 71.1549ZM120.262 77.9836L120.889 66.0235L123.241 66.1467L123.233 67.6484L123.291 67.6514C123.606 67.175 124.014 66.7701 124.517 66.4366C125.027 66.1034 125.61 65.954 126.265 65.9884C126.437 65.9974 126.611 66.0261 126.789 66.0745C126.974 66.1155 127.105 66.1537 127.182 66.189L127.066 68.4008C126.919 68.3618 126.761 68.33 126.59 68.3054C126.419 68.273 126.233 68.2515 126.03 68.2409C125.406 68.2082 124.846 68.3549 124.352 68.681C123.858 69.0072 123.48 69.4333 123.217 69.9593L122.79 78.1161L120.262 77.9836ZM133.235 66.6705L135.704 66.7999L137.383 74.4099C137.452 74.7265 137.504 74.9991 137.539 75.2278C137.582 75.4491 137.624 75.7016 137.664 75.9854L137.734 75.989C137.803 75.711 137.871 75.4642 137.937 75.2487C138.004 75.0253 138.092 74.76 138.202 74.4528L140.994 67.0771L143.299 67.198L145.352 74.8393C145.437 75.1488 145.501 75.4182 145.544 75.6473C145.587 75.8764 145.632 76.1291 145.68 76.4055L145.739 76.4085C145.808 76.1383 145.871 75.8913 145.93 75.6676C145.997 75.4364 146.077 75.1746 146.171 74.8822L148.601 67.4758L150.859 67.5942L146.605 79.3642L144.37 79.247L142.295 71.5811C142.224 71.2957 142.157 71.0106 142.094 70.7256C142.03 70.4407 141.975 70.1561 141.927 69.872L141.869 69.8689C141.784 70.1461 141.695 70.4231 141.602 70.6999C141.517 70.977 141.424 71.2538 141.324 71.5302L138.483 78.9385L136.236 78.8208L133.235 66.6705ZM152.023 79.6481L152.65 67.688L155.002 67.8113L154.994 69.3129L155.052 69.316C155.367 68.8396 155.775 68.4346 156.278 68.1011C156.788 67.768 157.371 67.6186 158.026 67.6529C158.198 67.6619 158.372 67.6906 158.55 67.739C158.735 67.78 158.866 67.8182 158.943 67.8535L158.827 70.0653C158.68 70.0263 158.522 69.9945 158.351 69.9699C158.18 69.9375 157.994 69.916 157.791 69.9054C157.167 69.8727 156.608 70.0194 156.113 70.3455C155.619 70.6717 155.241 71.0978 154.978 71.6238L154.551 79.7806L152.023 79.6481ZM160.227 80.0781L160.854 68.1179L163.37 68.2498L162.743 80.2099L160.227 80.0781ZM160.778 64.4058C160.799 64.0001 160.946 63.6674 161.218 63.4079C161.498 63.1409 161.883 63.0203 162.375 63.0461C162.866 63.0718 163.238 63.2282 163.489 63.5152C163.74 63.8021 163.854 64.1523 163.833 64.5658C163.811 64.9715 163.661 65.3079 163.381 65.5748C163.101 65.834 162.716 65.9507 162.224 65.9249C161.733 65.8992 161.361 65.7428 161.11 65.4558C160.868 65.1615 160.757 64.8115 160.778 64.4058ZM164.92 70.2438L165.02 68.3363L172.088 68.7067L171.988 70.6142L164.92 70.2438ZM166.586 77.1843L166.993 69.4137L167.02 69.1217L167.225 65.2247L169.717 65.3554L169.095 77.2219C169.063 77.8382 169.15 78.2653 169.357 78.503C169.563 78.7407 169.889 78.8712 170.334 78.8945C170.537 78.9051 170.737 78.896 170.934 78.8672C171.131 78.8385 171.329 78.7902 171.528 78.7224L171.426 80.665C171.227 80.7406 170.965 80.8012 170.642 80.8469C170.319 80.9003 169.958 80.9166 169.56 80.8958C168.6 80.8455 167.847 80.5244 167.299 79.9324C166.759 79.3408 166.521 78.4248 166.586 77.1843ZM173.591 80.7785L174.218 68.8183L176.734 68.9502L176.107 80.9103L173.591 80.7785ZM174.143 65.1062C174.164 64.7005 174.31 64.3678 174.582 64.1083C174.862 63.8413 175.248 63.7207 175.739 63.7465C176.231 63.7722 176.602 63.9286 176.853 64.2156C177.104 64.5025 177.219 64.8527 177.197 65.2662C177.176 65.6719 177.025 66.0083 176.745 66.2752C176.466 66.5344 176.08 66.6511 175.589 66.6253C175.097 66.5996 174.726 66.4432 174.475 66.1562C174.232 65.8619 174.121 65.5119 174.143 65.1062ZM179.314 81.0784L179.941 69.1182L182.281 69.2409L182.272 70.7659L182.33 70.769C182.741 70.2429 183.271 69.8404 183.919 69.5614C184.568 69.2747 185.282 69.1517 186.062 69.1926C187.264 69.2556 188.209 69.6494 188.899 70.374C189.596 71.0989 189.902 72.2767 189.817 73.9073L189.413 81.6077L186.897 81.4758L187.299 73.8105C187.346 72.9055 187.181 72.2515 186.803 71.8483C186.425 71.4452 185.874 71.2246 185.148 71.1866C184.532 71.1543 183.969 71.2969 183.459 71.6144C182.958 71.9323 182.559 72.3652 182.265 72.913L181.83 81.2102L179.314 81.0784ZM192.099 85.2102L193.431 83.5315C193.741 83.8842 194.205 84.2214 194.822 84.5432C195.439 84.865 196.133 85.0461 196.905 85.0866C197.865 85.1369 198.653 84.8887 199.268 84.342C199.891 83.7958 200.233 82.9453 200.294 81.7906L200.348 80.7608C199.978 81.2343 199.49 81.6038 198.881 81.8692C198.281 82.135 197.563 82.246 196.728 82.2023C195.215 82.1229 194.031 81.5015 193.176 80.338C192.33 79.1671 191.953 77.7001 192.046 75.9369L192.065 75.5624C192.158 73.7992 192.686 72.3796 193.65 71.3036C194.614 70.2197 195.861 69.7179 197.39 69.798C198.193 69.8401 198.902 70.0455 199.517 70.4141C200.131 70.7827 200.573 71.2244 200.844 71.7393L200.902 71.7423L201.052 70.2246L203.404 70.3479L202.802 81.84C202.708 83.6422 202.117 84.992 201.029 85.8894C199.949 86.7951 198.582 87.2046 196.928 87.1179C195.922 87.0652 195.001 86.8605 194.167 86.5038C193.341 86.1476 192.652 85.7164 192.099 85.2102ZM194.607 76.1063C194.546 77.261 194.746 78.2298 195.205 79.0127C195.665 79.7957 196.425 80.2149 197.486 80.2705C198.189 80.3073 198.8 80.1438 199.319 79.7799C199.839 79.4081 200.218 78.9781 200.455 78.4899L200.695 73.9024C200.504 73.3682 200.169 72.8969 199.69 72.4885C199.219 72.0726 198.628 71.8461 197.918 71.8089C196.865 71.7537 196.069 72.0953 195.529 72.8337C194.99 73.5643 194.691 74.5069 194.63 75.6616L194.607 76.1063ZM211.001 79.2303C211.065 77.9976 211.599 77.0673 212.602 76.4392C213.613 75.8116 214.879 75.5376 216.4 75.6173L219.045 75.7559L219.089 74.9133C219.125 74.2424 218.977 73.6988 218.647 73.2825C218.325 72.8588 217.742 72.6249 216.9 72.5807C216.065 72.537 215.452 72.673 215.06 72.9889C214.668 73.3047 214.459 73.7084 214.433 74.1999L214.425 74.3403L211.956 74.2109L211.965 74.0471C212.017 73.0563 212.506 72.237 213.431 71.5892C214.365 70.9419 215.585 70.6577 217.09 70.7366C218.588 70.8151 219.733 71.2115 220.525 71.9258C221.317 72.6323 221.677 73.6799 221.604 75.0686L221.32 80.4987C221.294 80.998 221.308 81.4759 221.362 81.9325C221.417 82.3813 221.509 82.7734 221.641 83.1089L221.631 83.2961L219.185 83.1679C219.086 82.9672 219.001 82.7163 218.931 82.4153C218.869 82.107 218.834 81.8 218.827 81.4946C218.528 81.964 218.045 82.3728 217.378 82.7212C216.718 83.0621 215.889 83.2064 214.891 83.1541C213.728 83.0932 212.773 82.7302 212.026 82.0652C211.279 81.3923 210.937 80.4474 211.001 79.2303ZM213.525 79.1983C213.492 79.8381 213.649 80.347 213.997 80.7251C214.353 81.1036 214.917 81.3131 215.689 81.3536C216.485 81.3953 217.205 81.1631 217.85 80.6571C218.502 80.1515 218.845 79.5749 218.879 78.9274L218.959 77.406L216.688 77.287C215.666 77.2335 214.892 77.3767 214.366 77.7169C213.84 78.057 213.559 78.5508 213.525 79.1983ZM224.299 83.436L224.926 71.4758L227.266 71.5985L227.257 73.1235L227.315 73.1266C227.726 72.6005 228.256 72.198 228.904 71.919C229.553 71.6322 230.267 71.5093 231.047 71.5502C232.249 71.6132 233.194 72.0069 233.884 72.7315C234.581 73.4565 234.887 74.6343 234.802 76.2649L234.398 83.9652L231.882 83.8334L232.284 76.1681C232.331 75.2631 232.166 74.609 231.788 74.2059C231.411 73.8028 230.859 73.5822 230.133 73.5441C229.517 73.5118 228.954 73.6545 228.444 73.972C227.943 74.2899 227.545 74.7228 227.25 75.2706L226.815 83.5678L224.299 83.436ZM237.031 78.2945L237.05 77.92C237.142 76.1646 237.678 74.7454 238.658 73.6623C239.638 72.5793 240.889 72.0777 242.41 72.1574C243.229 72.2004 243.924 72.3815 244.494 72.7008C245.064 73.0202 245.504 73.4266 245.815 73.9201L246.189 66.7814L248.693 66.9127L247.763 84.6656L245.434 84.5436L245.445 82.9952L245.386 82.9921C245.064 83.4681 244.582 83.8652 243.939 84.1836C243.305 84.4946 242.578 84.6286 241.759 84.5857C240.206 84.5043 239.007 83.8743 238.161 82.6956C237.316 81.5169 236.939 80.0499 237.031 78.2945ZM239.592 78.4639C239.531 79.6185 239.731 80.5913 240.19 81.382C240.657 82.1653 241.414 82.5844 242.459 82.6392C243.169 82.6764 243.78 82.5168 244.292 82.1602C244.811 81.7963 245.198 81.3667 245.45 80.8715L245.695 76.2138C245.503 75.6952 245.167 75.2356 244.687 74.835C244.216 74.4269 243.625 74.2043 242.915 74.1671C241.862 74.1119 241.062 74.4533 240.514 75.1913C239.975 75.9219 239.676 76.8645 239.615 78.0192L239.592 78.4639ZM46.9635 92.3664L46.9832 91.9919C47.0801 90.1429 47.6688 88.6873 48.7493 87.6252C49.8298 86.5631 51.2438 86.0779 52.9914 86.1695C54.6454 86.2562 55.8792 86.7472 56.6928 87.6425C57.5069 88.5301 57.8912 89.5555 57.8459 90.7188L57.8509 90.8482L55.405 90.72L55.4105 90.6147C55.4449 89.9593 55.2594 89.3941 54.854 88.9192C54.4486 88.4442 53.7973 88.1832 52.9001 88.1361C51.8546 88.0813 51.0507 88.4186 50.4884 89.148C49.926 89.8774 49.6131 90.8467 49.5497 92.056L49.5233 92.5592C49.4612 93.7451 49.6673 94.7377 50.1418 95.5371C50.6162 96.3364 51.3801 96.7637 52.4333 96.8189C53.3539 96.8672 54.0369 96.6722 54.4824 96.2339C54.9278 95.7957 55.1716 95.2491 55.2137 94.5942L55.2192 94.4889L57.6534 94.6164L57.6473 94.7335C57.5867 95.8881 57.0969 96.8756 56.1777 97.6958C55.2589 98.5082 53.9765 98.8712 52.3303 98.785C50.5827 98.6934 49.2271 98.063 48.2635 96.8938C47.3004 95.7167 46.867 94.2076 46.9635 92.3664ZM59.2248 95.309C59.2894 94.0763 59.8232 93.146 60.8262 92.5179C61.837 91.8902 63.103 91.6163 64.6244 91.696L67.2692 91.8346L67.3133 90.992C67.3485 90.3211 67.201 89.7775 66.8707 89.3612C66.5487 88.9375 65.9664 88.7036 65.1238 88.6594C64.289 88.6157 63.6756 88.7517 63.2835 89.0676C62.8915 89.3834 62.6826 89.7871 62.6568 90.2786L62.6494 90.419L60.1802 90.2896L60.1888 90.1258C60.2407 89.135 60.7295 88.3157 61.6553 87.6679C62.5889 87.0206 63.8086 86.7364 65.3144 86.8153C66.8123 86.8938 67.9572 87.2902 68.749 88.0045C69.5412 88.711 69.901 89.7586 69.8282 91.1473L69.5436 96.5774C69.5175 97.0767 69.5315 97.5546 69.5858 98.0112C69.6405 98.46 69.7334 98.8521 69.8645 99.1876L69.8547 99.3748L67.4088 99.2466C67.3098 99.0459 67.2252 98.795 67.1549 98.494C67.0928 98.1857 67.058 97.8787 67.0506 97.5732C66.7522 98.0426 66.2692 98.4515 65.6016 98.7999C64.9422 99.1408 64.1132 99.2851 63.1146 99.2328C61.9521 99.1719 60.9971 98.8089 60.2497 98.1439C59.5026 97.471 59.161 96.5261 59.2248 95.309ZM61.7494 95.277C61.7159 95.9168 61.8731 96.4257 62.221 96.8038C62.5766 97.1823 63.1407 97.3918 63.913 97.4323C64.7088 97.474 65.429 97.2418 66.0735 96.7358C66.7259 96.2302 67.069 95.6536 67.103 95.0061L67.1827 93.4847L64.9124 93.3657C63.8904 93.3122 63.1162 93.4554 62.5898 93.7955C62.0635 94.1357 61.7834 94.6295 61.7494 95.277ZM72.5814 99.5177L73.5118 81.7647L76.0279 81.8966L75.0975 99.6496L72.5814 99.5177ZM78.3391 99.8195L79.2695 82.0665L81.7856 82.1983L80.8552 99.9513L78.3391 99.8195ZM83.6398 94.2885L83.6594 93.914C83.7551 92.0884 84.3473 90.6409 85.436 89.5714C86.5251 88.4941 87.9044 87.9992 89.574 88.0867C91.2436 88.1742 92.507 88.7724 93.3642 89.8813C94.2218 90.9823 94.6026 92.4496 94.5065 94.283L94.4574 95.2192L85.1889 94.7335L85.2815 92.9664L92.0457 93.3209L92.0579 93.0868C92.0996 92.291 91.9092 91.5965 91.4865 91.0033C91.0643 90.4022 90.4045 90.0782 89.5073 90.0312C88.4775 89.9772 87.681 90.3227 87.1178 91.0677C86.5628 91.8053 86.254 92.7709 86.1915 93.9646L86.1651 94.4678C86.1025 95.6615 86.3278 96.6629 86.8408 97.4721C87.3543 98.2735 88.1688 98.7035 89.2845 98.7619C90.0022 98.7996 90.627 98.6719 91.1586 98.379C91.6985 98.0788 92.1403 97.7107 92.4839 97.275L94.1539 98.5477C93.7537 99.1683 93.1272 99.7026 92.2745 100.151C91.4221 100.591 90.3952 100.78 89.1937 100.717C87.3213 100.619 85.9035 99.9812 84.9404 98.8042C83.9776 97.6194 83.5441 96.1141 83.6398 94.2885ZM96.1148 94.9423L96.1344 94.5678C96.2264 92.8124 96.7624 91.3932 97.7423 90.3102C98.7222 89.2272 99.9728 88.7255 101.494 88.8053C102.313 88.8482 103.008 89.0293 103.578 89.3487C104.148 89.668 104.588 90.0744 104.899 90.5679L105.273 83.4293L107.777 83.5605L106.847 101.313L104.518 101.191L104.529 99.643L104.47 99.6399C104.148 100.116 103.666 100.513 103.023 100.831C102.389 101.142 101.662 101.276 100.843 101.234C99.2903 101.152 98.0911 100.522 97.2454 99.3434C96.3997 98.1648 96.0228 96.6977 96.1148 94.9423ZM98.6759 95.1117C98.6154 96.2664 98.8147 97.2391 99.274 98.0298C99.7414 98.8132 100.498 99.2323 101.543 99.287C102.253 99.3243 102.864 99.1646 103.376 98.8081C103.895 98.4441 104.282 98.0146 104.534 97.5193L104.779 92.8616C104.587 92.3431 104.251 91.8835 103.771 91.4828C103.3 91.0747 102.709 90.8521 101.999 90.8149C100.946 90.7597 100.146 91.1011 99.5984 91.8391C99.0594 92.5697 98.7597 93.5124 98.6992 94.667L98.6759 95.1117ZM115.647 101.775L116.274 89.8145L118.79 89.9464L118.163 101.907L115.647 101.775ZM116.199 86.1024C116.22 85.6967 116.367 85.3641 116.638 85.1045C116.918 84.8375 117.304 84.7169 117.796 84.7427C118.287 84.7685 118.658 84.9248 118.909 85.2118C119.16 85.4987 119.275 85.849 119.253 86.2625C119.232 86.6682 119.081 87.0045 118.801 87.2715C118.522 87.5306 118.136 87.6473 117.645 87.6216C117.153 87.5958 116.782 87.4394 116.531 87.1525C116.288 86.8581 116.177 86.5081 116.199 86.1024ZM120.34 91.9404L120.44 90.0329L127.509 90.4033L127.409 92.3109L120.34 91.9404ZM122.007 98.8809L122.414 91.1103L122.441 90.8184L122.645 86.9214L125.138 87.052L124.516 98.9185C124.484 99.5349 124.571 99.9619 124.777 100.2C124.984 100.437 125.31 100.568 125.754 100.591C125.957 100.602 126.157 100.593 126.354 100.564C126.551 100.535 126.749 100.487 126.949 100.419L126.847 102.362C126.647 102.437 126.386 102.498 126.063 102.544C125.739 102.597 125.378 102.613 124.981 102.592C124.021 102.542 123.267 102.221 122.719 101.629C122.179 101.037 121.942 100.121 122.007 98.8809Z" fill="black"/>
<path d="M261.028 110.531L263.928 98.0123L270.513 98.3574L270.201 99.8156L270.253 99.8183C270.583 99.3397 271.126 98.9419 271.882 98.6249C272.638 98.3078 273.528 98.1761 274.551 98.2298C275.922 98.3016 276.965 98.7303 277.681 99.516C278.406 100.293 278.565 101.567 278.159 103.338L276.318 111.332L269.642 110.982L271.295 103.84C271.384 103.47 271.368 103.208 271.245 103.054C271.132 102.892 270.945 102.804 270.685 102.79C270.468 102.779 270.238 102.845 269.996 102.989C269.753 103.133 269.546 103.348 269.375 103.635L267.703 110.881L261.028 110.531Z" fill="black"/>
<path d="M252.413 110.079L255.301 97.5597L262.08 97.9151L259.18 110.433L252.413 110.079ZM255.913 93.8338C256.117 92.9397 256.603 92.2041 257.373 91.6268C258.151 91.0499 259.126 90.7922 260.297 90.8535C261.46 90.9145 262.281 91.262 262.761 91.8961C263.25 92.5306 263.388 93.3034 263.175 94.2143C262.971 95.1084 262.48 95.8525 261.701 96.4467C260.922 97.0323 259.947 97.2943 258.776 97.233C257.613 97.172 256.792 96.8158 256.313 96.1644C255.834 95.5043 255.701 94.7274 255.913 93.8338Z" fill="black"/>
<path d="M235.774 109.207L236.786 89.8828L243.462 90.2327L242.955 99.9014L245.584 97.051L252.988 97.439L242.576 107.137L242.449 109.557L235.774 109.207ZM244.176 109.648L240.926 104.427L245.263 100.101L251.866 110.051L244.176 109.648Z" fill="black"/>
<path d="M218.171 108.285L222.593 89.1523L229.242 89.5008L227.32 97.8035C227.714 97.2587 228.281 96.8056 229.022 96.4443C229.772 96.0834 230.715 95.9327 231.851 95.9923C233.161 96.061 234.156 96.4959 234.836 97.297C235.517 98.0895 235.666 99.3065 235.284 100.948L233.41 109.084L226.734 108.734L228.367 101.721C228.458 101.317 228.434 101.024 228.296 100.843C228.166 100.653 227.972 100.552 227.711 100.538C227.46 100.525 227.234 100.6 227.034 100.764C226.835 100.918 226.652 101.161 226.487 101.492L224.847 108.635L218.171 108.285Z" fill="black"/>
<path d="M202.884 103.191L208.918 103.585L208.865 103.856C208.777 104.2 208.834 104.433 209.037 104.557C209.248 104.681 209.548 104.753 209.939 104.774C210.355 104.796 210.657 104.755 210.846 104.652C211.034 104.549 211.15 104.402 211.195 104.213C211.24 104.016 211.17 103.864 210.984 103.759C210.798 103.653 209.901 103.428 208.292 103.083C206.511 102.702 205.326 102.157 204.737 101.448C204.148 100.738 203.982 99.838 204.239 98.7467C204.555 97.3627 205.435 96.3388 206.879 95.6751C208.332 95.0118 210.178 94.7388 212.416 94.8561C214.602 94.9707 216.243 95.4481 217.339 96.2885C218.443 97.1206 218.82 98.2278 218.469 99.6099L218.403 99.8805L212.378 99.5647L212.433 99.2675C212.498 99.0099 212.448 98.8116 212.281 98.6723C212.124 98.5249 211.85 98.4409 211.459 98.4205C211.077 98.4005 210.798 98.4293 210.62 98.507C210.45 98.5851 210.343 98.7143 210.299 98.8947C210.263 99.0842 210.351 99.241 210.562 99.3651C210.781 99.4897 211.683 99.7023 213.268 100.003C214.991 100.328 216.222 100.827 216.961 101.501C217.709 102.167 217.948 103.075 217.679 104.227C217.353 105.645 216.454 106.69 214.984 107.361C213.522 108.032 211.62 108.307 209.277 108.184C207.004 108.065 205.293 107.597 204.144 106.78C202.995 105.963 202.563 104.835 202.847 103.397L202.884 103.191Z" fill="black"/>
<path d="M187.201 101.925L187.615 94.0127L194.291 94.3626L193.917 101.494C193.894 101.945 193.956 102.257 194.103 102.43C194.259 102.603 194.463 102.697 194.715 102.71C194.958 102.723 195.179 102.647 195.379 102.484C195.588 102.321 195.742 102.111 195.843 101.856L196.23 94.4642L202.906 94.814L202.243 107.45L195.659 107.105L195.697 105.632L195.671 105.631C195.392 106.138 194.901 106.547 194.197 106.858C193.503 107.161 192.631 107.285 191.581 107.23C190.254 107.161 189.168 106.708 188.325 105.872C187.481 105.036 187.106 103.72 187.201 101.925Z" fill="black"/>
<path d="M169.008 105.708L170.001 86.7607L179.813 87.275C181.99 87.3891 183.645 88.0935 184.778 89.3881C185.911 90.6828 186.42 92.4232 186.305 94.6094C186.191 96.7869 185.516 98.4566 184.281 99.6184C183.054 100.781 181.287 101.301 178.98 101.18L176.169 101.033L175.905 106.069L169.008 105.708ZM176.407 96.4916L177.695 96.5591C178.302 96.5909 178.729 96.4132 178.976 96.026C179.231 95.6392 179.377 95.0858 179.415 94.3657C179.453 93.637 179.366 93.0713 179.152 92.6686C178.947 92.2577 178.541 92.0364 177.934 92.0045L176.646 91.937L176.407 96.4916Z" fill="black"/>
<path d="M152.381 104.837L156.803 85.7041L163.531 86.0567L159.109 105.189L152.381 104.837Z" fill="black"/>
<path d="M144.335 104.415L147.223 91.8957L154.002 92.251L151.102 104.769L144.335 104.415ZM147.835 88.1697C148.039 87.2757 148.525 86.54 149.295 85.9627C150.074 85.3858 151.048 85.1281 152.219 85.1895C153.382 85.2504 154.203 85.5979 154.683 86.232C155.172 86.8666 155.31 87.6393 155.097 88.5503C154.893 89.4443 154.402 90.1885 153.623 90.7827C152.844 91.3682 151.869 91.6303 150.698 91.5689C149.535 91.508 148.714 91.1518 148.235 90.5003C147.757 89.8402 147.623 89.0633 147.835 88.1697Z" fill="black"/>
<path d="M137.425 104.053L138.437 84.7412L145.165 85.0938L144.153 104.405L137.425 104.053Z" fill="black"/>
<rect x="132.511" y="83.207" width="4" height="21.7743" transform="rotate(3 132.511 83.207)" fill="#FF0000"/>
<path d="M266.172 73.263C265.104 72.2687 264.57 71.7715 264.542 71.3795C264.517 71.0404 264.667 70.7121 264.939 70.5079C265.253 70.2718 265.978 70.348 267.43 70.5006L502.197 95.1756C512.333 96.2409 517.401 96.7736 521.045 99.1593C524.251 101.257 526.703 104.324 528.046 107.912C529.572 111.991 528.978 117.052 527.79 127.175L520.379 190.328C519.217 200.231 518.636 205.183 516.271 208.758C514.19 211.903 511.173 214.316 507.648 215.655C503.64 217.176 498.682 216.655 488.765 215.613L306.752 196.483C296.592 195.415 291.512 194.881 287.863 192.488C284.654 190.384 282.201 187.309 280.863 183.712C279.341 179.622 279.95 174.55 281.168 164.407L288.923 99.8281C289.136 98.0525 289.243 97.1647 289.105 96.3236C288.983 95.5788 288.721 94.8637 288.333 94.216C287.896 93.4845 287.242 92.8752 285.932 91.6567L266.172 73.263Z" fill="#FF0000"/>
<path d="M301.33 105.575L303.113 88.6062L305.701 88.8781L303.917 105.847L301.33 105.575ZM306.822 96.0306L307.022 94.1309L314.061 94.8708L313.862 96.7705L306.822 96.0306ZM308.123 103.049L308.937 95.3102L308.979 95.02L309.387 91.1391L311.869 91.4L310.627 103.218C310.563 103.832 310.627 104.263 310.821 104.511C311.015 104.759 311.333 104.906 311.776 104.953C311.978 104.974 312.178 104.975 312.377 104.957C312.575 104.939 312.775 104.901 312.978 104.843L312.774 106.778C312.571 106.843 312.307 106.89 311.982 106.919C311.656 106.955 311.295 106.953 310.899 106.911C309.943 106.81 309.207 106.45 308.691 105.83C308.183 105.211 307.993 104.284 308.123 103.049ZM319.502 90.3051L319.346 91.7852C319.263 92.5778 318.985 93.3576 318.511 94.1248C318.047 94.8851 317.428 95.5035 316.655 95.98L315.289 94.8467C315.708 94.38 316.039 93.8807 316.283 93.3486C316.536 92.8096 316.698 92.2099 316.767 91.5495L316.926 90.0344L319.502 90.3051ZM318.971 103.765L321.417 104.034L321.404 104.162C321.334 104.83 321.515 105.348 321.948 105.715C322.381 106.075 322.986 106.296 323.763 106.378C324.548 106.46 325.17 106.376 325.628 106.126C326.095 105.869 326.355 105.487 326.408 104.982C326.461 104.477 326.307 104.076 325.945 103.779C325.585 103.474 324.786 103.111 323.55 102.691C322.253 102.248 321.281 101.71 320.632 101.076C319.992 100.443 319.723 99.6372 319.826 98.6582C319.935 97.617 320.443 96.822 321.349 96.2731C322.255 95.7242 323.419 95.5244 324.841 95.6739C326.263 95.8233 327.367 96.2693 328.153 97.0118C328.948 97.7473 329.285 98.6823 329.166 99.8166L329.154 99.9332L326.706 99.6759L326.722 99.5244C326.782 98.9572 326.641 98.5064 326.299 98.172C325.958 97.8298 325.403 97.6182 324.633 97.5374C323.88 97.4582 323.314 97.5362 322.936 97.7713C322.558 97.9988 322.346 98.3339 322.3 98.7768C322.255 99.2041 322.425 99.5637 322.811 99.8557C323.197 100.148 324.004 100.503 325.232 100.923C326.529 101.366 327.493 101.907 328.125 102.547C328.758 103.179 329.019 104.016 328.91 105.057C328.792 106.176 328.282 107.029 327.38 107.618C326.478 108.207 325.211 108.415 323.579 108.244C321.955 108.073 320.748 107.6 319.957 106.826C319.174 106.052 318.846 105.071 318.97 103.883L318.971 103.765ZM336.263 105.724C336.392 104.496 336.974 103.595 338.009 103.02C339.051 102.446 340.33 102.239 341.845 102.398L344.479 102.675L344.567 101.836C344.637 101.168 344.518 100.617 344.21 100.184C343.911 99.7442 343.341 99.4801 342.502 99.3919C341.671 99.3045 341.051 99.4083 340.643 99.7032C340.235 99.9981 340.005 100.39 339.954 100.88L339.939 101.02L337.48 100.761L337.497 100.598C337.601 99.6112 338.132 98.8187 339.091 98.2203C340.057 97.6227 341.29 97.4027 342.789 97.5603C344.281 97.7171 345.403 98.1729 346.157 98.9276C346.911 99.6746 347.215 100.74 347.07 102.123L346.502 107.53C346.449 108.028 346.438 108.506 346.469 108.964C346.5 109.415 346.572 109.812 346.686 110.154L346.666 110.34L344.23 110.084C344.142 109.879 344.07 109.624 344.016 109.319C343.97 109.008 343.951 108.7 343.96 108.394C343.637 108.848 343.134 109.231 342.449 109.543C341.772 109.849 340.937 109.95 339.943 109.846C338.785 109.724 337.85 109.312 337.139 108.608C336.428 107.897 336.136 106.936 336.263 105.724ZM338.786 105.824C338.719 106.461 338.85 106.977 339.177 107.373C339.513 107.77 340.065 108.009 340.834 108.089C341.627 108.173 342.358 107.979 343.028 107.507C343.706 107.036 344.079 106.478 344.147 105.833L344.306 104.318L342.045 104.081C341.027 103.974 340.246 104.076 339.703 104.388C339.16 104.7 338.854 105.179 338.786 105.824ZM354.929 111.209L356.787 93.5287L359.293 93.7921L357.435 111.472L354.929 111.209ZM360.512 105.963L360.551 105.59C360.743 103.764 361.426 102.347 362.6 101.339C363.775 100.332 365.236 99.9195 366.984 100.103C368.732 100.287 370.076 100.994 371.015 102.224C371.954 103.454 372.328 104.982 372.136 106.807L372.096 107.18C371.905 108.998 371.222 110.415 370.047 111.431C368.873 112.439 367.412 112.851 365.664 112.667C363.915 112.483 362.572 111.776 361.633 110.546C360.694 109.309 360.321 107.781 360.512 105.963ZM363.11 105.8L363.058 106.289C362.933 107.478 363.106 108.482 363.578 109.302C364.05 110.121 364.814 110.586 365.871 110.697C366.935 110.809 367.779 110.513 368.403 109.809C369.035 109.105 369.413 108.155 369.539 106.959L369.589 106.481C369.715 105.284 369.542 104.28 369.069 103.469C368.598 102.649 367.834 102.184 366.777 102.073C365.72 101.962 364.876 102.258 364.244 102.961C363.614 103.657 363.235 104.603 363.11 105.8ZM373.821 107.362L373.861 106.989C374.054 105.147 374.718 103.725 375.853 102.72C376.987 101.716 378.425 101.306 380.165 101.489C381.812 101.662 383.019 102.217 383.785 103.153C384.551 104.082 384.881 105.127 384.775 106.286L384.773 106.415L382.337 106.159L382.348 106.054C382.417 105.402 382.261 104.828 381.881 104.332C381.501 103.837 380.865 103.542 379.971 103.448C378.93 103.338 378.11 103.633 377.51 104.332C376.91 105.031 376.547 105.983 376.42 107.187L376.368 107.688C376.243 108.869 376.397 109.871 376.829 110.694C377.261 111.517 378.002 111.984 379.051 112.094C379.967 112.191 380.66 112.032 381.127 111.617C381.595 111.203 381.867 110.67 381.944 110.018L381.955 109.913L384.379 110.168L384.367 110.285C384.246 111.435 383.705 112.395 382.744 113.166C381.784 113.929 380.484 114.225 378.845 114.052C377.104 113.869 375.784 113.169 374.883 111.951C373.982 110.725 373.629 109.195 373.821 107.362ZM385.912 110.942C386.041 109.714 386.623 108.813 387.657 108.238C388.699 107.665 389.978 107.457 391.493 107.616L394.127 107.893L394.215 107.054C394.285 106.386 394.167 105.835 393.859 105.402C393.559 104.962 392.99 104.698 392.151 104.61C391.319 104.523 390.7 104.627 390.292 104.921C389.884 105.216 389.654 105.609 389.602 106.098L389.588 106.238L387.129 105.979L387.146 105.816C387.249 104.83 387.78 104.037 388.739 103.439C389.705 102.841 390.938 102.621 392.438 102.779C393.929 102.935 395.052 103.391 395.805 104.146C396.559 104.893 396.864 105.958 396.718 107.341L396.15 112.749C396.098 113.246 396.087 113.724 396.117 114.183C396.148 114.634 396.221 115.03 396.334 115.372L396.314 115.558L393.879 115.302C393.79 115.097 393.719 114.842 393.664 114.538C393.618 114.226 393.6 113.918 393.608 113.613C393.286 114.066 392.782 114.449 392.097 114.762C391.421 115.068 390.585 115.168 389.591 115.064C388.433 114.942 387.499 114.53 386.787 113.827C386.076 113.116 385.784 112.154 385.912 110.942ZM388.435 111.042C388.368 111.679 388.498 112.196 388.826 112.591C389.161 112.988 389.713 113.227 390.482 113.308C391.275 113.391 392.006 113.197 392.676 112.725C393.354 112.254 393.727 111.697 393.795 111.052L393.954 109.537L391.693 109.299C390.675 109.192 389.895 109.295 389.351 109.607C388.808 109.919 388.502 110.397 388.435 111.042ZM399.03 115.844L400.888 98.1639L403.394 98.4273L401.536 116.107L399.03 115.844ZM410.253 117.024L411.505 105.113L413.836 105.358L413.744 106.903L413.802 106.909C414.264 106.4 414.815 106.022 415.454 105.775C416.093 105.52 416.778 105.431 417.508 105.508C418.324 105.594 419.01 105.835 419.565 106.231C420.128 106.628 420.513 107.191 420.719 107.919L420.766 107.924C421.298 107.273 421.904 106.814 422.584 106.548C423.271 106.282 424.019 106.192 424.827 106.277C426.024 106.403 426.935 106.852 427.561 107.625C428.195 108.391 428.427 109.586 428.256 111.209L427.455 118.832L424.95 118.568L425.752 110.934C425.846 110.041 425.722 109.384 425.382 108.963C425.05 108.535 424.538 108.285 423.846 108.213C423.232 108.148 422.682 108.263 422.196 108.557C421.709 108.852 421.3 109.265 420.97 109.796L420.101 118.059L417.596 117.795L418.397 110.173C418.491 109.272 418.368 108.611 418.028 108.19C417.696 107.762 417.18 107.512 416.481 107.438C415.875 107.375 415.328 107.49 414.842 107.785C414.355 108.079 413.95 108.492 413.627 109.024L412.759 117.287L410.253 117.024ZM430.369 113.305L430.408 112.932C430.6 111.106 431.283 109.689 432.458 108.682C433.632 107.674 435.093 107.262 436.841 107.446C438.59 107.629 439.933 108.336 440.872 109.566C441.811 110.796 442.185 112.324 441.993 114.15L441.954 114.523C441.763 116.341 441.08 117.758 439.905 118.773C438.73 119.781 437.269 120.193 435.521 120.009C433.773 119.825 432.429 119.119 431.49 117.889C430.552 116.651 430.178 115.123 430.369 113.305ZM432.967 113.142L432.915 113.632C432.791 114.82 432.964 115.824 433.435 116.644C433.907 117.463 434.671 117.929 435.728 118.04C436.792 118.151 437.637 117.855 438.26 117.151C438.892 116.448 439.271 115.498 439.397 114.301L439.447 113.823C439.573 112.627 439.399 111.623 438.927 110.811C438.455 109.991 437.691 109.526 436.634 109.415C435.578 109.304 434.734 109.6 434.102 110.304C433.471 110.999 433.093 111.946 432.967 113.142ZM443.679 114.704L443.718 114.331C443.902 112.583 444.511 111.194 445.546 110.163C446.582 109.133 447.857 108.698 449.372 108.857C450.188 108.943 450.872 109.16 451.424 109.509C451.977 109.857 452.395 110.286 452.68 110.795L453.427 103.686L455.921 103.948L454.063 121.628L451.743 121.384L451.835 119.839L451.777 119.832C451.43 120.291 450.928 120.662 450.269 120.947C449.62 121.224 448.887 121.32 448.071 121.234C446.525 121.071 445.36 120.38 444.577 119.158C443.795 117.937 443.495 116.452 443.679 114.704ZM446.227 115.007C446.107 116.157 446.255 117.139 446.672 117.953C447.098 118.759 447.831 119.217 448.872 119.327C449.579 119.401 450.198 119.274 450.727 118.944C451.265 118.608 451.674 118.199 451.952 117.718L452.439 113.08C452.275 112.552 451.964 112.075 451.506 111.65C451.056 111.218 450.478 110.964 449.771 110.89C448.722 110.78 447.905 111.079 447.32 111.787C446.743 112.489 446.395 113.414 446.274 114.564L446.227 115.007ZM457.105 116.115L457.144 115.742C457.335 113.924 458.002 112.509 459.145 111.498C460.289 110.48 461.693 110.058 463.356 110.232C465.018 110.407 466.249 111.071 467.047 112.223C467.845 113.367 468.149 114.852 467.957 116.678L467.859 117.611L458.629 116.641L458.813 114.881L465.55 115.589L465.574 115.356C465.658 114.563 465.504 113.86 465.113 113.245C464.723 112.623 464.081 112.265 463.187 112.171C462.162 112.063 461.348 112.366 460.747 113.081C460.154 113.788 459.795 114.736 459.67 115.925L459.617 116.426C459.492 117.615 459.665 118.627 460.135 119.462C460.606 120.289 461.397 120.761 462.508 120.878C463.222 120.953 463.853 120.858 464.399 120.593C464.954 120.322 465.415 119.977 465.78 119.56L467.382 120.919C466.949 121.517 466.296 122.018 465.421 122.421C464.547 122.816 463.511 122.951 462.315 122.825C460.45 122.629 459.068 121.918 458.167 120.693C457.268 119.459 456.914 117.933 457.105 116.115ZM469.68 123.269L471.538 105.59L474.044 105.853L472.185 123.533L469.68 123.269ZM479.75 117.93L480.109 115.858L490.354 116.935L489.994 119.006L479.75 117.93ZM299.305 116.097L300.831 116.257L300.319 124.723C300.324 124.975 300.328 125.309 300.331 125.726C300.343 126.135 300.326 126.444 300.281 126.651L300.351 126.659C300.459 126.45 300.624 126.153 300.845 125.768C301.074 125.384 301.26 125.073 301.403 124.837L305.878 116.788L308.255 117.038L307.779 125.495C307.776 125.746 307.787 126.089 307.812 126.524C307.837 126.958 307.843 127.277 307.83 127.48L307.888 127.486C307.964 127.282 308.118 126.98 308.348 126.58C308.58 126.172 308.771 125.851 308.921 125.615L313.512 117.59L315.353 117.784L308.599 130.471L306.874 130.29L306.806 119.843C306.8 119.67 306.807 119.572 306.825 119.55C306.851 119.522 306.872 119.402 306.886 119.192L306.816 119.184C306.684 119.398 306.576 119.524 306.494 119.563C306.42 119.594 306.328 119.683 306.218 119.828L300.814 129.653L299.112 129.474L299.305 116.097ZM314.583 125.221L315.032 123.642C315.526 121.785 316.428 120.371 317.74 119.401C319.06 118.425 320.579 118.027 322.296 118.207C324.021 118.388 325.257 119.068 326.006 120.247C326.754 121.425 326.875 122.958 326.371 124.845L325.923 126.412C325.412 128.283 324.497 129.699 323.179 130.661C321.861 131.614 320.347 132.001 318.638 131.821C316.929 131.641 315.696 130.966 314.939 129.794C314.191 128.616 314.072 127.091 314.583 125.221ZM316.557 123.59L315.982 125.591C315.622 126.7 315.696 127.604 316.204 128.301C316.719 129 317.657 129.42 319.017 129.563C320.377 129.706 321.521 129.504 322.45 128.958C323.38 128.411 324.025 127.584 324.385 126.475L324.96 124.473C325.333 123.318 325.261 122.399 324.743 121.716C324.226 121.034 323.284 120.62 321.916 120.477C320.556 120.334 319.412 120.536 318.482 121.082C317.562 121.622 316.92 122.457 316.557 123.59ZM326.734 132.377L330.224 119.347L331.599 119.491L331.205 121.111L331.182 121.109C331.688 120.628 332.295 120.232 333.004 119.922C333.713 119.603 334.475 119.487 335.291 119.573C335.501 119.595 335.697 119.635 335.879 119.694C336.062 119.744 336.199 119.786 336.29 119.819L335.872 122.45C335.698 122.393 335.522 122.343 335.346 122.301C335.17 122.251 334.978 122.215 334.768 122.193C333.976 122.109 333.224 122.239 332.512 122.58C331.809 122.915 331.215 123.375 330.729 123.96L328.167 132.528L326.734 132.377ZM334.519 133.196L339.764 113.338L341.197 113.489L337.652 125.925L344.303 120.826L347.415 121.154L337.106 129.096L335.952 133.346L334.519 133.196ZM342.351 134.019L340.124 126.055L341.489 124.949L344.32 134.226L342.351 134.019ZM346.139 130.151L347.573 130.302L347.454 130.761C347.222 131.467 347.348 132.026 347.831 132.439C348.315 132.843 349.039 133.096 350.002 133.197C350.934 133.295 351.707 133.227 352.321 132.993C352.936 132.751 353.349 132.3 353.559 131.638C353.76 131 353.69 130.438 353.348 129.955C353.013 129.472 352.257 129.007 351.078 128.561C349.8 128.089 348.965 127.518 348.572 126.849C348.187 126.18 348.118 125.379 348.365 124.447C348.67 123.19 349.311 122.354 350.29 121.939C351.269 121.515 352.466 121.378 353.88 121.527C355.31 121.677 356.308 122.19 356.876 123.067C357.444 123.944 357.575 124.935 357.27 126.042L357.165 126.479L355.732 126.329L355.808 126.054C356.04 125.269 355.978 124.662 355.622 124.231C355.268 123.794 354.636 123.527 353.727 123.431C352.833 123.337 352.114 123.38 351.569 123.558C351.025 123.729 350.655 124.106 350.46 124.69C350.283 125.253 350.222 125.726 350.276 126.109C350.331 126.484 351.007 126.924 352.305 127.43C353.793 127.994 354.781 128.609 355.269 129.273C355.765 129.938 355.873 130.813 355.594 131.899C355.269 133.122 354.619 134.004 353.643 134.546C352.675 135.08 351.411 135.266 349.849 135.102C348.287 134.937 347.17 134.502 346.498 133.795C345.834 133.089 345.68 132.02 346.034 130.588L346.139 130.151ZM362.81 130.289L363.258 128.71C363.752 126.853 364.655 125.44 365.967 124.47C367.287 123.494 368.805 123.095 370.523 123.276C372.247 123.457 373.484 124.137 374.232 125.315C374.98 126.494 375.102 128.027 374.597 129.914L374.15 131.481C373.639 133.352 372.724 134.768 371.405 135.729C370.088 136.683 368.574 137.07 366.865 136.89C365.155 136.71 363.922 136.035 363.166 134.863C362.417 133.685 362.299 132.16 362.81 130.289ZM364.784 128.659L364.208 130.66C363.848 131.769 363.922 132.673 364.43 133.37C364.946 134.068 365.884 134.489 367.243 134.632C368.603 134.775 369.748 134.573 370.677 134.027C371.606 133.48 372.251 132.652 372.611 131.543L373.187 129.542C373.56 128.387 373.487 127.468 372.97 126.785C372.453 126.102 371.51 125.689 370.143 125.545C368.783 125.403 367.638 125.604 366.709 126.151C365.788 126.69 365.147 127.526 364.784 128.659ZM376.032 137.559L380.104 122.704C380.504 120.986 381.16 119.72 382.07 118.904C382.981 118.089 384.058 117.746 385.301 117.877C385.549 117.903 385.792 117.944 386.03 118.001C386.275 118.058 386.492 118.124 386.681 118.199L386.221 120.224C386.078 120.162 385.899 120.108 385.684 120.062C385.47 120.008 385.246 119.969 385.013 119.944C384.189 119.858 383.477 120.054 382.877 120.533C382.278 121.004 381.827 121.781 381.524 122.865L380.788 125.722L380.75 125.859L377.466 137.71L376.032 137.559ZM376.851 126.522L377.215 124.286L380.047 124.583L380.35 124.615L383.917 124.99L383.552 127.226L376.851 126.522ZM382.885 138.279L386.956 123.424C387.357 121.707 388.012 120.44 388.923 119.625C389.834 118.809 390.91 118.467 392.154 118.597C392.402 118.623 392.645 118.665 392.883 118.721C393.128 118.778 393.345 118.844 393.534 118.919L393.073 120.945C392.931 120.882 392.752 120.828 392.537 120.782C392.322 120.728 392.099 120.689 391.866 120.664C391.042 120.578 390.33 120.774 389.73 121.253C389.13 121.724 388.68 122.502 388.377 123.585L387.641 126.442L387.603 126.579L384.319 138.43L382.885 138.279ZM383.704 127.242L384.068 125.006L386.9 125.304L387.203 125.335L390.77 125.71L390.405 127.946L383.704 127.242ZM388.736 138.894L393.981 119.037L395.414 119.187L390.169 139.045L388.736 138.894ZM393.235 139.367L396.713 126.335L398.147 126.486L394.656 139.516L393.235 139.367ZM397.466 123.775C397.535 123.491 397.676 123.266 397.89 123.1C398.112 122.927 398.364 122.856 398.643 122.885C398.931 122.915 399.138 123.035 399.265 123.245C399.401 123.448 399.434 123.691 399.365 123.974C399.296 124.265 399.153 124.498 398.939 124.672C398.725 124.838 398.478 124.906 398.198 124.877C397.911 124.847 397.699 124.73 397.563 124.527C397.436 124.317 397.404 124.067 397.466 123.775ZM397.687 139.835L401.177 126.804L402.552 126.949L402.11 128.799L402.075 128.796C402.75 128.136 403.489 127.68 404.293 127.426C405.105 127.174 405.974 127.096 406.898 127.193C408.11 127.321 408.991 127.728 409.539 128.414C410.095 129.101 410.155 130.399 409.719 132.309L407.325 140.848L405.891 140.697L408.32 132.056C408.574 131.282 408.478 130.663 408.032 130.199C407.594 129.729 406.909 129.445 405.977 129.347C405.122 129.257 404.325 129.401 403.586 129.779C402.848 130.157 402.221 130.622 401.708 131.173L399.12 139.986L397.687 139.835ZM411.083 135.363L411.543 133.785C412.041 131.889 412.926 130.462 414.197 129.504C415.476 128.547 416.919 128.152 418.528 128.321C420.136 128.49 421.25 129.102 421.87 130.157C422.49 131.205 422.542 132.695 422.024 134.628L421.666 136.358L412.086 135.351L412.412 133.476L420.501 134.326L420.607 134.432C420.963 133.212 421.024 132.264 420.789 131.587C420.554 130.903 419.602 130.473 417.931 130.297C416.781 130.176 415.758 130.422 414.861 131.035C413.964 131.648 413.331 132.544 412.964 133.723L412.4 135.725C412.005 137.011 412.07 138 412.595 138.692C413.12 139.375 414.074 139.79 415.457 139.935C416.296 140.023 417.033 140.077 417.667 140.097C418.31 140.109 418.955 139.992 419.601 139.746L420.259 140.546C419.728 141.119 419.033 141.529 418.174 141.776C417.323 142.024 416.334 142.089 415.208 141.971C413.444 141.786 412.186 141.127 411.433 139.995C410.687 138.864 410.571 137.32 411.083 135.363ZM427.36 136.555L427.719 134.484L437.963 135.561L437.604 137.632L427.36 136.555ZM443.819 134.562L444.018 132.662L451.058 133.402L450.858 135.302L443.819 134.562ZM445.12 141.58L445.933 133.841L445.975 133.551L446.383 129.67L448.865 129.931L447.623 141.749C447.559 142.363 447.624 142.794 447.817 143.042C448.011 143.29 448.33 143.437 448.773 143.484C448.975 143.505 449.175 143.507 449.373 143.488C449.571 143.47 449.772 143.432 449.974 143.375L449.771 145.309C449.568 145.374 449.303 145.421 448.978 145.45C448.652 145.486 448.291 145.484 447.895 145.442C446.939 145.342 446.203 144.981 445.687 144.362C445.179 143.742 444.99 142.815 445.12 141.58ZM451.845 145.527L453.704 127.847L456.198 128.109L455.431 135.405C455.876 134.91 456.433 134.536 457.104 134.285C457.775 134.025 458.519 133.939 459.335 134.024C460.461 134.143 461.346 134.585 461.988 135.352C462.631 136.111 462.869 137.283 462.702 138.868L461.892 146.583L459.386 146.32L460.184 138.721C460.28 137.812 460.146 137.142 459.783 136.711C459.42 136.28 458.877 136.027 458.154 135.951C457.525 135.884 456.955 136.001 456.444 136.301C455.942 136.594 455.533 137.011 455.217 137.551L454.351 145.791L451.845 145.527ZM464.635 143.348C464.764 142.121 465.346 141.22 466.381 140.645C467.423 140.071 468.702 139.864 470.217 140.023L472.851 140.3L472.939 139.461C473.009 138.792 472.89 138.242 472.582 137.809C472.283 137.369 471.713 137.105 470.874 137.017C470.043 136.929 469.423 137.033 469.015 137.328C468.607 137.623 468.377 138.015 468.326 138.504L468.311 138.644L465.852 138.386L465.869 138.223C465.973 137.236 466.504 136.443 467.462 135.845C468.429 135.247 469.662 135.027 471.161 135.185C472.653 135.342 473.775 135.797 474.529 136.552C475.283 137.299 475.587 138.364 475.442 139.747L474.874 145.155C474.821 145.652 474.81 146.13 474.841 146.589C474.872 147.04 474.944 147.437 475.057 147.778L475.038 147.965L472.602 147.709C472.514 147.503 472.442 147.248 472.388 146.944C472.342 146.633 472.323 146.324 472.332 146.019C472.009 146.472 471.506 146.855 470.821 147.168C470.144 147.474 469.309 147.575 468.314 147.47C467.157 147.349 466.222 146.936 465.51 146.233C464.8 145.522 464.508 144.56 464.635 143.348ZM467.158 143.448C467.091 144.086 467.222 144.602 467.549 144.998C467.885 145.394 468.437 145.633 469.206 145.714C469.999 145.797 470.73 145.603 471.4 145.132C472.078 144.661 472.451 144.103 472.519 143.458L472.678 141.943L470.417 141.705C469.399 141.598 468.618 141.701 468.075 142.013C467.532 142.325 467.226 142.804 467.158 143.448ZM477.197 138.07L477.397 136.17L484.436 136.91L484.237 138.81L477.197 138.07ZM478.498 145.088L479.312 137.35L479.354 137.059L479.762 133.178L482.244 133.439L481.002 145.257C480.938 145.871 481.002 146.302 481.196 146.55C481.39 146.798 481.708 146.946 482.151 146.992C482.353 147.013 482.553 147.015 482.752 146.996C482.95 146.978 483.15 146.94 483.353 146.883L483.149 148.817C482.946 148.882 482.682 148.929 482.357 148.958C482.031 148.994 481.67 148.992 481.274 148.95C480.318 148.85 479.582 148.49 479.066 147.87C478.558 147.251 478.368 146.324 478.498 145.088ZM489.877 132.344L489.721 133.825C489.638 134.617 489.36 135.397 488.886 136.164C488.421 136.924 487.803 137.543 487.03 138.019L485.664 136.886C486.083 136.419 486.414 135.92 486.658 135.388C486.911 134.849 487.073 134.249 487.142 133.589L487.301 132.074L489.877 132.344ZM489.346 145.804L491.792 146.073L491.779 146.201C491.709 146.869 491.89 147.387 492.322 147.755C492.756 148.115 493.361 148.335 494.138 148.417C494.923 148.499 495.545 148.416 496.003 148.165C496.47 147.908 496.73 147.527 496.783 147.022C496.836 146.517 496.682 146.116 496.32 145.818C495.96 145.513 495.161 145.151 493.925 144.73C492.628 144.287 491.656 143.749 491.007 143.115C490.367 142.482 490.098 141.676 490.201 140.698C490.31 139.656 490.818 138.861 491.724 138.312C492.63 137.763 493.794 137.564 495.216 137.713C496.638 137.863 497.742 138.309 498.528 139.051C499.323 139.787 499.66 140.722 499.541 141.856L499.529 141.973L497.081 141.715L497.097 141.564C497.157 140.997 497.016 140.546 496.674 140.211C496.333 139.869 495.778 139.658 495.008 139.577C494.255 139.497 493.689 139.575 493.311 139.811C492.933 140.038 492.721 140.373 492.675 140.816C492.63 141.243 492.8 141.603 493.186 141.895C493.571 142.187 494.379 142.543 495.607 142.963C496.904 143.405 497.868 143.946 498.5 144.586C499.133 145.218 499.394 146.055 499.285 147.096C499.167 148.215 498.657 149.069 497.755 149.657C496.853 150.246 495.586 150.454 493.954 150.283C492.33 150.112 491.123 149.64 490.332 148.865C489.549 148.092 489.22 147.111 489.345 145.922L489.346 145.804ZM295.944 141.231L298.403 141.489L299.681 149.177C299.734 149.497 299.772 149.772 299.795 150.002C299.826 150.225 299.854 150.479 299.879 150.765L299.949 150.772C300.033 150.498 300.114 150.255 300.191 150.044C300.269 149.824 300.371 149.564 300.497 149.263L303.671 142.043L305.967 142.284L307.617 150.023C307.686 150.336 307.736 150.609 307.766 150.84C307.797 151.071 307.829 151.326 307.863 151.604L307.921 151.61C308.004 151.344 308.081 151.101 308.151 150.88C308.23 150.653 308.324 150.396 308.432 150.108L311.247 142.839L313.496 143.076L308.631 154.607L306.405 154.373L304.735 146.609C304.679 146.32 304.627 146.032 304.578 145.744C304.53 145.456 304.49 145.169 304.457 144.883L304.399 144.877C304.299 145.149 304.196 145.421 304.089 145.693C303.99 145.965 303.882 146.237 303.768 146.507L300.543 153.757L298.305 153.522L295.944 141.231ZM314.027 155.174L315.886 137.494L318.38 137.756L317.613 145.052C318.058 144.557 318.615 144.183 319.286 143.932C319.957 143.672 320.701 143.586 321.517 143.671C322.643 143.79 323.528 144.232 324.17 144.999C324.813 145.758 325.051 146.93 324.884 148.515L324.073 156.23L321.568 155.967L322.366 148.368C322.462 147.459 322.328 146.789 321.965 146.358C321.602 145.927 321.059 145.674 320.336 145.598C319.707 145.531 319.137 145.648 318.626 145.948C318.124 146.241 317.715 146.658 317.399 147.198L316.533 155.438L314.027 155.174ZM325.697 161.303L325.904 159.333C326.107 159.417 326.327 159.487 326.565 159.544C326.802 159.608 327.033 159.652 327.258 159.676C327.794 159.732 328.279 159.571 328.711 159.192C329.151 158.822 329.634 158.04 330.16 156.846L330.126 156.831L326.852 144.48L329.335 144.74L331.259 152.661C331.337 152.968 331.398 153.249 331.442 153.505C331.486 153.753 331.527 153.997 331.565 154.237L331.623 154.243C331.71 154.016 331.805 153.787 331.908 153.554C332.012 153.313 332.13 153.047 332.263 152.755L335.686 145.408L338.006 145.652L331.692 158.527C331.131 159.67 330.493 160.51 329.777 161.048C329.068 161.586 328.225 161.804 327.246 161.701C326.911 161.666 326.622 161.616 326.378 161.551C326.133 161.486 325.906 161.403 325.697 161.303ZM343.342 148.133L343.541 146.234L350.581 146.974L350.381 148.873L343.342 148.133ZM344.643 155.152L345.456 147.413L345.498 147.123L345.906 143.242L348.389 143.503L347.147 155.32C347.082 155.934 347.147 156.365 347.341 156.613C347.534 156.862 347.853 157.009 348.296 157.056C348.498 157.077 348.698 157.078 348.896 157.06C349.095 157.041 349.295 157.003 349.497 156.946L349.294 158.881C349.091 158.946 348.827 158.993 348.501 159.021C348.176 159.058 347.814 159.055 347.418 159.014C346.463 158.913 345.727 158.553 345.21 157.933C344.702 157.314 344.513 156.387 344.643 155.152ZM351.368 159.099L353.227 141.419L355.721 141.681L354.954 148.977C355.399 148.482 355.956 148.108 356.627 147.856C357.299 147.597 358.042 147.51 358.858 147.596C359.985 147.714 360.869 148.157 361.511 148.924C362.154 149.682 362.392 150.854 362.226 152.439L361.415 160.155L358.909 159.891L359.708 152.293C359.803 151.384 359.669 150.714 359.306 150.283C358.943 149.852 358.4 149.598 357.677 149.522C357.048 149.456 356.478 149.573 355.967 149.873C355.465 150.166 355.056 150.582 354.74 151.122L353.874 159.362L351.368 159.099ZM364.352 154.631L364.391 154.258C364.582 152.44 365.249 151.025 366.393 150.014C367.537 148.995 368.94 148.573 370.603 148.748C372.265 148.923 373.496 149.586 374.294 150.738C375.093 151.883 375.396 153.368 375.204 155.194L375.106 156.126L365.876 155.156L366.061 153.396L372.797 154.104L372.821 153.871C372.905 153.079 372.751 152.375 372.36 151.761C371.97 151.138 371.328 150.78 370.434 150.686C369.409 150.579 368.595 150.882 367.994 151.596C367.401 152.304 367.042 153.252 366.917 154.441L366.864 154.942C366.739 156.131 366.912 157.143 367.382 157.978C367.853 158.805 368.644 159.277 369.755 159.393C370.47 159.469 371.1 159.374 371.646 159.109C372.201 158.838 372.662 158.493 373.028 158.076L374.629 159.434C374.197 160.033 373.543 160.534 372.668 160.937C371.794 161.332 370.758 161.467 369.562 161.341C367.697 161.145 366.315 160.434 365.414 159.208C364.515 157.975 364.161 156.449 364.352 154.631ZM382.13 158.809C382.259 157.581 382.841 156.68 383.875 156.105C384.917 155.531 386.196 155.324 387.711 155.483L390.345 155.76L390.433 154.921C390.503 154.253 390.385 153.702 390.077 153.269C389.777 152.829 389.208 152.565 388.369 152.477C387.537 152.39 386.918 152.493 386.51 152.788C386.102 153.083 385.872 153.475 385.82 153.965L385.806 154.105L383.347 153.846L383.364 153.683C383.467 152.696 383.999 151.904 384.957 151.305C385.923 150.708 387.156 150.488 388.656 150.645C390.147 150.802 391.27 151.258 392.023 152.013C392.777 152.76 393.082 153.825 392.936 155.208L392.368 160.615C392.316 161.113 392.305 161.591 392.335 162.05C392.366 162.501 392.439 162.897 392.552 163.239L392.532 163.425L390.097 163.169C390.008 162.964 389.937 162.709 389.882 162.404C389.836 162.093 389.818 161.785 389.826 161.48C389.504 161.933 389 162.316 388.315 162.629C387.639 162.935 386.803 163.035 385.809 162.931C384.651 162.809 383.717 162.397 383.005 161.693C382.294 160.982 382.002 160.021 382.13 158.809ZM384.653 158.909C384.586 159.546 384.716 160.063 385.044 160.458C385.379 160.855 385.931 161.094 386.701 161.175C387.493 161.258 388.224 161.064 388.895 160.592C389.572 160.121 389.945 159.563 390.013 158.919L390.172 157.404L387.911 157.166C386.893 157.059 386.113 157.161 385.569 157.474C385.026 157.786 384.72 158.264 384.653 158.909ZM394.674 168.611L396.441 151.794L398.761 152.037L398.671 153.56L398.73 153.566C399.069 153.107 399.571 152.739 400.236 152.464C400.909 152.189 401.653 152.094 402.469 152.18C403.984 152.339 405.134 153.022 405.919 154.227C406.712 155.426 407.014 156.919 406.827 158.706L406.787 159.079C406.6 160.858 405.997 162.26 404.979 163.284C403.96 164.301 402.698 164.729 401.19 164.571C400.375 164.485 399.683 164.267 399.115 163.917C398.554 163.567 398.125 163.129 397.827 162.603L397.168 168.873L394.674 168.611ZM398.068 160.307C398.233 160.835 398.543 161.319 399 161.76C399.464 162.202 400.049 162.46 400.756 162.534C401.805 162.644 402.614 162.352 403.182 161.658C403.757 160.964 404.106 160.035 404.229 158.869L404.28 158.38C404.403 157.214 404.254 156.236 403.835 155.446C403.423 154.656 402.692 154.206 401.643 154.096C400.929 154.021 400.302 154.152 399.764 154.488C399.234 154.817 398.831 155.222 398.552 155.704L398.068 160.307ZM408.1 170.022L409.868 153.205L412.187 153.449L412.097 154.971L412.156 154.977C412.495 154.518 412.997 154.15 413.662 153.875C414.335 153.6 415.08 153.505 415.895 153.591C417.41 153.75 418.56 154.433 419.345 155.638C420.138 156.837 420.44 158.33 420.253 160.117L420.213 160.49C420.026 162.27 419.423 163.671 418.405 164.695C417.387 165.712 416.124 166.141 414.617 165.982C413.801 165.896 413.109 165.678 412.541 165.328C411.98 164.978 411.551 164.541 411.253 164.014L410.594 170.284L408.1 170.022ZM411.494 161.718C411.659 162.246 411.969 162.731 412.426 163.171C412.89 163.613 413.475 163.871 414.183 163.945C415.231 164.055 416.04 163.763 416.608 163.069C417.183 162.375 417.532 161.446 417.655 160.28L417.706 159.791C417.829 158.625 417.68 157.647 417.261 156.857C416.849 156.067 416.118 155.618 415.069 155.507C414.355 155.432 413.728 155.563 413.19 155.899C412.661 156.228 412.257 156.634 411.978 157.115L411.494 161.718ZM427.589 167.11L429.447 149.43L431.942 149.692L431.175 156.988C431.62 156.493 432.177 156.119 432.848 155.868C433.519 155.608 434.263 155.521 435.079 155.607C436.205 155.726 437.09 156.168 437.732 156.935C438.375 157.694 438.613 158.866 438.446 160.451L437.635 168.166L435.13 167.903L435.928 160.304C436.024 159.395 435.89 158.725 435.527 158.294C435.164 157.863 434.621 157.609 433.898 157.533C433.269 157.467 432.699 157.584 432.188 157.884C431.686 158.177 431.277 158.593 430.961 159.134L430.095 167.373L427.589 167.11ZM440.379 164.931C440.508 163.703 441.09 162.802 442.125 162.228C443.167 161.654 444.445 161.446 445.961 161.606L448.594 161.882L448.683 161.043C448.753 160.375 448.634 159.825 448.326 159.392C448.027 158.952 447.457 158.688 446.618 158.599C445.787 158.512 445.167 158.616 444.759 158.911C444.351 159.206 444.121 159.598 444.07 160.087L444.055 160.227L441.596 159.969L441.613 159.805C441.717 158.819 442.248 158.026 443.206 157.428C444.173 156.83 445.405 156.61 446.905 156.768C448.397 156.924 449.519 157.38 450.273 158.135C451.027 158.882 451.331 159.947 451.186 161.33L450.618 166.738C450.565 167.235 450.554 167.713 450.585 168.172C450.616 168.623 450.688 169.019 450.801 169.361L450.782 169.548L448.346 169.292C448.258 169.086 448.186 168.831 448.132 168.527C448.086 168.216 448.067 167.907 448.076 167.602C447.753 168.055 447.25 168.438 446.565 168.751C445.888 169.057 445.053 169.158 444.058 169.053C442.901 168.931 441.966 168.519 441.254 167.816C440.544 167.105 440.252 166.143 440.379 164.931ZM442.902 165.031C442.835 165.668 442.965 166.185 443.293 166.581C443.628 166.977 444.181 167.216 444.95 167.297C445.742 167.38 446.474 167.186 447.144 166.714C447.822 166.244 448.195 165.686 448.263 165.041L448.422 163.526L446.161 163.288C445.143 163.181 444.362 163.284 443.819 163.596C443.276 163.908 442.97 164.386 442.902 165.031ZM453.132 166.13L455.579 166.399L455.565 166.527C455.495 167.195 455.676 167.713 456.109 168.081C456.542 168.441 457.148 168.661 457.925 168.743C458.709 168.825 459.331 168.742 459.789 168.491C460.256 168.234 460.516 167.853 460.569 167.348C460.622 166.843 460.468 166.442 460.107 166.144C459.746 165.839 458.947 165.477 457.711 165.056C456.414 164.613 455.442 164.075 454.794 163.441C454.153 162.808 453.884 162.002 453.987 161.024C454.097 159.982 454.604 159.187 455.511 158.638C456.417 158.089 457.581 157.89 459.002 158.039C460.424 158.189 461.528 158.635 462.314 159.377C463.109 160.113 463.447 161.048 463.327 162.182L463.315 162.298L460.868 162.041L460.884 161.89C460.943 161.323 460.802 160.872 460.46 160.537C460.119 160.195 459.564 159.984 458.795 159.903C458.041 159.823 457.475 159.901 457.097 160.137C456.72 160.364 456.508 160.699 456.461 161.142C456.416 161.569 456.587 161.929 456.972 162.221C457.358 162.513 458.165 162.869 459.393 163.289C460.69 163.731 461.654 164.272 462.286 164.912C462.919 165.544 463.181 166.381 463.071 167.422C462.954 168.541 462.444 169.395 461.541 169.983C460.639 170.572 459.372 170.78 457.74 170.609C456.116 170.438 454.909 169.966 454.119 169.191C453.336 168.418 453.007 167.437 453.132 166.248L453.132 166.13ZM293.217 173.455L295.664 173.723L295.65 173.852C295.58 174.52 295.761 175.038 296.194 175.405C296.627 175.765 297.233 175.986 298.009 176.067C298.794 176.15 299.416 176.066 299.874 175.816C300.341 175.558 300.601 175.177 300.654 174.672C300.707 174.167 300.553 173.766 300.192 173.469C299.831 173.164 299.032 172.801 297.796 172.38C296.499 171.938 295.527 171.4 294.879 170.766C294.238 170.133 293.969 169.327 294.072 168.348C294.182 167.307 294.689 166.512 295.595 165.963C296.502 165.414 297.666 165.214 299.087 165.364C300.509 165.513 301.613 165.959 302.399 166.702C303.194 167.437 303.532 168.372 303.412 169.506L303.4 169.623L300.953 169.366L300.969 169.214C301.028 168.647 300.887 168.196 300.545 167.862C300.204 167.52 299.649 167.308 298.88 167.227C298.126 167.148 297.56 167.226 297.182 167.461C296.804 167.689 296.593 168.024 296.546 168.467C296.501 168.894 296.671 169.254 297.057 169.545C297.443 169.837 298.25 170.193 299.478 170.613C300.775 171.056 301.739 171.597 302.371 172.237C303.004 172.869 303.266 173.705 303.156 174.747C303.039 175.865 302.529 176.719 301.626 177.308C300.724 177.896 299.457 178.105 297.825 177.933C296.201 177.763 294.994 177.29 294.203 176.516C293.421 175.742 293.092 174.761 293.217 173.572L293.217 173.455ZM303.841 183.138L304.048 181.168C304.252 181.252 304.472 181.323 304.71 181.379C304.947 181.443 305.178 181.487 305.403 181.511C305.939 181.567 306.423 181.406 306.856 181.027C307.295 180.657 307.778 179.875 308.304 178.681L308.271 178.666L304.997 166.315L307.479 166.576L309.404 174.496C309.482 174.803 309.543 175.084 309.586 175.34C309.631 175.588 309.672 175.832 309.71 176.072L309.768 176.078C309.855 175.851 309.95 175.622 310.053 175.389C310.156 175.148 310.275 174.882 310.408 174.59L313.831 167.243L316.15 167.487L309.836 180.362C309.276 181.505 308.638 182.346 307.922 182.883C307.213 183.421 306.369 183.639 305.39 183.536C305.056 183.501 304.767 183.451 304.522 183.386C304.278 183.321 304.051 183.238 303.841 183.138ZM316.13 175.863L318.576 176.132L318.563 176.26C318.493 176.928 318.674 177.446 319.107 177.813C319.54 178.173 320.145 178.394 320.922 178.476C321.707 178.558 322.329 178.474 322.787 178.224C323.254 177.967 323.514 177.585 323.567 177.08C323.62 176.575 323.466 176.174 323.104 175.877C322.744 175.572 321.945 175.209 320.709 174.789C319.412 174.346 318.44 173.808 317.791 173.174C317.151 172.541 316.882 171.735 316.985 170.756C317.094 169.715 317.602 168.92 318.508 168.371C319.414 167.822 320.578 167.622 322 167.772C323.422 167.921 324.526 168.367 325.312 169.11C326.107 169.845 326.444 170.78 326.325 171.915L326.313 172.031L323.866 171.774L323.881 171.622C323.941 171.055 323.8 170.604 323.458 170.27C323.117 169.928 322.562 169.716 321.793 169.635C321.039 169.556 320.473 169.634 320.095 169.869C319.717 170.097 319.505 170.432 319.459 170.875C319.414 171.302 319.584 171.662 319.97 171.954C320.356 172.246 321.163 172.601 322.391 173.021C323.688 173.464 324.652 174.005 325.284 174.645C325.917 175.277 326.178 176.114 326.069 177.155C325.951 178.274 325.441 179.127 324.539 179.716C323.637 180.305 322.37 180.513 320.738 180.342C319.114 180.171 317.907 179.698 317.116 178.924C316.334 178.15 316.005 177.169 316.13 175.981L316.13 175.863ZM327.663 170.618L327.863 168.718L334.902 169.458L334.703 171.358L327.663 170.618ZM328.964 177.636L329.778 169.897L329.82 169.607L330.228 165.726L332.71 165.987L331.468 177.805C331.404 178.419 331.468 178.85 331.662 179.098C331.856 179.346 332.174 179.493 332.617 179.54C332.819 179.561 333.02 179.563 333.218 179.544C333.416 179.526 333.617 179.488 333.819 179.431L333.616 181.365C333.412 181.43 333.148 181.477 332.823 181.506C332.497 181.542 332.136 181.54 331.74 181.498C330.784 181.398 330.048 181.037 329.532 180.418C329.024 179.798 328.834 178.871 328.964 177.636ZM335.597 175.741L335.636 175.368C335.827 173.55 336.495 172.135 337.638 171.124C338.782 170.105 340.185 169.683 341.848 169.858C343.511 170.033 344.741 170.696 345.539 171.848C346.338 172.993 346.641 174.478 346.449 176.304L346.351 177.236L337.121 176.266L337.306 174.506L344.042 175.214L344.067 174.981C344.15 174.189 343.996 173.485 343.605 172.871C343.215 172.248 342.573 171.89 341.68 171.796C340.654 171.688 339.84 171.992 339.239 172.706C338.646 173.414 338.287 174.362 338.162 175.551L338.11 176.052C337.985 177.241 338.157 178.253 338.627 179.087C339.098 179.915 339.889 180.387 341 180.503C341.715 180.579 342.345 180.484 342.892 180.219C343.447 179.948 343.907 179.603 344.273 179.186L345.874 180.544C345.442 181.143 344.788 181.644 343.913 182.047C343.039 182.442 342.004 182.577 340.807 182.451C338.942 182.255 337.56 181.544 336.66 180.318C335.76 179.085 335.406 177.559 335.597 175.741ZM348.114 182.889L349.366 170.978L351.697 171.223L351.605 172.769L351.663 172.775C352.125 172.266 352.676 171.888 353.314 171.64C353.954 171.386 354.639 171.297 355.369 171.373C356.185 171.459 356.87 171.7 357.426 172.096C357.989 172.493 358.374 173.056 358.58 173.785L358.627 173.79C359.158 173.138 359.764 172.68 360.444 172.413C361.132 172.148 361.88 172.058 362.688 172.143C363.885 172.268 364.796 172.718 365.422 173.49C366.056 174.256 366.288 175.451 366.117 177.075L365.316 184.697L362.81 184.434L363.613 176.8C363.707 175.906 363.583 175.249 363.242 174.829C362.91 174.401 362.399 174.151 361.707 174.078C361.093 174.013 360.543 174.128 360.056 174.423C359.57 174.717 359.161 175.13 358.83 175.661L357.962 183.924L355.456 183.661L356.257 176.039C356.352 175.137 356.229 174.476 355.888 174.056C355.556 173.628 355.041 173.377 354.341 173.304C353.735 173.24 353.189 173.356 352.702 173.65C352.216 173.945 351.811 174.358 351.488 174.889L350.62 183.152L348.114 182.889ZM373.87 185.596L375.122 173.685L377.465 173.931L377.378 175.431L377.436 175.437C377.775 174.977 378.204 174.594 378.724 174.288C379.251 173.982 379.841 173.863 380.493 173.932C380.664 173.949 380.837 173.987 381.012 174.045C381.195 174.096 381.324 174.141 381.398 174.18L381.166 176.383C381.022 176.336 380.865 176.296 380.696 176.262C380.527 176.221 380.342 176.19 380.14 176.169C379.519 176.103 378.953 176.221 378.442 176.52C377.931 176.82 377.531 177.226 377.242 177.737L376.388 185.861L373.87 185.596ZM381.633 180.579L381.672 180.206C381.863 178.388 382.53 176.974 383.673 175.963C384.817 174.944 386.221 174.522 387.883 174.696C389.546 174.871 390.776 175.535 391.574 176.687C392.373 177.831 392.677 179.317 392.485 181.142L392.387 182.075L383.156 181.105L383.341 179.345L390.078 180.053L390.102 179.82C390.186 179.027 390.032 178.324 389.641 177.709C389.25 177.087 388.609 176.729 387.715 176.635C386.689 176.527 385.876 176.83 385.275 177.545C384.682 178.252 384.323 179.201 384.198 180.389L384.145 180.89C384.02 182.079 384.193 183.091 384.663 183.926C385.134 184.753 385.924 185.225 387.036 185.342C387.75 185.417 388.381 185.322 388.927 185.058C389.482 184.786 389.942 184.442 390.308 184.024L391.91 185.383C391.477 185.982 390.824 186.482 389.949 186.885C389.075 187.281 388.039 187.415 386.843 187.289C384.978 187.093 383.595 186.383 382.695 185.157C381.796 183.923 381.442 182.397 381.633 180.579ZM394.056 181.885L394.096 181.512C394.28 179.756 394.89 178.367 395.924 177.344C396.959 176.314 398.227 175.878 399.726 176.035C400.581 176.125 401.29 176.369 401.853 176.766C402.424 177.163 402.835 177.623 403.087 178.144L403.145 178.151L403.373 176.654L405.692 176.898L403.925 193.716L401.431 193.454L402.092 187.16C401.699 187.614 401.195 187.957 400.581 188.191C399.975 188.426 399.249 188.499 398.402 188.41C396.887 188.251 395.738 187.565 394.954 186.351C394.171 185.13 393.872 183.641 394.056 181.885ZM396.605 182.188C396.483 183.354 396.63 184.339 397.048 185.145C397.467 185.943 398.197 186.397 399.238 186.507C399.945 186.581 400.568 186.454 401.105 186.125C401.651 185.79 402.056 185.377 402.319 184.886L402.806 180.259C402.641 179.732 402.33 179.255 401.872 178.83C401.422 178.398 400.84 178.144 400.125 178.069C399.084 177.959 398.275 178.255 397.699 178.957C397.123 179.65 396.774 180.58 396.652 181.745L396.605 182.188ZM407.91 184.838L408.711 177.215L411.216 177.479L410.415 185.101C410.319 186.018 410.449 186.687 410.805 187.11C411.169 187.533 411.709 187.782 412.423 187.857C413.053 187.923 413.623 187.806 414.133 187.507C414.652 187.208 415.072 186.796 415.394 186.272L416.263 178.009L418.769 178.273L417.517 190.184L415.186 189.939L415.265 188.403L415.218 188.398C414.756 188.908 414.194 189.284 413.532 189.529C412.878 189.775 412.162 189.856 411.385 189.775C410.196 189.65 409.277 189.204 408.627 188.436C407.978 187.661 407.739 186.461 407.91 184.838ZM420.733 190.522L421.985 178.611L424.491 178.874L423.239 190.785L420.733 190.522ZM422.104 174.9C422.147 174.496 422.311 174.171 422.595 173.926C422.889 173.674 423.281 173.574 423.77 173.625C424.26 173.677 424.622 173.852 424.858 174.152C425.093 174.452 425.189 174.808 425.146 175.219C425.104 175.623 424.936 175.951 424.642 176.203C424.349 176.447 423.958 176.544 423.469 176.492C422.979 176.441 422.617 176.265 422.381 175.966C422.154 175.659 422.062 175.304 422.104 174.9ZM426.432 191.121L427.684 179.21L430.027 179.456L429.94 180.955L429.998 180.961C430.337 180.502 430.766 180.119 431.286 179.812C431.813 179.506 432.403 179.387 433.055 179.456C433.226 179.474 433.399 179.512 433.574 179.569C433.757 179.62 433.886 179.665 433.96 179.704L433.729 181.907C433.584 181.86 433.427 181.82 433.258 181.787C433.09 181.746 432.904 181.714 432.702 181.693C432.081 181.628 431.515 181.745 431.004 182.045C430.493 182.345 430.093 182.75 429.804 183.262L428.95 191.385L426.432 191.121ZM434.195 186.104L434.234 185.731C434.425 183.913 435.092 182.498 436.235 181.487C437.379 180.468 438.783 180.046 440.445 180.221C442.108 180.396 443.339 181.059 444.137 182.211C444.935 183.356 445.239 184.841 445.047 186.667L444.949 187.599L435.718 186.629L435.903 184.869L442.64 185.577L442.664 185.344C442.748 184.552 442.594 183.848 442.203 183.234C441.812 182.611 441.171 182.253 440.277 182.159C439.251 182.052 438.438 182.355 437.837 183.069C437.244 183.777 436.885 184.725 436.76 185.914L436.707 186.415C436.582 187.604 436.755 188.616 437.225 189.451C437.696 190.278 438.487 190.75 439.598 190.866C440.312 190.942 440.943 190.847 441.489 190.582C442.044 190.311 442.504 189.966 442.87 189.549L444.472 190.907C444.039 191.506 443.386 192.007 442.511 192.41C441.637 192.805 440.601 192.94 439.405 192.814C437.54 192.618 436.157 191.907 435.257 190.681C434.358 189.448 434.004 187.922 434.195 186.104ZM446.711 193.252L447.963 181.341L450.294 181.586L450.202 183.132L450.261 183.138C450.723 182.629 451.273 182.251 451.912 182.004C452.551 181.749 453.236 181.66 453.967 181.736C454.782 181.822 455.468 182.063 456.023 182.459C456.587 182.856 456.971 183.419 457.177 184.148L457.224 184.153C457.756 183.502 458.362 183.043 459.042 182.776C459.73 182.511 460.478 182.421 461.286 182.506C462.482 182.631 463.393 183.081 464.019 183.853C464.653 184.619 464.885 185.814 464.715 187.438L463.914 195.06L461.408 194.797L462.21 187.163C462.304 186.269 462.181 185.612 461.84 185.192C461.508 184.764 460.996 184.514 460.305 184.441C459.691 184.377 459.141 184.492 458.654 184.786C458.167 185.081 457.759 185.493 457.428 186.024L456.56 194.287L454.054 194.024L454.855 186.402C454.95 185.5 454.827 184.839 454.486 184.419C454.154 183.991 453.638 183.74 452.939 183.667C452.333 183.603 451.787 183.719 451.3 184.013C450.813 184.308 450.409 184.721 450.086 185.252L449.217 193.515L446.711 193.252ZM466.827 189.534L466.867 189.161C467.058 187.343 467.725 185.928 468.868 184.917C470.012 183.898 471.415 183.476 473.078 183.651C474.741 183.826 475.971 184.489 476.769 185.641C477.568 186.786 477.872 188.271 477.68 190.097L477.582 191.029L468.351 190.059L468.536 188.299L475.273 189.007L475.297 188.774C475.38 187.982 475.226 187.278 474.835 186.663C474.445 186.041 473.803 185.683 472.91 185.589C471.884 185.481 471.071 185.785 470.469 186.499C469.876 187.207 469.518 188.155 469.393 189.344L469.34 189.845C469.215 191.034 469.388 192.045 469.858 192.88C470.328 193.708 471.119 194.18 472.23 194.296C472.945 194.371 473.576 194.277 474.122 194.012C474.677 193.74 475.137 193.396 475.503 192.979L477.104 194.337C476.672 194.936 476.019 195.437 475.144 195.84C474.269 196.235 473.234 196.37 472.037 196.244C470.173 196.048 468.79 195.337 467.89 194.111C466.991 192.878 466.636 191.352 466.827 189.534ZM479.344 196.682L480.596 184.771L482.927 185.016L482.838 186.538L482.896 186.544C483.334 186.041 483.884 185.666 484.546 185.422C485.209 185.169 485.928 185.084 486.705 185.166C487.902 185.291 488.826 185.734 489.476 186.494C490.135 187.254 490.379 188.446 490.208 190.07L489.402 197.739L486.896 197.476L487.699 189.842C487.793 188.941 487.663 188.279 487.306 187.856C486.95 187.434 486.411 187.185 485.688 187.109C485.074 187.044 484.505 187.157 483.979 187.448C483.462 187.739 483.041 188.15 482.718 188.682L481.85 196.945L479.344 196.682ZM491.923 187.882L492.122 185.982L499.162 186.722L498.962 188.622L491.923 187.882ZM493.224 194.9L494.037 187.162L494.079 186.871L494.487 182.991L496.97 183.251L495.727 195.069C495.663 195.683 495.728 196.114 495.922 196.362C496.115 196.61 496.434 196.758 496.877 196.804C497.079 196.825 497.279 196.827 497.477 196.808C497.675 196.79 497.876 196.752 498.078 196.695L497.875 198.63C497.672 198.695 497.408 198.741 497.082 198.77C496.757 198.807 496.395 198.804 495.999 198.762C495.044 198.662 494.308 198.302 493.791 197.682C493.283 197.063 493.094 196.136 493.224 194.9ZM499.643 195.151L502.089 195.42L502.075 195.548C502.005 196.216 502.187 196.734 502.619 197.101C503.053 197.461 503.658 197.682 504.435 197.764C505.22 197.846 505.841 197.762 506.3 197.512C506.767 197.255 507.027 196.873 507.08 196.368C507.133 195.863 506.978 195.462 506.617 195.165C506.256 194.86 505.458 194.497 504.222 194.077C502.925 193.634 501.952 193.096 501.304 192.462C500.664 191.829 500.395 191.023 500.498 190.044C500.607 189.003 501.115 188.208 502.021 187.659C502.927 187.11 504.091 186.91 505.513 187.06C506.935 187.209 508.039 187.655 508.825 188.398C509.619 189.133 509.957 190.068 509.838 191.203L509.826 191.319L507.378 191.062L507.394 190.91C507.454 190.343 507.313 189.892 506.971 189.558C506.63 189.216 506.074 189.004 505.305 188.923C504.552 188.844 503.986 188.922 503.607 189.157C503.23 189.385 503.018 189.72 502.971 190.163C502.927 190.59 503.097 190.95 503.483 191.242C503.868 191.534 504.675 191.889 505.904 192.309C507.201 192.752 508.165 193.293 508.797 193.933C509.429 194.565 509.691 195.402 509.582 196.443C509.464 197.562 508.954 198.415 508.052 199.004C507.149 199.593 505.882 199.801 504.251 199.63C502.627 199.459 501.42 198.986 500.629 198.212C499.846 197.438 499.517 196.457 499.642 195.268L499.643 195.151ZM290.922 195.177L290.962 194.804C291.153 192.979 291.837 191.562 293.011 190.554C294.185 189.546 295.646 189.134 297.394 189.318C299.143 189.502 300.486 190.208 301.425 191.438C302.364 192.668 302.738 194.196 302.546 196.022L302.507 196.395C302.316 198.213 301.633 199.63 300.458 200.645C299.283 201.653 297.822 202.065 296.074 201.882C294.326 201.698 292.982 200.991 292.043 199.761C291.105 198.523 290.731 196.996 290.922 195.177ZM293.52 195.014L293.469 195.504C293.344 196.693 293.517 197.697 293.989 198.516C294.46 199.336 295.224 199.801 296.281 199.912C297.345 200.024 298.19 199.728 298.814 199.023C299.445 198.32 299.824 197.37 299.95 196.173L300 195.696C300.126 194.499 299.952 193.495 299.48 192.683C299.008 191.864 298.244 191.399 297.187 191.288C296.131 191.176 295.287 191.473 294.655 192.176C294.024 192.872 293.646 193.818 293.52 195.014ZM304.849 202.474L306.275 188.908C306.425 187.478 306.923 186.439 307.769 185.789C308.616 185.132 309.684 184.871 310.974 185.007C311.238 185.034 311.497 185.077 311.75 185.135C312.003 185.193 312.243 185.266 312.47 185.352L312.149 187.287C311.989 187.238 311.817 187.193 311.633 187.15C311.45 187.099 311.261 187.064 311.067 187.043C310.414 186.975 309.888 187.12 309.489 187.478C309.091 187.829 308.848 188.416 308.762 189.24L308.518 191.559L308.495 191.781L307.343 202.736L304.849 202.474ZM304.037 192.267L304.236 190.367L306.999 190.657L307.441 190.704L311.054 191.084L310.855 192.983L304.037 192.267ZM316.532 200.179C316.661 198.951 317.243 198.05 318.277 197.475C319.32 196.901 320.598 196.694 322.113 196.853L324.747 197.13L324.835 196.291C324.906 195.623 324.787 195.072 324.479 194.639C324.179 194.199 323.61 193.935 322.771 193.847C321.94 193.759 321.32 193.863 320.912 194.158C320.504 194.453 320.274 194.845 320.223 195.335L320.208 195.475L317.749 195.216L317.766 195.053C317.87 194.066 318.401 193.274 319.359 192.675C320.325 192.078 321.558 191.858 323.058 192.015C324.55 192.172 325.672 192.628 326.426 193.383C327.18 194.13 327.484 195.195 327.339 196.578L326.77 201.985C326.718 202.483 326.707 202.961 326.737 203.419C326.769 203.87 326.841 204.267 326.954 204.609L326.935 204.795L324.499 204.539C324.41 204.333 324.339 204.079 324.285 203.774C324.239 203.463 324.22 203.155 324.229 202.849C323.906 203.302 323.402 203.685 322.717 203.998C322.041 204.304 321.206 204.405 320.211 204.301C319.053 204.179 318.119 203.766 317.407 203.063C316.696 202.352 316.405 201.391 316.532 200.179ZM319.055 200.279C318.988 200.916 319.118 201.432 319.446 201.828C319.781 202.225 320.334 202.463 321.103 202.544C321.895 202.628 322.627 202.433 323.297 201.962C323.975 201.491 324.348 200.933 324.415 200.288L324.575 198.773L322.314 198.536C321.296 198.429 320.515 198.531 319.972 198.843C319.428 199.155 319.123 199.634 319.055 200.279ZM332.926 211.47L334.982 207.939C335.539 208.398 336.417 208.828 337.616 209.229C338.822 209.631 340.141 209.907 341.57 210.057C342.86 210.193 344.014 210.129 345.031 209.867C346.056 209.605 346.696 209.052 346.949 208.207L347.444 204.959C346.715 205.543 345.794 205.972 344.681 206.248C343.576 206.517 342.309 206.576 340.88 206.426C338.448 206.17 336.625 205.421 335.413 204.178C334.2 202.935 333.867 201.325 334.412 199.348L334.505 199.028C335.057 197.059 336.228 195.599 338.017 194.648C339.807 193.689 341.933 193.339 344.396 193.598C345.748 193.74 346.902 194.05 347.857 194.527C348.813 194.997 349.434 195.55 349.721 196.185L349.803 196.193L350.278 194.476L356.21 195.099L353.03 207.974C352.379 210.364 350.935 212.031 348.699 212.974C346.471 213.918 343.904 214.238 340.998 213.932C339.149 213.738 337.51 213.409 336.082 212.944C334.653 212.488 333.601 211.996 332.926 211.47ZM340.478 200.268C340.269 200.985 340.457 201.55 341.042 201.965C341.628 202.372 342.527 202.64 343.739 202.767C344.811 202.88 345.727 202.835 346.487 202.632C347.254 202.43 347.825 202.152 348.2 201.798L348.9 199.739C348.731 199.25 348.323 198.838 347.675 198.503C347.034 198.168 346.193 197.947 345.152 197.837C343.87 197.702 342.857 197.777 342.112 198.06C341.368 198.343 340.903 198.808 340.717 199.457L340.478 200.268ZM355.648 204.031C356.037 202.65 357.057 201.692 358.707 201.159C360.367 200.618 362.568 200.492 365.311 200.781L369.947 201.291L370.146 200.405C370.244 200.148 370.057 199.94 369.587 199.781C369.117 199.621 368.318 199.482 367.192 199.364C366.088 199.248 365.257 199.231 364.699 199.314C364.141 199.389 363.818 199.583 363.73 199.896L363.677 200.067L357.931 199.463L357.973 199.291C358.377 197.841 359.514 196.852 361.384 196.326C363.261 195.801 365.614 195.687 368.442 195.984C371.302 196.285 373.389 196.865 374.705 197.726C376.029 198.58 376.485 199.732 376.074 201.181L374.477 207.176C374.343 207.633 374.276 208.082 374.277 208.522C374.287 208.955 374.358 209.32 374.492 209.617L374.439 209.788L368.46 209.16C368.385 208.971 368.339 208.735 368.322 208.45C368.305 208.165 368.324 207.873 368.379 207.572C367.877 208.014 366.971 208.339 365.661 208.547C364.358 208.756 362.825 208.768 361.062 208.582C359.104 208.377 357.623 207.887 356.62 207.114C355.618 206.333 355.294 205.305 355.648 204.031ZM361.79 204.228C361.67 204.624 361.82 204.919 362.239 205.112C362.659 205.306 363.432 205.462 364.559 205.58C365.709 205.701 366.727 205.655 367.613 205.441C368.5 205.228 369.029 204.832 369.199 204.253L369.334 203.867L365.816 203.485C364.58 203.355 363.626 203.357 362.952 203.49C362.286 203.625 361.899 203.871 361.79 204.228ZM376.431 209.998L379.869 197.586L385.801 198.209L385.371 200.285C386.224 199.487 387.218 198.963 388.352 198.713C389.494 198.464 390.686 198.404 391.929 198.535C393.312 198.681 394.44 199.05 395.312 199.645C396.185 200.239 396.714 200.955 396.901 201.791L396.855 201.787C397.767 201.026 398.936 200.481 400.361 200.152C401.795 199.816 403.223 199.722 404.644 199.872C406.517 200.068 407.947 200.741 408.934 201.89C409.921 203.03 410.11 204.786 409.499 207.157L407.701 213.284L401.64 212.647L403.421 206.577C403.584 205.777 403.474 205.145 403.09 204.681C402.716 204.209 402.039 203.918 401.061 203.808C400.223 203.712 399.471 203.802 398.806 204.077C398.14 204.353 397.551 204.762 397.039 205.306L395.09 211.959L389.018 211.32L390.77 205.307C390.958 204.486 390.858 203.835 390.468 203.354C390.087 202.874 389.403 202.582 388.416 202.479C387.608 202.394 386.868 202.481 386.197 202.74C385.533 203 384.939 203.421 384.414 204.002L382.492 210.634L376.431 209.998ZM411.16 207.391L411.24 207.081C411.795 205.081 413.175 203.612 415.379 202.673C417.592 201.727 420.178 201.41 423.138 201.721C426.13 202.035 428.32 202.835 429.709 204.12C431.106 205.398 431.53 207.01 430.98 208.955L430.583 210.493L414.942 208.849L415.549 206.556L425.257 207.576L425.297 207.757C425.436 207.175 425.302 206.701 424.892 206.336C424.491 205.972 423.501 205.707 421.924 205.541C420.619 205.404 419.57 205.474 418.779 205.752C417.989 206.023 417.48 206.566 417.253 207.383L416.979 208.309C416.748 209.156 416.934 209.777 417.537 210.17C418.14 210.563 419.176 210.837 420.644 210.992C421.693 211.102 422.602 211.119 423.372 211.043C424.143 210.959 424.885 210.703 425.598 210.275L429.316 212.905C428.496 213.832 427.267 214.461 425.63 214.791C424.001 215.115 422.037 215.156 419.737 214.914C416.637 214.589 414.29 213.784 412.697 212.501C411.104 211.21 410.592 209.507 411.16 207.391Z" fill="black"/>
<rect x="296.191" y="79.8945" width="239.447" height="129.502" rx="18" transform="rotate(6 296.191 79.8945)" stroke="black" stroke-width="3"/>
</svg>
