<svg width="288" height="257" viewBox="0 0 288 257" fill="none" xmlns="http://www.w3.org/2000/svg">
<path d="M253.41 16.3086C258.386 16.5694 262.329 16.7733 265.488 17.1988C268.688 17.6298 271.39 18.3219 273.82 19.7252C277.752 21.9954 280.864 25.4519 282.711 29.5996C283.853 32.1636 284.259 34.9231 284.353 38.1504C284.446 41.3367 284.236 45.2788 283.976 50.2546L282.127 85.5246C281.866 90.5003 281.663 94.4429 281.237 97.602C280.806 100.802 280.114 103.504 278.711 105.934C276.44 109.866 272.984 112.979 268.836 114.825C266.272 115.967 263.513 116.373 260.285 116.467C257.099 116.56 253.157 116.35 248.181 116.09L58.2124 106.134C53.2366 105.873 49.2942 105.669 46.135 105.244C42.9353 104.813 40.2334 104.121 37.8027 102.717C33.8707 100.447 30.7576 96.9906 28.9108 92.8428C27.7693 90.2789 27.3643 87.5192 27.2701 84.2921C27.1772 81.1059 27.3865 77.1635 27.6473 72.1879L29.7909 31.286C29.9081 29.0495 29.8858 28.7046 29.8182 28.4505C29.7287 28.1138 29.5694 27.799 29.3513 27.5274C29.1866 27.3224 28.9226 27.1005 27.0511 25.8695L7.37712 12.9296C6.69801 12.4829 6.01048 12.0339 5.5016 11.6402C5.24176 11.4391 4.8983 11.1547 4.58256 10.797C4.28214 10.4565 3.79065 9.80938 3.59511 8.87061C3.26819 7.30047 3.80138 5.67513 4.99513 4.60405L5.12927 4.48884C5.80485 3.93533 6.51614 3.72793 6.93215 3.63769C7.39859 3.53655 7.84386 3.5112 8.17233 3.5032C8.8155 3.48755 9.63449 3.53289 10.4461 3.57542L253.41 16.3086Z" fill="#F7F7F7" stroke="black" stroke-width="7"/>
<path d="M43.3818 35.0195L44.0515 22.2402L46.6232 22.3749L49.6612 31.7489C49.7219 31.934 49.7766 32.1217 49.8253 32.312C49.874 32.5023 49.9138 32.6951 49.9446 32.8903L50.006 32.8936C50.063 32.7029 50.1256 32.5155 50.1939 32.3313C50.2622 32.1472 50.3363 31.9662 50.416 31.7885L54.4172 22.7834L57.0152 22.9196L56.3454 35.6989L54.3969 35.5968L54.8634 26.6969C54.8729 26.5155 54.8865 26.3109 54.9043 26.083C54.9222 25.8551 54.9475 25.651 54.9804 25.4709L54.9102 25.4672C54.8656 25.6467 54.8051 25.8489 54.7288 26.0738C54.6525 26.2986 54.5745 26.4999 54.4947 26.6776L50.6228 35.399L48.9289 35.3102L45.9986 26.2323C45.9379 26.0472 45.8784 25.8388 45.8201 25.6069C45.768 25.3695 45.729 25.162 45.7031 24.9847L45.6417 24.9814C45.6503 25.1521 45.6515 25.3545 45.6451 25.5889C45.6445 25.8236 45.6395 26.0316 45.6299 26.213L45.1635 35.1129L43.3818 35.0195ZM61.3708 26.8003L61.2098 29.8723L63.2987 29.9817C64.4456 30.0418 65.309 30.3599 65.889 30.936C66.4752 31.5065 66.7438 32.2599 66.6947 33.1961C66.6456 34.1323 66.2997 34.8564 65.6567 35.3684C65.0197 35.8807 64.1277 36.1068 62.9809 36.0467L58.9698 35.8364L59.4486 26.6996L61.3708 26.8003ZM63.0574 31.3949L61.1353 31.2941L60.9665 34.5153L62.8886 34.616C63.544 34.6504 64.014 34.5254 64.2988 34.2411C64.584 33.9509 64.7392 33.563 64.7647 33.0773C64.7892 32.6092 64.6746 32.2219 64.4207 31.9152C64.1672 31.6027 63.7128 31.4292 63.0574 31.3949ZM67.6678 36.2923L68.1466 27.1554L70.0864 27.2571L69.6075 36.3939L67.6678 36.2923ZM76.0452 32.2868L76.0599 32.0059C76.1329 30.6133 76.5956 29.508 77.4482 28.6902C78.3069 27.8668 79.4063 27.4903 80.7462 27.5605C82.0862 27.6307 83.1372 28.12 83.8993 29.0283C84.6676 29.9311 85.0152 31.0788 84.9422 32.4714L84.9275 32.7523C84.8542 34.1507 84.3882 35.2617 83.5295 36.085C82.6769 36.9029 81.5807 37.2767 80.2407 37.2064C78.9007 37.1362 77.8466 36.6497 77.0784 35.7469C76.3163 34.8386 75.9719 33.6852 76.0452 32.2868ZM78.037 32.0655L78.0172 32.4429C77.9694 33.3557 78.1379 34.1156 78.5226 34.7225C78.9136 35.3239 79.5128 35.6457 80.3203 35.688C81.1278 35.7303 81.7544 35.4727 82.2002 34.9152C82.6522 34.3522 82.9021 33.6142 82.9499 32.7014L82.9697 32.324C83.0175 31.4112 82.846 30.6541 82.455 30.0528C82.07 29.4517 81.4737 29.13 80.6662 29.0877C79.8587 29.0454 79.2291 29.3028 78.7775 29.86C78.3317 30.4175 78.0848 31.1527 78.037 32.0655ZM88.3473 32.8259L88.333 33.098C88.2867 33.9815 88.4566 34.715 88.8426 35.2985C89.2289 35.8762 89.8287 36.1863 90.642 36.229C91.4612 36.2719 92.0931 36.0263 92.5377 35.4922C92.9826 34.9522 93.2282 34.2405 93.2745 33.3569L93.2887 33.0848C93.3344 32.213 93.1641 31.4882 92.7778 30.9106C92.3915 30.3329 91.7917 30.0228 90.9783 29.9802C90.1591 29.9372 89.5273 30.1828 89.0827 30.7169C88.6381 31.251 88.393 31.954 88.3473 32.8259ZM91.5494 28.4875C92.7724 28.5516 93.7128 29.0233 94.3708 29.9027C95.0288 30.7821 95.3236 31.8743 95.2553 33.1791L95.2405 33.46C95.1703 34.7999 94.7066 35.867 93.8494 36.6611C92.9981 37.4555 91.9054 37.8178 90.5712 37.7478C89.1845 37.6752 88.1181 37.1997 87.372 36.3216C86.6321 35.4379 86.3122 34.0394 86.4125 32.126L86.4401 31.5994C86.5502 29.4987 86.9919 27.8996 87.7653 26.8018C88.5389 25.6982 89.8606 25.0546 91.7302 24.8709C92.715 24.7758 93.2864 24.6767 93.4444 24.5735C93.6082 24.4706 93.7087 24.3439 93.7459 24.1933L95.4662 24.2834C95.3706 24.9884 95.0906 25.5164 94.6263 25.8676C94.1623 26.2129 93.3028 26.4349 92.0479 26.5334C90.61 26.6517 89.6193 27.028 89.0755 27.6626C88.5318 28.2971 88.1842 29.1649 88.0326 30.2659L88.1291 30.2709C88.4536 29.6777 88.9087 29.2234 89.4943 28.9079C90.0862 28.5868 90.7712 28.4467 91.5494 28.4875ZM96.072 41.4422L96.1612 39.9066C96.3109 39.9614 96.4757 40.0082 96.6555 40.047C96.8413 40.086 97.019 40.11 97.1886 40.1189C97.5924 40.1401 97.9513 40.0092 98.2653 39.7265C98.5794 39.4437 98.9102 38.842 99.2577 37.9214L99.2318 37.9113L96.2506 28.6283L98.1553 28.7281L99.9221 34.647C99.9921 34.8795 100.048 35.0937 100.091 35.2896C100.139 35.4857 100.182 35.6728 100.22 35.8508L100.273 35.8536C100.329 35.6805 100.391 35.4989 100.46 35.3089C100.528 35.1189 100.604 34.9116 100.686 34.6871L102.965 28.9802L104.747 29.0735L100.468 39.173C100.113 40.0228 99.6714 40.6627 99.1443 41.0927C98.6171 41.5227 97.982 41.7183 97.2389 41.6793C96.9931 41.6665 96.7774 41.6405 96.5917 41.6014C96.406 41.5623 96.2327 41.5093 96.072 41.4422ZM107.533 31.6575C107.497 32.3597 107.608 32.8554 107.869 33.1449C108.13 33.4343 108.596 33.5966 109.269 33.6319C109.796 33.6595 110.266 33.646 110.68 33.5914C111.093 33.5368 111.552 33.4582 112.056 33.3555L111.979 34.8213C111.494 34.9073 111.015 34.9819 110.542 35.0452C110.075 35.1029 109.473 35.1124 108.736 35.0738C107.607 35.0146 106.787 34.7076 106.276 34.1527C105.766 33.592 105.54 32.7529 105.598 31.6353L105.73 29.1251L107.661 29.2263L107.533 31.6575ZM113.225 29.5179L112.747 38.6548L110.816 38.5536L111.294 29.4167L113.225 29.5179ZM115.195 38.7831L115.674 29.6462L117.579 29.746L117.301 35.0386C117.292 35.22 117.278 35.4246 117.26 35.6525C117.249 35.8749 117.23 36.0733 117.203 36.248L117.29 36.2613C117.38 36.1077 117.48 35.9486 117.588 35.7841C117.696 35.6196 117.814 35.438 117.942 35.2394L121.546 29.954L123.486 30.0556L123.007 39.1925L121.102 39.0927L121.38 33.8001C121.389 33.6187 121.403 33.4141 121.421 33.1862C121.439 32.9524 121.458 32.7452 121.48 32.5644L121.366 32.5584C121.281 32.7124 121.188 32.8747 121.085 33.0454C120.982 33.216 120.864 33.4005 120.73 33.5989L117.135 38.8848L115.195 38.7831ZM128.446 31.803L128.107 35.2528C127.96 36.8235 127.693 37.939 127.307 38.5993C126.92 39.2538 126.262 39.5567 125.331 39.5079C125.133 39.4975 124.946 39.4731 124.772 39.4346C124.598 39.402 124.456 39.3565 124.348 39.298L124.431 37.7181C124.522 37.764 124.617 37.7983 124.716 37.8211C124.82 37.8383 124.934 37.8501 125.057 37.8565C125.496 37.8795 125.8 37.6813 125.968 37.2618C126.137 36.8365 126.278 36.0576 126.39 34.9252L126.839 30.2313L133.492 30.58L133.013 39.7169L131.091 39.6161L131.492 31.9626L128.446 31.803ZM135.47 39.8457L135.949 30.7088L137.854 30.8086L137.576 36.1011C137.567 36.2825 137.553 36.4872 137.535 36.7151C137.524 36.9374 137.505 37.1359 137.478 37.3105L137.565 37.3239C137.655 37.1702 137.755 37.0111 137.863 36.8467C137.971 36.6822 138.089 36.5006 138.217 36.3019L141.821 31.0165L143.761 31.1182L143.282 40.255L141.377 40.1552L141.655 34.8627C141.664 34.6813 141.678 34.4767 141.696 34.2488C141.714 34.015 141.733 33.8077 141.755 33.627L141.64 33.621C141.556 33.775 141.462 33.9373 141.36 34.1079C141.257 34.2786 141.139 34.4631 141.005 34.6614L137.41 39.9473L135.47 39.8457ZM149.719 36.1479L149.734 35.867C149.807 34.4685 150.256 33.3596 151.079 32.5402C151.908 31.7212 152.993 31.3468 154.333 31.417C155.591 31.4829 156.527 31.8606 157.143 32.55C157.764 33.2397 158.06 34.0151 158.033 34.8761L158.028 34.9639L156.159 34.8659L156.163 34.7869C156.188 34.3071 156.046 33.886 155.736 33.5236C155.432 33.1615 154.938 32.9625 154.254 32.9266C153.452 32.8846 152.84 33.1488 152.417 33.7193C151.994 34.2839 151.759 35.0197 151.711 35.9266L151.692 36.304C151.644 37.2051 151.798 37.9613 152.153 38.5725C152.509 39.1837 153.093 39.5107 153.906 39.5533C154.608 39.5901 155.127 39.4412 155.461 39.1067C155.795 38.7722 155.975 38.3679 156 37.894L156.004 37.8238L157.873 37.9218L157.869 38.0007C157.824 38.855 157.454 39.5955 156.758 40.222C156.062 40.8486 155.085 41.1289 153.827 41.0629C152.493 40.993 151.457 40.5074 150.718 39.6062C149.979 38.705 149.646 37.5522 149.719 36.1479ZM159.467 41.1033L159.945 31.9664L164.115 32.1849C165.174 32.2404 165.979 32.485 166.532 32.9188C167.084 33.3468 167.34 33.9586 167.298 34.7544C167.27 35.2927 167.089 35.7262 166.754 36.0549C166.42 36.3836 165.984 36.5895 165.446 36.6728L165.445 36.6991C166.089 36.8327 166.583 37.0874 166.927 37.4633C167.277 37.8396 167.437 38.3173 167.406 38.8966C167.363 39.7217 167.031 40.3497 166.41 40.7807C165.795 41.2061 164.967 41.3915 163.925 41.3369L159.467 41.1033ZM161.659 35.8759L163.757 35.9858C164.295 36.014 164.687 35.9231 164.933 35.713C165.185 35.4974 165.321 35.1935 165.342 34.8015C165.362 34.4212 165.257 34.1223 165.028 33.9049C164.804 33.6879 164.424 33.5652 163.885 33.537L161.788 33.4271L161.659 35.8759ZM161.451 39.8431L163.804 39.9664C164.354 39.9952 164.764 39.8964 165.034 39.67C165.304 39.4436 165.449 39.1285 165.47 38.7248C165.491 38.3386 165.378 38.0217 165.133 37.7742C164.894 37.5211 164.496 37.38 163.941 37.3508L161.588 37.2275L161.451 39.8431ZM169.046 37.1607L169.061 36.8799C169.134 35.4873 169.597 34.382 170.449 33.5642C171.308 32.7408 172.408 32.3643 173.747 32.4345C175.087 32.5047 176.138 32.994 176.901 33.9023C177.669 34.8051 178.016 35.9528 177.943 37.3454L177.929 37.6263C177.855 39.0247 177.389 40.1356 176.531 40.959C175.678 41.7768 174.582 42.1506 173.242 42.0804C171.902 42.0102 170.848 41.5237 170.08 40.6209C169.318 39.7126 168.973 38.5592 169.046 37.1607ZM171.038 36.9395L171.019 37.3169C170.971 38.2297 171.139 38.9896 171.524 39.5965C171.915 40.1978 172.514 40.5197 173.322 40.562C174.129 40.6043 174.756 40.3467 175.201 39.7892C175.653 39.2262 175.903 38.4882 175.951 37.5754L175.971 37.198C176.019 36.2852 175.847 35.5281 175.456 34.9267C175.071 34.3257 174.475 34.004 173.667 33.9617C172.86 33.9194 172.23 34.1768 171.779 34.734C171.333 35.2915 171.086 36.0267 171.038 36.9395ZM180.08 33.0216L182.002 33.1223L181.807 36.8526L184.536 36.9956L184.459 38.4789L181.729 38.3359L181.523 42.2592L179.601 42.1585L180.08 33.0216ZM183.493 37.9179L183.508 37.637C183.581 36.2444 184.038 35.1389 184.879 34.3204C185.72 33.4961 186.796 33.1183 188.107 33.187C189.423 33.256 190.457 33.7444 191.207 34.6521C191.958 35.5539 192.297 36.7012 192.224 38.0938L192.209 38.3746C192.136 39.7731 191.678 40.8845 190.837 41.7088C189.996 42.5272 188.918 42.902 187.601 42.833C186.29 42.7643 185.26 42.279 184.509 41.3771C183.759 40.4694 183.42 39.3164 183.493 37.9179ZM185.485 37.7054L185.466 38.0653C185.418 38.9839 185.577 39.7462 185.945 40.3522C186.318 40.9527 186.897 41.2734 187.681 41.3145C188.471 41.3559 189.08 41.0974 189.508 40.539C189.942 39.975 190.184 39.2337 190.232 38.315L190.251 37.9552C190.299 37.0365 190.136 36.277 189.763 35.6765C189.389 35.0761 188.811 34.7553 188.027 34.7142C187.248 34.6734 186.642 34.9321 186.208 35.4902C185.774 36.0484 185.533 36.7867 185.485 37.7054ZM198.384 43.1428L199.054 30.3635L201.037 30.4674L200.451 41.6581L206.279 41.9636L206.195 43.5522L198.384 43.1428ZM208.021 43.6479L208.691 30.8686L210.674 30.9725L210.088 42.1632L215.916 42.4686L215.833 44.0573L208.021 43.6479ZM217.658 44.153L218.328 31.3736L220.9 31.5084L223.938 40.8824C223.998 41.0675 224.053 41.2551 224.102 41.4455C224.15 41.6358 224.19 41.8285 224.221 42.0238L224.282 42.027C224.339 41.8364 224.402 41.6489 224.47 41.4648C224.539 41.2806 224.613 41.0997 224.692 40.9219L228.694 31.9169L231.292 32.053L230.622 44.8323L228.673 44.7302L229.14 35.8303C229.149 35.6489 229.163 35.4443 229.181 35.2164C229.199 34.9885 229.224 34.7845 229.257 34.6043L229.187 34.6006C229.142 34.7802 229.082 34.9824 229.005 35.2072C228.929 35.432 228.851 35.6333 228.771 35.811L224.899 44.5324L223.205 44.4437L220.275 35.3658C220.214 35.1807 220.155 34.9722 220.097 34.7403C220.044 34.5029 220.005 34.2955 219.98 34.1181L219.918 34.1149C219.927 34.2855 219.928 34.488 219.922 34.7223C219.921 34.957 219.916 35.165 219.906 35.3464L219.44 44.2463L217.658 44.153ZM41.7342 52.5188L41.7489 52.2379C41.8222 50.8395 42.2705 49.7305 43.0938 48.9112C43.923 48.0921 45.0075 47.7177 46.3475 47.7879C47.6055 47.8539 48.5421 48.2315 49.1573 48.9209C49.7783 49.6106 50.075 50.386 50.0475 51.247L50.0429 51.3348L48.1734 51.2368L48.1775 51.1579C48.2027 50.678 48.0605 50.2569 47.7509 49.8945C47.4471 49.5324 46.953 49.3334 46.2684 49.2976C45.4667 49.2556 44.8544 49.5198 44.4314 50.0902C44.0087 50.6548 43.7736 51.3906 43.726 52.2975L43.7063 52.6749C43.659 53.5761 43.813 54.3322 44.1683 54.9434C44.5235 55.5547 45.1077 55.8816 45.9211 55.9242C46.6232 55.961 47.1415 55.8122 47.4759 55.4776C47.8103 55.1431 47.9899 54.7389 48.0147 54.2649L48.0184 54.1947L49.8879 54.2927L49.8837 54.3717C49.839 55.226 49.4687 55.9664 48.7728 56.5929C48.077 57.2195 47.1 57.4998 45.842 57.4339C44.5079 57.3639 43.4713 56.8784 42.7323 55.9771C41.9933 55.0759 41.6606 53.9231 41.7342 52.5188ZM51.9602 48.3373L59.5172 48.7334L59.0384 57.8702L57.1074 57.769L57.5085 50.1155L53.8046 49.9214L53.4035 57.5749L51.4814 57.4742L51.9602 48.3373ZM61.1665 53.5372L61.1812 53.2563C61.2539 51.8696 61.705 50.7637 62.5344 49.9388C63.3698 49.1142 64.4223 48.7352 65.692 48.8017C66.9676 48.8686 67.9323 49.3269 68.5859 50.1767C69.2458 51.021 69.5391 52.1424 69.4658 53.5409L69.4271 54.2782L62.3792 53.9088L62.4514 52.5308L67.5772 52.7994L67.5873 52.6063C67.6192 51.9978 67.4708 51.4707 67.1421 51.0252C66.8196 50.5741 66.3248 50.3311 65.6577 50.2961C64.8736 50.255 64.2672 50.5195 63.8383 51.0897C63.4153 51.6601 63.18 52.3988 63.1325 53.3058L63.1127 53.6832C63.0652 54.5902 63.2335 55.3529 63.6177 55.9715C64.008 56.5846 64.6303 56.9135 65.4846 56.9583C66.0346 56.9871 66.515 56.8891 66.9258 56.6642C67.3369 56.4334 67.6742 56.1548 67.9377 55.8283L69.1972 56.8184C68.8853 57.2832 68.4036 57.6863 67.752 58.0277C67.1008 58.3632 66.3246 58.5073 65.4235 58.4601C63.9899 58.385 62.9038 57.8938 62.1651 56.9868C61.4264 56.0797 61.0935 54.9298 61.1665 53.5372ZM78.0485 61.234L78.1723 58.873L71.0541 58.4999L71.533 49.3631L73.4551 49.4638L73.054 57.1174L76.7579 57.3115L77.159 49.6579L79.09 49.7591L78.6889 57.4127L80.0318 57.4831L79.8303 61.3274L78.0485 61.234ZM81.3408 59.039L81.8196 49.9022L83.7242 50.002L83.4469 55.2945C83.4374 55.4759 83.4237 55.6806 83.4059 55.9085C83.3942 56.1308 83.375 56.3293 83.3483 56.5039L83.4356 56.5173C83.5258 56.3636 83.6251 56.2045 83.7334 56.04C83.8418 55.8756 83.9599 55.694 84.0876 55.4953L87.6915 50.2099L89.6312 50.3116L89.1523 59.4484L87.2477 59.3486L87.5251 54.0561C87.5346 53.8747 87.5483 53.67 87.5661 53.4421C87.5842 53.2084 87.6038 53.0011 87.6251 52.8204L87.511 52.8144C87.4266 52.9684 87.333 53.1307 87.2302 53.3013C87.1274 53.472 87.0092 53.6565 86.8756 53.8548L83.2805 59.1407L81.3408 59.039ZM91.2416 56.8648C91.2913 55.9169 91.7012 55.2049 92.4713 54.7289C93.2472 54.2533 94.2146 54.0429 95.3735 54.0977L97.3571 54.2017L97.3889 53.5961C97.4152 53.0929 97.3049 52.6793 97.0578 52.3554C96.8169 52.0259 96.3746 51.8443 95.731 51.8106C95.0932 51.7772 94.627 51.8847 94.3323 52.1333C94.0438 52.3764 93.8902 52.6764 93.8715 53.0333L93.8669 53.1211L91.9623 53.0213L91.9669 52.9335C92.0067 52.1728 92.3829 51.5442 93.0954 51.0476C93.8083 50.5451 94.7352 50.3238 95.8762 50.3836C97.0172 50.4434 97.89 50.7503 98.4947 51.3041C99.0997 51.8522 99.3745 52.6528 99.3193 53.7061L99.1008 57.8751C99.0812 58.2496 99.0918 58.6081 99.1325 58.9505C99.1794 59.2874 99.2489 59.5845 99.341 59.8416L99.3337 59.982L97.4642 59.884C97.3896 59.7393 97.3261 59.5512 97.2737 59.3196C97.2275 59.0825 97.1985 58.8521 97.1867 58.6285C96.9685 58.9867 96.6061 59.2963 96.0995 59.5573C95.5991 59.8127 94.9715 59.9206 94.2167 59.8811C93.3332 59.8348 92.6026 59.5559 92.0251 59.0445C91.4537 58.5276 91.1925 57.801 91.2416 56.8648ZM93.1794 56.8343C93.154 57.32 93.2714 57.7105 93.5317 58.0057C93.7981 58.2955 94.2269 58.4558 94.8178 58.4868C95.4264 58.5187 95.9725 58.3419 96.4562 57.9566C96.9458 57.5715 97.2035 57.1332 97.2292 56.6417L97.29 55.4831L95.5609 55.3925C94.7944 55.3524 94.2106 55.4626 93.8097 55.7232C93.415 55.9783 93.2049 56.3487 93.1794 56.8343ZM104.422 52.5741L104.082 56.024C103.936 57.5946 103.669 58.7101 103.282 59.3704C102.896 60.0249 102.238 60.3278 101.307 60.2791C101.108 60.2686 100.922 60.2442 100.748 60.2057C100.573 60.1731 100.432 60.1276 100.324 60.0691L100.406 58.4892C100.498 58.5351 100.593 58.5694 100.691 58.5922C100.796 58.6094 100.91 58.6212 101.033 58.6277C101.472 58.6507 101.775 58.4524 101.944 58.033C102.113 57.6076 102.254 56.8288 102.366 55.6964L102.814 51.0025L109.467 51.3511L108.988 60.488L107.066 60.3873L107.467 52.7337L104.422 52.5741ZM113.847 51.5807L113.686 54.6526L115.775 54.7621C116.922 54.8222 117.785 55.1403 118.365 55.7163C118.951 56.2869 119.22 57.0402 119.171 57.9765C119.122 58.9127 118.776 59.6368 118.133 60.1487C117.496 60.661 116.604 60.8871 115.457 60.827L111.446 60.6168L111.925 51.4799L113.847 51.5807ZM115.534 56.1752L113.611 56.0745L113.443 59.2957L115.365 59.3964C116.02 59.4307 116.49 59.3058 116.775 59.0214C117.06 58.7313 117.215 58.3434 117.241 57.8577C117.265 57.3896 117.151 57.0022 116.897 56.6955C116.643 56.383 116.189 56.2096 115.534 56.1752ZM121.211 51.9666L123.133 52.0673L122.938 55.7975L126.729 55.9963L126.925 52.266L128.856 52.3672L128.377 61.5041L126.446 61.4029L126.651 57.4796L122.86 57.2809L122.654 61.2042L120.732 61.1035L121.211 51.9666ZM130.523 57.172L130.537 56.8911C130.61 55.4985 131.073 54.3933 131.926 53.5754C132.784 52.7521 133.884 52.3755 135.224 52.4457C136.564 52.5159 137.615 53.0052 138.377 53.9135C139.145 54.8163 139.493 55.964 139.42 57.3566L139.405 57.6375C139.332 59.036 138.866 60.1469 138.007 60.9703C137.154 61.7881 136.058 62.1619 134.718 62.0917C133.378 62.0214 132.324 61.5349 131.556 60.6322C130.794 59.7238 130.449 58.5705 130.523 57.172ZM132.514 56.9507L132.495 57.3281C132.447 58.241 132.615 59.0008 133 59.6077C133.391 60.2091 133.99 60.5309 134.798 60.5732C135.605 60.6156 136.232 60.358 136.678 59.8005C137.13 59.2374 137.379 58.4995 137.427 57.5867L137.447 57.2092C137.495 56.2964 137.323 55.5393 136.932 54.938C136.547 54.3369 135.951 54.0152 135.144 53.9729C134.336 53.9306 133.706 54.188 133.255 54.7453C132.809 55.3028 132.562 56.0379 132.514 56.9507ZM152.223 65.1213L152.347 62.7603L146.019 62.4287L145.895 64.7897L144.122 64.6968L144.323 60.8524L154.198 61.3699L153.996 65.2143L152.223 65.1213ZM148.14 54.8653L147.84 57.9123C147.761 58.7414 147.668 59.3995 147.56 59.8867C147.459 60.3684 147.319 60.7894 147.142 61.1498L145.193 61.0476C145.401 60.771 145.584 60.364 145.741 59.8266C145.899 59.2833 146.028 58.498 146.129 57.4706L146.533 53.2936L153.256 53.646L152.777 62.7829L150.846 62.6817L151.247 55.0281L148.14 54.8653ZM158.506 55.4085L158.166 58.8584C158.02 60.429 157.753 61.5445 157.366 62.2049C156.98 62.8594 156.321 63.1622 155.391 63.1135C155.192 63.1031 155.006 63.0786 154.832 63.0402C154.657 63.0076 154.516 62.962 154.408 62.9035L154.49 61.3237C154.582 61.3695 154.677 61.4038 154.775 61.4266C154.88 61.4438 154.994 61.4557 155.117 61.4621C155.556 61.4851 155.859 61.2869 156.028 60.8674C156.197 60.442 156.338 59.6632 156.45 58.5308L156.898 53.8369L163.551 54.1855L163.072 63.3224L161.15 63.2217L161.551 55.5681L158.506 55.4085ZM167.04 63.5303L164.951 63.4209L167.848 59.6914L169.772 59.933L167.04 63.5303ZM171.024 63.7392L171.195 60.4741L169.203 60.3697L168.954 60.2598C167.83 60.2009 166.977 59.901 166.396 59.3601C165.814 58.8132 165.546 58.1039 165.592 57.2321C165.638 56.3427 165.98 55.6477 166.616 55.1471C167.253 54.6465 168.133 54.4257 169.256 54.4845L173.425 54.703L172.947 63.8399L171.024 63.7392ZM169.197 58.97L171.269 59.0786L171.431 55.9891L169.359 55.8805C168.715 55.8468 168.254 55.9693 167.976 56.2481C167.697 56.5268 167.546 56.8944 167.522 57.3508C167.498 57.8014 167.608 58.1767 167.85 58.477C168.099 58.7716 168.548 58.936 169.197 58.97ZM180.175 55.0568L187.732 55.4528L187.253 64.5897L185.322 64.4885L185.723 56.8349L182.019 56.6408L181.618 64.2944L179.696 64.1936L180.175 55.0568ZM189.684 64.7171L190.163 55.5802L192.068 55.68L191.79 60.9726C191.781 61.154 191.767 61.3586 191.749 61.5865C191.738 61.8089 191.719 62.0073 191.692 62.182L191.779 62.1953C191.869 62.0416 191.969 61.8826 192.077 61.7181C192.185 61.5536 192.303 61.372 192.431 61.1734L196.035 55.8879L197.975 55.9896L197.496 65.1265L195.591 65.0267L195.869 59.7341C195.878 59.5527 195.892 59.3481 195.91 59.1202C195.928 58.8864 195.947 58.6792 195.969 58.4984L195.854 58.4924C195.77 58.6464 195.677 58.8087 195.574 58.9794C195.471 59.15 195.353 59.3345 195.219 59.5329L191.624 64.8187L189.684 64.7171ZM199.633 60.7939L199.647 60.513C199.721 59.1146 200.169 58.0056 200.992 57.1863C201.822 56.3672 202.906 55.9928 204.246 56.063C205.504 56.129 206.441 56.5066 207.056 57.196C207.677 57.8857 207.974 58.6611 207.946 59.5222L207.941 59.6099L206.072 59.512L206.076 59.433C206.101 58.9532 205.959 58.532 205.649 58.1696C205.346 57.8075 204.852 57.6086 204.167 57.5727C203.365 57.5307 202.753 57.7949 202.33 58.3653C201.907 58.9299 201.672 59.6657 201.625 60.5726L201.605 60.9501C201.558 61.8512 201.712 62.6073 202.067 63.2186C202.422 63.8298 203.006 64.1567 203.82 64.1993C204.522 64.2361 205.04 64.0873 205.374 63.7527C205.709 63.4182 205.888 63.014 205.913 62.54L205.917 62.4698L207.786 62.5678L207.782 62.6468C207.738 63.5011 207.367 64.2415 206.671 64.868C205.975 65.4946 204.999 65.7749 203.741 65.709C202.406 65.6391 201.37 65.1535 200.631 64.2522C199.892 63.351 199.559 62.1982 199.633 60.7939ZM209.029 63.0378C209.079 62.0898 209.489 61.3779 210.259 60.9019C211.035 60.4263 212.002 60.2159 213.161 60.2707L215.145 60.3747L215.176 59.7691C215.203 59.2659 215.092 58.8523 214.845 58.5284C214.604 58.1989 214.162 58.0173 213.519 57.9836C212.881 57.9501 212.415 58.0577 212.12 58.3063C211.831 58.5494 211.678 58.8494 211.659 59.2063L211.654 59.2941L209.75 59.1942L209.754 59.1065C209.794 58.3458 210.171 57.7172 210.883 57.2206C211.596 56.7181 212.523 56.4968 213.664 56.5566C214.805 56.6164 215.678 56.9232 216.282 57.4771C216.887 58.0252 217.162 58.8258 217.107 59.879L216.888 64.0481C216.869 64.4226 216.879 64.7811 216.92 65.1235C216.967 65.4604 217.036 65.7574 217.129 66.0146L217.121 66.155L215.252 66.057C215.177 65.9123 215.114 65.7241 215.061 65.4926C215.015 65.2555 214.986 65.0251 214.974 64.8015C214.756 65.1597 214.394 65.4693 213.887 65.7303C213.387 65.9857 212.759 66.0936 212.004 66.0541C211.121 66.0077 210.39 65.7289 209.813 65.2175C209.241 64.7006 208.98 63.974 209.029 63.0378ZM210.967 63.0073C210.942 63.493 211.059 63.8834 211.319 64.1787C211.586 64.4684 212.014 64.6288 212.605 64.6598C213.214 64.6917 213.76 64.5149 214.244 64.1296C214.733 63.7445 214.991 63.3062 215.017 62.8147L215.078 61.6561L213.348 61.5655C212.582 61.5253 211.998 61.6356 211.597 61.8962C211.203 62.1513 210.992 62.5216 210.967 63.0073ZM218.655 58.5608L218.732 57.0775L226.324 57.4753L226.247 58.9587L223.412 58.8101L223.011 66.4636L221.088 66.3629L221.49 58.7094L218.655 58.5608ZM227.035 62.23L227.049 61.9491C227.122 60.5623 227.573 59.4565 228.403 58.6316C229.238 57.807 230.29 57.428 231.56 57.4945C232.836 57.5614 233.8 58.0197 234.454 58.8695C235.114 59.7138 235.407 60.8352 235.334 62.2337L235.295 62.9709L228.247 62.6016L228.319 61.2236L233.445 61.4922L233.455 61.2991C233.487 60.6906 233.339 60.1635 233.01 59.718C232.688 59.2669 232.193 59.0239 231.526 58.9889C230.742 58.9478 230.135 59.2123 229.706 59.7825C229.283 60.3529 229.048 61.0916 229.001 61.9986L228.981 62.376C228.933 63.2829 229.102 64.0457 229.486 64.6643C229.876 65.2774 230.498 65.6063 231.353 65.6511C231.903 65.6799 232.383 65.5819 232.794 65.357C233.205 65.1262 233.542 64.8476 233.806 64.5211L235.065 65.5112C234.753 65.976 234.272 66.3791 233.62 66.7204C232.969 67.0559 232.193 67.2001 231.292 67.1529C229.858 67.0777 228.772 66.5866 228.033 65.6795C227.294 64.7724 226.962 63.6226 227.035 62.23ZM239.921 59.6753L239.582 63.1252C239.435 64.6958 239.168 65.8113 238.782 66.4717C238.395 67.1262 237.737 67.4291 236.807 67.3803C236.608 67.3699 236.421 67.3454 236.247 67.307C236.073 67.2744 235.932 67.2288 235.823 67.1703L235.906 65.5905C235.997 65.6363 236.093 65.6707 236.191 65.6934C236.296 65.7106 236.41 65.7225 236.532 65.7289C236.971 65.7519 237.275 65.5537 237.444 65.1342C237.613 64.7089 237.753 63.93 237.865 62.7976L238.314 58.1037L244.967 58.4524L244.488 67.5892L242.566 67.4885L242.967 59.8349L239.921 59.6753ZM246.642 63.2576L246.657 62.9767C246.73 61.5899 247.181 60.4841 248.01 59.6592C248.846 58.8346 249.898 58.4556 251.168 58.5221C252.444 58.589 253.408 59.0473 254.062 59.8971C254.722 60.7414 255.015 61.8628 254.942 63.2613L254.903 63.9985L247.855 63.6292L247.927 62.2512L253.053 62.5198L253.063 62.3267C253.095 61.7182 252.947 61.1911 252.618 60.7456C252.295 60.2945 251.801 60.0515 251.134 60.0165C250.35 59.9754 249.743 60.2399 249.314 60.8101C248.891 61.3805 248.656 62.1192 248.608 63.0262L248.589 63.4036C248.541 64.3105 248.709 65.0733 249.094 65.6919C249.484 66.305 250.106 66.6339 250.961 66.6787C251.511 66.7075 251.991 66.6095 252.402 66.3846C252.813 66.1538 253.15 65.8752 253.414 65.5487L254.673 66.5388C254.361 67.0036 253.88 67.4067 253.228 67.748C252.577 68.0836 251.801 68.2277 250.899 68.1805C249.466 68.1053 248.38 67.6142 247.641 66.7071C246.902 65.8 246.569 64.6502 246.642 63.2576ZM256.53 68.2203L257.009 59.0835L258.914 59.1833L258.636 64.4758C258.627 64.6572 258.613 64.8618 258.595 65.0897C258.584 65.3121 258.564 65.5106 258.538 65.6852L258.625 65.6986C258.715 65.5449 258.814 65.3858 258.923 65.2213C259.031 65.0568 259.149 64.8753 259.277 64.6766L262.881 59.3912L264.82 59.4928L264.342 68.6297L262.437 68.5299L262.714 63.2374C262.724 63.056 262.738 62.8513 262.755 62.6234C262.773 62.3897 262.793 62.1824 262.814 62.0016L262.7 61.9957C262.616 62.1497 262.522 62.312 262.419 62.4826C262.317 62.6532 262.198 62.8377 262.065 63.0361L258.47 68.322L256.53 68.2203ZM261.068 56.5238C261.478 56.5453 261.829 56.4464 262.122 56.227C262.416 56.0019 262.655 55.6301 262.841 55.1118L264.146 55.9018C263.838 56.6309 263.406 57.1509 262.85 57.4621C262.294 57.7674 261.677 57.9023 260.998 57.8667C260.313 57.8308 259.713 57.6351 259.198 57.2795C258.689 56.9243 258.31 56.3588 258.064 55.5831L259.481 54.9092C259.615 55.4854 259.81 55.8947 260.068 56.137C260.325 56.3734 260.659 56.5024 261.068 56.5238ZM40.8859 78.9491L41.3648 69.8122L43.2694 69.912L42.992 75.2046C42.9825 75.386 42.9688 75.5906 42.951 75.8185C42.9394 76.0409 42.9202 76.2393 42.8934 76.414L42.9807 76.4273C43.0709 76.2736 43.1702 76.1146 43.2786 75.9501C43.3869 75.7856 43.505 75.604 43.6328 75.4054L47.2366 70.1199L49.1763 70.2216L48.6975 79.3585L46.7928 79.2587L47.0702 73.9661C47.0797 73.7847 47.0934 73.5801 47.1112 73.3522C47.1293 73.1184 47.149 72.9112 47.1702 72.7304L47.0561 72.7244C46.9717 72.8784 46.8781 73.0407 46.7753 73.2114C46.6725 73.382 46.5543 73.5665 46.4207 73.7649L42.8256 79.0507L40.8859 78.9491ZM55.917 70.5749L57.8392 70.6756L57.6437 74.4058L61.4354 74.6045L61.6309 70.8743L63.5618 70.9755L63.083 80.1124L61.152 80.0112L61.3577 76.0879L57.566 75.8892L57.3604 79.8125L55.4382 79.7117L55.917 70.5749ZM65.181 77.5292C65.2307 76.5813 65.6406 75.8693 66.4107 75.3934C67.1867 74.9177 68.1541 74.7073 69.3129 74.7622L71.2965 74.8661L71.3283 74.2605C71.3547 73.7573 71.2443 73.3437 70.9973 73.0198C70.7564 72.6903 70.3141 72.5087 69.6704 72.475C69.0326 72.4416 68.5664 72.5492 68.2717 72.7977C67.9832 73.0408 67.8296 73.3408 67.8109 73.6977L67.8063 73.7855L65.9017 73.6857L65.9063 73.5979C65.9462 72.8372 66.3224 72.2086 67.0349 71.712C67.7477 71.2096 68.6746 70.9882 69.8156 71.048C70.9566 71.1078 71.8295 71.4147 72.4341 71.9686C73.0391 72.5166 73.314 73.3172 73.2588 74.3705L73.0403 78.5396C73.0207 78.914 73.0312 79.2725 73.0719 79.615C73.1188 79.9519 73.1883 80.2489 73.2805 80.506L73.2731 80.6464L71.4036 80.5485C71.329 80.4037 71.2656 80.2156 71.2132 79.984C71.1669 79.7469 71.1379 79.5165 71.1262 79.293C70.9079 79.6512 70.5455 79.9607 70.0389 80.2217C69.5386 80.4771 68.911 80.585 68.1561 80.5455C67.2726 80.4992 66.542 80.2203 65.9645 79.7089C65.3931 79.192 65.132 78.4654 65.181 77.5292ZM67.1189 77.4987C67.0934 77.9844 67.2108 78.3749 67.4711 78.6701C67.7376 78.9599 68.1663 79.1202 68.7573 79.1512C69.3658 79.1831 69.9119 79.0064 70.3957 78.621C70.8852 78.2359 71.1429 77.7976 71.1687 77.3061L71.2294 76.1476L69.5003 76.0569C68.7338 76.0168 68.1501 76.127 67.7492 76.3876C67.3544 76.6427 67.1443 77.0131 67.1189 77.4987ZM78.8156 81.1921C77.4347 81.1198 76.4331 80.7504 75.8109 80.0841C75.189 79.412 74.9004 78.6488 74.9452 77.7945L74.9479 77.7418L76.8174 77.8398L76.8147 77.8925C76.7907 78.3489 76.9305 78.761 77.2339 79.129C77.5432 79.4972 78.0899 79.7019 78.874 79.743C79.5293 79.7773 80.0424 79.6722 80.4131 79.4276C80.79 79.1775 80.9907 78.8183 81.0152 78.3502C81.0355 77.964 80.9227 77.653 80.6769 77.4172C80.4372 77.1758 80.0365 77.0404 79.4748 77.0109L77.9915 76.9332L78.0642 75.5464L79.2929 75.6108C79.8547 75.6403 80.2613 75.5501 80.5129 75.3403C80.7703 75.1309 80.9091 74.833 80.9293 74.4468C80.952 74.0138 80.8203 73.6725 80.5342 73.4228C80.248 73.1731 79.8358 73.0341 79.2974 73.0059C78.6245 72.9707 78.107 73.1049 77.7449 73.4086C77.3832 73.7065 77.1888 74.1129 77.1618 74.6278L77.159 74.6805L75.2983 74.583L75.3011 74.5303C75.3523 73.5531 75.7381 72.7959 76.4586 72.2587C77.1791 71.7214 78.1684 71.4858 79.4265 71.5517C80.6084 71.6137 81.4913 71.8976 82.075 72.4034C82.6648 72.9037 82.9386 73.5576 82.8963 74.3651C82.8702 74.8625 82.6806 75.2896 82.3275 75.6466C81.9802 76.004 81.5167 76.2261 80.9372 76.3131L80.9358 76.3394C81.6096 76.4686 82.1215 76.7213 82.4714 77.0976C82.8272 77.4741 82.9902 77.9462 82.9605 78.5138C82.9117 79.4442 82.4998 80.1384 81.7248 80.5965C80.9556 81.0549 79.9859 81.2535 78.8156 81.1921ZM84.8763 81.2545L85.3552 72.1177L89.5242 72.3361C90.5833 72.3916 91.389 72.6363 91.9413 73.0701C92.4939 73.498 92.7493 74.1099 92.7076 74.9057C92.6794 75.444 92.4983 75.8775 92.1642 76.2062C91.8301 76.5348 91.3939 76.7408 90.8556 76.8241L90.8543 76.8504C91.4986 76.9839 91.9927 77.2387 92.3368 77.6146C92.6867 77.9909 92.8465 78.4686 92.8162 79.0479C92.7729 79.8729 92.4408 80.501 91.8197 80.9319C91.2048 81.3574 90.3766 81.5428 89.335 81.4882L84.8763 81.2545ZM87.0689 76.0272L89.1666 76.1371C89.705 76.1653 90.097 76.0744 90.3427 75.8643C90.5945 75.6487 90.7307 75.3448 90.7513 74.9528C90.7712 74.5724 90.6666 74.2736 90.4374 74.0562C90.2141 73.8392 89.8333 73.7165 89.295 73.6883L87.1973 73.5784L87.0689 76.0272ZM86.861 79.9944L89.2132 80.1176C89.7633 80.1465 90.1733 80.0477 90.4433 79.8213C90.7134 79.5948 90.859 79.2798 90.8801 78.876C90.9004 78.4898 90.7879 78.173 90.5427 77.9254C90.3037 77.6723 89.9062 77.5312 89.3503 77.5021L86.9981 77.3788L86.861 79.9944ZM94.4085 79.0609C94.4582 78.113 94.8681 77.4011 95.6382 76.9251C96.4141 76.4494 97.3815 76.239 98.5404 76.2939L100.524 76.3979L100.556 75.7922C100.582 75.289 100.472 74.8755 100.225 74.5515C99.9838 74.2221 99.5416 74.0405 98.8979 74.0067C98.2601 73.9733 97.7939 74.0809 97.4992 74.3295C97.2107 74.5725 97.0571 74.8725 97.0384 75.2295L97.0338 75.3172L95.1292 75.2174L95.1338 75.1296C95.1736 74.369 95.5498 73.7403 96.2623 73.2437C96.9752 72.7413 97.9021 72.52 99.0431 72.5798C100.184 72.6396 101.057 72.9464 101.662 73.5003C102.267 74.0483 102.541 74.849 102.486 75.9022L102.268 80.0713C102.248 80.4458 102.259 80.8043 102.299 81.1467C102.346 81.4836 102.416 81.7806 102.508 82.0377L102.501 82.1782L100.631 82.0802C100.557 81.9355 100.493 81.7473 100.441 81.5157C100.394 81.2786 100.365 81.0483 100.354 80.8247C100.135 81.1829 99.773 81.4925 99.2664 81.7534C98.766 82.0089 98.1384 82.1168 97.3836 82.0772C96.5001 82.0309 95.7695 81.7521 95.192 81.2407C94.6206 80.7237 94.3594 79.9972 94.4085 79.0609ZM96.3463 79.0305C96.3209 79.5161 96.4383 79.9066 96.6986 80.2019C96.965 80.4916 97.3938 80.652 97.9847 80.683C98.5933 80.7148 99.1394 80.5381 99.6231 80.1527C100.113 79.7677 100.37 79.3294 100.396 78.8379L100.457 77.6793L98.7278 77.5887C97.9613 77.5485 97.3775 77.6587 96.9766 77.9194C96.5819 78.1745 96.3718 78.5448 96.3463 79.0305ZM107.589 74.7702L107.249 78.2201C107.103 79.7908 106.836 80.9062 106.449 81.5666C106.063 82.2211 105.404 82.524 104.474 82.4752C104.275 82.4648 104.089 82.4404 103.915 82.4019C103.74 82.3693 103.599 82.3238 103.491 82.2653L103.573 80.6854C103.665 80.7313 103.76 80.7656 103.858 80.7883C103.963 80.8056 104.077 80.8174 104.2 80.8238C104.639 80.8468 104.942 80.6486 105.111 80.2291C105.28 79.8038 105.421 79.0249 105.533 77.8925L105.981 73.1986L112.634 73.5473L112.155 82.6842L110.233 82.5834L110.634 74.9299L107.589 74.7702ZM114.613 82.813L115.092 73.6761L116.996 73.7759L116.719 79.0684C116.709 79.2498 116.696 79.4545 116.678 79.6824C116.666 79.9047 116.647 80.1032 116.62 80.2778L116.708 80.2912C116.798 80.1375 116.897 79.9784 117.006 79.8139C117.114 79.6495 117.232 79.4679 117.36 79.2692L120.964 73.9838L122.903 74.0855L122.424 83.2223L120.52 83.1225L120.797 77.83C120.807 77.6486 120.82 77.4439 120.838 77.216C120.856 76.9823 120.876 76.775 120.897 76.5943L120.783 76.5883C120.699 76.7423 120.605 76.9046 120.502 77.0752C120.399 77.2459 120.281 77.4304 120.148 77.6287L116.553 82.9146L114.613 82.813Z" fill="black"/>
<path d="M141.634 79.1917L141.512 80.4851C141.354 82.222 140.987 83.3935 140.409 83.9995C139.832 84.6055 138.918 84.8758 137.667 84.8102C137.244 84.788 136.901 84.7488 136.637 84.6926C136.374 84.6364 136.168 84.5771 136.02 84.5148L136.211 80.8708C136.287 80.9052 136.359 80.9331 136.424 80.9547C136.496 80.9767 136.586 80.9905 136.695 80.9962C136.949 81.0095 137.126 80.9218 137.227 80.7332C137.334 80.5388 137.414 80.1734 137.466 79.6368L137.823 75.7653L147.55 76.275L147.088 85.0767L142.447 84.8335L142.74 79.2497L141.634 79.1917Z" fill="black"/>
<path d="M147.233 85.0843L149.254 76.3643L153.886 76.6071L153.333 79.005C153.279 79.2263 153.21 79.4954 153.127 79.8122C153.05 80.1293 152.979 80.3892 152.913 80.5918L152.976 80.6042C153.104 80.3685 153.231 80.1449 153.357 79.9334C153.483 79.7158 153.64 79.4422 153.827 79.1127L155.418 76.6873L160.104 76.9329L158.093 85.6534L153.461 85.4107L154.014 83.0037C154.086 82.6742 154.153 82.3777 154.215 82.1144C154.284 81.8513 154.345 81.6091 154.399 81.3877L154.344 81.3849C154.23 81.6031 154.112 81.8211 153.992 82.039C153.872 82.2509 153.715 82.5305 153.521 82.8778L151.92 85.3299L147.233 85.0843Z" fill="black"/>
<path d="M165.555 80.4454L165.207 81.7269C164.741 83.4477 164.162 84.6081 163.47 85.2081C162.784 85.8084 161.815 86.0758 160.565 86.0102C160.142 85.988 159.801 85.949 159.544 85.8931C159.286 85.8371 159.089 85.7784 158.953 85.7167L159.778 82.106C159.855 82.1403 159.927 82.1683 159.992 82.1899C160.058 82.2115 160.145 82.2252 160.254 82.2309C160.507 82.2442 160.703 82.1574 160.84 81.9707C160.977 81.7779 161.12 81.4158 161.27 80.8843L162.316 77.0489L172.033 77.5581L170.022 86.2786L165.381 86.0354L166.661 80.5034L165.555 80.4454Z" fill="black"/>
<path d="M177.709 86.6814L178.4 73.4834L190.021 74.0924L189.329 87.2905L184.525 87.0387L185.024 77.5209L183.012 77.4154L182.513 86.9332L177.709 86.6814Z" fill="black"/>
<path d="M190.403 91.0825L190.582 88.1833C190.804 88.2312 191.026 88.2732 191.248 88.3091C191.471 88.345 191.685 88.3683 191.89 88.3791C192.319 88.4015 192.688 88.3512 192.998 88.2281C193.313 88.1052 193.526 87.8619 193.636 87.498L193.564 87.4851L190.416 78.5215L195.266 78.7757L196.22 82.416C196.261 82.5636 196.287 82.6953 196.299 82.8111C196.318 82.9211 196.338 83.0524 196.361 83.2051L196.406 83.2075C196.444 83.058 196.475 82.9293 196.499 82.8215C196.529 82.708 196.575 82.5771 196.638 82.4288L198.039 78.921L202.282 79.1434L198.509 87.6443C197.804 89.201 197.034 90.2393 196.201 90.7592C195.374 91.2854 194.349 91.5166 193.129 91.4526C192.591 91.4244 192.066 91.3787 191.554 91.3155C191.042 91.2584 190.659 91.1807 190.403 91.0825Z" fill="black"/>
<path d="M201.222 87.9137L203.242 79.1937L207.884 79.437L206.602 84.978L207.826 85.0422L209.098 79.5006L213.739 79.7438L212.467 85.2854L213.682 85.349L214.963 79.808L219.604 80.0512L217.593 88.7717L201.222 87.9137Z" fill="black"/>
<path d="M226.83 89.2558L224.771 85.5212L228.284 83.3602L232.15 89.5346L226.83 89.2558ZM222.706 82.9497L225.353 83.0884L227.082 80.4431L232.159 80.7092L227.957 86.4699L222.537 86.1858L222.706 82.9497ZM225.152 80.3419L224.69 89.1437L220.04 88.8999L220.501 80.0982L225.152 80.3419Z" fill="black"/>
<path d="M231.371 89.4938L233.391 80.7738L238.023 81.0165L237.47 83.4144C237.416 83.6358 237.348 83.9049 237.264 84.2217C237.187 84.5388 237.116 84.7987 237.051 85.0013L237.114 85.0137C237.241 84.778 237.368 84.5544 237.494 84.3428C237.621 84.1252 237.778 83.8517 237.965 83.5221L239.555 81.0968L244.242 81.3424L242.23 90.0629L237.598 89.8201L238.152 87.4131C238.223 87.0836 238.29 86.7872 238.353 86.5238C238.421 86.2608 238.482 86.0186 238.536 85.7972L238.482 85.7943C238.367 86.0126 238.25 86.2306 238.129 86.4485C238.009 86.6603 237.852 86.94 237.658 87.2873L236.057 89.7394L231.371 89.4938Z" fill="black"/>
<path d="M245.538 81.4103L250.179 81.6536L249.546 84.3654L250.933 84.4381L251.557 81.7258L256.198 81.969L254.186 90.6895L249.545 90.4463L250.193 87.6261L248.815 87.5539L248.168 90.374L243.517 90.1303L245.538 81.4103Z" fill="black"/>
<path d="M131.936 68.9658L134.561 69.0701L133.185 88.9658L130.561 88.8616L131.936 68.9658Z" fill="#FF3700"/>
<path d="M10.9052 87.6917C9.89999 86.7068 9.39741 86.2144 9.37633 85.8263C9.35809 85.4905 9.50992 85.1679 9.78039 84.968C10.0929 84.737 10.7927 84.8105 12.1922 84.9576L247.173 109.655C257.303 110.72 262.368 111.252 266.012 113.636C269.216 115.733 271.668 118.797 273.012 122.383C274.54 126.46 273.949 131.519 272.768 141.636L264.633 211.334C263.476 221.244 262.898 226.199 260.533 229.777C258.453 232.924 255.436 235.339 251.909 236.679C247.9 238.202 242.939 237.68 233.017 236.638L50.9998 217.507C40.8464 216.44 35.7696 215.906 32.1218 213.515C28.9137 211.413 26.4611 208.34 25.1218 204.746C23.5988 200.659 24.2036 195.59 25.413 185.453L33.7781 115.34C33.9834 113.62 34.086 112.759 33.9577 111.941C33.8441 111.217 33.5985 110.519 33.2332 109.883C32.8208 109.165 32.202 108.558 30.9643 107.346L10.9052 87.6917Z" fill="#FF0000"/>
<path d="M56.5985 109.901L56.4188 111.61L49.6009 110.894L49.7805 109.184L56.5985 109.901ZM55.2942 111.473L55.4382 110.103C55.6117 108.452 55.4159 107.201 54.8508 106.349C54.2928 105.492 53.4505 105.004 52.3239 104.886C51.2685 104.775 50.4306 104.962 49.8101 105.446C49.1903 105.925 48.8335 106.61 48.7396 107.504L48.7181 107.708L46.5329 107.478L46.5543 107.274C46.7013 105.876 47.2999 104.79 48.35 104.016C49.4073 103.237 50.7939 102.938 52.5097 103.118C54.2838 103.305 55.6401 104.04 56.5788 105.323C57.5182 106.6 57.8739 108.323 57.6459 110.492L57.5571 111.337C57.3019 113.765 56.5605 115.494 55.3328 116.524C54.1052 117.553 52.6303 117.978 50.908 117.797C49.2051 117.618 47.9225 117.021 47.0602 116.008C46.2051 114.988 45.8486 113.802 45.9908 112.449L46.0072 112.293L48.2021 112.524L48.1868 112.67C48.0963 113.531 48.283 114.277 48.7469 114.909C49.2172 115.541 49.9963 115.914 51.084 116.028C52.3337 116.159 53.3055 115.82 53.9995 115.009C54.7007 114.192 55.1323 113.014 55.2942 111.473ZM59.0464 109.874L59.2179 108.242L67.58 109.121L67.4085 110.753L64.2812 110.424L63.3972 118.835L61.28 118.612L62.164 110.201L59.0464 109.874ZM68.0859 114.398L68.1185 114.087C68.2798 112.553 68.8537 111.359 69.84 110.507C70.8336 109.649 72.0685 109.298 73.5447 109.453C75.0145 109.608 76.1461 110.208 76.9396 111.253C77.7338 112.293 78.0502 113.58 77.8889 115.114L77.8563 115.425C77.6943 116.966 77.1165 118.165 76.123 119.023C75.1301 119.875 73.8988 120.223 72.429 120.069C70.9528 119.913 69.8176 119.316 69.0234 118.277C68.2364 117.232 67.9239 115.939 68.0859 114.398ZM70.2894 114.266L70.2455 114.684C70.1401 115.687 70.2835 116.534 70.6758 117.223C71.0682 117.913 71.7111 118.304 72.6046 118.398C73.4981 118.492 74.2084 118.243 74.7355 117.65C75.2626 117.057 75.5789 116.259 75.6843 115.256L75.7282 114.838C75.8337 113.834 75.6867 112.991 75.2872 112.307C74.8949 111.618 74.2552 111.227 73.3681 111.133C72.4811 111.04 71.7708 111.29 71.2373 111.882C70.7109 112.468 70.3949 113.263 70.2894 114.266ZM87.8817 112.904L87.3154 116.704C87.0574 118.411 86.695 119.617 86.2282 120.321C85.7686 121.019 85.0306 121.314 84.014 121.208C83.7939 121.184 83.5884 121.147 83.3976 121.094C83.2125 121.048 83.0612 120.993 82.9436 120.928L83.1264 119.19C83.2259 119.239 83.3296 119.28 83.4377 119.311C83.5457 119.342 83.6677 119.364 83.8037 119.379C84.2828 119.429 84.6281 119.226 84.8397 118.771C85.0512 118.315 85.2476 117.475 85.4287 116.25L86.2079 111.079L93.5211 111.847L92.4656 121.89L90.3484 121.667L91.2324 113.256L87.8817 112.904ZM95.0856 117.236L95.1182 116.925C95.2795 115.39 95.8534 114.197 96.8398 113.345C97.8333 112.487 99.0682 112.136 100.544 112.291C102.014 112.445 103.146 113.046 103.939 114.091C104.733 115.13 105.05 116.417 104.889 117.952L104.856 118.263C104.694 119.804 104.116 121.003 103.123 121.861C102.13 122.712 100.899 123.061 99.4287 122.906C97.9525 122.751 96.8173 122.154 96.0231 121.115C95.2361 120.07 94.9236 118.777 95.0856 117.236ZM97.2892 117.104L97.2453 117.522C97.1398 118.525 97.2832 119.372 97.6755 120.061C98.0679 120.75 98.7108 121.142 99.6043 121.236C100.498 121.33 101.208 121.08 101.735 120.488C102.262 119.895 102.579 119.097 102.684 118.093L102.728 117.676C102.833 116.672 102.686 115.829 102.287 115.145C101.895 114.456 101.255 114.064 100.368 113.971C99.4808 113.878 98.7705 114.127 98.237 114.719C97.7106 115.306 97.3946 116.1 97.2892 117.104ZM112.948 124.043L109.677 119.103L111.175 117.837L115.483 124.309L112.948 124.043ZM108.115 117.525L109.97 117.72L113.742 113.973L116.131 114.224L110.838 119.461L107.944 119.157L108.115 117.525ZM109.595 113.537L108.539 123.579L106.422 123.357L107.477 113.314L109.595 113.537ZM116.405 121.431C116.515 120.382 117.011 119.619 117.892 119.142C118.774 118.658 119.85 118.484 121.119 118.617L123.324 118.849L123.395 118.169C123.454 117.605 123.356 117.14 123.1 116.773C122.845 116.399 122.364 116.175 121.658 116.101C120.959 116.027 120.439 116.117 120.098 116.369C119.758 116.621 119.566 116.948 119.524 117.349L119.513 117.456L117.426 117.227L117.437 117.12C117.525 116.285 117.975 115.616 118.787 115.112C119.607 114.602 120.644 114.413 121.9 114.545C123.157 114.677 124.101 115.065 124.734 115.707C125.374 116.344 125.633 117.242 125.511 118.401L125.031 122.975C124.986 123.396 124.977 123.795 125.003 124.17C125.029 124.546 125.089 124.88 125.183 125.171L125.166 125.327L123.107 125.11C123.034 124.939 122.974 124.726 122.929 124.473C122.891 124.214 122.872 123.956 122.873 123.701C122.61 124.086 122.193 124.409 121.622 124.669C121.052 124.924 120.349 125.007 119.514 124.919C118.543 124.817 117.755 124.466 117.15 123.866C116.546 123.265 116.297 122.454 116.405 121.431ZM118.537 121.507C118.481 122.038 118.593 122.472 118.872 122.809C119.15 123.146 119.614 123.349 120.261 123.417C120.928 123.487 121.544 123.326 122.109 122.933C122.674 122.535 122.986 122.063 123.043 121.519L123.177 120.247L121.263 120.046C120.415 119.957 119.761 120.042 119.302 120.301C118.849 120.562 118.594 120.963 118.537 121.507ZM131.178 117.455L130.612 121.254C130.354 122.962 129.992 124.168 129.525 124.872C129.065 125.57 128.327 125.865 127.311 125.758C127.091 125.735 126.885 125.697 126.694 125.644C126.509 125.599 126.358 125.544 126.24 125.479L126.423 123.74C126.523 123.79 126.626 123.83 126.734 123.861C126.842 123.892 126.964 123.915 127.1 123.929C127.579 123.98 127.925 123.777 128.136 123.321C128.348 122.866 128.544 122.026 128.725 120.801L129.505 115.629L136.818 116.398L135.762 126.44L133.645 126.218L134.529 117.807L131.178 117.455ZM141.625 116.903L141.271 120.273L143.573 120.515C144.835 120.648 145.769 121.047 146.373 121.713C146.984 122.38 147.235 123.227 147.127 124.257C147.018 125.293 146.596 126.073 145.86 126.598C145.13 127.124 144.134 127.32 142.872 127.188L138.453 126.723L139.508 116.681L141.625 116.903ZM143.225 122.05L141.108 121.827L140.734 125.382L142.851 125.605C143.57 125.68 144.096 125.568 144.428 125.269C144.761 124.971 144.955 124.552 145.012 124.015C145.066 123.497 144.962 123.061 144.698 122.705C144.435 122.344 143.944 122.125 143.225 122.05ZM149.706 117.753L151.823 117.975L151.392 122.074L155.568 122.513L155.999 118.414L158.116 118.637L157.061 128.679L154.944 128.456L155.397 124.144L151.221 123.705L150.768 128.017L148.65 127.795L149.706 117.753ZM159.488 125.959C159.598 124.91 160.094 124.147 160.975 123.67C161.857 123.187 162.933 123.012 164.202 123.145L166.407 123.377L166.478 122.697C166.537 122.134 166.439 121.668 166.183 121.301C165.928 120.927 165.447 120.703 164.741 120.629C164.042 120.556 163.522 120.645 163.181 120.897C162.841 121.149 162.649 121.476 162.607 121.878L162.596 121.985L160.509 121.755L160.52 121.648C160.608 120.813 161.058 120.144 161.87 119.64C162.69 119.13 163.727 118.942 164.983 119.074C166.24 119.206 167.184 119.593 167.817 120.236C168.457 120.872 168.716 121.77 168.594 122.929L168.114 127.504C168.069 127.924 168.06 128.323 168.086 128.699C168.112 129.075 168.172 129.408 168.266 129.7L168.249 129.855L166.19 129.639C166.117 129.467 166.057 129.255 166.012 129.001C165.974 128.742 165.955 128.485 165.956 128.229C165.693 128.614 165.276 128.937 164.705 129.198C164.135 129.452 163.432 129.535 162.597 129.447C161.626 129.345 160.838 128.994 160.233 128.394C159.629 127.793 159.38 126.982 159.488 125.959ZM161.62 126.036C161.564 126.567 161.676 127 161.955 127.337C162.233 127.674 162.697 127.877 163.344 127.945C164.011 128.015 164.627 127.854 165.192 127.462C165.757 127.063 166.069 126.592 166.126 126.048L166.26 124.775L164.346 124.574C163.498 124.485 162.844 124.57 162.385 124.83C161.932 125.09 161.677 125.492 161.62 126.036ZM172.183 130.268L169.891 130.027L173.281 126.083L175.383 126.451L172.183 130.268ZM176.553 130.728L176.931 127.134L174.736 126.904L174.466 126.767C173.235 126.638 172.316 126.256 171.709 125.623C171.101 124.99 170.848 124.194 170.948 123.236C171.051 122.258 171.466 121.513 172.195 121C172.923 120.487 173.902 120.296 175.132 120.425L179.726 120.908L178.67 130.95L176.553 130.728ZM174.82 125.361L177.092 125.6L177.449 122.2L175.177 121.962C174.471 121.887 173.956 121.997 173.63 122.29C173.305 122.583 173.116 122.979 173.063 123.477C173.012 123.97 173.112 124.389 173.363 124.736C173.622 125.078 174.107 125.286 174.82 125.361ZM186.061 131.727L187.117 121.685L190.011 121.989L191.956 128.713C192.061 129.084 192.128 129.35 192.157 129.51C192.186 129.67 192.211 129.833 192.233 129.999L192.311 130.008C192.366 129.85 192.425 129.699 192.486 129.555C192.547 129.404 192.668 129.158 192.848 128.817L196.159 122.635L199.014 122.935L197.959 132.977L195.909 132.762L196.597 126.216C196.636 125.847 196.668 125.572 196.694 125.392C196.72 125.205 196.751 125.034 196.787 124.881L196.7 124.872C196.644 125.023 196.581 125.187 196.51 125.363C196.44 125.532 196.315 125.794 196.133 126.148L192.772 132.432L191.073 132.254L189.076 125.376C188.987 125.04 188.923 124.775 188.884 124.581C188.853 124.381 188.826 124.201 188.804 124.042L188.716 124.033C188.713 124.189 188.705 124.359 188.692 124.541C188.686 124.723 188.665 124.983 188.63 125.32L187.936 131.924L186.061 131.727ZM200.559 128.321L200.592 128.011C200.753 126.476 201.327 125.283 202.313 124.431C203.307 123.573 204.542 123.222 206.018 123.377C207.488 123.531 208.62 124.131 209.413 125.177C210.207 126.216 210.524 127.503 210.362 129.038L210.33 129.348C210.168 130.889 209.59 132.089 208.596 132.947C207.604 133.798 206.372 134.147 204.902 133.992C203.426 133.837 202.291 133.24 201.497 132.2C200.71 131.155 200.397 129.862 200.559 128.321ZM202.763 128.19L202.719 128.607C202.613 129.611 202.757 130.457 203.149 131.147C203.542 131.836 204.185 132.228 205.078 132.322C205.972 132.415 206.682 132.166 207.209 131.573C207.736 130.981 208.052 130.183 208.158 129.179L208.202 128.761C208.307 127.758 208.16 126.914 207.761 126.231C207.368 125.541 206.729 125.15 205.842 125.057C204.955 124.964 204.244 125.213 203.711 125.805C203.184 126.391 202.868 127.186 202.763 128.19ZM219.294 137.861L219.568 135.249L212.614 134.518L212.34 137.13L210.388 136.925L210.834 132.681L221.692 133.822L221.246 138.066L219.294 137.861ZM215.383 126.305L214.873 129.659C214.746 130.556 214.609 131.268 214.462 131.796C214.315 132.324 214.135 132.783 213.924 133.173L211.788 132.948C212.035 132.647 212.258 132.206 212.457 131.624C212.663 131.037 212.847 130.186 213.01 129.07L213.709 124.48L221.1 125.256L220.044 135.299L217.927 135.076L218.811 126.666L215.383 126.305ZM222.955 130.675L222.988 130.365C223.149 128.837 223.71 127.642 224.671 126.781C225.638 125.92 226.822 125.563 228.22 125.71C229.625 125.858 230.663 126.419 231.333 127.392C232.01 128.36 232.268 129.615 232.106 131.156L232.021 131.962L224.251 131.145L224.41 129.64L230.072 130.235L230.093 130.031C230.164 129.358 230.03 128.764 229.691 128.251C229.359 127.732 228.825 127.433 228.086 127.356C227.225 127.265 226.543 127.524 226.041 128.132C225.539 128.734 225.236 129.534 225.131 130.531L225.087 130.949C224.982 131.952 225.124 132.805 225.515 133.507C225.907 134.203 226.572 134.6 227.511 134.699C228.12 134.763 228.655 134.682 229.118 134.455C229.587 134.223 229.974 133.937 230.278 133.596L231.62 134.748C231.247 135.246 230.692 135.665 229.956 136.007C229.22 136.342 228.354 136.457 227.357 136.352C225.784 136.187 224.616 135.583 223.855 134.541C223.094 133.498 222.794 132.21 222.955 130.675ZM237.293 128.608L236.727 132.408C236.469 134.115 236.106 135.321 235.64 136.025C235.18 136.723 234.442 137.018 233.425 136.911C233.205 136.888 233 136.85 232.809 136.798C232.624 136.752 232.473 136.697 232.355 136.632L232.538 134.893C232.637 134.943 232.741 134.984 232.849 135.015C232.957 135.046 233.079 135.068 233.215 135.083C233.694 135.133 234.04 134.93 234.251 134.475C234.463 134.019 234.659 133.179 234.84 131.954L235.619 126.782L242.932 127.551L241.877 137.593L239.76 137.371L240.644 128.96L237.293 128.608ZM247.74 128.056L247.386 131.427L249.688 131.668C250.95 131.801 251.884 132.2 252.488 132.866C253.099 133.533 253.35 134.381 253.242 135.41C253.133 136.446 252.71 137.226 251.974 137.751C251.245 138.277 250.249 138.473 248.986 138.341L244.567 137.876L245.623 127.834L247.74 128.056ZM249.34 133.203L247.222 132.98L246.849 136.535L248.966 136.758C249.685 136.833 250.21 136.722 250.543 136.423C250.875 136.124 251.07 135.706 251.126 135.168C251.181 134.65 251.076 134.214 250.812 133.859C250.549 133.497 250.058 133.279 249.34 133.203ZM258.482 134.036L258.809 132.234L267.676 133.166L267.35 134.968L258.482 134.036ZM41.777 139.088L45.6775 125.8L46.8916 125.927L46.5427 127.285L46.5232 127.283C46.9716 126.878 47.5579 126.564 48.282 126.339C49.0125 126.114 49.8343 126.05 50.7472 126.146C52.0487 126.283 52.9516 126.879 53.4561 127.933C53.9678 128.982 54.0229 130.264 53.6213 131.78L53.3455 132.723C52.9136 134.341 52.1757 135.569 51.1317 136.408C50.0877 137.248 48.9539 137.603 47.7301 137.475C46.8172 137.379 46.0881 137.184 45.5428 136.891C44.9982 136.592 44.5937 136.206 44.3291 135.733L43.0395 139.221L41.777 139.088ZM44.728 133.526C44.8542 133.945 45.142 134.352 45.5915 134.746C46.0482 135.134 46.759 135.379 47.7237 135.481C48.7273 135.586 49.6115 135.394 50.3765 134.905C51.1479 134.417 51.6837 133.71 51.9838 132.786L52.3598 131.451C52.6745 130.45 52.6133 129.661 52.1764 129.085C51.7459 128.509 51.058 128.172 50.1127 128.073C49.1868 127.975 48.3925 128.059 47.7297 128.323C47.0676 128.581 46.5596 128.93 46.2056 129.371L44.728 133.526ZM54.3518 134.92C54.661 133.722 55.308 132.861 56.2927 132.336C57.2846 131.805 58.4604 131.611 59.8201 131.754L62.6949 132.056L63.0586 130.651C63.2463 130.173 63.1897 129.778 62.8887 129.465C62.5878 129.151 61.9452 128.943 60.9611 128.84C59.9899 128.738 59.2315 128.822 58.686 129.092C58.1411 129.355 57.7897 129.74 57.6316 130.247L57.5673 130.486L56.3144 130.355L56.3798 130.106C56.6362 129.099 57.2118 128.325 58.1066 127.784C59.0014 127.243 60.0768 127.038 61.3329 127.17C62.5631 127.3 63.4485 127.658 63.9891 128.245C64.5368 128.826 64.6511 129.669 64.3319 130.775L62.8505 136.648C62.7351 137.062 62.6683 137.448 62.6503 137.806C62.6323 138.164 62.6554 138.474 62.7195 138.736L62.6761 138.869L61.4717 138.742C61.4066 138.552 61.3739 138.303 61.3735 137.996C61.3731 137.688 61.3983 137.386 61.449 137.09C61.064 137.515 60.4762 137.875 59.6857 138.172C58.9023 138.462 58.0218 138.556 57.0441 138.454C55.9757 138.341 55.1882 137.987 54.6813 137.39C54.1817 136.788 54.0718 135.965 54.3518 134.92ZM55.6297 135.094C55.4471 135.585 55.5307 135.974 55.8803 136.259C56.2372 136.539 56.8429 136.724 57.6976 136.814C58.5911 136.908 59.4594 136.806 60.3024 136.508C61.1526 136.205 61.6735 135.733 61.8653 135.092L62.4217 133.628L59.7411 133.346C58.6404 133.231 57.7354 133.309 57.0259 133.581C56.323 133.854 55.8575 134.359 55.6297 135.094ZM67.3415 133.252L66.9778 134.47C66.6903 135.337 66.7587 136.087 67.1831 136.721C67.6074 137.355 68.4121 137.734 69.5969 137.858C70.7818 137.983 71.7772 137.793 72.583 137.288C73.3889 136.784 73.9395 136.092 74.2348 135.213L74.5975 134.004C74.9194 132.997 74.8647 132.209 74.4336 131.64C74.0095 131.065 73.1857 130.714 71.9619 130.585C70.7512 130.458 69.7539 130.635 68.9702 131.115C68.1937 131.59 67.6508 132.302 67.3415 133.252ZM72.5674 128.842C74.0242 128.995 75.0391 129.554 75.6121 130.517C76.1916 131.481 76.2635 132.759 75.8279 134.35L75.5648 135.265C75.1411 136.804 74.3587 137.989 73.2176 138.818C72.0765 139.647 70.7581 139.983 69.2624 139.826C67.8121 139.674 66.749 139.107 66.0731 138.126C65.4043 137.139 65.3036 135.793 65.7709 134.088L66.0973 132.944C66.8514 130.379 67.7591 128.5 68.8204 127.309C69.8888 126.112 71.0302 125.561 72.2444 125.656C73.6344 125.697 74.4629 125.693 74.7301 125.642C74.9973 125.592 75.1693 125.45 75.2463 125.215L76.9751 125.397C76.8211 125.865 76.4997 126.277 76.0107 126.631C75.5224 126.979 74.3703 127.104 72.5543 127.004C71.5981 126.884 70.7493 127.113 70.0079 127.689C69.2671 128.259 68.6614 129.227 68.1906 130.591L68.2489 130.597C68.6775 130.008 69.2406 129.54 69.9381 129.194C70.642 128.849 71.5185 128.732 72.5674 128.842ZM77.1218 135.212L77.3839 134.307C77.8164 132.683 78.6114 131.441 79.7688 130.581C80.9328 129.721 82.2658 129.37 83.768 129.528C85.2766 129.687 86.3593 130.285 87.0161 131.323C87.673 132.361 87.7805 133.704 87.3388 135.353L87.0767 136.259C86.635 137.908 85.8328 139.156 84.6703 140.002C83.5084 140.842 82.1796 141.184 80.6839 141.027C79.1818 140.869 78.0987 140.274 77.4347 139.242C76.7779 138.204 76.6736 136.861 77.1218 135.212ZM78.7348 134.253L78.3629 135.549C78.0502 136.531 78.1165 137.333 78.5616 137.956C79.0074 138.572 79.8228 138.943 81.0077 139.067C82.199 139.193 83.2031 139.013 84.0198 138.53C84.8373 138.04 85.4056 137.304 85.7247 136.323L86.0869 135.025C86.4166 134.006 86.3546 133.194 85.901 132.59C85.448 131.98 84.6258 131.612 83.4345 131.487C82.2496 131.362 81.2484 131.545 80.431 132.035C79.6207 132.519 79.0553 133.259 78.7348 134.253ZM89.6891 132.144L89.9843 130.457L98.4532 131.347L98.1484 133.033L94.5549 132.655L91.9096 141.941L90.647 141.809L93.2826 132.522L89.6891 132.144ZM97.6484 139.471C97.9577 138.273 98.6047 137.411 99.5894 136.886C100.581 136.356 101.757 136.162 103.117 136.305L105.992 136.607L106.355 135.202C106.543 134.724 106.486 134.328 106.185 134.015C105.884 133.702 105.242 133.494 104.258 133.39C103.287 133.288 102.528 133.372 101.983 133.642C101.438 133.906 101.086 134.291 100.928 134.798L100.864 135.037L99.6111 134.905L99.6765 134.657C99.9329 133.649 100.509 132.875 101.403 132.334C102.298 131.793 103.374 131.589 104.63 131.721C105.86 131.85 106.745 132.208 107.286 132.795C107.833 133.377 107.948 134.22 107.629 135.326L106.147 141.199C106.032 141.612 105.965 141.998 105.947 142.356C105.929 142.714 105.952 143.025 106.016 143.287L105.973 143.42L104.768 143.293C104.703 143.103 104.671 142.854 104.67 142.546C104.67 142.238 104.695 141.937 104.746 141.641C104.361 142.065 103.773 142.426 102.982 142.722C102.199 143.013 101.318 143.107 100.341 143.004C99.2724 142.892 98.4848 142.538 97.978 141.941C97.4783 141.339 97.3685 140.515 97.6484 139.471ZM98.9263 139.645C98.7438 140.136 98.8273 140.525 99.177 140.81C99.5338 141.09 100.14 141.275 100.994 141.364C101.888 141.458 102.756 141.357 103.599 141.059C104.449 140.755 104.97 140.283 105.162 139.642L105.718 138.179L103.038 137.897C101.937 137.781 101.032 137.86 100.323 138.132C99.6196 138.405 99.1542 138.909 98.9263 139.645ZM108.968 138.56L109.23 137.654C109.673 135.992 110.453 134.739 111.569 133.894C112.692 133.05 113.96 132.702 115.371 132.85C116.776 132.998 117.751 133.535 118.295 134.463C118.845 135.392 118.89 136.709 118.429 138.415L118.175 139.714L109.755 138.829L110.044 137.2L117.143 137.946L117.175 138.204C117.491 137.125 117.543 136.289 117.33 135.697C117.118 135.099 116.287 134.723 114.837 134.571C113.84 134.466 112.946 134.683 112.156 135.222C111.373 135.762 110.822 136.552 110.503 137.592L110.131 138.888C109.789 140.024 109.845 140.897 110.298 141.508C110.757 142.119 111.592 142.488 112.803 142.615C113.535 142.692 114.178 142.74 114.732 142.759C115.287 142.772 115.847 142.677 116.412 142.474L117.005 143.185C116.535 143.672 115.925 144.02 115.177 144.23C114.429 144.433 113.563 144.482 112.579 144.379C111.025 144.216 109.92 143.635 109.266 142.636C108.612 141.632 108.513 140.273 108.968 138.56ZM120.438 135.376L120.733 133.688L129.202 134.579L128.897 136.265L125.303 135.887L122.658 145.173L121.396 145.041L124.031 135.753L120.438 135.376ZM133.316 141.119L133.578 140.213C134.011 138.589 134.806 137.347 135.963 136.487C137.127 135.628 138.46 135.277 139.962 135.435C141.471 135.593 142.554 136.191 143.21 137.229C143.867 138.267 143.975 139.611 143.533 141.26L143.271 142.165C142.829 143.814 142.027 145.062 140.865 145.909C139.703 146.749 138.374 147.09 136.878 146.933C135.376 146.775 134.293 146.18 133.629 145.148C132.972 144.11 132.868 142.767 133.316 141.119ZM134.929 140.159L134.557 141.455C134.245 142.437 134.311 143.239 134.756 143.862C135.202 144.479 136.017 144.849 137.202 144.974C138.393 145.099 139.397 144.92 140.214 144.436C141.032 143.946 141.6 143.21 141.919 142.229L142.281 140.932C142.611 139.912 142.549 139.101 142.095 138.497C141.642 137.886 140.82 137.518 139.629 137.393C138.444 137.268 137.443 137.451 136.625 137.941C135.815 138.426 135.25 139.165 134.929 140.159ZM146.031 142.622C145.698 143.68 145.808 144.526 146.364 145.161C146.926 145.789 147.797 146.185 148.978 146.349L151.412 138.612C150.163 138.533 149.092 138.731 148.197 139.207C147.31 139.676 146.699 140.447 146.363 141.518L146.031 142.622ZM155.619 142.491C155.954 141.42 155.84 140.573 155.277 139.951C154.721 139.323 153.857 138.921 152.684 138.745L150.24 146.491C151.488 146.577 152.556 146.381 153.444 145.905C154.338 145.429 154.953 144.659 155.287 143.595L155.619 142.491ZM148.649 148.17C147.167 147.949 146.036 147.339 145.258 146.341C144.485 145.343 144.329 143.998 144.788 142.305L145.021 141.495C145.474 139.794 146.328 138.552 147.583 137.767C148.837 136.983 150.222 136.637 151.737 136.731L152.896 133.367L154.168 133.501L153.009 136.865C154.492 137.086 155.619 137.695 156.391 138.693C157.17 139.691 157.333 141.041 156.879 142.741L156.647 143.551C156.187 145.244 155.33 146.483 154.076 147.268C152.828 148.053 151.444 148.398 149.922 148.304L149.024 150.399L147.752 150.266L148.649 148.17ZM161.938 139.738L160.087 145.572C159.688 146.82 159.244 147.713 158.755 148.25C158.274 148.782 157.699 149.013 157.032 148.943C156.722 148.911 156.516 148.879 156.414 148.849C156.312 148.818 156.216 148.772 156.124 148.71L156.445 146.967C156.544 147.023 156.64 147.069 156.735 147.105C156.823 147.134 156.949 147.157 157.11 147.174C157.447 147.21 157.766 147.073 158.067 146.764C158.375 146.449 158.65 146.01 158.893 145.447L161.077 137.929L168.711 138.731L165.78 149.706L164.508 149.572L167.143 140.285L161.938 139.738ZM168.664 146.935C168.973 145.737 169.62 144.875 170.604 144.35C171.596 143.82 172.772 143.626 174.132 143.769L177.007 144.071L177.37 142.666C177.558 142.188 177.501 141.792 177.2 141.479C176.9 141.166 176.257 140.958 175.273 140.854C174.302 140.752 173.543 140.836 172.998 141.106C172.453 141.37 172.101 141.755 171.943 142.262L171.879 142.501L170.626 142.369L170.692 142.121C170.948 141.113 171.524 140.339 172.418 139.798C173.313 139.257 174.389 139.053 175.645 139.185C176.875 139.314 177.76 139.672 178.301 140.259C178.849 140.841 178.963 141.684 178.644 142.79L177.162 148.663C177.047 149.076 176.98 149.462 176.962 149.82C176.944 150.178 176.967 150.489 177.031 150.751L176.988 150.884L175.783 150.757C175.718 150.567 175.686 150.318 175.685 150.01C175.685 149.702 175.71 149.401 175.761 149.105C175.376 149.529 174.788 149.89 173.997 150.186C173.214 150.477 172.334 150.571 171.356 150.468C170.287 150.356 169.5 150.002 168.993 149.405C168.493 148.803 168.384 147.979 168.664 146.935ZM169.941 147.109C169.759 147.6 169.842 147.989 170.192 148.274C170.549 148.554 171.155 148.739 172.009 148.828C172.903 148.922 173.771 148.82 174.614 148.523C175.464 148.219 175.985 147.747 176.177 147.106L176.733 145.643L174.053 145.361C172.952 145.245 172.047 145.324 171.338 145.596C170.635 145.869 170.169 146.373 169.941 147.109ZM179.183 151.114L182.123 140.141L183.434 140.279L181.179 148.378C181.127 148.563 181.069 148.769 181.006 148.998C180.942 149.227 180.881 149.434 180.823 149.617L180.813 149.616C180.921 149.464 181.036 149.299 181.16 149.122C181.284 148.939 181.427 148.761 181.589 148.588L188.475 140.808L190.495 141.021L187.564 151.995L186.243 151.856L188.523 143.71C188.569 143.525 188.612 143.337 188.652 143.144C188.698 142.953 188.744 142.765 188.79 142.579L188.926 142.594C188.772 142.748 188.639 142.894 188.526 143.033C188.414 143.165 188.273 143.321 188.104 143.499L181.164 151.322L179.183 151.114ZM186.944 138.183C187.501 138.241 187.952 138.092 188.297 137.736C188.649 137.374 188.991 136.892 189.323 136.292L190.585 137.269C190.017 137.812 189.409 138.272 188.761 138.649C188.113 139.019 187.436 139.167 186.731 139.093C186.025 139.019 185.464 138.721 185.047 138.199C184.631 137.671 184.387 137.129 184.315 136.571L185.736 135.945C185.678 136.43 185.726 136.909 185.879 137.384C186.039 137.859 186.394 138.125 186.944 138.183ZM193.098 141.294L194.37 141.428L193.075 145.995L199.068 146.625L200.353 142.057L201.625 142.191L198.685 153.164L197.412 153.03L198.753 148.311L192.77 147.682L191.43 152.401L190.157 152.268L193.098 141.294ZM205.966 148.627L206.293 146.825L215.16 147.757L214.834 149.559L205.966 148.627ZM42.7555 148.743L51.0691 149.617L50.0136 159.659L47.8963 159.437L48.7803 151.026L44.7012 150.597L43.8172 159.008L41.7 158.785L42.7555 148.743ZM52.6044 155.002L52.6371 154.691C52.7984 153.157 53.3722 151.964 54.3586 151.111C55.3522 150.254 56.5871 149.902 58.0633 150.057C59.5331 150.212 60.6647 150.812 61.4582 151.858C62.2523 152.897 62.5688 154.184 62.4075 155.718L62.3748 156.029C62.2129 157.57 61.6351 158.769 60.6415 159.627C59.6487 160.479 58.4173 160.827 56.9476 160.673C55.4713 160.518 54.3361 159.92 53.542 158.881C52.755 157.836 52.4425 156.543 52.6044 155.002ZM54.808 154.87L54.7641 155.288C54.6586 156.292 54.802 157.138 55.1944 157.827C55.5867 158.517 56.2296 158.908 57.1232 159.002C58.0167 159.096 58.727 158.847 59.254 158.254C59.7811 157.661 60.0974 156.863 60.2029 155.86L60.2468 155.442C60.3523 154.438 60.2053 153.595 59.8058 152.911C59.4134 152.222 58.7737 151.831 57.8867 151.738C56.9997 151.644 56.2894 151.894 55.7558 152.486C55.2294 153.072 54.9135 153.867 54.808 154.87ZM72.7182 157.116C72.5501 158.715 71.9937 159.93 71.0489 160.76C70.104 161.591 68.9129 161.93 67.4755 161.779C66.0705 161.632 65.0338 161.156 64.3654 160.353C63.7035 159.55 63.4222 158.676 63.5216 157.731L63.5308 157.643L65.5606 157.856L65.5535 157.924C65.4963 158.468 65.6286 158.954 65.9504 159.38C66.2793 159.801 66.8452 160.054 67.648 160.138C68.4898 160.226 69.1667 159.983 69.6787 159.409C70.1915 158.828 70.501 158.032 70.6071 157.022L70.6745 156.381C70.7773 155.403 70.634 154.586 70.2448 153.93C69.8555 153.274 69.2562 152.903 68.4468 152.818C67.6569 152.735 67.0538 152.868 66.6374 153.217C66.2282 153.56 65.9957 153.997 65.9399 154.528L65.9327 154.596L63.9029 154.383L63.9228 154.287C64.0351 153.343 64.4949 152.55 65.3021 151.908C66.1157 151.267 67.2251 151.02 68.6301 151.168C70.0545 151.318 71.1393 151.897 71.8844 152.904C72.6295 153.912 72.9183 155.213 72.7509 156.805L72.7182 157.116ZM71.755 156.004L71.5968 157.509L66.6533 156.989L66.8116 155.484L71.755 156.004ZM74.1387 153.691L74.3102 152.06L82.6723 152.938L82.5009 154.57L79.3735 154.241L78.4895 162.652L76.3723 162.43L77.2563 154.019L74.1387 153.691ZM83.1782 158.216L83.2109 157.905C83.3721 156.37 83.946 155.177 84.9324 154.325C85.9259 153.467 87.1608 153.116 88.6371 153.271C90.1068 153.425 91.2385 154.025 92.0319 155.071C92.8261 156.11 93.1425 157.397 92.9813 158.932L92.9486 159.242C92.7866 160.783 92.2089 161.983 91.2153 162.841C90.2224 163.692 88.9911 164.041 87.5214 163.886C86.0451 163.731 84.9099 163.134 84.1158 162.095C83.3287 161.05 83.0162 159.757 83.1782 158.216ZM85.3818 158.084L85.3379 158.501C85.2324 159.505 85.3758 160.352 85.7682 161.041C86.1605 161.73 86.8034 162.122 87.6969 162.216C88.5904 162.31 89.3007 162.06 89.8278 161.468C90.3549 160.875 90.6712 160.077 90.7767 159.073L90.8206 158.656C90.926 157.652 90.779 156.808 90.3795 156.125C89.9872 155.436 89.3475 155.044 88.4605 154.951C87.5734 154.858 86.8631 155.107 86.3296 155.699C85.8032 156.285 85.4872 157.08 85.3818 158.084ZM94.5146 164.336L95.57 154.294L98.4643 154.598L100.409 161.323C100.514 161.694 100.581 161.959 100.61 162.12C100.639 162.28 100.664 162.443 100.686 162.609L100.764 162.617C100.82 162.459 100.878 162.308 100.939 162.164C101.001 162.013 101.121 161.768 101.301 161.426L104.612 155.244L107.467 155.545L106.412 165.587L104.363 165.372L105.051 158.826C105.089 158.456 105.122 158.182 105.147 158.001C105.173 157.814 105.204 157.644 105.24 157.49L105.153 157.481C105.098 157.632 105.034 157.796 104.964 157.972C104.893 158.141 104.768 158.403 104.587 158.757L101.226 165.042L99.526 164.863L97.5289 157.986C97.4399 157.649 97.3761 157.384 97.3376 157.19C97.3062 156.99 97.2792 156.811 97.2567 156.651L97.1693 156.642C97.1659 156.799 97.1579 156.968 97.1454 157.15C97.1393 157.333 97.1185 157.593 97.0831 157.929L96.389 164.533L94.5146 164.336ZM107.91 169.829L108.097 168.15C108.259 168.22 108.44 168.278 108.638 168.325C108.842 168.379 109.037 168.416 109.225 168.436C109.671 168.489 110.077 168.365 110.443 168.063C110.808 167.761 111.211 167.109 111.65 166.108L111.622 166.095L108.866 155.692L110.964 155.912L112.573 162.552C112.638 162.808 112.689 163.045 112.724 163.265C112.767 163.479 112.801 163.689 112.825 163.894L112.883 163.901C112.956 163.705 113.036 163.507 113.123 163.307C113.21 163.1 113.305 162.875 113.41 162.63L116.267 156.469L118.228 156.676L112.921 167.557C112.47 168.485 111.94 169.173 111.33 169.619C110.726 170.066 110.017 170.247 109.201 170.161C108.923 170.132 108.681 170.09 108.478 170.036C108.274 169.982 108.085 169.913 107.91 169.829ZM122.032 171.313L122.218 169.634C122.381 169.704 122.561 169.762 122.759 169.809C122.963 169.863 123.159 169.9 123.347 169.92C123.793 169.973 124.199 169.849 124.564 169.547C124.93 169.245 125.332 168.593 125.771 167.592L125.743 167.579L122.987 157.176L125.085 157.396L126.695 164.036C126.76 164.292 126.81 164.53 126.846 164.749C126.889 164.963 126.922 165.173 126.947 165.379L127.005 165.385C127.078 165.19 127.157 164.992 127.244 164.791C127.331 164.584 127.427 164.359 127.531 164.115L130.388 157.954L132.35 158.16L127.043 169.042C126.592 169.97 126.061 170.657 125.451 171.103C124.848 171.551 124.138 171.731 123.322 171.646C123.044 171.616 122.803 171.575 122.599 171.52C122.395 171.466 122.206 171.397 122.032 171.313ZM138.826 158.614L139.236 156.874C139.494 155.786 140.056 154.89 140.922 154.189C141.789 153.481 142.789 153.01 143.922 152.776L145.372 154.193C145.172 154.517 144.971 154.964 144.767 155.533C144.564 156.095 144.354 156.718 144.138 157.401L143.73 159.129L138.826 158.614ZM145.471 159.312L145.881 157.573C146.139 156.484 146.701 155.589 147.567 154.888C148.434 154.18 149.434 153.709 150.567 153.475L152.017 154.891C151.817 155.216 151.616 155.663 151.412 156.232C151.209 156.794 150.999 157.416 150.783 158.099L150.375 159.827L145.471 159.312ZM161.998 171.429L156.294 165.483L161.121 164.359L168.526 172.115L161.998 171.429ZM155.19 163.65L159.026 164.053L167.049 160.273L171.375 160.728L159.032 166.765L154.492 166.287L155.19 163.65ZM150.129 170.182L154.09 158.911L159.175 159.445L155.214 170.716L150.129 170.182ZM169.071 172.173L171.695 164.369L176.63 164.888L175.088 169.489C175.022 169.712 174.96 169.886 174.904 170.01C174.855 170.134 174.789 170.315 174.707 170.551L174.685 170.548C174.893 170.354 175.035 170.2 175.112 170.086C175.19 169.964 175.407 169.818 175.763 169.646L185.006 165.768L190.07 166.3L187.446 174.104L182.51 173.585L184.058 168.93C184.127 168.75 184.174 168.615 184.198 168.524C184.222 168.433 184.261 168.271 184.314 168.039L184.495 168.058C184.261 168.235 184.108 168.352 184.037 168.41C183.973 168.468 183.752 168.585 183.374 168.761L174.124 172.704L169.071 172.173ZM198.278 169.701L197.358 170.544C196.74 172.452 195.933 173.685 194.938 174.243C193.951 174.802 192.787 175.011 191.448 174.87C190.551 174.776 189.989 174.706 189.764 174.661C189.531 174.615 189.353 174.56 189.23 174.497L189.938 171.773C190.04 171.827 190.151 171.871 190.269 171.906C190.389 171.933 190.595 171.961 190.887 171.992C191.2 172.025 191.561 171.919 191.968 171.674C192.383 171.429 192.754 170.809 193.082 169.814L194.6 166.776L211.159 168.517L208.535 176.32L203.578 175.799L205.575 170.468L198.278 169.701ZM219.346 171.916L218.425 172.759C217.807 174.667 217.001 175.9 216.006 176.458C215.018 177.016 213.855 177.225 212.516 177.085C211.619 176.99 211.057 176.92 210.831 176.875C210.599 176.829 210.421 176.774 210.298 176.711L211.005 173.988C211.108 174.042 211.218 174.086 211.337 174.12C211.457 174.147 211.662 174.176 211.954 174.206C212.268 174.239 212.628 174.133 213.036 173.888C213.45 173.643 213.821 173.024 214.149 172.028L215.667 168.991L232.227 170.731L229.602 178.535L224.645 178.014L226.642 172.683L219.346 171.916ZM239.929 171.541L239.18 173.115L246.734 173.908C248.571 174.102 249.797 174.497 250.411 175.094C251.032 175.692 251.19 176.523 250.884 177.585C250.58 178.626 249.959 179.36 249.021 179.787C248.084 180.214 246.696 180.331 244.858 180.138L232.359 178.824L234.983 171.021L239.929 171.541ZM245.096 176.134L238.632 175.455L237.837 177.164L244.311 177.845C244.802 177.896 245.165 177.87 245.399 177.765C245.634 177.66 245.815 177.445 245.942 177.12C246.072 176.78 246.086 176.544 245.985 176.411C245.89 176.279 245.594 176.187 245.096 176.134ZM250.948 180.778L253.572 172.975L258.55 173.498L255.926 181.301L250.948 180.778ZM267.817 166.727L267.416 168.381C267.157 169.47 266.595 170.329 265.73 170.958C264.872 171.588 263.852 172.078 262.67 172.429L261.16 171.072C261.353 170.674 261.535 170.208 261.707 169.671C261.886 169.135 262.087 168.523 262.31 167.833L262.71 166.19L267.817 166.727ZM274.462 167.426L274.061 169.079C273.802 170.168 273.241 171.027 272.375 171.656C271.517 172.286 270.497 172.777 269.315 173.128L267.805 171.77C267.998 171.373 268.18 170.906 268.352 170.37C268.531 169.834 268.732 169.221 268.955 168.532L269.355 166.889L274.462 167.426ZM39.3153 174.654L39.3414 174.406C39.4721 173.163 39.9248 172.194 40.6994 171.5C41.4746 170.802 42.4605 170.515 43.657 170.641C44.7707 170.758 45.5868 171.14 46.1055 171.786C46.6293 172.433 46.8592 173.135 46.7952 173.893L46.7871 173.971L45.1166 173.795L45.1231 173.733C45.1678 173.308 45.0637 172.928 44.8109 172.592C44.5582 172.257 44.1236 172.057 43.5072 171.992C42.7924 171.917 42.2337 172.125 41.8311 172.617C41.4291 173.104 41.1858 173.749 41.1015 174.551L41.0663 174.885C40.982 175.688 41.0829 176.372 41.3693 176.936C41.6613 177.496 42.1674 177.813 42.8874 177.889C43.5193 177.956 43.9889 177.848 44.2961 177.566C44.609 177.279 44.7872 176.929 44.8308 176.514L44.8365 176.46L46.507 176.636L46.5004 176.698C46.4209 177.454 46.0549 178.096 45.4024 178.625C44.755 179.154 43.8719 179.359 42.753 179.242C41.5617 179.117 40.6567 178.634 40.038 177.794C39.425 176.949 39.1841 175.903 39.3153 174.654ZM47.789 179.536L48.644 171.401L50.3456 171.579L49.8523 176.272C49.836 176.428 49.8143 176.609 49.7874 176.815C49.7662 177.017 49.7422 177.196 49.7155 177.35L49.7854 177.357C49.8716 177.235 49.9668 177.101 50.0712 176.955C50.1808 176.81 50.2969 176.652 50.4195 176.481L53.8808 171.951L55.6057 172.132L54.7506 180.267L53.0491 180.088L53.5431 175.388C53.5595 175.232 53.5811 175.051 53.6081 174.845C53.6408 174.633 53.6704 174.451 53.6971 174.296L53.5884 174.285C53.512 174.413 53.4214 174.553 53.3165 174.704C53.2167 174.856 53.1032 175.014 52.9759 175.179L49.5139 179.717L47.789 179.536ZM56.8904 176.502L56.9165 176.253C57.0472 175.01 57.4998 174.041 58.2745 173.348C59.0497 172.649 60.0356 172.362 61.2321 172.488C62.3458 172.605 63.1619 172.987 63.6805 173.633C64.2043 174.28 64.4342 174.982 64.3703 175.74L64.3621 175.818L62.6916 175.642L62.6982 175.58C62.7428 175.155 62.6388 174.775 62.386 174.44C62.1332 174.104 61.6986 173.904 61.0822 173.839C60.3674 173.764 59.8087 173.972 59.4062 174.464C59.0041 174.951 58.7609 175.596 58.6765 176.399L58.6414 176.733C58.557 177.536 58.658 178.219 58.9443 178.783C59.2364 179.343 59.7424 179.661 60.4624 179.736C61.0944 179.803 61.5639 179.695 61.8711 179.413C62.184 179.127 62.3623 178.776 62.4058 178.362L62.4115 178.307L64.082 178.483L64.0755 178.545C63.996 179.301 63.63 179.944 62.9774 180.472C62.33 181.001 61.4469 181.207 60.3281 181.089C59.1367 180.964 58.2317 180.481 57.613 179.641C57 178.796 56.7592 177.75 56.8904 176.502ZM65.2256 174.479L65.3644 173.158L72.1163 173.868L71.9774 175.189L69.4601 174.924L68.7439 181.738L67.0268 181.558L67.743 174.743L65.2256 174.479ZM72.4764 178.14L72.5025 177.891C72.6321 176.658 73.0871 175.693 73.8675 174.994C74.6484 174.291 75.6061 173.999 76.7404 174.118C77.8748 174.237 78.7147 174.692 79.26 175.483C79.8059 176.268 80.0133 177.285 79.8821 178.533L79.8127 179.194L73.5425 178.535L73.6724 177.299L78.2254 177.778L78.2442 177.599C78.306 177.061 78.1988 176.586 77.9225 176.175C77.652 175.759 77.2215 175.52 76.6311 175.458C75.9318 175.384 75.3783 175.593 74.9705 176.084C74.5679 176.576 74.3242 177.226 74.2392 178.034L74.2049 178.361C74.12 179.169 74.2363 179.856 74.5537 180.424C74.8711 180.992 75.4105 181.315 76.1719 181.395C76.664 181.447 77.0979 181.38 77.4735 181.194C77.8492 181.009 78.1615 180.777 78.4107 180.499L79.4887 181.453C79.1851 181.851 78.7336 182.186 78.1341 182.458C77.5399 182.731 76.8439 182.825 76.0462 182.741C74.7668 182.607 73.818 182.117 73.1999 181.272C72.5874 180.422 72.3463 179.378 72.4764 178.14ZM80.9501 183.021L81.8051 174.886L84.1438 175.132L85.7239 180.577C85.8115 180.89 85.8642 181.11 85.8823 181.238C85.906 181.361 85.9243 181.486 85.9371 181.613L86.0148 181.621C86.0538 181.499 86.0951 181.38 86.1387 181.265C86.1874 181.149 86.2843 180.95 86.4293 180.667L89.1164 175.654L91.4317 175.898L90.5767 184.033L88.914 183.858L89.4718 178.551C89.5039 178.246 89.5299 178.023 89.5498 177.884C89.5754 177.74 89.5994 177.612 89.6217 177.499L89.5518 177.491C89.5087 177.602 89.4617 177.725 89.4107 177.861C89.3603 177.992 89.2569 178.204 89.1005 178.497L86.3811 183.592L84.9981 183.446L83.3844 177.872C83.3091 177.592 83.2584 177.377 83.2322 177.228C83.2065 177.073 83.1868 176.938 83.1728 176.821L83.0951 176.813C83.0935 176.928 83.088 177.055 83.0784 177.196C83.0746 177.332 83.0578 177.542 83.0278 177.827L82.4652 183.18L80.9501 183.021ZM93.4596 176.111L95.1845 176.292L94.8358 179.61L98.2001 179.964L98.5488 176.646L100.274 176.827L99.4187 184.962L97.6938 184.781L98.0613 181.284L94.697 180.931L94.3295 184.427L92.6046 184.246L93.4596 176.111ZM104.042 177.223L103.755 179.95L105.605 180.145C106.63 180.253 107.389 180.578 107.882 181.123C108.38 181.662 108.586 182.349 108.498 183.183C108.41 184.017 108.067 184.648 107.466 185.077C106.872 185.502 106.062 185.66 105.036 185.552L101.462 185.177L102.317 177.042L104.042 177.223ZM105.331 181.404L103.621 181.225L103.32 184.092L105.029 184.271C105.61 184.332 106.033 184.243 106.299 184.004C106.57 183.76 106.729 183.421 106.775 182.986C106.819 182.566 106.736 182.214 106.524 181.93C106.314 181.641 105.916 181.466 105.331 181.404ZM109.216 185.992L110.071 177.857L111.796 178.038L110.941 186.173L109.216 185.992ZM113.065 182.406L113.091 182.157C113.221 180.924 113.676 179.959 114.456 179.26C115.237 178.557 116.195 178.265 117.329 178.384C118.464 178.503 119.304 178.958 119.849 179.749C120.395 180.534 120.602 181.551 120.471 182.799L120.402 183.46L114.131 182.801L114.261 181.565L118.814 182.044L118.833 181.865C118.895 181.327 118.788 180.852 118.511 180.441C118.241 180.025 117.81 179.786 117.22 179.724C116.521 179.65 115.967 179.859 115.559 180.351C115.157 180.842 114.913 181.492 114.828 182.3L114.794 182.627C114.709 183.435 114.825 184.123 115.143 184.69C115.46 185.258 115.999 185.581 116.761 185.661C117.253 185.713 117.687 185.646 118.062 185.46C118.438 185.275 118.75 185.043 119 184.766L120.078 185.719C119.774 186.117 119.322 186.452 118.723 186.724C118.129 186.997 117.433 187.091 116.635 187.007C115.356 186.873 114.407 186.383 113.789 185.538C113.176 184.688 112.935 183.644 113.065 182.406ZM125.177 180.78L125.315 179.459L132.067 180.169L131.928 181.49L129.411 181.225L128.695 188.039L126.978 187.859L127.694 181.045L125.177 180.78ZM132.138 191.677L133.334 180.302L134.919 180.469L134.866 181.492L134.913 181.497C135.139 181.191 135.476 180.946 135.925 180.763C136.373 180.579 136.872 180.517 137.421 180.574C138.457 180.683 139.246 181.151 139.788 181.978C140.334 182.805 140.544 183.822 140.417 185.029L140.391 185.278C140.265 186.485 139.85 187.439 139.148 188.14C138.446 188.836 137.583 189.13 136.557 189.023C136.008 188.965 135.542 188.819 135.158 188.585C134.774 188.346 134.488 188.051 134.3 187.701L133.863 191.858L132.138 191.677ZM134.467 186.108C134.576 186.466 134.786 186.794 135.094 187.093C135.409 187.394 135.806 187.569 136.288 187.62C136.993 187.694 137.537 187.497 137.921 187.029C138.311 186.557 138.548 185.927 138.631 185.14L138.666 184.806C138.748 184.018 138.648 183.356 138.364 182.818C138.086 182.276 137.592 181.967 136.882 181.892C136.401 181.842 135.977 181.931 135.613 182.16C135.254 182.384 134.982 182.656 134.796 182.977L134.467 186.108ZM141.642 185.409L141.668 185.161C141.798 183.928 142.253 182.962 143.033 182.264C143.814 181.561 144.772 181.268 145.906 181.388C147.041 181.507 147.881 181.962 148.426 182.752C148.972 183.538 149.179 184.554 149.048 185.803L148.979 186.463L142.708 185.804L142.838 184.569L147.391 185.047L147.41 184.869C147.472 184.33 147.365 183.856 147.088 183.444C146.818 183.028 146.387 182.789 145.797 182.727C145.098 182.654 144.544 182.863 144.136 183.354C143.734 183.846 143.49 184.496 143.405 185.304L143.371 185.63C143.286 186.438 143.402 187.126 143.72 187.694C144.037 188.261 144.576 188.585 145.338 188.665C145.83 188.717 146.264 188.65 146.639 188.464C147.015 188.278 147.327 188.047 147.577 187.769L148.655 188.723C148.351 189.12 147.899 189.455 147.3 189.727C146.706 190 146.01 190.095 145.212 190.011C143.933 189.876 142.984 189.386 142.366 188.541C141.753 187.691 141.512 186.647 141.642 185.409ZM151.9 186.393L151.874 186.642C151.792 187.424 151.909 188.083 152.224 188.619C152.54 189.155 153.06 189.461 153.785 189.537C154.51 189.613 155.083 189.422 155.503 188.964C155.928 188.505 156.182 187.885 156.264 187.103L156.29 186.855C156.371 186.088 156.251 185.436 155.93 184.9C155.615 184.364 155.097 184.058 154.377 183.983C153.646 183.906 153.071 184.097 152.651 184.555C152.231 185.014 151.981 185.627 151.9 186.393ZM154.954 182.676C156.042 182.791 156.86 183.256 157.407 184.073C157.955 184.89 158.168 185.879 158.046 187.039L158.02 187.288C157.895 188.479 157.43 189.41 156.627 190.079C155.828 190.75 154.836 191.022 153.65 190.898C152.412 190.768 151.48 190.293 150.854 189.473C150.234 188.648 150.013 187.384 150.192 185.679L150.24 185.221C150.436 183.356 150.906 181.952 151.649 181.009C152.398 180.067 153.609 179.558 155.282 179.482C156.166 179.444 156.68 179.386 156.824 179.307C156.974 179.223 157.07 179.115 157.11 178.983L158.648 179.145C158.53 179.766 158.255 180.222 157.821 180.511C157.393 180.796 156.612 180.955 155.477 180.987C154.19 181.025 153.29 181.315 152.778 181.858C152.265 182.396 151.917 183.145 151.732 184.105L151.818 184.114C152.139 183.598 152.57 183.211 153.11 182.954C153.65 182.697 154.265 182.604 154.954 182.676ZM159.28 187.263L159.306 187.014C159.436 185.771 159.902 184.804 160.702 184.113C161.504 183.417 162.5 183.132 163.691 183.257C164.883 183.382 165.798 183.868 166.437 184.716C167.081 185.559 167.338 186.602 167.207 187.845L167.181 188.094C167.05 189.342 166.581 190.314 165.775 191.009C164.974 191.7 163.979 191.983 162.787 191.858C161.596 191.733 160.68 191.249 160.041 190.407C159.402 189.559 159.148 188.511 159.28 187.263ZM161.066 187.16L161.031 187.494C160.945 188.307 161.059 188.992 161.372 189.549C161.691 190.106 162.21 190.423 162.93 190.498C163.65 190.574 164.224 190.372 164.651 189.894C165.079 189.415 165.335 188.769 165.42 187.956L165.456 187.622C165.541 186.808 165.424 186.126 165.105 185.574C164.787 185.017 164.267 184.7 163.547 184.624C162.833 184.549 162.262 184.751 161.834 185.23C161.407 185.703 161.151 186.347 161.066 187.16ZM168.344 192.206L169.199 184.071L172.913 184.462C173.855 184.561 174.564 184.816 175.04 185.227C175.515 185.639 175.715 186.199 175.641 186.909C175.59 187.385 175.409 187.764 175.097 188.046C174.785 188.322 174.386 188.484 173.899 188.533L173.896 188.556C174.467 188.705 174.896 188.957 175.184 189.312C175.477 189.662 175.597 190.091 175.543 190.599C175.466 191.334 175.139 191.881 174.562 192.239C173.99 192.593 173.241 192.721 172.314 192.624L168.344 192.206ZM170.552 187.639L172.417 187.835C172.898 187.885 173.256 187.823 173.489 187.649C173.722 187.469 173.858 187.206 173.894 186.859C173.929 186.522 173.85 186.252 173.657 186.048C173.464 185.845 173.126 185.718 172.645 185.667L170.78 185.471L170.552 187.639ZM170.181 191.166L172.279 191.387C172.766 191.438 173.135 191.369 173.385 191.181C173.641 190.988 173.787 190.715 173.824 190.363C173.86 190.021 173.775 189.734 173.569 189.503C173.363 189.267 173.014 189.123 172.522 189.071L170.425 188.851L170.181 191.166ZM176.986 190.695C177.076 189.846 177.478 189.228 178.195 188.843C178.911 188.452 179.785 188.311 180.816 188.419L182.572 188.604L182.628 188.067C182.675 187.622 182.596 187.247 182.393 186.943C182.194 186.639 181.807 186.457 181.233 186.397C180.663 186.337 180.244 186.411 179.976 186.618C179.708 186.826 179.557 187.087 179.524 187.403L179.517 187.473L177.815 187.294L177.823 187.217C177.894 186.543 178.258 186 178.914 185.587C179.575 185.175 180.413 185.022 181.429 185.129C182.444 185.236 183.21 185.549 183.726 186.07C184.242 186.59 184.451 187.319 184.352 188.256L183.961 191.978C183.926 192.31 183.919 192.628 183.939 192.934C183.965 193.235 184.013 193.502 184.083 193.735L184.07 193.859L182.391 193.683C182.337 193.551 182.292 193.382 182.256 193.174C182.226 192.961 182.211 192.755 182.211 192.556C182.001 192.864 181.665 193.122 181.203 193.33C180.741 193.538 180.176 193.607 179.508 193.537C178.726 193.455 178.088 193.17 177.594 192.684C177.101 192.192 176.899 191.529 176.986 190.695ZM178.724 190.76C178.678 191.19 178.767 191.542 178.99 191.817C179.213 192.087 179.586 192.249 180.109 192.304C180.653 192.361 181.148 192.23 181.596 191.91C182.048 191.591 182.297 191.214 182.343 190.779L182.452 189.746L180.913 189.584C180.235 189.513 179.711 189.583 179.343 189.796C178.976 190.004 178.769 190.325 178.724 190.76ZM186.665 185.907L188.39 186.089L188.041 189.406L191.405 189.76L191.754 186.442L193.479 186.623L192.624 194.758L190.899 194.577L191.267 191.081L187.902 190.727L187.535 194.223L185.81 194.042L186.665 185.907ZM194.667 194.973L195.522 186.838L197.224 187.017L196.731 191.71C196.714 191.865 196.693 192.046 196.666 192.253C196.645 192.455 196.621 192.633 196.594 192.787L196.664 192.795C196.75 192.673 196.845 192.539 196.95 192.393C197.059 192.247 197.175 192.089 197.298 191.919L200.759 187.389L202.484 187.57L201.629 195.705L199.928 195.526L200.422 190.825C200.438 190.67 200.46 190.489 200.487 190.282C200.519 190.071 200.549 189.888 200.576 189.734L200.467 189.722C200.39 189.851 200.3 189.99 200.195 190.142C200.095 190.293 199.982 190.452 199.854 190.616L196.392 195.154L194.667 194.973ZM205.172 196.077L203.315 195.882L206.094 192.686L207.79 192.99L205.172 196.077ZM208.723 196.45L209.028 193.544L207.272 193.36L207.041 193.241C206.042 193.136 205.293 192.83 204.797 192.322C204.301 191.809 204.094 191.164 204.175 190.387C204.259 189.595 204.597 188.991 205.191 188.577C205.784 188.158 206.581 188.001 207.581 188.106L211.303 188.497L210.448 196.632L208.723 196.45ZM207.317 192.108L209.159 192.301L209.448 189.551L207.607 189.357C207.037 189.297 206.619 189.387 206.353 189.626C206.093 189.861 205.941 190.18 205.899 190.584C205.857 190.983 205.939 191.321 206.145 191.6C206.352 191.878 206.743 192.047 207.317 192.108ZM222.502 197.899L219.835 193.903L221.037 192.858L224.554 198.114L222.502 197.899ZM218.572 192.615L220.064 192.772L223.155 189.743L225.098 189.947L220.763 194.189L218.433 193.944L218.572 192.615ZM219.776 189.387L218.921 197.522L217.196 197.341L218.051 189.206L219.776 189.387ZM225.186 195.761C225.275 194.912 225.678 194.294 226.394 193.909C227.111 193.518 227.984 193.377 229.015 193.485L230.771 193.669L230.827 193.133C230.874 192.688 230.796 192.313 230.592 192.009C230.394 191.705 230.007 191.523 229.432 191.463C228.862 191.403 228.443 191.477 228.175 191.684C227.907 191.892 227.757 192.153 227.724 192.469L227.716 192.539L226.015 192.36L226.023 192.283C226.094 191.609 226.457 191.066 227.113 190.653C227.774 190.241 228.613 190.088 229.628 190.195C230.643 190.302 231.409 190.615 231.925 191.136C232.441 191.656 232.65 192.385 232.551 193.322L232.16 197.044C232.125 197.376 232.118 197.694 232.138 198C232.164 198.301 232.212 198.568 232.282 198.801L232.269 198.925L230.591 198.749C230.536 198.617 230.491 198.448 230.456 198.24C230.426 198.027 230.411 197.821 230.411 197.622C230.2 197.93 229.864 198.188 229.402 198.396C228.94 198.604 228.376 198.673 227.707 198.603C226.925 198.521 226.287 198.236 225.794 197.75C225.301 197.258 225.098 196.595 225.186 195.761ZM226.923 195.826C226.878 196.256 226.966 196.608 227.189 196.883C227.412 197.153 227.785 197.315 228.308 197.37C228.852 197.427 229.348 197.296 229.795 196.976C230.248 196.657 230.497 196.28 230.542 195.845L230.651 194.812L229.113 194.65C228.434 194.579 227.911 194.649 227.543 194.862C227.175 195.07 226.969 195.391 226.923 195.826ZM239.316 199.666L236.649 195.67L237.85 194.626L241.367 199.881L239.316 199.666ZM235.386 194.382L236.878 194.539L239.969 191.51L241.911 191.714L237.577 195.956L235.246 195.711L235.386 194.382ZM236.589 191.154L235.734 199.289L234.009 199.108L234.864 190.973L236.589 191.154ZM245.029 203.534L245.181 202.16C245.312 202.215 245.456 202.265 245.613 202.307C245.777 202.351 245.933 202.38 246.083 202.396C246.441 202.434 246.765 202.337 247.057 202.105C247.353 201.875 247.677 201.356 248.029 200.55L247.999 200.539L245.773 192.12L247.475 192.299L248.774 197.651C248.825 197.861 248.865 198.056 248.893 198.237C248.927 198.414 248.953 198.584 248.973 198.748L249.019 198.753C249.083 198.598 249.149 198.437 249.219 198.271C249.289 198.101 249.366 197.918 249.45 197.722L251.732 192.746L253.325 192.914L249.043 201.741C248.689 202.468 248.265 203.01 247.772 203.367C247.279 203.724 246.706 203.868 246.054 203.799C245.836 203.776 245.646 203.743 245.483 203.7C245.32 203.656 245.169 203.601 245.029 203.534ZM45.8519 199.442L42.5152 193.818L46.8455 192.604L51.6209 200.048L45.8519 199.442ZM40.0649 191.626L44.1342 192.054L48.9141 188.992L53.6633 189.491L44.1977 195.468L39.1571 194.938L40.0649 191.626ZM43.8055 188.455L40.9084 198.923L36.0038 198.407L38.9009 187.94L43.8055 188.455ZM52.9547 194.925L53.0231 194.648C53.4962 192.95 54.6575 191.71 56.5071 190.929C58.3632 190.149 60.557 189.892 63.0886 190.158C65.6203 190.424 67.5444 191.114 68.8609 192.228C70.184 193.342 70.609 194.748 70.1359 196.446L70.0675 196.724C69.5866 198.434 68.4246 199.681 66.5815 200.462C64.739 201.237 62.552 201.492 60.0204 201.226C57.4888 200.96 55.5578 200.272 54.2276 199.164C52.9046 198.049 52.4803 196.637 52.9547 194.925ZM58.1215 194.909L57.887 195.738C57.7031 196.367 57.8843 196.854 58.4306 197.2C58.9776 197.539 59.8014 197.766 60.9021 197.882C62.0028 197.997 62.9077 197.952 63.6168 197.745C64.3331 197.532 64.78 197.111 64.9574 196.482L65.1919 195.652C65.3758 195.023 65.191 194.539 64.6376 194.199C64.0841 193.86 63.2667 193.633 62.1854 193.519C61.0977 193.405 60.1928 193.451 59.4707 193.656C58.7551 193.863 58.3054 194.28 58.1215 194.909ZM70.4818 202.031L73.3789 191.563L79.8278 192.241L81.1576 197.153C81.1965 197.53 81.216 197.781 81.216 197.906C81.2167 198.024 81.2089 198.16 81.1925 198.316L81.2702 198.324C81.3363 198.193 81.4176 198.074 81.514 197.966C81.6169 197.859 81.8128 197.615 82.1017 197.233L85.7619 192.865L92.3176 193.554L89.4108 204.02L84.4284 203.497L85.8435 198.255C85.977 197.856 86.0802 197.559 86.1531 197.364C86.2325 197.169 86.3177 196.982 86.4086 196.802L86.3406 196.795C86.266 196.944 86.1724 197.088 86.0596 197.227C85.954 197.359 85.7691 197.592 85.5051 197.924L81.1652 203.154L77.3677 202.755L76.0368 196.919C76.0224 196.682 76.006 196.464 75.9876 196.266C75.9763 196.062 75.9795 195.876 75.9972 195.707L75.9292 195.7C75.8863 195.859 75.8414 196.038 75.7944 196.236C75.7539 196.435 75.6701 196.734 75.543 197.133L74.1142 202.413L70.4818 202.031ZM94.4348 193.776L110.003 195.413L107.097 205.879L102.192 205.364L104.194 198.18L98.4541 197.577L96.4423 204.759L91.5377 204.244L94.4348 193.776ZM117.025 196.151L116.183 199.214L121.544 199.778C123.208 199.953 124.347 200.393 124.96 201.099C125.573 201.805 125.702 202.791 125.346 204.056C125.005 205.31 124.359 206.188 123.41 206.69C122.46 207.193 121.153 207.357 119.489 207.182L109.214 206.102L112.111 195.634L117.025 196.151ZM119.494 202.469L115.424 202.041L114.876 203.8L118.955 204.229C119.376 204.273 119.699 204.251 119.924 204.164C120.157 204.07 120.329 203.836 120.44 203.462C120.54 203.132 120.512 202.897 120.357 202.756C120.209 202.609 119.921 202.514 119.494 202.469ZM128.622 197.37L133.536 197.886L132.56 201.378L136.154 201.755L135.26 205.029L131.666 204.652L130.629 208.353L125.724 207.837L128.622 197.37ZM133.546 203.396L133.614 203.118C134.087 201.42 135.236 200.179 137.06 199.396C138.89 198.613 141.045 198.351 143.524 198.612C146.004 198.873 147.896 199.559 149.2 200.672C150.51 201.785 150.928 203.19 150.455 204.888L150.377 205.165C149.903 206.876 148.747 208.123 146.91 208.905C145.08 209.688 142.925 209.949 140.445 209.689C137.966 209.428 136.074 208.742 134.77 207.629C133.473 206.517 133.065 205.106 133.546 203.396ZM138.532 203.419L138.329 204.134C138.115 204.858 138.267 205.378 138.784 205.694C139.307 206.005 140.136 206.219 141.269 206.338C142.318 206.449 143.193 206.41 143.893 206.221C144.6 206.034 145.057 205.581 145.263 204.863L145.476 204.149C145.681 203.444 145.509 202.932 144.96 202.612C144.411 202.292 143.605 202.077 142.544 201.965C141.411 201.846 140.506 201.889 139.83 202.092C139.16 202.297 138.728 202.739 138.532 203.419ZM151.813 203.185L152.708 199.901L167.062 201.41L166.177 204.695L161.447 204.198L159.445 211.381L154.531 210.865L156.542 203.682L151.813 203.185ZM166.431 206.852L166.5 206.575C166.971 204.896 168.115 203.661 169.933 202.87C171.758 202.074 173.881 201.803 176.303 202.057C178.75 202.314 180.546 202.978 181.691 204.047C182.835 205.117 183.177 206.472 182.717 208.112L182.37 209.451L169.55 208.103L170.085 206.097L178.078 206.937L178.113 207.069C178.239 206.558 178.131 206.148 177.791 205.837C177.458 205.52 176.631 205.293 175.31 205.154C174.215 205.039 173.334 205.107 172.667 205.357C172.005 205.608 171.572 206.087 171.367 206.792L171.132 207.621C170.93 208.359 171.076 208.902 171.57 209.248C172.071 209.589 172.95 209.825 174.206 209.957C175.054 210.047 175.799 210.056 176.442 209.986C177.091 209.91 177.727 209.683 178.35 209.303L181.253 211.572C180.587 212.307 179.579 212.803 178.23 213.061C176.887 213.319 175.302 213.352 173.476 213.16C170.919 212.892 168.983 212.217 167.67 211.136C166.363 210.056 165.95 208.628 166.431 206.852ZM181.377 219.735L185.612 203.36L190.352 203.858L190.091 205.126L190.081 205.125C190.555 204.73 191.269 204.442 192.224 204.261C193.18 204.073 194.221 204.039 195.348 204.157C197.375 204.37 198.886 205.003 199.881 206.057C200.883 207.112 201.152 208.482 200.686 210.168L200.607 210.454C200.137 212.126 199.152 213.365 197.654 214.17C196.162 214.969 194.439 215.265 192.484 215.06C191.37 214.943 190.404 214.724 189.587 214.402C188.77 214.08 188.208 213.694 187.902 213.243L186.282 220.251L181.377 219.735ZM188.692 209.938C188.821 210.325 189.167 210.676 189.73 210.99C190.299 211.305 191.021 211.509 191.895 211.601C192.898 211.706 193.714 211.638 194.342 211.396C194.969 211.154 195.365 210.754 195.528 210.195L195.761 209.385C195.924 208.826 195.785 208.376 195.343 208.035C194.902 207.688 194.156 207.459 193.108 207.349C192.214 207.255 191.431 207.297 190.757 207.475C190.091 207.647 189.601 207.887 189.287 208.194L188.692 209.938ZM203.716 205.262L208.63 205.779L207.654 209.27L213.414 209.876L214.399 206.385L219.304 206.901L216.407 217.368L211.492 216.852L212.529 213.151L206.76 212.544L205.723 216.245L200.819 215.73L203.716 205.262ZM219.459 212.426L219.528 212.148C220.001 210.45 221.162 209.211 223.012 208.43C224.868 207.649 227.062 207.392 229.593 207.658C232.125 207.924 234.049 208.614 235.366 209.728C236.689 210.842 237.114 212.249 236.641 213.947L236.572 214.224C236.091 215.935 234.929 217.181 233.086 217.963C231.244 218.738 229.057 218.992 226.525 218.726C223.993 218.46 222.063 217.773 220.732 216.664C219.409 215.55 218.985 214.137 219.459 212.426ZM224.626 212.409L224.392 213.239C224.208 213.868 224.389 214.355 224.935 214.7C225.482 215.039 226.306 215.266 227.407 215.382C228.508 215.498 229.412 215.452 230.122 215.245C230.838 215.032 231.285 214.611 231.462 213.982L231.697 213.152C231.881 212.524 231.696 212.039 231.142 211.7C230.589 211.36 229.771 211.133 228.69 211.02C227.602 210.905 226.698 210.951 225.975 211.157C225.26 211.363 224.81 211.78 224.626 212.409ZM236.773 219.509L239.67 209.041L244.584 209.558L243.35 214.298C243.29 214.495 243.221 214.717 243.142 214.964C243.065 215.205 242.993 215.423 242.926 215.619L242.955 215.622C243.079 215.439 243.203 215.262 243.325 215.091C243.449 214.914 243.634 214.734 243.883 214.551L250.13 210.141L255.122 210.665L252.215 221.132L247.311 220.616L248.574 215.79C248.627 215.593 248.685 215.383 248.748 215.16C248.817 214.939 248.882 214.729 248.942 214.533L248.981 214.537C248.844 214.719 248.715 214.885 248.594 215.036C248.474 215.181 248.283 215.347 248.021 215.536L241.755 220.032L236.773 219.509ZM248.396 205.991C248.907 206.045 249.337 205.946 249.684 205.695C250.032 205.437 250.349 205.038 250.635 204.498L252.886 205.874C252.125 206.953 251.307 207.665 250.432 208.012C249.564 208.36 248.667 208.485 247.742 208.387C246.822 208.291 246.04 207.983 245.394 207.463C244.755 206.938 244.404 206.109 244.339 204.976L247.3 204.177C247.22 204.634 247.259 205.037 247.419 205.388C247.578 205.739 247.904 205.94 248.396 205.991ZM33.9132 218.297L36.8103 207.83L41.7247 208.347L40.4899 213.087C40.43 213.284 40.3609 213.506 40.2825 213.753C40.2049 213.993 40.1328 214.212 40.0664 214.408L40.0955 214.411C40.2195 214.227 40.3429 214.05 40.4655 213.88C40.5889 213.703 40.7747 213.523 41.0231 213.34L47.2703 208.929L52.2623 209.454L49.3555 219.921L44.4509 219.405L45.7142 214.579C45.7677 214.382 45.8257 214.172 45.8884 213.949C45.9575 213.727 46.0221 213.518 46.082 213.321L46.1209 213.326C45.9839 213.508 45.8551 213.674 45.7345 213.825C45.6146 213.97 45.4236 214.136 45.1616 214.325L38.8955 218.821L33.9132 218.297ZM54.3699 209.676L66.3352 210.933L65.4402 214.217L58.3892 213.476L56.3774 220.659L51.4727 220.143L54.3699 209.676ZM63.5571 227.462L67.792 211.086L72.5315 211.585L72.2705 212.853L72.2608 212.852C72.7344 212.457 73.4488 212.169 74.404 211.988C75.3598 211.8 76.401 211.765 77.5276 211.884C79.5542 212.097 81.0653 212.73 82.0609 213.784C83.0629 214.839 83.3313 216.209 82.8661 217.895L82.7869 218.181C82.3165 219.853 81.3321 221.092 79.8335 221.896C78.3421 222.695 76.6187 222.992 74.6633 222.787C73.5496 222.67 72.5842 222.45 71.767 222.129C70.9497 221.807 70.3881 221.421 70.082 220.97L68.4617 227.977L63.5571 227.462ZM70.8712 217.665C71.0008 218.052 71.3469 218.402 71.9096 218.717C72.4787 219.032 73.2003 219.235 74.0744 219.327C75.078 219.433 75.8936 219.365 76.5213 219.123C77.1489 218.881 77.5445 218.481 77.708 217.922L77.9404 217.112C78.1039 216.553 77.9646 216.103 77.5226 215.762C77.0813 215.414 76.3361 215.186 75.2872 215.075C74.3937 214.981 73.6103 215.023 72.9369 215.201C72.2708 215.374 71.7808 215.613 71.467 215.921L70.8712 217.665ZM90.8098 213.506L89.9673 216.569L95.3284 217.133C96.9924 217.307 98.131 217.748 98.7442 218.454C99.3573 219.16 99.4861 220.146 99.1306 221.411C98.7893 222.665 98.1439 223.543 97.1942 224.045C96.2446 224.548 94.9377 224.711 93.2737 224.537L82.9983 223.457L85.8954 212.989L90.8098 213.506ZM93.2781 219.824L89.2087 219.396L88.6605 221.155L92.7396 221.584C93.1605 221.628 93.4835 221.606 93.7088 221.519C93.9412 221.425 94.113 221.191 94.2244 220.817C94.3245 220.487 94.2969 220.251 94.1415 220.111C93.9932 219.964 93.7054 219.869 93.2781 219.824ZM99.3535 225.176L102.26 214.709L107.194 215.228L104.297 225.695L99.3535 225.176Z" fill="black"/>
<rect x="41.1489" y="94.3721" width="239.447" height="129.502" rx="18" transform="rotate(6 41.1489 94.3721)" stroke="black" stroke-width="3"/>
</svg>
