<svg width="258" height="244" viewBox="0 0 258 244" fill="none" xmlns="http://www.w3.org/2000/svg">
<g clip-path="url(#clip0_903_6599)">
<rect width="258" height="244" rx="18" fill="#FF0000"/>
<rect x="3.24023" y="29.0615" width="244.179" height="210.703" rx="4" transform="rotate(-2 3.24023 29.0615)" fill="#F7F7F7"/>
<path d="M8.5614 60.9096L8.52766 59.9434C8.44118 57.467 8.98355 55.5563 10.1548 54.2112C11.3257 52.859 12.856 52.1499 14.7454 52.0839C16.5991 52.0192 18.0694 52.4659 19.1562 53.424C20.243 54.382 20.8131 55.6233 20.8663 57.1478L20.8742 57.3732L18.4801 57.4568L18.4711 57.1992C18.4362 56.1972 18.1148 55.4094 17.5072 54.8359C16.8993 54.2552 16.0014 53.9856 14.8133 54.0271C13.6109 54.069 12.6532 54.5504 11.9401 55.471C11.227 56.3916 10.9035 57.8002 10.9698 59.6969L11.0147 60.9852C11.0767 62.7601 11.4966 64.1141 12.2745 65.0472C13.0523 65.9802 14.0496 66.4255 15.2663 66.383C16.3899 66.3438 17.2274 66.01 17.7787 65.3817C18.3298 64.7461 18.6239 63.9333 18.661 62.9431L18.6635 62.7066L21.0575 62.623L21.0558 62.881C21.0147 64.3729 20.5107 65.6374 19.5437 66.6744C18.5836 67.7039 17.1731 68.2512 15.3123 68.3162C13.3942 68.3832 11.8111 67.7828 10.5629 66.515C9.31455 65.2401 8.64737 63.3716 8.5614 60.9096ZM22.7254 64.521C22.6854 63.3759 23.1018 62.4763 23.9747 61.8224C24.8545 61.1611 25.9922 60.8061 27.3879 60.7573L29.8249 60.6722L29.7986 59.9208C29.7769 59.2981 29.5985 58.8063 29.2634 58.4454C28.9355 58.0842 28.3815 57.9172 27.6013 57.9445C26.8284 57.9715 26.2756 58.1484 25.9431 58.4753C25.6103 58.7951 25.4518 59.1804 25.4675 59.6313L25.4716 59.7494L23.1957 59.8289L23.1908 59.6893C23.1588 58.7732 23.5431 57.9787 24.3437 57.3058C25.1514 56.6327 26.2459 56.272 27.6273 56.2238C29.0086 56.1755 30.0894 56.4495 30.8698 57.0457C31.6571 57.6344 32.0731 58.5694 32.1179 59.8505L32.2933 64.8748C32.3093 65.3328 32.3604 65.7682 32.4464 66.1808C32.5394 66.586 32.6556 66.9366 32.7949 67.2327L32.8009 67.4045L30.5464 67.4832C30.4399 67.3078 30.3426 67.0855 30.2544 66.8163C30.1731 66.5396 30.1132 66.2623 30.0748 65.9841C29.847 66.4364 29.4422 66.8482 28.8604 67.2197C28.2786 67.5911 27.5296 67.7928 26.6135 67.8248C25.54 67.8623 24.6316 67.6038 23.8885 67.0493C23.1523 66.4874 22.7646 65.6447 22.7254 64.521ZM25.0386 64.279C25.0594 64.873 25.2474 65.3322 25.6027 65.6566C25.9577 65.9738 26.4895 66.1201 27.1981 66.0953C27.9352 66.0696 28.5779 65.7999 29.1261 65.2864C29.6812 64.7654 29.9482 64.2043 29.9272 63.6031L29.8785 62.2074L27.7743 62.2809C26.8439 62.3134 26.1483 62.5061 25.6877 62.859C25.2342 63.2116 25.0179 63.6849 25.0386 64.279ZM35.2915 67.3175L34.9062 56.2813L38.0732 56.1707L41.2085 63.1554C41.3794 63.5364 41.4931 63.8154 41.5494 63.9926C41.6055 64.1626 41.6583 64.34 41.7077 64.5245L41.7936 64.5215C41.8301 64.334 41.8703 64.1534 41.9145 63.9799C41.9586 63.8064 42.0526 63.5236 42.1965 63.1316L44.8366 55.9345L47.9714 55.8251L48.3568 66.8613L46.1131 66.9396L45.8623 59.7575C45.8483 59.3567 45.8412 59.0524 45.8411 58.8446C45.8408 58.6296 45.8448 58.436 45.8531 58.2637L45.7672 58.2667C45.7303 58.44 45.6868 58.6314 45.6368 58.841C45.5865 59.0434 45.4895 59.3441 45.3458 59.7433L42.6562 67.0604L40.7882 67.1256L37.594 59.9925C37.4386 59.6468 37.3249 59.3677 37.253 59.1552C37.188 58.9354 37.131 58.7403 37.0821 58.57L36.9855 58.5734C37.0058 58.7447 37.0231 58.934 37.0375 59.1413C37.0588 59.3412 37.076 59.6272 37.089 59.9994L37.3421 67.2459L35.2915 67.3175ZM55.0015 57.3746L54.9389 55.5817L64.1393 55.2605L64.2019 57.0533L60.7558 57.1736L61.0786 66.417L58.7597 66.498L58.4369 57.2546L55.0015 57.3746ZM65.4756 60.8999L65.4636 60.5563C65.4051 58.8816 65.8336 57.5051 66.749 56.4269C67.6644 55.3487 68.8915 54.7828 70.4303 54.7291C71.969 54.6753 73.1778 55.124 74.0566 56.075C74.9351 57.0189 75.404 58.3389 75.4632 60.0352L75.4936 60.9047L66.948 61.2032L66.8907 59.5606L73.1281 59.3428L73.1206 59.1281C73.0946 58.3837 72.8613 57.7577 72.4208 57.25C71.9801 56.7351 71.3517 56.4919 70.5358 56.5204C69.5839 56.5537 68.8807 56.9365 68.4262 57.669C67.9716 58.4014 67.7635 59.3152 67.8017 60.4102L67.8179 60.8718C67.8563 61.974 68.1422 62.8741 68.6753 63.5721C69.2085 64.27 69.9903 64.601 71.021 64.565C71.6937 64.5415 72.261 64.3712 72.7229 64.0541C73.1919 63.7368 73.5661 63.369 73.8453 62.9508L75.4831 63.99C75.1601 64.5889 74.6235 65.1271 73.8734 65.6048C73.1305 66.0822 72.208 66.3401 71.1058 66.3786C69.3809 66.4388 68.0243 65.9631 67.0359 64.9514C66.0547 63.9395 65.5346 62.5889 65.4756 60.8999ZM84.9976 65.5818L80.7222 60.7329L82.1609 59.1456L87.7781 65.4847L84.9976 65.5818ZM78.7791 59.2637L80.8297 59.1921L84.3223 54.5556L86.9418 54.4642L82.041 60.9448L78.8418 61.0565L78.7791 59.2637ZM79.7811 54.7142L80.1665 65.7505L77.8476 65.8314L77.4622 54.7952L79.7811 54.7142ZM88.2141 60.1166L88.2017 59.7623C88.1425 58.0661 88.5672 56.6861 89.476 55.6225C90.3845 54.5518 91.6475 53.9881 93.265 53.9317C94.7823 53.8787 95.9519 54.2319 96.7738 54.9915C97.5958 55.751 98.0324 56.6602 98.0837 57.7189L98.0985 57.8366L95.8333 57.9157L95.8299 57.8191C95.8089 57.2179 95.5944 56.7166 95.1862 56.3153C94.7781 55.9139 94.1589 55.7277 93.3287 55.7567C92.3625 55.7905 91.6519 56.1664 91.1968 56.8845C90.7418 57.6027 90.5337 58.5164 90.5724 59.6258L90.5885 60.0874C90.6268 61.1824 90.8946 62.0796 91.3919 62.7788C91.889 63.4708 92.6279 63.7997 93.6084 63.7655C94.4601 63.7358 95.0718 63.503 95.4435 63.0672C95.815 62.6243 95.9904 62.1058 95.9696 61.5118L95.9666 61.4259L98.2211 61.3472L98.2245 61.4438C98.2615 62.5031 97.8895 63.444 97.1085 64.2667C96.3346 65.0891 95.189 65.5268 93.6717 65.5798C92.0542 65.6363 90.7551 65.1657 89.7744 64.1681C88.7934 63.1633 88.2733 61.8128 88.2141 60.1166ZM98.9747 55.839L98.9121 54.0462L108.113 53.7249L108.175 55.5177L104.729 55.6381L105.052 64.8815L102.733 64.9624L102.41 55.719L98.9747 55.839ZM109.449 59.375L109.437 59.0208C109.378 57.3388 109.821 55.9619 110.765 54.8898C111.709 53.8107 112.994 53.2427 114.618 53.186C116.236 53.1295 117.553 53.6066 118.57 54.6173C119.587 55.6208 120.124 56.9636 120.183 58.6455L120.196 58.9998C120.254 60.6817 119.812 62.0622 118.868 63.1414C117.923 64.2134 116.642 64.7777 115.025 64.8342C113.4 64.8909 112.08 64.4175 111.063 63.4139C110.046 62.4033 109.508 61.0569 109.449 59.375ZM111.808 58.8842L111.824 59.3459C111.862 60.448 112.148 61.3445 112.681 62.0354C113.213 62.719 113.97 63.0437 114.95 63.0095C115.938 62.975 116.67 62.5983 117.147 61.8794C117.63 61.1531 117.852 60.2353 117.814 59.1259L117.798 58.675C117.76 57.5728 117.474 56.6799 116.941 55.9963C116.409 55.3126 115.652 54.9879 114.672 55.0222C113.698 55.0561 112.966 55.4328 112.475 56.1522C111.992 56.8714 111.769 57.782 111.808 58.8842ZM122.658 64.2666L122.273 53.2304L127.34 53.0534C128.607 53.0092 129.589 53.215 130.285 53.6708C130.989 54.1263 131.358 54.8336 131.391 55.7926C131.414 56.4439 131.243 56.9873 130.878 57.4228C130.514 57.8584 130.015 58.1552 129.383 58.3135L129.384 58.3457C130.169 58.4329 130.786 58.6872 131.238 59.1086C131.697 59.5297 131.939 60.0909 131.964 60.7923C131.998 61.78 131.671 62.5653 130.982 63.1483C130.292 63.7242 129.321 64.0339 128.069 64.0777L122.658 64.2666ZM124.731 57.7558L127.275 57.6669C127.927 57.6442 128.391 57.4918 128.668 57.2098C128.951 56.9276 129.085 56.5432 129.068 56.0565C129.052 55.5984 128.893 55.2529 128.591 55.0198C128.296 54.7793 127.823 54.6704 127.172 54.6931L124.627 54.782L124.731 57.7558ZM124.899 62.5546L127.744 62.4552C128.409 62.432 128.894 62.2717 129.199 61.9744C129.504 61.67 129.648 61.2709 129.631 60.777C129.614 60.3047 129.443 59.9308 129.118 59.6556C128.8 59.3729 128.305 59.2433 127.632 59.2668L124.787 59.3661L124.899 62.5546ZM136.508 52.7333L136.638 56.4371L139.171 56.3486C140.553 56.3004 141.62 56.5927 142.373 57.2257C143.133 57.8512 143.532 58.7294 143.572 59.8602C143.612 60.9982 143.274 61.9093 142.56 62.5935C141.853 63.2703 140.809 63.6328 139.427 63.681L134.575 63.8505L134.189 52.8143L136.508 52.7333ZM139.016 58.0631L136.697 58.144L136.834 62.0625L139.153 61.9816C139.947 61.9538 140.499 61.7518 140.809 61.3756C141.125 60.9991 141.273 60.5138 141.252 59.9197C141.232 59.3472 141.051 58.8877 140.71 58.5414C140.375 58.1948 139.811 58.0353 139.016 58.0631ZM145.085 63.4835L144.7 52.4472L147.029 52.3659L147.415 63.4021L145.085 63.4835ZM150.335 63.3001L149.949 52.2639L152.247 52.1837L152.472 58.6251C152.48 58.8541 152.485 59.1011 152.487 59.3662C152.489 59.6241 152.486 59.8642 152.48 60.0866L152.577 60.094C152.67 59.8972 152.771 59.6967 152.878 59.4923C152.993 59.2805 153.12 59.0431 153.262 58.7802L157.024 52.0168L159.375 51.9347L159.761 62.971L157.463 63.0512L157.238 56.5991C157.23 56.3701 157.225 56.123 157.223 55.858C157.228 55.5855 157.233 55.3381 157.24 55.1157L157.1 55.1206C157.014 55.3171 156.917 55.5211 156.81 55.7326C156.71 55.9439 156.589 56.1811 156.448 56.444L152.686 63.218L150.335 63.3001ZM154.546 48.7713C155.047 48.7538 155.464 48.5959 155.798 48.2976C156.131 47.9922 156.387 47.5139 156.565 46.8628L158.216 47.6757C157.911 48.5821 157.44 49.2542 156.803 49.6921C156.174 50.1297 155.44 50.3631 154.603 50.3924C153.765 50.4216 153.017 50.2435 152.359 49.858C151.708 49.4723 151.191 48.8311 150.808 47.9344L152.441 46.9852C152.673 47.6651 152.958 48.1388 153.297 48.4064C153.636 48.6669 154.052 48.7885 154.546 48.7713ZM10.0164 92.7268L9.47359 77.1816L11.6207 77.1066L11.7339 78.5L11.7875 78.4981C12.0366 78.038 12.4491 77.6402 13.025 77.3048C13.6009 76.9694 14.2645 76.7886 15.016 76.7623C16.4188 76.7134 17.5569 77.1896 18.4303 78.1909C19.3106 79.1849 19.7796 80.5085 19.8373 82.1618L19.8493 82.5054C19.9068 84.1515 19.535 85.5081 18.7338 86.5751C17.9324 87.635 16.8339 88.1893 15.4383 88.238C14.6868 88.2642 14.0309 88.1546 13.4705 87.909C12.9102 87.6634 12.4647 87.3207 12.134 86.8808L12.3353 92.6458L10.0164 92.7268ZM12.0594 84.7444C12.2761 85.2026 12.6198 85.6062 13.0906 85.9553C13.5683 86.2969 14.1364 86.4562 14.7948 86.4332C15.761 86.3994 16.4575 86.0276 16.8841 85.3176C17.3179 84.6074 17.5161 83.7155 17.4786 82.6419L17.4629 82.191C17.4251 81.1103 17.1653 80.238 16.6835 79.574C16.2087 78.9027 15.4845 78.584 14.5112 78.618C13.8527 78.641 13.3007 78.8394 12.8551 79.2133C12.4096 79.5871 12.0947 80.0102 11.9106 80.4824L12.0594 84.7444ZM21.4704 82.4488L21.4584 82.1052C21.3999 80.4305 21.8284 79.054 22.7438 77.9758C23.6592 76.8976 24.8863 76.3317 26.425 76.2779C27.9638 76.2242 29.1726 76.6729 30.0514 77.6239C30.9299 78.5678 31.3988 79.8878 31.458 81.584L31.4884 82.4536L22.9428 82.752L22.8854 81.1095L29.1228 80.8917L29.1154 80.677C29.0894 79.9326 28.8561 79.3066 28.4156 78.7989C27.9748 78.284 27.3465 78.0408 26.5306 78.0693C25.5787 78.1025 24.8755 78.4854 24.4209 79.2178C23.9664 79.9503 23.7583 80.864 23.7965 81.9591L23.8126 82.4207C23.8511 83.5229 24.1369 84.423 24.6701 85.1209C25.2032 85.8189 25.9851 86.1499 27.0157 86.1139C27.6885 86.0904 28.2558 85.9201 28.7177 85.603C29.1867 85.2857 29.5608 84.9179 29.84 84.4997L31.4779 85.5389C31.1548 86.1378 30.6183 86.676 29.8682 87.1537C29.1253 87.6311 28.2028 87.889 27.1006 87.9275C25.3757 87.9877 24.0191 87.512 23.0307 86.5003C22.0495 85.4883 21.5294 84.1378 21.4704 82.4488ZM42.3707 89.9739L42.2699 87.086L34.6261 87.353L34.727 90.2409L32.5906 90.3155L32.4271 85.6347L44.3544 85.2182L44.5179 89.899L42.3707 89.9739ZM36.3753 78.0372L36.3332 81.7578C36.3317 82.7395 36.2912 83.5292 36.2117 84.1267C36.1392 84.7169 36.0176 85.237 35.847 85.6873L33.5067 85.769C33.7304 85.4029 33.906 84.8916 34.0335 84.235C34.1608 83.5713 34.2284 82.6338 34.2363 81.4225L34.2944 76.3149L42.4105 76.0314L42.7959 87.0677L40.4663 87.149L40.1435 77.9056L36.3753 78.0372ZM45.367 83.7425C45.327 82.5974 45.7435 81.6979 46.6164 81.044C47.4962 80.3826 48.6339 80.0276 50.0295 79.9789L52.4665 79.8938L52.4403 79.1423C52.4185 78.5196 52.2401 78.0278 51.905 77.6669C51.5771 77.3057 51.0231 77.1388 50.243 77.166C49.47 77.193 48.9173 77.3699 48.5847 77.6969C48.2519 78.0166 48.0934 78.4019 48.1092 78.8528L48.1133 78.9709L45.8373 79.0504L45.8325 78.9108C45.8005 77.9947 46.1848 77.2002 46.9853 76.5273C47.7931 75.8542 48.8876 75.4935 50.2689 75.4453C51.6502 75.3971 52.7311 75.671 53.5115 76.2672C54.2988 76.856 54.7148 77.7909 54.7595 79.072L54.935 84.0963C54.951 84.5544 55.002 84.9897 55.0881 85.4023C55.1811 85.8075 55.2972 86.1582 55.4365 86.4543L55.4425 86.626L53.188 86.7048C53.0816 86.5293 52.9843 86.307 52.896 86.0378C52.8147 85.7612 52.7549 85.4838 52.7165 85.2057C52.4886 85.6579 52.0838 86.0697 51.502 86.4412C50.9202 86.8126 50.1713 87.0143 49.2552 87.0463C48.1816 87.0838 47.2733 86.8253 46.5302 86.2708C45.794 85.709 45.4062 84.8662 45.367 83.7425ZM47.6803 83.5005C47.701 84.0945 47.889 84.5538 48.2443 84.8781C48.5994 85.1954 49.1312 85.3416 49.8397 85.3169C50.5769 85.2911 51.2196 85.0215 51.7677 84.5079C52.3228 83.9869 52.5898 83.4258 52.5688 82.8246L52.5201 81.429L50.4159 81.5024C49.4855 81.5349 48.79 81.7276 48.3294 82.0805C47.8759 82.4331 47.6595 82.9065 47.6803 83.5005ZM65.0831 86.2894L60.8078 81.4405L62.2464 79.8532L67.8637 86.1923L65.0831 86.2894ZM58.8647 79.9713L60.9152 79.8997L64.4079 75.2633L67.0274 75.1718L62.1265 81.6524L58.9273 81.7642L58.8647 79.9713ZM59.8667 75.4218L60.2521 86.4581L57.9332 86.5391L57.5478 75.5028L59.8667 75.4218ZM67.6804 76.944L67.6178 75.1512L76.8183 74.8299L76.8809 76.6227L73.4347 76.7431L73.7575 85.9865L71.4386 86.0674L71.1158 76.8241L67.6804 76.944ZM78.155 80.48L78.1426 80.1258C78.0838 78.4438 78.5266 77.0669 79.4709 75.9949C80.4149 74.9157 81.6993 74.3477 83.3239 74.291C84.9414 74.2345 86.2587 74.7116 87.2757 75.7223C88.2925 76.7258 88.8302 78.0686 88.889 79.7505L88.9013 80.1048C88.9601 81.7867 88.5174 83.1672 87.5734 84.2464C86.6291 85.3184 85.3482 85.8827 83.7307 85.9392C82.106 85.9959 80.7853 85.5225 79.7686 84.519C78.7516 83.5083 78.2137 82.162 78.155 80.48ZM80.5133 79.9892L80.5294 80.4509C80.5679 81.5531 80.8536 82.4496 81.3865 83.1404C81.9191 83.824 82.6757 84.1487 83.6562 84.1145C84.6439 84.08 85.376 83.7033 85.8525 82.9844C86.3359 82.2581 86.5583 81.3403 86.5195 80.2309L86.5038 79.78C86.4653 78.6778 86.1797 77.7849 85.6471 77.1013C85.1144 76.4176 84.3578 76.0929 83.3773 76.1272C82.4039 76.1612 81.6719 76.5378 81.181 77.2572C80.6974 77.9764 80.4748 78.887 80.5133 79.9892ZM91.5214 89.8806L90.9786 74.3354L93.1257 74.2604L93.2389 75.6538L93.2925 75.6519C93.5416 75.1918 93.9541 74.794 94.53 74.4586C95.1059 74.1232 95.7696 73.9424 96.521 73.9161C97.9238 73.8671 99.0619 74.3433 99.9353 75.3447C100.816 76.3387 101.285 77.6623 101.342 79.3156L101.354 79.6592C101.412 81.3053 101.04 82.6619 100.239 83.7289C99.4374 84.7887 98.3389 85.343 96.9433 85.3918C96.1918 85.418 95.5359 85.3084 94.9755 85.0628C94.4152 84.8172 93.9697 84.4745 93.639 84.0346L93.8403 89.7996L91.5214 89.8806ZM93.5644 81.8982C93.7811 82.3564 94.1248 82.76 94.5956 83.109C95.0733 83.4507 95.6414 83.61 96.2998 83.587C97.266 83.5532 97.9625 83.1814 98.3891 82.4714C98.8229 81.7611 99.0211 80.8692 98.9836 79.7957L98.9679 79.3448C98.9301 78.2641 98.6703 77.3917 98.1885 76.7278C97.7137 76.0565 96.9895 75.7378 96.0162 75.7718C95.3577 75.7948 94.8057 75.9932 94.3601 76.3671C93.9146 76.7409 93.5997 77.1639 93.4156 77.6361L93.5644 81.8982ZM108.992 84.7561L108.607 73.7198L113.674 73.5429C114.941 73.4986 115.922 73.7044 116.619 74.1602C117.323 74.6157 117.691 75.323 117.725 76.2821C117.748 76.9334 117.577 77.4768 117.212 77.9123C116.848 78.3478 116.349 78.6447 115.717 78.8029L115.718 78.8351C116.502 78.9224 117.12 79.1767 117.572 79.598C118.031 80.0191 118.273 80.5803 118.297 81.2817C118.332 82.2694 118.004 83.0547 117.315 83.6377C116.626 84.2136 115.655 84.5234 114.403 84.5671L108.992 84.7561ZM111.065 78.2452L113.609 78.1563C114.26 78.1336 114.724 77.9812 115.001 77.6993C115.285 77.417 115.419 77.0326 115.402 76.5459C115.386 76.0879 115.227 75.7423 114.925 75.5092C114.63 75.2687 114.157 75.1598 113.505 75.1826L110.961 75.2714L111.065 78.2452ZM111.232 83.044L114.077 82.9447C114.743 82.9214 115.228 82.7612 115.533 82.4639C115.838 82.1594 115.981 81.7603 115.964 81.2665C115.948 80.7941 115.777 80.4203 115.452 80.145C115.134 79.8623 114.639 79.7327 113.966 79.7562L111.121 79.8555L111.232 83.044ZM122.842 73.2227L122.971 76.9265L125.505 76.838C126.886 76.7898 127.953 77.0821 128.706 77.7151C129.466 78.3407 129.866 79.2188 129.906 80.3497C129.945 81.4876 129.608 82.3987 128.894 83.0829C128.187 83.7597 127.142 84.1222 125.761 84.1705L120.908 84.3399L120.523 73.3037L122.842 73.2227ZM125.35 78.5525L123.031 78.6335L123.168 82.552L125.487 82.471C126.281 82.4433 126.833 82.2413 127.142 81.865C127.459 81.4885 127.607 81.0032 127.586 80.4092C127.566 79.8366 127.385 79.3771 127.043 79.0308C126.709 78.6842 126.144 78.5247 125.35 78.5525ZM131.419 83.9729L131.033 72.9367L133.363 72.8553L133.748 83.8915L131.419 83.9729ZM136.283 72.7533L143.637 72.4965L143.7 74.2894L138.665 74.4652L138.987 83.7086L136.668 83.7896L136.283 72.7533ZM148.627 74.1173L148.581 78.3432C148.561 80.2213 148.354 81.5757 147.96 82.4064C147.566 83.2299 146.814 83.661 145.705 83.6997C145.462 83.7082 145.236 83.6982 145.027 83.6697C144.818 83.6483 144.645 83.6113 144.507 83.5588L144.44 81.6479C144.556 81.6868 144.675 81.7149 144.798 81.7321C144.92 81.7494 145.053 81.7555 145.196 81.7505C145.719 81.7322 146.06 81.4623 146.221 80.9408C146.382 80.4192 146.468 79.4847 146.478 78.1371L146.536 72.3953L154.566 72.1149L154.951 83.1511L152.632 83.2321L152.31 73.9887L148.627 74.1173ZM159.718 82.9847L157.195 83.0728L160.242 78.2907L162.588 78.37L159.718 82.9847ZM164.506 82.8175L164.368 78.856L161.952 78.9404L161.648 78.8435C160.295 78.8907 159.243 78.6194 158.491 78.0293C157.74 77.4322 157.345 76.6075 157.309 75.5554C157.271 74.4819 157.606 73.6139 158.314 72.9514C159.022 72.2817 160.052 71.9233 161.404 71.8761L166.45 71.6999L166.836 82.7361L164.506 82.8175ZM161.819 77.279L164.309 77.192L164.179 73.4452L161.688 73.5322C160.908 73.5595 160.363 73.7576 160.053 74.1267C159.751 74.4884 159.609 74.9448 159.628 75.4959C159.647 76.0399 159.82 76.4817 160.148 76.8214C160.474 77.1539 161.032 77.3065 161.819 77.279ZM178.284 85.2277L178.183 82.3398L170.539 82.6068L170.64 85.4947L168.504 85.5693L168.34 80.8885L180.268 80.472L180.431 85.1528L178.284 85.2277ZM172.289 73.291L172.246 77.0116C172.245 77.9933 172.204 78.783 172.125 79.3805C172.052 79.9707 171.931 80.4908 171.76 80.9411L169.42 81.0228C169.644 80.6567 169.819 80.1454 169.947 79.4888C170.074 78.8251 170.142 77.8876 170.15 76.6763L170.208 71.5687L178.324 71.2852L178.709 82.3215L176.38 82.4028L176.057 73.1594L172.289 73.291ZM181.994 82.2068L181.609 71.1705L183.906 71.0903L184.131 77.5317C184.139 77.7607 184.144 78.0077 184.146 78.2728C184.148 78.5307 184.146 78.7709 184.139 78.9932L184.236 79.0006C184.33 78.8038 184.43 78.6033 184.538 78.3989C184.652 78.1871 184.78 77.9497 184.921 77.6868L188.684 70.9235L191.035 70.8414L191.42 81.8776L189.123 81.9578L188.897 75.5057C188.889 75.2767 188.884 75.0296 188.882 74.7646C188.887 74.4921 188.893 74.2447 188.899 74.0223L188.76 74.0272C188.674 74.2237 188.577 74.4277 188.469 74.6393C188.369 74.8506 188.249 75.0877 188.107 75.3506L184.345 82.1247L181.994 82.2068ZM192.88 72.572L192.817 70.7791L202.017 70.4578L202.08 72.2507L198.634 72.371L198.957 81.6144L196.638 81.6954L196.315 72.452L192.88 72.572ZM216.52 81.0011L212.245 76.1522L213.683 74.5649L219.301 80.904L216.52 81.0011ZM210.302 74.683L212.352 74.6114L215.845 69.975L218.464 69.8835L213.564 76.3641L210.364 76.4759L210.302 74.683ZM211.304 70.1336L211.689 81.1698L209.37 81.2508L208.985 70.2145L211.304 70.1336ZM219.864 77.6489C219.824 76.5038 220.241 75.6043 221.114 74.9504C221.993 74.2891 223.131 73.934 224.527 73.8853L226.964 73.8002L226.937 73.0487C226.916 72.426 226.737 71.9342 226.402 71.5733C226.074 71.2121 225.52 71.0452 224.74 71.0724C223.967 71.0994 223.414 71.2764 223.082 71.6033C222.749 71.923 222.591 72.3084 222.606 72.7593L222.61 72.8773L220.334 72.9568L220.33 72.8173C220.298 71.9011 220.682 71.1067 221.482 70.4338C222.29 69.7606 223.385 69.4 224.766 69.3517C226.147 69.3035 227.228 69.5775 228.009 70.1736C228.796 70.7624 229.212 71.6973 229.257 72.9785L229.432 78.0027C229.448 78.4608 229.499 78.8961 229.585 79.3087C229.678 79.7139 229.794 80.0646 229.934 80.3607L229.94 80.5325L227.685 80.6112C227.579 80.4358 227.481 80.2134 227.393 79.9442C227.312 79.6676 227.252 79.3902 227.214 79.1121C226.986 79.5643 226.581 79.9762 225.999 80.3476C225.417 80.7191 224.668 80.9208 223.752 80.9528C222.679 80.9903 221.77 80.7318 221.027 80.1773C220.291 79.6154 219.903 78.7726 219.864 77.6489ZM222.177 77.4069C222.198 78.001 222.386 78.4602 222.741 78.7846C223.097 79.1018 223.628 79.248 224.337 79.2233C225.074 79.1976 225.717 78.9279 226.265 78.4143C226.82 77.8933 227.087 77.3322 227.066 76.731L227.017 75.3354L224.913 75.4089C223.983 75.4414 223.287 75.6341 222.827 75.9869C222.373 76.3396 222.157 76.8129 222.177 77.4069ZM239.58 80.1958L235.305 75.3469L236.744 73.7596L242.361 80.0987L239.58 80.1958ZM233.362 73.8777L235.412 73.8061L238.905 69.1697L241.525 69.0782L236.624 75.5589L233.424 75.6706L233.362 73.8777ZM234.364 69.3283L234.749 80.3645L232.43 80.4455L232.045 69.4093L234.364 69.3283ZM10.2414 99.1682L19.3667 98.8495L19.7521 109.886L17.4224 109.967L17.0996 100.724L12.6229 100.88L12.9457 110.123L10.6268 110.204L10.2414 99.1682ZM22.8296 114.293L22.2868 98.7476L24.4339 98.6726L24.547 100.066L24.6007 100.064C24.8498 99.604 25.2623 99.2062 25.8382 98.8708C26.414 98.5354 27.0777 98.3546 27.8292 98.3283C29.232 98.2793 30.3701 98.7555 31.2435 99.7569C32.1237 100.751 32.5927 102.075 32.6505 103.728L32.6625 104.071C32.72 105.717 32.3481 107.074 31.547 108.141C30.7456 109.201 29.6471 109.755 28.2515 109.804C27.5 109.83 26.844 109.721 26.2837 109.475C25.7234 109.229 25.2779 108.887 24.9472 108.447L25.1485 114.212L22.8296 114.293ZM24.8726 106.31C25.0892 106.769 25.433 107.172 25.9038 107.521C26.3815 107.863 26.9495 108.022 27.608 107.999C28.5742 107.965 29.2706 107.594 29.6973 106.884C30.1311 106.173 30.3293 105.281 30.2918 104.208L30.276 103.757C30.2383 102.676 29.9785 101.804 29.4967 101.14C29.0218 100.469 28.2977 100.15 27.3243 100.184C26.6659 100.207 26.1139 100.405 25.6683 100.779C25.2228 101.153 24.9079 101.576 24.7238 102.048L24.8726 106.31ZM34.2839 104.025L34.2716 103.671C34.2128 101.989 34.6556 100.612 35.5999 99.5403C36.5439 98.4611 37.8283 97.8931 39.4529 97.8364C41.0704 97.7799 42.3877 98.257 43.4047 99.2677C44.4215 100.271 44.9592 101.614 45.0179 103.296L45.0303 103.65C45.089 105.332 44.6464 106.713 43.7024 107.792C42.7581 108.864 41.4772 109.428 39.8597 109.485C38.235 109.541 36.9143 109.068 35.8976 108.064C34.8805 107.054 34.3427 105.707 34.2839 104.025ZM36.6423 103.535L36.6584 103.996C36.6969 105.098 36.9826 105.995 37.5155 106.686C38.0481 107.369 38.8047 107.694 39.7852 107.66C40.7729 107.625 41.505 107.249 41.9815 106.53C42.4649 105.804 42.6872 104.886 42.6485 103.776L42.6328 103.325C42.5943 102.223 42.3087 101.33 41.7761 100.647C41.2434 99.963 40.4868 99.6383 39.5063 99.6726C38.5329 99.7066 37.8008 100.083 37.31 100.803C36.8264 101.522 36.6038 102.432 36.6423 103.535ZM46.6514 103.594L46.639 103.239C46.5798 101.543 47.0045 100.163 47.9133 99.0995C48.8218 98.0288 50.0848 97.4651 51.7023 97.4087C53.2196 97.3557 54.3892 97.7089 55.2111 98.4685C56.0331 99.228 56.4697 100.137 56.521 101.196L56.5359 101.314L54.2706 101.393L54.2673 101.296C54.2463 100.695 54.0317 100.194 53.6236 99.7923C53.2154 99.3909 52.5963 99.2047 51.766 99.2337C50.7998 99.2675 50.0892 99.6434 49.6342 100.362C49.1791 101.08 48.971 101.993 49.0097 103.103L49.0258 103.564C49.0641 104.659 49.3319 105.557 49.8292 106.256C50.3264 106.948 51.0652 107.277 52.0457 107.243C52.8974 107.213 53.5091 106.98 53.8808 106.544C54.2523 106.101 54.4277 105.583 54.407 104.989L54.404 104.903L56.6584 104.824L56.6618 104.921C56.6988 105.98 56.3268 106.921 55.5458 107.744C54.7719 108.566 53.6264 109.004 52.1091 109.057C50.4916 109.113 49.1924 108.643 48.2117 107.645C47.2307 106.64 46.7106 105.29 46.6514 103.594ZM57.412 99.316L57.3494 97.5232L66.5498 97.2019L66.6124 98.9947L63.1663 99.1151L63.4891 108.358L61.1702 108.439L60.8474 99.196L57.412 99.316ZM70.6616 97.0583L70.7909 100.762L73.3245 100.674C74.7058 100.625 75.773 100.918 76.526 101.551C77.286 102.176 77.6857 103.054 77.7252 104.185C77.7649 105.323 77.4277 106.234 76.7135 106.919C76.0062 107.595 74.9619 107.958 73.5806 108.006L68.7281 108.176L68.3427 97.1393L70.6616 97.0583ZM73.1694 102.388L70.8505 102.469L70.9874 106.388L73.3063 106.307C74.1007 106.279 74.6526 106.077 74.9619 105.701C75.2784 105.324 75.4262 104.839 75.4055 104.245C75.3855 103.672 75.2047 103.213 74.8629 102.866C74.5284 102.52 73.9639 102.36 73.1694 102.388ZM79.2383 107.808L78.8529 96.7722L81.1825 96.6909L81.5679 107.727L79.2383 107.808ZM83.646 102.291L83.6341 101.947C83.5756 100.273 84.004 98.8962 84.9194 97.818C85.8348 96.7398 87.0619 96.1739 88.6007 96.1201C90.1395 96.0664 91.3483 96.515 92.227 97.4661C93.1056 98.4099 93.5744 99.73 93.6337 101.426L93.664 102.296L85.1185 102.594L85.0611 100.952L91.2985 100.734L91.291 100.519C91.265 99.7748 91.0318 99.1488 90.5913 98.6411C90.1505 98.1262 89.5222 97.883 88.7063 97.9115C87.7544 97.9447 87.0511 98.3276 86.5966 99.06C86.1421 99.7925 85.9339 100.706 85.9722 101.801L85.9883 102.263C86.0268 103.365 86.3126 104.265 86.8457 104.963C87.3789 105.661 88.1608 105.992 89.1914 105.956C89.8642 105.933 90.4315 105.762 90.8934 105.445C91.3624 105.128 91.7365 104.76 92.0157 104.342L93.6535 105.381C93.3305 105.98 92.7939 106.518 92.0439 106.996C91.301 107.473 90.3784 107.731 89.2762 107.77C87.5514 107.83 86.1947 107.354 85.2064 106.342C84.2251 105.331 83.705 103.98 83.646 102.291ZM100.647 101.045L100.62 100.273L103.844 95.8917L105.917 95.8193L103.046 100.575L106.242 105.13L104.169 105.202L100.647 101.045ZM105.906 100.862L105.879 100.089L109.114 95.7077L111.164 95.6361L108.305 100.391L111.489 104.947L109.44 105.018L105.906 100.862ZM119.71 104.636C120.928 104.594 121.816 104.277 122.374 103.687C122.939 103.097 123.205 102.318 123.171 101.349C123.147 100.428 122.86 99.7187 122.312 99.2219C121.763 98.7251 120.926 98.4964 119.802 98.5356L117.389 98.6199L117.319 96.6172L119.486 96.5415C120.571 96.5036 121.348 96.242 121.815 95.7566C122.283 95.2635 122.501 94.5796 122.471 93.7052C122.441 92.8463 122.16 92.1878 121.628 91.7295C121.096 91.2712 120.268 91.0617 119.143 91.101C118.003 91.1408 117.139 91.4485 116.549 92.0241C115.959 92.5997 115.684 93.4497 115.723 94.574L115.73 94.7614L113.153 94.8513L113.148 94.6874C113.091 93.0712 113.561 91.7415 114.556 90.6983C115.559 89.647 117.072 89.0861 119.094 89.0155C120.929 88.9514 122.364 89.3 123.399 90.0612C124.434 90.8224 124.978 91.9643 125.031 93.4868C125.066 94.4784 124.848 95.295 124.378 95.9368C123.907 96.5708 123.31 97.0256 122.584 97.301L122.586 97.3479C123.485 97.5588 124.227 97.9941 124.813 98.6538C125.399 99.3134 125.711 100.198 125.75 101.306C125.806 102.93 125.296 104.222 124.22 105.182C123.151 106.134 121.676 106.643 119.794 106.709C117.787 106.779 116.194 106.373 115.014 105.492C113.842 104.611 113.223 103.225 113.157 101.336L113.15 101.137L115.738 101.046L115.744 101.222C115.788 102.455 116.139 103.346 116.799 103.894C117.459 104.433 118.429 104.681 119.71 104.636ZM127.718 102.609C127.675 101.376 128.126 100.403 129.07 99.6894C130.022 98.9761 131.26 98.5928 132.782 98.5396L135.429 98.4472L135.4 97.604C135.376 96.9325 135.182 96.4038 134.817 96.0179C134.459 95.6239 133.858 95.4416 133.015 95.4711C132.18 95.5002 131.581 95.6892 131.218 96.038C130.854 96.3869 130.682 96.8072 130.699 97.2991L130.704 97.4396L128.232 97.5259L128.227 97.362C128.192 96.3704 128.608 95.5116 129.474 94.7856C130.347 94.0594 131.537 93.67 133.044 93.6174C134.543 93.565 135.718 93.8601 136.57 94.5027C137.42 95.1374 137.87 96.1497 137.919 97.5395L138.108 102.974C138.126 103.473 138.181 103.948 138.275 104.398C138.369 104.841 138.496 105.223 138.655 105.546L138.662 105.733L136.214 105.819C136.098 105.627 135.992 105.385 135.896 105.091C135.807 104.789 135.746 104.487 135.712 104.183C135.455 104.677 135.01 105.126 134.375 105.531C133.748 105.928 132.935 106.144 131.935 106.179C130.772 106.22 129.789 105.942 128.986 105.344C128.183 104.739 127.761 103.827 127.718 102.609ZM130.23 102.358C130.253 102.998 130.454 103.491 130.833 103.837C131.221 104.184 131.801 104.343 132.574 104.316C133.37 104.288 134.067 103.994 134.665 103.434C135.271 102.873 135.563 102.269 135.54 101.621L135.487 100.099L133.215 100.178C132.192 100.214 131.433 100.424 130.939 100.809C130.444 101.193 130.208 101.71 130.23 102.358ZM141.332 105.64L140.914 93.6709L144.357 93.5506L147.753 101.124C147.931 101.532 148.051 101.833 148.113 102.026C148.182 102.219 148.243 102.416 148.297 102.618L148.391 102.615C148.431 102.41 148.475 102.213 148.523 102.024C148.579 101.826 148.681 101.518 148.831 101.098L151.689 93.2946L155.097 93.1756L155.515 105.145L153.079 105.23L152.807 97.4417C152.792 97.0123 152.784 96.6842 152.784 96.4575C152.784 96.223 152.788 96.004 152.797 95.8004L152.703 95.8037C152.663 96.0005 152.612 96.2173 152.55 96.454C152.495 96.6826 152.389 97.0107 152.232 97.4383L149.331 105.361L147.305 105.432L143.834 97.6964C143.672 97.3268 143.553 97.0261 143.474 96.7944C143.395 96.5548 143.329 96.3343 143.275 96.1329L143.17 96.1366C143.2 96.3388 143.223 96.553 143.239 96.7791C143.263 97.005 143.281 97.317 143.295 97.7152L143.569 105.562L141.332 105.64ZM157.76 99.2621L157.747 98.8873C157.683 97.0603 158.147 95.5667 159.139 94.4064C160.13 93.2383 161.461 92.625 163.131 92.5667C164.802 92.5083 166.113 92.9941 167.064 94.0241C168.014 95.0462 168.521 96.4747 168.585 98.3095L168.618 99.2465L159.342 99.5704L159.281 97.8019L166.05 97.5655L166.042 97.3313C166.014 96.5349 165.764 95.8596 165.291 95.3055C164.818 94.7435 164.132 94.4782 163.234 94.5096C162.204 94.5456 161.44 94.9592 160.944 95.7504C160.456 96.5336 160.232 97.5224 160.274 98.717L160.292 99.2206C160.333 100.415 160.645 101.393 161.227 102.155C161.808 102.908 162.657 103.266 163.773 103.227C164.492 103.201 165.103 103.02 165.607 102.682C166.119 102.336 166.527 101.93 166.831 101.466L168.606 102.589C168.261 103.242 167.684 103.829 166.873 104.35C166.062 104.863 165.056 105.14 163.853 105.182C161.98 105.247 160.512 104.736 159.45 103.647C158.387 102.551 157.824 101.089 157.76 99.2621ZM169.582 94.6163L169.514 92.6721L179.504 92.3233L179.572 94.2674L175.836 94.3979L176.186 104.423L173.668 104.511L173.318 94.4858L169.582 94.6163ZM189.608 103.954L184.968 98.6872L186.55 96.9904L192.606 103.85L189.608 103.954ZM182.872 97.1071L185.097 97.0294L188.862 91.9965L191.696 91.8975L186.418 98.9297L182.94 99.0512L182.872 97.1071ZM183.954 92.1679L184.372 104.137L181.854 104.225L181.436 92.2558L183.954 92.1679ZM193.988 103.801L193.57 91.8321L196.064 91.745L196.309 98.7602C196.318 99.0101 196.323 99.2757 196.325 99.557C196.327 99.8384 196.325 100.104 196.318 100.355L196.423 100.351C196.525 100.129 196.635 99.9097 196.752 99.6946C196.87 99.4716 197.005 99.2167 197.159 98.9299L201.241 91.5642L203.794 91.475L204.212 103.444L201.717 103.531L201.472 96.5045C201.463 96.2546 201.458 95.989 201.456 95.7077C201.461 95.4182 201.468 95.1483 201.474 94.8979L201.334 94.9028C201.24 95.125 201.134 95.3476 201.017 95.5705C200.908 95.7932 200.776 96.0519 200.622 96.3465L196.541 103.712L193.988 103.801ZM206.669 101.623L209.54 96.8559L206.344 92.3123L208.394 92.2408L211.927 96.3856L211.954 97.1586L208.719 101.551L206.669 101.623ZM211.928 101.439L214.787 96.6727L211.603 92.1287L213.664 92.0567L217.197 96.2016L217.224 96.9745L213.989 101.367L211.928 101.439ZM226.069 97.0057L225.998 94.9874L242.113 94.4247L242.183 96.443L226.069 97.0057ZM19.8531 132.786L19.7522 129.898L12.1085 130.165L12.2093 133.053L10.0729 133.127L9.90946 128.447L21.8368 128.03L22.0002 132.711L19.8531 132.786ZM13.8577 120.849L13.8156 124.57C13.8141 125.551 13.7736 126.341 13.6941 126.939C13.6216 127.529 13.5 128.049 13.3294 128.499L10.989 128.581C11.2127 128.215 11.3883 127.704 11.5159 127.047C11.6432 126.383 11.7108 125.446 11.7186 124.234L11.7767 119.127L19.8929 118.843L20.2783 129.88L17.9487 129.961L17.6259 120.718L13.8577 120.849ZM22.7214 124.431L22.7094 124.087C22.651 122.412 23.0794 121.036 23.9948 119.958C24.9102 118.88 26.1373 118.314 27.6761 118.26C29.2149 118.206 30.4237 118.655 31.3024 119.606C32.181 120.55 32.6498 121.87 32.7091 123.566L32.7394 124.436L24.1939 124.734L24.1365 123.091L30.3739 122.874L30.3664 122.659C30.3404 121.915 30.1072 121.289 29.6667 120.781C29.2259 120.266 28.5976 120.023 27.7816 120.051C26.8298 120.084 26.1265 120.467 25.672 121.2C25.2175 121.932 25.0093 122.846 25.0476 123.941L25.0637 124.403C25.1022 125.505 25.388 126.405 25.9211 127.103C26.4543 127.801 27.2362 128.132 28.2668 128.096C28.9396 128.072 29.5069 127.902 29.9688 127.585C30.4378 127.268 30.8119 126.9 31.0911 126.482L32.7289 127.521C32.4059 128.12 31.8693 128.658 31.1193 129.136C30.3764 129.613 29.4538 129.871 28.3516 129.909C26.6268 129.97 25.2701 129.494 24.2818 128.482C23.3005 127.47 22.7804 126.12 22.7214 124.431ZM37.9055 120.009L37.8596 124.235C37.8392 126.113 37.6321 127.468 37.2383 128.298C36.8443 129.122 36.0926 129.553 34.9833 129.592C34.7399 129.6 34.5138 129.59 34.305 129.562C34.0965 129.54 33.9232 129.503 33.7852 129.451L33.7185 127.54C33.8345 127.579 33.9537 127.607 34.0761 127.624C34.1986 127.641 34.3313 127.648 34.4745 127.643C34.997 127.624 35.3387 127.354 35.4996 126.833C35.6605 126.311 35.7461 125.377 35.7564 124.029L35.8139 118.287L43.8441 118.007L44.2295 129.043L41.9106 129.124L41.5878 119.881L37.9055 120.009ZM46.4678 125.73C46.4278 124.585 46.8442 123.685 47.7171 123.031C48.5969 122.37 49.7346 122.015 51.1303 121.966L53.5673 121.881L53.541 121.129C53.5193 120.507 53.3409 120.015 53.0058 119.654C52.6779 119.293 52.1239 119.126 51.3438 119.153C50.5708 119.18 50.018 119.357 49.6855 119.684C49.3527 120.004 49.1942 120.389 49.2099 120.84L49.214 120.958L46.9381 121.038L46.9332 120.898C46.9012 119.982 47.2855 119.187 48.0861 118.515C48.8938 117.841 49.9883 117.481 51.3697 117.432C52.751 117.384 53.8318 117.658 54.6122 118.254C55.3995 118.843 55.8156 119.778 55.8603 121.059L56.0357 126.083C56.0517 126.542 56.1028 126.977 56.1888 127.389C56.2818 127.795 56.398 128.145 56.5373 128.441L56.5433 128.613L54.2888 128.692C54.1824 128.517 54.085 128.294 53.9968 128.025C53.9155 127.748 53.8556 127.471 53.8173 127.193C53.5894 127.645 53.1846 128.057 52.6028 128.428C52.021 128.8 51.2721 129.002 50.3559 129.033C49.2824 129.071 48.374 128.812 47.6309 128.258C46.8947 127.696 46.507 126.853 46.4678 125.73ZM48.781 125.488C48.8018 126.082 48.9898 126.541 49.3451 126.865C49.7001 127.183 50.2319 127.329 50.9405 127.304C51.6777 127.278 52.3203 127.009 52.8685 126.495C53.4236 125.974 53.6906 125.413 53.6696 124.812L53.6209 123.416L51.5167 123.49C50.5863 123.522 49.8907 123.715 49.4301 124.068C48.9767 124.42 48.7603 124.894 48.781 125.488ZM59.034 128.526L58.6486 117.49L60.946 117.41L61.1709 123.851C61.1789 124.08 61.184 124.327 61.1861 124.592C61.1879 124.85 61.1855 125.09 61.179 125.313L61.276 125.32C61.3694 125.123 61.4699 124.923 61.5774 124.718C61.6918 124.507 61.8197 124.269 61.961 124.006L65.7234 117.243L68.0745 117.161L68.4599 128.197L66.1624 128.277L65.9371 121.825C65.9291 121.596 65.9241 121.349 65.922 121.084C65.9268 120.812 65.9325 120.564 65.9391 120.342L65.7995 120.347C65.7132 120.543 65.6164 120.747 65.5092 120.959C65.409 121.17 65.2883 121.407 65.147 121.67L61.3851 128.444L59.034 128.526ZM63.2453 113.997C63.7463 113.98 64.1636 113.822 64.4971 113.524C64.8304 113.218 65.086 112.74 65.2639 112.089L66.9154 112.902C66.6102 113.808 66.1392 114.48 65.5024 114.918C64.8728 115.356 64.1393 115.589 63.3019 115.618C62.4645 115.648 61.7166 115.47 61.0583 115.084C60.407 114.698 59.8902 114.057 59.5078 113.16L61.1407 112.211C61.3722 112.891 61.6575 113.365 61.9964 113.633C62.3352 113.893 62.7515 114.015 63.2453 113.997ZM75.0938 118.711L75.0312 116.918L84.2316 116.597L84.2942 118.389L80.8481 118.51L81.1709 127.753L78.852 127.834L78.5292 118.591L75.0938 118.711ZM85.5679 122.236L85.5559 121.892C85.4974 120.218 85.9259 118.841 86.8413 117.763C87.7567 116.685 88.9838 116.119 90.5226 116.065C92.0613 116.011 93.2701 116.46 94.1489 117.411C95.0274 118.355 95.4963 119.675 95.5555 121.371L95.5859 122.241L87.0403 122.539L86.983 120.897L93.2204 120.679L93.2129 120.464C93.1869 119.72 92.9536 119.094 92.5131 118.586C92.0723 118.071 91.444 117.828 90.6281 117.857C89.6762 117.89 88.973 118.273 88.5185 119.005C88.0639 119.738 87.8558 120.651 87.894 121.746L87.9101 122.208C87.9486 123.31 88.2345 124.21 88.7676 124.908C89.3007 125.606 90.0826 125.937 91.1133 125.901C91.786 125.878 92.3533 125.707 92.8152 125.39C93.2842 125.073 93.6584 124.705 93.9375 124.287L95.5754 125.326C95.2523 125.925 94.7158 126.463 93.9657 126.941C93.2228 127.418 92.3003 127.676 91.1981 127.715C89.4732 127.775 88.1166 127.299 87.1282 126.288C86.147 125.276 85.6269 123.925 85.5679 122.236ZM105.09 126.918L100.815 122.069L102.253 120.482L107.87 126.821L105.09 126.918ZM98.8714 120.6L100.922 120.528L104.415 115.892L107.034 115.8L102.133 122.281L98.934 122.393L98.8714 120.6ZM99.8734 116.05L100.259 127.087L97.9399 127.168L97.5545 116.131L99.8734 116.05ZM108.306 121.453L108.294 121.098C108.235 119.402 108.66 118.022 109.568 116.959C110.477 115.888 111.74 115.324 113.357 115.268C114.875 115.215 116.044 115.568 116.866 116.328C117.688 117.087 118.125 117.996 118.176 119.055L118.191 119.173L115.926 119.252L115.922 119.155C115.901 118.554 115.687 118.053 115.279 117.651C114.87 117.25 114.251 117.064 113.421 117.093C112.455 117.127 111.744 117.503 111.289 118.221C110.834 118.939 110.626 119.853 110.665 120.962L110.681 121.424C110.719 122.519 110.987 123.416 111.484 124.115C111.981 124.807 112.72 125.136 113.701 125.102C114.552 125.072 115.164 124.839 115.536 124.403C115.907 123.96 116.083 123.442 116.062 122.848L116.059 122.762L118.313 122.683L118.317 122.78C118.354 123.839 117.982 124.78 117.201 125.603C116.427 126.425 115.281 126.863 113.764 126.916C112.147 126.972 110.847 126.502 109.867 125.504C108.886 124.499 108.366 123.149 108.306 121.453ZM119.067 117.175L119.004 115.382L128.205 115.061L128.267 116.854L124.821 116.974L125.144 126.218L122.825 126.299L122.502 117.055L119.067 117.175ZM145.628 125.502L141.409 125.65L141.022 114.581L145.241 114.434L145.628 125.502ZM148.784 125.392L145.758 120.629L148.533 117.887L153.508 125.227L148.784 125.392ZM143.229 118.384L146.074 118.285L148.097 114.334L152.52 114.18L148.459 121.308L143.338 121.487L143.229 118.384ZM138.252 125.76L133.711 125.918L138.141 118.272L140.928 120.808L138.252 125.76ZM143.229 118.384L143.338 121.487L138.12 121.669L133.582 114.841L138.166 114.681L140.46 118.481L143.229 118.384ZM154.27 125.201L153.883 114.132L158.113 113.984L158.263 118.268C158.271 118.497 158.274 118.794 158.272 119.16C158.271 119.518 158.255 119.798 158.226 120L158.323 120.007C158.409 119.796 158.505 119.571 158.612 119.331C158.718 119.083 158.85 118.781 159.01 118.425L161.194 113.877L165.456 113.728L165.843 124.796L161.613 124.944L161.461 120.585C161.452 120.335 161.442 120.052 161.431 119.737C161.427 119.422 161.425 119.15 161.424 118.921L161.338 118.924C161.26 119.141 161.174 119.359 161.082 119.578C160.989 119.796 160.866 120.083 160.714 120.44L158.532 125.052L154.27 125.201ZM168.297 129.193L167.754 113.648L171.79 113.507L171.883 114.632L171.937 114.63C172.13 114.215 172.505 113.872 173.062 113.602C173.626 113.324 174.24 113.174 174.906 113.151C176.344 113.1 177.528 113.55 178.457 114.499C179.386 115.449 179.881 116.807 179.943 118.575L179.955 118.918C180.015 120.65 179.623 122.033 178.778 123.066C177.932 124.091 176.815 124.628 175.427 124.677C174.768 124.7 174.156 124.621 173.591 124.44C173.026 124.252 172.607 123.969 172.336 123.591L172.526 129.045L168.297 129.193ZM172.229 120.532C172.356 120.871 172.584 121.157 172.915 121.389C173.252 121.614 173.629 121.719 174.044 121.705C174.602 121.685 175.018 121.488 175.291 121.113C175.565 120.738 175.688 120.15 175.66 119.348L175.629 118.457C175.601 117.655 175.437 117.081 175.138 116.733C174.839 116.378 174.407 116.21 173.842 116.23C173.384 116.246 173.012 116.373 172.726 116.613C172.448 116.852 172.247 117.135 172.122 117.461L172.229 120.532ZM181.538 113.166L185.768 113.019L185.904 116.905L188.803 116.804L188.667 112.917L192.897 112.77L193.283 123.838L189.053 123.986L188.91 119.874L186.011 119.975L186.155 124.087L181.925 124.235L181.538 113.166ZM199.445 112.541L199.561 115.858L202.03 115.772C203.512 115.72 204.637 116.029 205.406 116.697C206.181 117.365 206.591 118.314 206.634 119.545C206.678 120.827 206.336 121.799 205.607 122.462C204.885 123.118 203.783 123.471 202.301 123.523L195.602 123.757L195.216 112.689L199.445 112.541ZM201.028 118.473L199.654 118.521L199.739 120.958L201.113 120.91C201.564 120.894 201.89 120.786 202.091 120.585C202.299 120.385 202.395 120.062 202.38 119.619C202.366 119.232 202.252 118.942 202.038 118.749C201.823 118.549 201.486 118.457 201.028 118.473ZM207.68 123.335L207.293 112.267L211.555 112.118L211.942 123.187L207.68 123.335ZM214.239 123.106L213.853 112.038L219.596 111.837L221.279 116.626C221.423 117.065 221.52 117.377 221.57 117.562C221.619 117.739 221.661 117.917 221.696 118.095L221.782 118.092C221.804 117.912 221.83 117.736 221.86 117.563C221.897 117.389 221.972 117.071 222.085 116.609L223.407 111.704L229.162 111.503L229.548 122.572L225.351 122.718L225.148 116.932C225.132 116.474 225.124 116.134 225.124 115.912C225.13 115.682 225.137 115.474 225.145 115.287L225.048 115.291C225.012 115.478 224.969 115.68 224.919 115.897C224.876 116.107 224.791 116.446 224.664 116.916L223.032 122.799L219.951 122.907L217.9 117.131C217.757 116.721 217.652 116.402 217.587 116.175C217.529 115.947 217.475 115.742 217.426 115.557L217.319 115.561C217.332 115.747 217.35 115.947 217.372 116.161C217.393 116.368 217.412 116.693 217.427 117.137L217.632 122.988L214.239 123.106ZM12.0228 150.18L11.6374 139.144L13.9348 139.064L14.1597 145.505C14.1677 145.734 14.1728 145.981 14.1749 146.246C14.1767 146.504 14.1743 146.744 14.1678 146.967L14.2648 146.974C14.3582 146.777 14.4587 146.577 14.5662 146.372C14.6806 146.16 14.8085 145.923 14.9498 145.66L18.7121 138.897L21.0633 138.815L21.4486 149.851L19.1512 149.931L18.9259 143.479C18.9179 143.25 18.9129 143.003 18.9108 142.738C18.9156 142.465 18.9213 142.218 18.9278 141.996L18.7883 142.001C18.702 142.197 18.6052 142.401 18.4979 142.613C18.3978 142.824 18.2771 143.061 18.1358 143.324L14.3739 150.098L12.0228 150.18ZM27.1808 140.396L27.1349 144.622C27.1145 146.5 26.9074 147.855 26.5136 148.685C26.1196 149.509 25.3679 149.94 24.2585 149.979C24.0152 149.987 23.7891 149.977 23.5803 149.948C23.3717 149.927 23.1985 149.89 23.0605 149.838L22.9938 147.927C23.1098 147.966 23.229 147.994 23.3514 148.011C23.4738 148.028 23.6066 148.034 23.7498 148.029C24.2722 148.011 24.6139 147.741 24.7749 147.22C24.9358 146.698 25.0214 145.763 25.0317 144.416L25.0891 138.674L33.1194 138.394L33.5048 149.43L31.1859 149.511L30.8631 140.268L27.1808 140.396ZM36.4571 149.327L36.0717 138.291L38.3691 138.21L38.594 144.652C38.602 144.881 38.6071 145.128 38.6092 145.393C38.611 145.651 38.6087 145.891 38.6021 146.113L38.6991 146.121C38.7925 145.924 38.893 145.723 39.0005 145.519C39.115 145.307 39.2428 145.07 39.3841 144.807L43.1465 138.044L45.4976 137.961L45.883 148.998L43.5855 149.078L43.3602 142.626C43.3522 142.397 43.3472 142.15 43.3451 141.885C43.3499 141.612 43.3556 141.365 43.3622 141.142L43.2226 141.147C43.1363 141.344 43.0395 141.548 42.9323 141.759C42.8322 141.971 42.7115 142.208 42.5702 142.471L38.8082 149.245L36.4571 149.327ZM59.85 148.51L56.4443 143.631L58.0654 142.037L62.534 148.416L59.85 148.51ZM54.6944 142.155L56.7342 142.083L61.0213 137.419L63.6408 137.328L57.6342 143.847L54.435 143.959L54.6944 142.155ZM56.4801 137.578L54.9224 148.682L52.6035 148.763L54.1612 137.659L56.4801 137.578ZM62.3464 152.894L62.6151 151.047C62.796 151.098 62.9943 151.134 63.21 151.155C63.426 151.183 63.6377 151.194 63.8453 151.187C64.3391 151.169 64.7942 150.964 65.2103 150.569C65.6339 150.182 66.1085 149.409 66.6342 148.252L66.6016 148.242L63.9629 137.317L66.2925 137.235L67.752 144.246C67.8115 144.516 67.8597 144.766 67.8963 144.994C67.9329 145.222 67.9621 145.443 67.9839 145.657L68.0484 145.655C68.1339 145.437 68.2264 145.211 68.3257 144.979C68.4322 144.746 68.5522 144.487 68.6856 144.203L72.0146 137.035L74.2798 136.956L67.9931 149.612C67.4439 150.713 66.8248 151.555 66.1358 152.138C65.4539 152.721 64.6656 153.028 63.771 153.059C63.4632 153.07 63.1978 153.062 62.9747 153.034C62.7515 153.005 62.5421 152.959 62.3464 152.894ZM73.5237 152.547L75.7184 136.906L77.8655 136.831L77.7318 138.233L77.7854 138.231C78.1204 137.768 78.6009 137.368 79.2269 137.031C79.86 136.693 80.5523 136.512 81.3038 136.485C82.7066 136.436 83.7552 136.916 84.4497 137.923C85.1439 138.924 85.3767 140.256 85.1481 141.919L85.0957 142.265C84.8597 143.921 84.2482 145.286 83.2609 146.36C82.2806 147.426 81.0926 147.983 79.697 148.032C78.9455 148.058 78.3111 147.948 77.7937 147.701C77.2834 147.453 76.9023 147.108 76.6504 146.666L75.8426 152.466L73.5237 152.547ZM76.9623 144.516C77.093 144.977 77.3652 145.383 77.7787 145.734C78.192 146.078 78.7243 146.239 79.3756 146.216C80.3418 146.182 81.1027 145.808 81.6582 145.093C82.2136 144.379 82.5657 143.482 82.7143 142.402L82.7844 141.948C82.9328 140.86 82.8269 139.983 82.4667 139.315C82.1064 138.639 81.4431 138.318 80.4769 138.352C79.8184 138.375 79.2342 138.575 78.7242 138.951C78.2214 139.327 77.8314 139.752 77.5542 140.228L76.9623 144.516ZM86.7172 142.219L86.7692 141.862C87.0106 140.156 87.6751 138.767 88.7628 137.697C89.8573 136.62 91.2098 136.053 92.8202 135.997C94.3446 135.944 95.4462 136.3 96.125 137.064C96.8038 137.829 97.0794 138.743 96.9518 139.808L96.9344 139.927L94.6799 140.006L94.6873 139.909C94.7737 139.304 94.6486 138.8 94.312 138.396C93.9754 137.992 93.3956 137.804 92.5726 137.833C91.5992 137.867 90.8242 138.245 90.2475 138.968C89.6707 139.69 89.3051 140.609 89.1506 141.725L89.0916 142.19C88.9295 143.292 89.0362 144.194 89.4119 144.898C89.7874 145.594 90.4618 145.925 91.4351 145.891C92.2868 145.862 92.9343 145.628 93.3776 145.189C93.8207 144.744 94.0855 144.222 94.1721 143.625L94.1799 143.538L96.4451 143.459L96.427 143.557C96.2779 144.622 95.7449 145.569 94.8279 146.396C93.9109 147.224 92.6937 147.664 91.1764 147.717C89.5661 147.773 88.36 147.299 87.5582 146.295C86.7633 145.284 86.483 143.925 86.7172 142.219ZM97.9938 147.178L99.5515 136.074L101.849 135.994L100.936 142.475C100.908 142.705 100.87 142.954 100.822 143.22C100.781 143.48 100.736 143.721 100.686 143.945L100.783 143.953C100.92 143.754 101.06 143.552 101.203 143.347C101.346 143.141 101.51 142.903 101.694 142.631L106.433 135.834L108.977 135.745L107.42 146.849L105.122 146.929L106.035 140.437C106.07 140.207 106.111 139.958 106.159 139.691C106.207 139.417 106.252 139.168 106.295 138.945L106.166 138.949C106.051 139.147 105.918 139.352 105.768 139.565C105.625 139.778 105.465 140.016 105.288 140.28L100.538 147.089L97.9938 147.178ZM110.34 146.747L111.898 135.643L116.965 135.466C118.232 135.421 119.174 135.629 119.792 136.087C120.41 136.546 120.65 137.257 120.511 138.223C120.42 138.878 120.152 139.425 119.709 139.863C119.273 140.301 118.728 140.599 118.074 140.758L118.064 140.791C118.827 140.879 119.398 141.135 119.779 141.559C120.159 141.983 120.301 142.547 120.203 143.253C120.059 144.247 119.592 145.037 118.803 145.624C118.02 146.203 117.003 146.514 115.751 146.558L110.34 146.747ZM113.54 140.197L116.084 140.108C116.736 140.085 117.225 139.932 117.551 139.648C117.886 139.364 118.087 138.977 118.156 138.488C118.219 138.027 118.12 137.679 117.862 137.444C117.609 137.202 117.161 137.093 116.517 137.115L113.973 137.204L113.54 140.197ZM112.87 145.025L115.715 144.925C116.381 144.902 116.891 144.741 117.246 144.442C117.601 144.136 117.816 143.734 117.892 143.237C117.954 142.762 117.851 142.386 117.584 142.108C117.316 141.824 116.842 141.694 116.162 141.717L113.317 141.817L112.87 145.025ZM122.359 140.974L122.412 140.618C122.653 138.925 123.336 137.54 124.459 136.462C125.589 135.376 126.963 134.805 128.581 134.748C130.198 134.692 131.422 135.172 132.253 136.189C133.091 137.199 133.389 138.55 133.147 140.243L133.106 140.599C132.864 142.291 132.178 143.68 131.048 144.766C129.925 145.844 128.554 146.412 126.937 146.468C125.312 146.525 124.085 146.048 123.254 145.038C122.423 144.021 122.125 142.666 122.359 140.974ZM124.793 140.481L124.734 140.945C124.572 142.054 124.697 142.956 125.108 143.651C125.519 144.339 126.215 144.666 127.195 144.632C128.176 144.598 128.969 144.219 129.574 143.495C130.179 142.765 130.562 141.841 130.724 140.725L130.783 140.272C130.938 139.163 130.81 138.264 130.399 137.576C129.988 136.888 129.296 136.561 128.323 136.595C127.342 136.63 126.546 137.009 125.933 137.732C125.328 138.456 124.948 139.372 124.793 140.481ZM134.624 145.899L136.182 134.795L139.349 134.684L141.215 141.659C141.308 142.05 141.368 142.331 141.395 142.502C141.423 142.673 141.443 142.852 141.457 143.037L141.553 143.034C141.619 142.845 141.687 142.664 141.76 142.489C141.84 142.315 141.984 142.034 142.193 141.647L146.08 134.449L149.247 134.338L147.689 145.443L145.445 145.521L146.461 138.294C146.519 137.891 146.566 137.585 146.601 137.376C146.644 137.159 146.684 136.965 146.721 136.791L146.635 136.794C146.569 136.969 146.493 137.161 146.408 137.372C146.322 137.576 146.171 137.878 145.956 138.28L141.988 145.642L140.12 145.707L138.204 138.529C138.113 138.181 138.053 137.9 138.024 137.686C137.995 137.465 137.97 137.269 137.95 137.098L137.853 137.101C137.845 137.273 137.83 137.464 137.808 137.672C137.794 137.873 137.761 138.161 137.71 138.536L136.674 145.827L134.624 145.899ZM152.101 144.042C152.086 143.626 152.207 143.271 152.461 142.976C152.716 142.68 153.09 142.524 153.584 142.506C154.085 142.489 154.473 142.619 154.748 142.896C155.023 143.173 155.168 143.519 155.182 143.934C155.196 144.342 155.076 144.694 154.821 144.989C154.566 145.285 154.188 145.441 153.687 145.459C153.194 145.476 152.809 145.346 152.534 145.069C152.26 144.792 152.115 144.45 152.101 144.042ZM12.9355 170.16L12.3896 154.529L24.1773 154.118L24.7232 169.749L22.3184 169.833L21.8397 156.123L14.8508 156.367L15.3295 170.077L12.9355 170.16ZM27.0164 164.316L27.0041 163.962C26.9453 162.28 27.3881 160.903 28.3324 159.831C29.2764 158.751 30.5608 158.184 32.1854 158.127C33.8029 158.07 35.1202 158.547 36.1372 159.558C37.154 160.562 37.6917 161.904 37.7504 163.586L37.7628 163.941C37.8215 165.622 37.3789 167.003 36.4349 168.082C35.4906 169.154 34.2097 169.718 32.5922 169.775C30.9675 169.832 29.6468 169.358 28.63 168.355C27.613 167.344 27.0752 165.998 27.0164 164.316ZM29.3748 163.825L29.3909 164.287C29.4294 165.389 29.7151 166.285 30.248 166.976C30.7806 167.66 31.5372 167.984 32.5177 167.95C33.5054 167.916 34.2375 167.539 34.714 166.82C35.1974 166.094 35.4197 165.176 35.381 164.067L35.3652 163.616C35.3268 162.514 35.0412 161.621 34.5085 160.937C33.9759 160.253 33.2193 159.929 32.2388 159.963C31.2654 159.997 30.5333 160.374 30.0425 161.093C29.5589 161.812 29.3363 162.723 29.3748 163.825ZM48.7538 171.801L48.6529 168.913L41.0092 169.18L41.11 172.068L38.9736 172.143L38.8102 167.462L50.7375 167.045L50.9009 171.726L48.7538 171.801ZM42.7584 159.864L42.7163 163.585C42.7148 164.567 42.6743 165.356 42.5948 165.954C42.5222 166.544 42.4007 167.064 42.2301 167.514L39.8897 167.596C40.1134 167.23 40.289 166.719 40.4166 166.062C40.5439 165.398 40.6115 164.461 40.6193 163.25L40.6774 158.142L48.7936 157.859L49.179 168.895L46.8494 168.976L46.5266 159.733L42.7584 159.864ZM54.2419 160.592C54.2717 161.444 54.4606 162.032 54.8087 162.356C55.164 162.681 55.746 162.829 56.5548 162.801C57.1989 162.778 57.7663 162.712 58.2569 162.601C58.7546 162.491 59.2943 162.35 59.8759 162.179L59.9378 163.951C59.3697 164.1 58.8049 164.238 58.2432 164.365C57.6885 164.484 56.9673 164.56 56.0799 164.591C54.7129 164.638 53.689 164.355 53.0083 163.741C52.3345 163.12 51.974 162.133 51.9268 160.78L51.821 157.753L54.1399 157.672L54.2419 160.592ZM60.8712 157.437L61.2566 168.473L58.9377 168.554L58.5523 157.518L60.8712 157.437ZM63.3455 163.036L63.3335 162.693C63.275 161.018 63.7034 159.642 64.6188 158.563C65.5343 157.485 66.7613 156.919 68.3001 156.866C69.8389 156.812 71.0477 157.261 71.9264 158.212C72.805 159.155 73.2739 160.475 73.3331 162.172L73.3635 163.041L64.8179 163.34L64.7605 161.697L70.9979 161.479L70.9904 161.265C70.9644 160.52 70.7312 159.894 70.2907 159.387C69.8499 158.872 69.2216 158.628 68.4057 158.657C67.4538 158.69 66.7506 159.073 66.296 159.806C65.8415 160.538 65.6334 161.452 65.6716 162.547L65.6877 163.008C65.7262 164.111 66.012 165.011 66.5452 165.709C67.0783 166.407 67.8602 166.738 68.8908 166.702C69.5636 166.678 70.1309 166.508 70.5928 166.191C71.0618 165.873 71.4359 165.506 71.7151 165.087L73.353 166.127C73.0299 166.725 72.4934 167.264 71.7433 167.741C71.0004 168.219 70.0778 168.477 68.9756 168.515C67.2508 168.575 65.8942 168.1 64.9058 167.088C63.9246 166.076 63.4045 164.726 63.3455 163.036ZM75.875 172.477L75.3321 156.932L77.4792 156.857L77.5924 158.25L77.6461 158.248C77.8951 157.788 78.3076 157.39 78.8835 157.055C79.4594 156.72 80.1231 156.539 80.8746 156.512C82.2773 156.464 83.4154 156.94 84.2888 157.941C85.1691 158.935 85.6381 160.259 85.6958 161.912L85.7078 162.256C85.7653 163.902 85.3935 165.258 84.5923 166.325C83.7909 167.385 82.6924 167.939 81.2968 167.988C80.5453 168.014 79.8894 167.905 79.329 167.659C78.7687 167.414 78.3232 167.071 77.9925 166.631L78.1939 172.396L75.875 172.477ZM77.9179 164.495C78.1346 164.953 78.4783 165.356 78.9491 165.705C79.4268 166.047 79.9949 166.206 80.6533 166.183C81.6195 166.15 82.316 165.778 82.7426 165.068C83.1764 164.358 83.3746 163.466 83.3371 162.392L83.3214 161.941C83.2836 160.86 83.0239 159.988 82.5421 159.324C82.0672 158.653 81.343 158.334 80.3697 158.368C79.7112 158.391 79.1592 158.59 78.7137 158.963C78.2681 159.337 77.9532 159.76 77.7691 160.233L77.9179 164.495ZM95.3208 167.283L91.0454 162.435L92.4841 160.847L98.1013 167.186L95.3208 167.283ZM89.1024 160.965L91.1529 160.894L94.6455 156.257L97.265 156.166L92.3642 162.646L89.165 162.758L89.1024 160.965ZM90.1043 156.416L90.4897 167.452L88.1708 167.533L87.7854 156.497L90.1043 156.416ZM98.9935 156.105L101.312 156.025L101.47 160.533L106.065 160.373L105.907 155.864L108.226 155.783L108.612 166.819L106.293 166.9L106.127 162.166L101.532 162.326L101.698 167.061L99.3789 167.142L98.9935 156.105ZM111.532 166.717L111.146 155.681L113.444 155.601L113.669 162.042C113.677 162.271 113.682 162.518 113.684 162.783C113.686 163.041 113.683 163.281 113.677 163.504L113.774 163.511C113.867 163.314 113.968 163.114 114.075 162.909C114.189 162.698 114.317 162.46 114.459 162.197L118.221 155.434L120.572 155.352L120.957 166.388L118.66 166.468L118.435 160.016C118.427 159.787 118.422 159.54 118.42 159.275C118.424 159.003 118.43 158.755 118.437 158.533L118.297 158.538C118.211 158.734 118.114 158.938 118.007 159.15C117.907 159.361 117.786 159.598 117.645 159.861L113.883 166.635L111.532 166.717ZM123.633 168.53C123.954 168.068 124.196 167.597 124.358 167.119C124.521 166.64 124.591 166.089 124.569 165.467L124.506 163.652L126.696 163.576L126.759 165.39C126.786 166.163 126.643 166.881 126.329 167.544C126.016 168.207 125.588 168.785 125.046 169.277L123.633 168.53ZM134.979 154.849L142.333 154.592L142.396 156.385L137.361 156.561L137.684 165.804L135.365 165.885L134.979 154.849ZM153.04 168.159L152.939 165.271L145.295 165.538L145.396 168.426L143.26 168.501L143.096 163.82L155.023 163.404L155.187 168.084L153.04 168.159ZM147.044 156.223L147.002 159.943C147.001 160.925 146.96 161.715 146.881 162.312C146.808 162.902 146.687 163.422 146.516 163.873L144.176 163.954C144.399 163.588 144.575 163.077 144.703 162.42C144.83 161.757 144.898 160.819 144.905 159.608L144.963 154.5L153.08 154.217L153.465 165.253L151.135 165.334L150.813 156.091L147.044 156.223ZM155.908 159.804L155.896 159.461C155.838 157.786 156.266 156.409 157.182 155.331C158.097 154.253 159.324 153.687 160.863 153.633C162.402 153.58 163.61 154.028 164.489 154.979C165.368 155.923 165.837 157.243 165.896 158.939L165.926 159.809L157.381 160.107L157.323 158.465L163.561 158.247L163.553 158.032C163.527 157.288 163.294 156.662 162.853 156.154C162.413 155.639 161.784 155.396 160.968 155.425C160.016 155.458 159.313 155.841 158.859 156.573C158.404 157.306 158.196 158.219 158.234 159.314L158.25 159.776C158.289 160.878 158.575 161.778 159.108 162.476C159.641 163.174 160.423 163.505 161.454 163.469C162.126 163.446 162.694 163.275 163.155 162.958C163.625 162.641 163.999 162.273 164.278 161.855L165.916 162.894C165.593 163.493 165.056 164.031 164.306 164.509C163.563 164.986 162.641 165.244 161.538 165.283C159.814 165.343 158.457 164.867 157.468 163.856C156.487 162.844 155.967 161.493 155.908 159.804ZM173.069 153.519L175.388 153.438L175.546 157.947L180.141 157.786L179.983 153.277L182.302 153.196L182.687 164.233L180.369 164.314L180.203 159.579L175.608 159.74L175.774 164.474L173.455 164.555L173.069 153.519ZM184.926 168.626L184.873 166.79C185.061 166.84 185.266 166.876 185.489 166.897C185.719 166.925 185.938 166.935 186.146 166.928C186.64 166.911 187.063 166.706 187.414 166.314C187.766 165.929 188.105 165.161 188.43 164.01L188.398 164.001L183.816 153.143L186.124 153.063L188.893 160.028C188.996 160.297 189.083 160.545 189.156 160.771C189.235 160.998 189.304 161.218 189.361 161.431L189.426 161.428C189.475 161.212 189.532 160.987 189.596 160.756C189.659 160.524 189.729 160.268 189.805 159.985L191.975 152.859L194.133 152.783L190.036 165.362C189.673 166.457 189.197 167.294 188.608 167.874C188.026 168.453 187.288 168.758 186.394 168.79C186.086 168.8 185.817 168.792 185.587 168.764C185.356 168.736 185.136 168.69 184.926 168.626ZM203.343 163.511L201.067 163.591L200.681 152.554L202.957 152.475L203.343 163.511ZM207.605 163.362L204.018 158.522L205.512 156.986L210.246 163.27L207.605 163.362ZM201.966 157.024L204.027 156.952L206.876 152.338L209.399 152.25L205.303 158.703L202.029 158.817L201.966 157.024ZM196.805 163.74L194.228 163.83L198.512 157.231L200.024 158.661L196.805 163.74ZM201.966 157.024L202.029 158.817L198.722 158.932L194.186 152.781L196.752 152.692L199.926 157.095L201.966 157.024ZM210.617 157.894L210.605 157.55C210.547 155.875 210.975 154.499 211.89 153.421C212.806 152.342 214.033 151.777 215.572 151.723C217.11 151.669 218.319 152.118 219.198 153.069C220.077 154.013 220.545 155.333 220.605 157.029L220.635 157.898L212.089 158.197L212.032 156.554L218.269 156.337L218.262 156.122C218.236 155.377 218.003 154.751 217.562 154.244C217.121 153.729 216.493 153.486 215.677 153.514C214.725 153.547 214.022 153.93 213.568 154.663C213.113 155.395 212.905 156.309 212.943 157.404L212.959 157.866C212.998 158.968 213.284 159.868 213.817 160.566C214.35 161.264 215.132 161.595 216.162 161.559C216.835 161.535 217.402 161.365 217.864 161.048C218.333 160.731 218.707 160.363 218.987 159.945L220.625 160.984C220.301 161.583 219.765 162.121 219.015 162.598C218.272 163.076 217.349 163.334 216.247 163.372C214.522 163.433 213.166 162.957 212.177 161.945C211.196 160.933 210.676 159.583 210.617 157.894ZM222.604 151.789L224.923 151.708L225.08 156.217L229.675 156.056L229.517 151.547L231.836 151.467L232.222 162.503L229.903 162.584L229.737 157.849L225.143 158.01L225.308 162.744L222.989 162.825L222.604 151.789ZM12.7047 186.945C12.6647 185.8 13.0812 184.901 13.954 184.247C14.8338 183.585 15.9716 183.23 17.3672 183.182L19.8042 183.097L19.7779 182.345C19.7562 181.722 19.5778 181.231 19.2427 180.87C18.9148 180.508 18.3608 180.342 17.5807 180.369C16.8077 180.396 16.255 180.573 15.9224 180.9C15.5896 181.219 15.4311 181.605 15.4468 182.056L15.451 182.174L13.175 182.253L13.1701 182.114C13.1381 181.197 13.5224 180.403 14.323 179.73C15.1307 179.057 16.2253 178.696 17.6066 178.648C18.9879 178.6 20.0688 178.874 20.8492 179.47C21.6365 180.059 22.0525 180.994 22.0972 182.275L22.2727 187.299C22.2887 187.757 22.3397 188.192 22.4258 188.605C22.5187 189.01 22.6349 189.361 22.7742 189.657L22.7802 189.829L20.5257 189.908C20.4193 189.732 20.3219 189.51 20.2337 189.241C20.1524 188.964 20.0926 188.687 20.0542 188.408C19.8263 188.861 19.4215 189.273 18.8397 189.644C18.2579 190.015 17.509 190.217 16.5929 190.249C15.5193 190.287 14.611 190.028 13.8679 189.474C13.1317 188.912 12.7439 188.069 12.7047 186.945ZM15.018 186.703C15.0387 187.297 15.2267 187.757 15.582 188.081C15.9371 188.398 16.4688 188.544 17.1774 188.52C17.9146 188.494 18.5573 188.224 19.1054 187.711C19.6605 187.19 19.9275 186.629 19.9065 186.027L19.8578 184.632L17.7536 184.705C16.8232 184.738 16.1277 184.93 15.667 185.283C15.2136 185.636 14.9972 186.109 15.018 186.703ZM32.4208 189.492L28.1455 184.643L29.5841 183.056L35.2014 189.395L32.4208 189.492ZM26.2024 183.174L28.2529 183.102L31.7456 178.466L34.3651 178.375L29.4642 184.855L26.265 184.967L26.2024 183.174ZM27.2044 178.625L27.5898 189.661L25.2709 189.742L24.8855 178.706L27.2044 178.625ZM45.179 191.938L45.0781 189.05L36.4789 189.35L36.0935 178.314L38.4124 178.233L38.7352 187.477L43.2119 187.32L42.8892 178.077L45.2188 177.996L45.5416 187.239L47.1627 187.182L47.3261 191.863L45.179 191.938ZM48.0473 183.583L48.0354 183.239C47.9769 181.565 48.4053 180.188 49.3207 179.11C50.2361 178.032 51.4632 177.466 53.002 177.412C54.5408 177.358 55.7496 177.807 56.6283 178.758C57.5069 179.702 57.9757 181.022 58.035 182.718L58.0653 183.588L49.5198 183.886L49.4624 182.244L55.6998 182.026L55.6923 181.811C55.6663 181.067 55.4331 180.441 54.9926 179.933C54.5518 179.418 53.9235 179.175 53.1076 179.203C52.1557 179.237 51.4524 179.619 50.9979 180.352C50.5434 181.084 50.3352 181.998 50.3735 183.093L50.3896 183.555C50.4281 184.657 50.7139 185.557 51.247 186.255C51.7802 186.953 52.5621 187.284 53.5927 187.248C54.2655 187.224 54.8328 187.054 55.2947 186.737C55.7637 186.42 56.1378 186.052 56.417 185.634L58.0548 186.673C57.7318 187.272 57.1952 187.81 56.4452 188.288C55.7023 188.765 54.7797 189.023 53.6775 189.062C51.9527 189.122 50.596 188.646 49.6077 187.634C48.6264 186.622 48.1063 185.272 48.0473 183.583ZM60.034 177.478L62.3529 177.397L62.5103 181.906L67.1052 181.746L66.9477 177.237L69.2666 177.156L69.652 188.192L67.3331 188.273L67.1678 183.539L62.5729 183.699L62.7383 188.433L60.4194 188.514L60.034 177.478ZM71.1114 178.886L71.0488 177.094L80.2492 176.772L80.3118 178.565L76.8657 178.685L77.1885 187.929L74.8696 188.01L74.5468 178.766L71.1114 178.886ZM82.1834 189.99C82.504 189.527 82.7455 189.057 82.908 188.578C83.0704 188.1 83.1407 187.549 83.119 186.926L83.0556 185.112L85.2457 185.036L85.3091 186.85C85.3361 187.623 85.1927 188.341 84.8791 189.004C84.5655 189.667 84.1378 190.244 83.596 190.736L82.1834 189.99ZM98.069 187.501C96.4232 187.565 95.1862 187.232 94.3581 186.502C93.5369 185.764 93.1079 184.868 93.0712 183.816L93.0686 183.741L95.3123 183.663L95.315 183.738C95.3349 184.311 95.5527 184.801 95.9683 185.209C96.3836 185.61 97.06 185.795 97.9976 185.762C98.7849 185.734 99.3913 185.556 99.8169 185.225C100.242 184.888 100.445 184.433 100.425 183.861C100.409 183.395 100.238 183.032 99.9139 182.771C99.5892 182.503 99.0834 182.381 98.3963 182.405L96.6356 182.467L96.5775 180.803L98.0483 180.751C98.7282 180.727 99.2102 180.574 99.4941 180.292C99.7781 180.01 99.9118 179.633 99.8953 179.16C99.8768 178.631 99.6837 178.233 99.3161 177.966C98.9485 177.699 98.4391 177.577 97.7878 177.6C96.979 177.628 96.3703 177.843 95.9615 178.244C95.5596 178.638 95.3698 179.154 95.3921 179.791L95.3947 179.866L93.1617 179.944L93.1591 179.869C93.1178 178.688 93.5002 177.736 94.3062 177.012C95.1193 176.289 96.281 175.901 97.7911 175.848C99.2082 175.798 100.295 176.044 101.052 176.583C101.816 177.123 102.215 177.883 102.25 178.863C102.271 179.464 102.089 179.997 101.704 180.462C101.318 180.927 100.781 181.243 100.092 181.411L100.093 181.443C100.92 181.529 101.567 181.778 102.033 182.192C102.506 182.606 102.754 183.163 102.779 183.864C102.818 184.981 102.397 185.855 101.516 186.488C100.635 187.114 99.4861 187.451 98.069 187.501ZM104.602 183.736C104.562 182.591 104.978 181.692 105.851 181.038C106.731 180.376 107.869 180.021 109.264 179.973L111.701 179.887L111.675 179.136C111.653 178.513 111.475 178.021 111.14 177.661C110.812 177.299 110.258 177.132 109.478 177.16C108.705 177.187 108.152 177.364 107.82 177.69C107.487 178.01 107.328 178.396 107.344 178.846L107.348 178.965L105.072 179.044L105.067 178.904C105.035 177.988 105.42 177.194 106.22 176.521C107.028 175.848 108.122 175.487 109.504 175.439C110.885 175.391 111.966 175.665 112.746 176.261C113.534 176.85 113.95 177.785 113.994 179.066L114.17 184.09C114.186 184.548 114.237 184.983 114.323 185.396C114.416 185.801 114.532 186.152 114.671 186.448L114.677 186.62L112.423 186.698C112.316 186.523 112.219 186.301 112.131 186.031C112.05 185.755 111.99 185.477 111.951 185.199C111.723 185.652 111.319 186.063 110.737 186.435C110.155 186.806 109.406 187.008 108.49 187.04C107.416 187.077 106.508 186.819 105.765 186.264C105.029 185.703 104.641 184.86 104.602 183.736ZM106.915 183.494C106.936 184.088 107.124 184.547 107.479 184.872C107.834 185.189 108.366 185.335 109.075 185.311C109.812 185.285 110.454 185.015 111.003 184.502C111.558 183.981 111.825 183.419 111.804 182.818L111.755 181.423L109.651 181.496C108.72 181.529 108.025 181.721 107.564 182.074C107.111 182.427 106.894 182.9 106.915 183.494ZM118.946 178.345C118.976 179.196 119.164 179.784 119.513 180.109C119.868 180.433 120.45 180.582 121.259 180.553C121.903 180.531 122.47 180.464 122.961 180.354C123.459 180.244 123.998 180.103 124.58 179.932L124.642 181.704C124.074 181.852 123.509 181.99 122.947 182.117C122.392 182.237 121.671 182.312 120.784 182.343C119.417 182.391 118.393 182.108 117.712 181.494C117.038 180.873 116.678 179.886 116.631 178.533L116.525 175.505L118.844 175.424L118.946 178.345ZM125.575 175.189L125.96 186.226L123.642 186.307L123.256 175.27L125.575 175.189ZM128.049 180.789L128.037 180.446C127.979 178.771 128.407 177.394 129.323 176.316C130.238 175.238 131.465 174.672 133.004 174.618C134.543 174.565 135.752 175.013 136.63 175.964C137.509 176.908 137.978 178.228 138.037 179.924L138.067 180.794L129.522 181.092L129.464 179.45L135.702 179.232L135.694 179.017C135.668 178.273 135.435 177.647 134.995 177.139C134.554 176.624 133.925 176.381 133.11 176.41C132.158 176.443 131.454 176.826 131 177.558C130.545 178.291 130.337 179.204 130.375 180.299L130.392 180.761C130.43 181.863 130.716 182.763 131.249 183.461C131.782 184.159 132.564 184.49 133.595 184.454C134.267 184.431 134.835 184.26 135.297 183.943C135.766 183.626 136.14 183.258 136.419 182.84L138.057 183.879C137.734 184.478 137.197 185.016 136.447 185.494C135.704 185.971 134.782 186.229 133.68 186.268C131.955 186.328 130.598 185.852 129.61 184.841C128.628 183.829 128.108 182.478 128.049 180.789ZM140.579 190.23L140.036 174.684L142.183 174.609L142.296 176.003L142.35 176.001C142.599 175.541 143.011 175.143 143.587 174.808C144.163 174.472 144.827 174.291 145.578 174.265C146.981 174.216 148.119 174.692 148.993 175.694C149.873 176.688 150.342 178.011 150.4 179.665L150.412 180.008C150.469 181.654 150.097 183.011 149.296 184.078C148.495 185.138 147.396 185.692 146.001 185.741C145.249 185.767 144.593 185.657 144.033 185.412C143.473 185.166 143.027 184.824 142.696 184.384L142.898 190.149L140.579 190.23ZM142.622 182.247C142.838 182.705 143.182 183.109 143.653 183.458C144.131 183.8 144.699 183.959 145.357 183.936C146.323 183.902 147.02 183.53 147.447 182.82C147.88 182.11 148.078 181.218 148.041 180.145L148.025 179.694C147.988 178.613 147.728 177.741 147.246 177.077C146.771 176.406 146.047 176.087 145.074 176.121C144.415 176.144 143.863 176.342 143.418 176.716C142.972 177.09 142.657 177.513 142.473 177.985L142.622 182.247ZM160.025 185.036L155.749 180.187L157.188 178.6L162.805 184.939L160.025 185.036ZM153.806 178.718L155.857 178.646L159.349 174.01L161.969 173.919L157.068 180.399L153.869 180.511L153.806 178.718ZM154.808 174.169L155.194 185.205L152.875 185.286L152.489 174.25L154.808 174.169ZM163.697 173.858L166.016 173.777L166.174 178.286L170.769 178.126L170.611 173.617L172.93 173.536L173.315 184.572L170.997 184.653L170.831 179.919L166.236 180.079L166.402 184.813L164.083 184.894L163.697 173.858ZM176.235 184.47L175.85 173.434L178.148 173.354L178.372 179.795C178.38 180.024 178.386 180.271 178.388 180.536C178.389 180.794 178.387 181.034 178.381 181.256L178.478 181.264C178.571 181.067 178.671 180.867 178.779 180.662C178.893 180.45 179.021 180.213 179.163 179.95L182.925 173.187L185.276 173.105L185.661 184.141L183.364 184.221L183.139 177.769C183.131 177.54 183.126 177.293 183.124 177.028C183.128 176.755 183.134 176.508 183.141 176.286L183.001 176.29C182.915 176.487 182.818 176.691 182.711 176.903C182.611 177.114 182.49 177.351 182.349 177.614L178.587 184.388L176.235 184.47ZM192.295 174.655L192.233 172.862L201.433 172.54L201.496 174.333L198.05 174.454L198.372 183.697L196.053 183.778L195.731 174.535L192.295 174.655ZM202.77 178.191L202.757 177.836C202.699 176.154 203.141 174.777 204.086 173.705C205.03 172.626 206.314 172.058 207.939 172.002C209.556 171.945 210.874 172.422 211.891 173.433C212.907 174.436 213.445 175.779 213.504 177.461L213.516 177.815C213.575 179.497 213.132 180.878 212.188 181.957C211.244 183.029 209.963 183.593 208.346 183.65C206.721 183.706 205.4 183.233 204.383 182.229C203.366 181.219 202.829 179.872 202.77 178.191ZM205.128 177.7L205.144 178.161C205.183 179.264 205.468 180.16 206.001 180.851C206.534 181.535 207.291 181.859 208.271 181.825C209.259 181.791 209.991 181.414 210.467 180.695C210.951 179.969 211.173 179.051 211.134 177.941L211.119 177.491C211.08 176.388 210.795 175.495 210.262 174.812C209.729 174.128 208.973 173.803 207.992 173.838C207.019 173.872 206.287 174.248 205.796 174.968C205.312 175.687 205.09 176.598 205.128 177.7ZM215.735 185.326C216.055 184.864 216.297 184.393 216.459 183.915C216.622 183.436 216.692 182.885 216.67 182.263L216.607 180.448L218.797 180.372L218.86 182.186C218.887 182.959 218.744 183.677 218.43 184.34C218.117 185.003 217.689 185.581 217.147 186.072L215.735 185.326ZM15.8945 201.955C15.9243 202.807 16.1132 203.395 16.4614 203.72C16.8166 204.044 17.3987 204.192 18.2074 204.164C18.8515 204.142 19.4189 204.075 19.9095 203.965C20.4073 203.854 20.9469 203.714 21.5286 203.543L21.5904 205.314C21.0224 205.463 20.4575 205.601 19.8958 205.728C19.3411 205.848 18.62 205.923 17.7325 205.954C16.3655 206.002 15.3416 205.719 14.6609 205.105C13.9871 204.483 13.6266 203.496 13.5794 202.144L13.4737 199.116L15.7926 199.035L15.8945 201.955ZM22.5238 198.8L22.9092 209.836L20.5903 209.917L20.2049 198.881L22.5238 198.8ZM24.3793 200.53L24.3167 198.738L33.5171 198.416L33.5797 200.209L30.1336 200.33L30.4564 209.573L28.1375 209.654L27.8147 200.411L24.3793 200.53ZM34.8538 204.067L34.8414 203.712C34.7827 202.03 35.2255 200.653 36.1697 199.581C37.1138 198.502 38.3981 197.934 40.0228 197.877C41.6403 197.821 42.9575 198.298 43.9746 199.309C44.9913 200.312 45.5291 201.655 45.5878 203.337L45.6002 203.691C45.6589 205.373 45.2163 206.754 44.2722 207.833C43.3279 208.905 42.047 209.469 40.4295 209.526C38.8049 209.582 37.4842 209.109 36.4674 208.105C35.4504 207.095 34.9125 205.748 34.8538 204.067ZM37.2121 203.576L37.2282 204.037C37.2667 205.14 37.5524 206.036 38.0853 206.727C38.618 207.41 39.3746 207.735 40.3551 207.701C41.3428 207.666 42.0748 207.29 42.5513 206.571C43.0348 205.845 43.2571 204.927 43.2184 203.817L43.2026 203.367C43.1641 202.264 42.8786 201.371 42.3459 200.688C41.8133 200.004 41.0567 199.679 40.0762 199.714C39.1028 199.748 38.3707 200.124 37.8799 200.844C37.3962 201.563 37.1736 202.474 37.2121 203.576ZM54.8487 203.207L54.8607 203.551C54.8982 204.624 55.1793 205.492 55.704 206.155C56.2357 206.81 56.9953 207.12 57.983 207.085C58.9707 207.051 59.7033 206.688 60.1808 205.998C60.6652 205.301 60.8886 204.415 60.8512 203.341L60.8392 202.998C60.8022 201.939 60.5214 201.081 59.9969 200.426C59.4724 199.771 58.7164 199.46 57.7287 199.495C56.7338 199.53 55.9941 199.892 55.5094 200.583C55.0319 201.273 54.8117 202.148 54.8487 203.207ZM58.2443 197.639C59.7187 197.587 60.8996 198.058 61.787 199.052C62.6813 200.039 63.1563 201.326 63.2117 202.915L63.2237 203.259C63.2805 204.883 62.8362 206.217 61.8909 207.261C60.9456 208.304 59.6678 208.854 58.0575 208.91C56.3827 208.969 55.0482 208.51 54.0539 207.534C53.0668 206.558 52.5327 204.911 52.4517 202.592L52.4281 201.916C52.3391 199.368 52.6998 197.385 53.5102 195.966C54.3275 194.54 55.8503 193.62 58.0787 193.205C59.2534 192.985 59.935 192.804 60.1235 192.661C60.3191 192.518 60.4315 192.349 60.4605 192.155L62.511 192.083C62.4763 192.937 62.1985 193.599 61.6775 194.069C61.1564 194.538 60.148 194.903 58.6523 195.163C56.9354 195.452 55.7797 196.009 55.185 196.832C54.5903 197.655 54.26 198.763 54.1939 200.156L54.312 200.152C54.6444 199.409 55.1467 198.815 55.8191 198.368C56.4912 197.915 57.2996 197.672 58.2443 197.639ZM64.8492 203.019L64.8368 202.665C64.7781 200.983 65.2208 199.606 66.1651 198.534C67.1092 197.455 68.3935 196.887 70.0182 196.83C71.6357 196.774 72.9529 197.251 73.9699 198.261C74.9867 199.265 75.5245 200.608 75.5832 202.289L75.5956 202.644C75.6543 204.326 75.2116 205.706 74.2676 206.785C73.3233 207.857 72.0424 208.422 70.4249 208.478C68.8003 208.535 67.4796 208.062 66.4628 207.058C65.4458 206.047 64.9079 204.701 64.8492 203.019ZM67.2075 202.528L67.2236 202.99C67.2621 204.092 67.5478 204.989 68.0807 205.679C68.6134 206.363 69.3699 206.688 70.3505 206.653C71.3381 206.619 72.0702 206.242 72.5467 205.523C73.0301 204.797 73.2525 203.879 73.2137 202.77L73.198 202.319C73.1595 201.217 72.8739 200.324 72.3413 199.64C71.8086 198.957 71.0521 198.632 70.0715 198.666C69.0982 198.7 68.3661 199.077 67.8753 199.796C67.3916 200.515 67.169 201.426 67.2075 202.528ZM80.8702 198.558L80.8243 202.784C80.8039 204.662 80.5968 206.016 80.2031 206.847C79.809 207.67 79.0573 208.101 77.948 208.14C77.7047 208.149 77.4786 208.139 77.2698 208.11C77.0612 208.089 76.8879 208.052 76.75 207.999L76.6832 206.088C76.7992 206.127 76.9185 206.155 77.0409 206.173C77.1633 206.19 77.2961 206.196 77.4392 206.191C77.9617 206.173 78.3034 205.903 78.4643 205.381C78.6253 204.86 78.7109 203.925 78.7211 202.578L78.7786 196.836L86.8088 196.555L87.1942 207.592L84.8753 207.673L84.5526 198.429L80.8702 198.558ZM92.0801 196.371L92.2094 200.075L94.743 199.987C96.1243 199.938 97.1915 200.231 97.9445 200.864C98.7044 201.489 99.1041 202.367 99.1436 203.498C99.1834 204.636 98.8461 205.547 98.132 206.232C97.4247 206.908 96.3804 207.271 94.9991 207.319L90.1465 207.489L89.7612 196.452L92.0801 196.371ZM94.5879 201.701L92.269 201.782L92.4058 205.701L94.7247 205.62C95.5192 205.592 96.0711 205.39 96.3804 205.014C96.6969 204.637 96.8447 204.152 96.824 203.558C96.804 202.985 96.6231 202.526 96.2814 202.179C95.9468 201.833 95.3823 201.673 94.5879 201.701ZM101.333 207.098L100.948 196.062L103.267 195.981L103.589 205.224L107.562 205.085L107.239 195.842L109.568 195.761L109.891 205.004L113.863 204.865L113.541 195.622L115.859 195.541L116.245 206.577L101.333 207.098ZM118.334 201.141L118.322 200.797C118.263 199.122 118.692 197.746 119.607 196.668C120.523 195.589 121.75 195.023 123.288 194.97C124.827 194.916 126.036 195.365 126.915 196.316C127.793 197.26 128.262 198.58 128.321 200.276L128.352 201.145L119.806 201.444L119.749 199.801L125.986 199.583L125.979 199.369C125.953 198.624 125.72 197.998 125.279 197.491C124.838 196.976 124.21 196.733 123.394 196.761C122.442 196.794 121.739 197.177 121.284 197.91C120.83 198.642 120.622 199.556 120.66 200.651L120.676 201.113C120.715 202.215 121 203.115 121.533 203.813C122.067 204.511 122.849 204.842 123.879 204.806C124.552 204.782 125.119 204.612 125.581 204.295C126.05 203.977 126.424 203.61 126.703 203.192L128.341 204.231C128.018 204.83 127.482 205.368 126.732 205.845C125.989 206.323 125.066 206.581 123.964 206.619C122.239 206.68 120.882 206.204 119.894 205.192C118.913 204.18 118.393 202.83 118.334 201.141ZM135.495 194.855L137.814 194.774L137.971 199.283L142.566 199.123L142.409 194.614L144.728 194.533L145.113 205.569L142.794 205.65L142.629 200.916L138.034 201.076L138.199 205.81L135.88 205.891L135.495 194.855ZM147.191 200.133L147.179 199.789C147.121 198.115 147.549 196.738 148.465 195.66C149.38 194.582 150.607 194.016 152.146 193.962C153.685 193.908 154.893 194.357 155.772 195.308C156.651 196.252 157.12 197.572 157.179 199.268L157.209 200.138L148.664 200.436L148.606 198.794L154.844 198.576L154.836 198.361C154.81 197.617 154.577 196.991 154.136 196.483C153.696 195.968 153.067 195.725 152.251 195.753C151.299 195.787 150.596 196.169 150.142 196.902C149.687 197.634 149.479 198.548 149.517 199.643L149.533 200.105C149.572 201.207 149.858 202.107 150.391 202.805C150.924 203.503 151.706 203.834 152.737 203.798C153.409 203.775 153.977 203.604 154.438 203.287C154.908 202.97 155.282 202.602 155.561 202.184L157.199 203.223C156.876 203.822 156.339 204.36 155.589 204.838C154.846 205.315 153.924 205.573 152.821 205.612C151.097 205.672 149.74 205.196 148.752 204.184C147.77 203.172 147.25 201.822 147.191 200.133ZM14.9722 234.64L14.4293 219.095L16.5764 219.02L16.6896 220.414L16.7433 220.412C16.9923 219.951 17.4048 219.554 17.9807 219.218C18.5566 218.883 19.2203 218.702 19.9718 218.676C21.3746 218.627 22.5126 219.103 23.386 220.104C24.2663 221.098 24.7353 222.422 24.793 224.075L24.805 224.419C24.8625 226.065 24.4907 227.422 23.6895 228.489C22.8882 229.548 21.7896 230.103 20.394 230.151C19.6425 230.178 18.9866 230.068 18.4262 229.823C17.8659 229.577 17.4204 229.234 17.0897 228.794L17.2911 234.559L14.9722 234.64ZM17.0151 226.658C17.2318 227.116 17.5755 227.52 18.0463 227.869C18.524 228.21 19.0921 228.37 19.7506 228.347C20.7168 228.313 21.4132 227.941 21.8398 227.231C22.2737 226.521 22.4718 225.629 22.4343 224.555L22.4186 224.104C22.3808 223.024 22.1211 222.151 21.6393 221.488C21.1644 220.816 20.4403 220.498 19.4669 220.531C18.8084 220.554 18.2564 220.753 17.8109 221.127C17.3653 221.501 17.0505 221.924 16.8663 222.396L17.0151 226.658ZM26.554 226.486C26.514 225.341 26.9305 224.441 27.8034 223.787C28.6832 223.126 29.8209 222.771 31.2165 222.722L33.6535 222.637L33.6273 221.886C33.6055 221.263 33.4271 220.771 33.0921 220.41C32.7641 220.049 32.2101 219.882 31.43 219.91C30.657 219.937 30.1043 220.113 29.7717 220.44C29.439 220.76 29.2804 221.145 29.2962 221.596L29.3003 221.714L27.0243 221.794L27.0195 221.654C26.9875 220.738 27.3718 219.944 28.1723 219.271C28.9801 218.598 30.0746 218.237 31.4559 218.189C32.8372 218.141 33.9181 218.415 34.6985 219.011C35.4858 219.599 35.9018 220.534 35.9465 221.816L36.122 226.84C36.138 227.298 36.189 227.733 36.2751 228.146C36.3681 228.551 36.4842 228.902 36.6235 229.198L36.6295 229.37L34.3751 229.448C34.2686 229.273 34.1713 229.051 34.083 228.781C34.0017 228.505 33.9419 228.227 33.9035 227.949C33.6757 228.401 33.2708 228.813 32.689 229.185C32.1073 229.556 31.3583 229.758 30.4422 229.79C29.3686 229.827 28.4603 229.569 27.7172 229.014C26.981 228.452 26.5933 227.61 26.554 226.486ZM28.8673 226.244C28.888 226.838 29.0761 227.297 29.4313 227.622C29.7864 227.939 30.3182 228.085 31.0267 228.06C31.7639 228.035 32.4066 227.765 32.9547 227.251C33.5098 226.73 33.7769 226.169 33.7559 225.568L33.7071 224.172L31.6029 224.246C30.6725 224.278 29.977 224.471 29.5164 224.824C29.0629 225.177 28.8465 225.65 28.8673 226.244ZM40.7315 223.712L40.7435 224.056C40.781 225.129 41.0621 225.997 41.5868 226.66C42.1185 227.315 42.8781 227.625 43.8658 227.591C44.8535 227.556 45.5861 227.194 46.0636 226.503C46.548 225.806 46.7714 224.92 46.734 223.847L46.722 223.503C46.685 222.444 46.4042 221.587 45.8797 220.931C45.3553 220.276 44.5992 219.966 43.6115 220C42.6167 220.035 41.8769 220.397 41.3922 221.088C40.9147 221.778 40.6945 222.653 40.7315 223.712ZM44.1271 218.144C45.6015 218.093 46.7824 218.564 47.6698 219.557C48.5641 220.544 49.0391 221.831 49.0945 223.42L49.1065 223.764C49.1633 225.388 48.719 226.722 47.7737 227.766C46.8284 228.809 45.5506 229.359 43.9403 229.415C42.2655 229.474 40.931 229.015 39.9367 228.039C38.9496 227.064 38.4155 225.416 38.3345 223.097L38.3109 222.421C38.2219 219.873 38.5826 217.89 39.393 216.471C40.2103 215.045 41.7331 214.125 43.9615 213.711C45.1362 213.49 45.8178 213.309 46.0063 213.166C46.2019 213.023 46.3143 212.855 46.3433 212.66L48.3938 212.588C48.3592 213.442 48.0813 214.104 47.5603 214.574C47.0392 215.043 46.0308 215.408 44.5351 215.668C42.8182 215.958 41.6625 216.514 41.0678 217.337C40.4731 218.161 40.1428 219.268 40.0767 220.661L40.1948 220.657C40.5272 219.914 41.0295 219.32 41.7019 218.874C42.374 218.42 43.1824 218.177 44.1271 218.144ZM50.732 223.524L50.7196 223.17C50.6609 221.488 51.1036 220.111 52.0479 219.039C52.992 217.96 54.2763 217.392 55.901 217.335C57.5185 217.279 58.8357 217.756 59.8527 218.766C60.8695 219.77 61.4073 221.113 61.466 222.795L61.4784 223.149C61.5371 224.831 61.0944 226.211 60.1504 227.291C59.2061 228.363 57.9252 228.927 56.3077 228.983C54.6831 229.04 53.3624 228.567 52.3456 227.563C51.3286 226.552 50.7907 225.206 50.732 223.524ZM53.0903 223.033L53.1064 223.495C53.1449 224.597 53.4306 225.494 53.9635 226.185C54.4962 226.868 55.2527 227.193 56.2333 227.159C57.2209 227.124 57.953 226.747 58.4295 226.029C58.9129 225.302 59.1353 224.384 59.0965 223.275L59.0808 222.824C59.0423 221.722 58.7567 220.829 58.2241 220.145C57.6914 219.462 56.9349 219.137 55.9543 219.171C54.981 219.205 54.2489 219.582 53.7581 220.301C53.2744 221.021 53.0518 221.931 53.0903 223.033ZM62.4802 219.212L62.4176 217.419L71.6181 217.098L71.6807 218.891L68.2346 219.011L68.5573 228.255L66.2384 228.336L65.9157 219.092L62.4802 219.212ZM73.0823 224.861C73.0423 223.716 73.4588 222.817 74.3316 222.163C75.2114 221.501 76.3492 221.146 77.7448 221.098L80.1818 221.012L80.1555 220.261C80.1338 219.638 79.9554 219.147 79.6203 218.786C79.2924 218.424 78.7384 218.257 77.9583 218.285C77.1853 218.312 76.6326 218.489 76.3 218.816C75.9672 219.135 75.8087 219.521 75.8244 219.972L75.8286 220.09L73.5526 220.169L73.5477 220.03C73.5158 219.113 73.9 218.319 74.7006 217.646C75.5083 216.973 76.6029 216.612 77.9842 216.564C79.3655 216.516 80.4464 216.79 81.2268 217.386C82.0141 217.975 82.4301 218.91 82.4748 220.191L82.6503 225.215C82.6663 225.673 82.7173 226.108 82.8034 226.521C82.8963 226.926 83.0125 227.277 83.1518 227.573L83.1578 227.745L80.9033 227.823C80.7969 227.648 80.6995 227.426 80.6113 227.157C80.53 226.88 80.4702 226.603 80.4318 226.324C80.2039 226.777 79.7991 227.188 79.2173 227.56C78.6355 227.931 77.8866 228.133 76.9705 228.165C75.8969 228.203 74.9886 227.944 74.2455 227.39C73.5093 226.828 73.1215 225.985 73.0823 224.861ZM75.3956 224.619C75.4163 225.213 75.6043 225.672 75.9596 225.997C76.3147 226.314 76.8464 226.46 77.555 226.436C78.2922 226.41 78.9349 226.14 79.483 225.627C80.0381 225.106 80.3051 224.545 80.2841 223.943L80.2354 222.548L78.1312 222.621C77.2008 222.654 76.5053 222.846 76.0446 223.199C75.5912 223.552 75.3748 224.025 75.3956 224.619ZM84.8065 222.324L84.7945 221.98C84.7361 220.305 85.1645 218.929 86.0799 217.851C86.9953 216.772 88.2224 216.206 89.7612 216.153C91.3 216.099 92.5087 216.548 93.3875 217.499C94.266 218.443 94.7349 219.763 94.7942 221.459L94.8245 222.328L86.279 222.627L86.2216 220.984L92.459 220.766L92.4515 220.552C92.4255 219.807 92.1923 219.181 91.7517 218.674C91.311 218.159 90.6826 217.916 89.8667 217.944C88.9148 217.977 88.2116 218.36 87.7571 219.093C87.3026 219.825 87.0944 220.739 87.1327 221.834L87.1488 222.296C87.1873 223.398 87.4731 224.298 88.0062 224.996C88.5394 225.694 89.3213 226.025 90.3519 225.989C91.0247 225.965 91.592 225.795 92.0538 225.478C92.5229 225.16 92.897 224.793 93.1762 224.375L94.814 225.414C94.491 226.013 93.9544 226.551 93.2044 227.028C92.4615 227.506 91.5389 227.764 90.4367 227.802C88.7119 227.863 87.3552 227.387 86.3669 226.375C85.3856 225.363 84.8655 224.013 84.8065 222.324ZM95.7178 218.051L95.6552 216.259L104.856 215.937L104.918 217.73L101.472 217.851L101.795 227.094L99.476 227.175L99.1532 217.932L95.7178 218.051ZM107.141 225.66C107.126 225.245 107.246 224.89 107.501 224.594C107.756 224.299 108.13 224.143 108.624 224.125C109.125 224.108 109.513 224.238 109.788 224.515C110.063 224.792 110.207 225.138 110.222 225.553C110.236 225.961 110.116 226.313 109.861 226.608C109.606 226.904 109.228 227.06 108.727 227.078C108.233 227.095 107.849 226.965 107.574 226.688C107.299 226.411 107.155 226.068 107.141 225.66ZM113.475 225.439C113.46 225.024 113.58 224.669 113.835 224.373C114.09 224.078 114.464 223.921 114.958 223.904C115.459 223.887 115.847 224.016 116.122 224.293C116.397 224.57 116.541 224.917 116.556 225.332C116.57 225.74 116.45 226.091 116.195 226.387C115.94 226.682 115.562 226.839 115.061 226.856C114.567 226.874 114.183 226.744 113.908 226.467C113.633 226.19 113.489 225.847 113.475 225.439ZM119.809 225.218C119.794 224.803 119.914 224.448 120.169 224.152C120.424 223.857 120.798 223.7 121.292 223.683C121.793 223.665 122.181 223.795 122.456 224.072C122.731 224.349 122.875 224.695 122.89 225.11C122.904 225.518 122.784 225.87 122.529 226.166C122.274 226.461 121.896 226.618 121.395 226.635C120.901 226.652 120.517 226.523 120.242 226.246C119.968 225.968 119.823 225.626 119.809 225.218Z" fill="black"/>
<path d="M11.3604 173.075L37.1943 172.172L37.2565 173.955L11.4226 174.857L11.3604 173.075ZM52.6809 171.632L74.039 170.886L74.1012 172.668L52.7432 173.414L52.6809 171.632ZM79.9221 170.68L122.517 169.193L122.579 170.975L79.9844 172.462L79.9221 170.68Z" fill="black"/>
<path d="M92.2626 181.899L186.929 178.593L186.968 179.688L92.3008 182.994L92.2626 181.899Z" fill="black"/>
<g filter="url(#filter0_d_903_6599)">
<rect x="94.7656" y="87.1406" width="3" height="27" rx="1" transform="rotate(-3 94.7656 87.1406)" fill="#FF0000"/>
</g>
<g filter="url(#filter1_d_903_6599)">
<rect x="19" y="5" width="212" height="37" rx="18.5" fill="#EDEDED"/>
</g>
<g filter="url(#filter2_d_903_6599)">
<rect x="189" y="6.89746" width="40" height="33.2051" rx="16.6026" fill="white"/>
</g>
<path d="M35.7341 33.5381H43.5405C48.0283 33.5381 50.8944 31.2662 50.8944 27.8136C50.8944 25.0765 48.8202 23.0909 45.8033 22.9656V22.8404C48.3111 22.5363 49.9705 20.8189 49.9705 18.6007C49.9705 15.4343 47.4626 13.5381 43.2954 13.5381H35.7341C33.9994 13.5381 33 14.4862 33 16.1856V30.8905C33 32.59 33.9994 33.5381 35.7341 33.5381ZM38.3174 30.0855V24.844H41.7492C44.1628 24.844 45.5204 25.7385 45.5204 27.4379C45.5204 29.1732 44.2005 30.0855 41.8246 30.0855H38.3174ZM38.3174 21.7671V17.0443H41.6549C43.5971 17.0443 44.7473 17.903 44.7473 19.3341C44.7473 20.8547 43.4651 21.7671 41.3344 21.7671H38.3174Z" fill="black"/>
<path d="M77.3576 33.5381H86.616C87.4268 33.5381 87.9736 33.073 87.9736 32.3216C87.9736 31.6061 87.4456 31.1409 86.6348 31.1409H83.5613L87.0119 15.9352H90.0855C90.8774 15.9352 91.4431 15.4701 91.4431 14.7187C91.4431 14.0032 90.8963 13.5381 90.1044 13.5381H80.7895C79.9975 13.5381 79.4507 14.0032 79.4507 14.7187C79.4507 15.4701 80.0163 15.9352 80.8083 15.9352H83.8818L80.4123 31.1409H77.3388C76.5468 31.1409 76 31.6061 76 32.3216C76 33.073 76.5657 33.5381 77.3576 33.5381Z" fill="black"/>
<path d="M168.033 33.5381C172.821 33.5381 175.898 31.241 175.898 27.6314C175.898 24.7643 174.095 23.2445 169.817 22.2946L167.505 21.7764C164.738 21.1547 163.591 20.3774 163.591 18.9958C163.591 17.2514 165.412 16.0424 168.015 16.0424C170.291 16.0424 171.874 16.9405 172.657 18.7022C172.93 19.2721 173.313 19.5485 173.95 19.5485C174.805 19.5485 175.333 19.0821 175.333 18.3049C175.333 18.0804 175.297 17.8904 175.242 17.6832C174.587 15.2134 171.692 13.5381 168.015 13.5381C163.61 13.5381 160.497 15.8697 160.497 19.203C160.497 21.9319 162.281 23.5208 166.14 24.3844L168.816 24.9889C171.62 25.6106 172.785 26.4742 172.785 27.9941C172.785 29.773 170.8 31.0338 168.015 31.0338C165.539 31.0338 163.737 30.0493 162.936 28.2531C162.645 27.6314 162.281 27.3723 161.607 27.3723C160.733 27.3723 160.187 27.8904 160.187 28.6849C160.187 28.9612 160.223 29.2203 160.314 29.5139C161.079 31.9837 164.083 33.5381 168.033 33.5381Z" fill="black"/>
<path d="M156.619 23.919H179.448C179.794 23.919 180.085 23.6426 180.085 23.3145C180.085 22.9691 179.794 22.71 179.448 22.71H156.619C156.291 22.71 156 22.9691 156 23.3145C156 23.6426 156.291 23.919 156.619 23.919Z" fill="black"/>
<path d="M202.384 33.5381C203.239 33.5381 203.676 33.2272 203.986 32.3637L209.647 16.975H209.738L215.418 32.3637C215.728 33.2272 216.165 33.5381 217.02 33.5381C217.876 33.5381 218.44 33.0372 218.44 32.26C218.44 32.001 218.386 31.7592 218.258 31.431L211.814 14.9716C211.431 14.0044 210.758 13.5381 209.702 13.5381C208.664 13.5381 207.991 14.0044 207.627 14.9716L201.182 31.4483C201.055 31.7764 201 32.001 201 32.2773C201 33.0545 201.528 33.5381 202.384 33.5381ZM205.369 27.9768H214.071C214.763 27.9768 215.291 27.4586 215.291 26.8196C215.291 26.1633 214.763 25.6625 214.071 25.6625H205.369C204.677 25.6625 204.149 26.1633 204.149 26.8196C204.149 27.4586 204.677 27.9768 205.369 27.9768Z" fill="#FF0000"/>
<path d="M119.764 33.5379H132.095C132.515 33.5379 132.889 33.2252 132.889 32.7987C132.889 32.3723 132.515 32.0596 132.095 32.0596H119.764C119.36 32.0596 119 32.3723 119 32.7987C119 33.2252 119.36 33.5379 119.764 33.5379Z" fill="black"/>
<path d="M125.937 29.9987C130.237 29.9987 132.889 27.568 132.889 24.0854V14.7179C132.889 13.993 132.38 13.5381 131.616 13.5381C130.852 13.5381 130.387 13.993 130.387 14.7179V23.8864C130.387 26.2034 128.754 27.8239 125.937 27.8239C123.12 27.8239 121.502 26.2034 121.502 23.8864V14.7179C121.502 13.993 120.993 13.5381 120.244 13.5381C119.479 13.5381 119 13.993 119 14.7179V24.0854C119 27.568 121.637 29.9987 125.937 29.9987Z" fill="black"/>
</g>
<defs>
<filter id="filter0_d_903_6599" x="90.8167" y="83.0342" width="12.3069" height="35.0186" filterUnits="userSpaceOnUse" color-interpolation-filters="sRGB">
<feFlood flood-opacity="0" result="BackgroundImageFix"/>
<feColorMatrix in="SourceAlpha" type="matrix" values="0 0 0 0 0 0 0 0 0 0 0 0 0 0 0 0 0 0 127 0" result="hardAlpha"/>
<feOffset/>
<feGaussianBlur stdDeviation="2"/>
<feComposite in2="hardAlpha" operator="out"/>
<feColorMatrix type="matrix" values="0 0 0 0 1 0 0 0 0 0 0 0 0 0 0 0 0 0 0.5 0"/>
<feBlend mode="normal" in2="BackgroundImageFix" result="effect1_dropShadow_903_6599"/>
<feBlend mode="normal" in="SourceGraphic" in2="effect1_dropShadow_903_6599" result="shape"/>
</filter>
<filter id="filter1_d_903_6599" x="17" y="5" width="214" height="39" filterUnits="userSpaceOnUse" color-interpolation-filters="sRGB">
<feFlood flood-opacity="0" result="BackgroundImageFix"/>
<feColorMatrix in="SourceAlpha" type="matrix" values="0 0 0 0 0 0 0 0 0 0 0 0 0 0 0 0 0 0 127 0" result="hardAlpha"/>
<feMorphology radius="1" operator="dilate" in="SourceAlpha" result="effect1_dropShadow_903_6599"/>
<feOffset dx="-1" dy="1"/>
<feComposite in2="hardAlpha" operator="out"/>
<feColorMatrix type="matrix" values="0 0 0 0 0 0 0 0 0 0 0 0 0 0 0 0 0 0 0.25 0"/>
<feBlend mode="normal" in2="BackgroundImageFix" result="effect1_dropShadow_903_6599"/>
<feBlend mode="normal" in="SourceGraphic" in2="effect1_dropShadow_903_6599" result="shape"/>
</filter>
<filter id="filter2_d_903_6599" x="185" y="4.89746" width="48" height="41.2051" filterUnits="userSpaceOnUse" color-interpolation-filters="sRGB">
<feFlood flood-opacity="0" result="BackgroundImageFix"/>
<feColorMatrix in="SourceAlpha" type="matrix" values="0 0 0 0 0 0 0 0 0 0 0 0 0 0 0 0 0 0 127 0" result="hardAlpha"/>
<feOffset dy="2"/>
<feGaussianBlur stdDeviation="2"/>
<feComposite in2="hardAlpha" operator="out"/>
<feColorMatrix type="matrix" values="0 0 0 0 0 0 0 0 0 0 0 0 0 0 0 0 0 0 0.1 0"/>
<feBlend mode="normal" in2="BackgroundImageFix" result="effect1_dropShadow_903_6599"/>
<feBlend mode="normal" in="SourceGraphic" in2="effect1_dropShadow_903_6599" result="shape"/>
</filter>
<clipPath id="clip0_903_6599">
<rect width="258" height="244" fill="white"/>
</clipPath>
</defs>
</svg>
