<svg width="539" height="245" viewBox="0 0 539 245" fill="none" xmlns="http://www.w3.org/2000/svg">
<path d="M260.849 28.3399C265.825 28.6007 269.767 28.8045 272.926 29.23C276.126 29.661 278.828 30.3531 281.259 31.7565C285.191 34.0266 288.303 37.4831 290.15 41.6308C291.291 44.1949 291.697 46.9544 291.791 50.1816C291.884 53.3679 291.675 57.3101 291.414 62.2859L289.566 97.5558C289.305 102.532 289.101 106.474 288.676 109.633C288.245 112.833 287.552 115.535 286.149 117.966C283.879 121.897 280.422 125.01 276.275 126.856C273.711 127.998 270.951 128.404 267.724 128.498C264.538 128.591 260.595 128.382 255.62 128.121L65.6509 118.165C60.6751 117.904 56.7327 117.7 53.5735 117.275C50.3738 116.844 47.6718 116.152 45.2412 114.748C41.3091 112.478 38.196 109.022 36.3493 104.874C35.2077 102.31 34.8028 99.5505 34.7086 96.3234C34.6157 93.1371 34.825 89.1948 35.0858 84.2191L37.2294 43.3172C37.3466 41.0808 37.3242 40.7358 37.2567 40.4818C37.1671 40.1451 37.0079 39.8302 36.7897 39.5586C36.6251 39.3536 36.361 39.1317 34.4896 37.9008L14.8156 24.9608C14.1365 24.5142 13.449 24.0652 12.9401 23.6714C12.6802 23.4704 12.3368 23.186 12.021 22.8282C11.7206 22.4878 11.2291 21.8406 11.0336 20.9019C10.7067 19.3317 11.2399 17.7064 12.4336 16.6353L12.5677 16.5201C13.2433 15.9666 13.9546 15.7592 14.3706 15.6689C14.8371 15.5678 15.2823 15.5424 15.6108 15.5344C16.254 15.5188 17.073 15.5641 17.8846 15.6067L260.849 28.3399Z" fill="#F7F7F7" stroke="black" stroke-width="7"/>
<path d="M50.8208 47.0508L51.4905 34.2714L54.0622 34.4062L57.1001 43.7802C57.1608 43.9653 57.2156 44.153 57.2643 44.3433C57.313 44.5336 57.3527 44.7263 57.3836 44.9216L57.445 44.9248C57.5019 44.7342 57.5646 44.5468 57.6329 44.3626C57.7012 44.1784 57.7752 43.9975 57.855 43.8197L61.8561 34.8147L64.4541 34.9508L63.7844 47.7302L61.8359 47.628L62.3023 38.7281C62.3118 38.5468 62.3255 38.3421 62.3433 38.1142C62.3611 37.8863 62.3865 37.6823 62.4194 37.5021L62.3492 37.4984C62.3046 37.678 62.2441 37.8802 62.1678 38.105C62.0914 38.3298 62.0134 38.5311 61.9337 38.7088L58.0618 47.4302L56.3678 47.3415L53.4375 38.2636C53.3768 38.0785 53.3174 37.87 53.2591 37.6381C53.207 37.4007 53.168 37.1933 53.1421 37.0159L53.0806 37.0127C53.0893 37.1833 53.0904 37.3858 53.084 37.6202C53.0835 37.8548 53.0784 38.0628 53.0689 38.2442L52.6025 47.1441L50.8208 47.0508ZM68.8097 38.8316L68.6488 41.9035L70.7377 42.013C71.8845 42.0731 72.748 42.3912 73.328 42.9672C73.9142 43.5378 74.1827 44.2911 74.1337 45.2273C74.0846 46.1636 73.7386 46.8877 73.0957 47.3996C72.4587 47.9119 71.5667 48.138 70.4198 48.0779L66.4087 47.8677L66.8876 38.7308L68.8097 38.8316ZM70.4964 43.4261L68.5742 43.3254L68.4054 46.5466L70.3276 46.6473C70.9829 46.6816 71.453 46.5566 71.7378 46.2723C72.0229 45.9822 72.1782 45.5943 72.2037 45.1086C72.2282 44.6405 72.1135 44.2531 71.8597 43.9464C71.6062 43.6339 71.1517 43.4605 70.4964 43.4261ZM75.1068 48.3235L75.5856 39.1867L77.5253 39.2883L77.0465 48.4252L75.1068 48.3235ZM83.4841 44.318L83.4988 44.0371C83.5718 42.6445 84.0346 41.5393 84.8872 40.7215C85.7459 39.8981 86.8452 39.5215 88.1852 39.5917C89.5251 39.662 90.5762 40.1512 91.3383 41.0596C92.1065 41.9623 92.4542 43.11 92.3812 44.5026L92.3665 44.7835C92.2932 46.182 91.8272 47.2929 90.9684 48.1163C90.1159 48.9341 89.0196 49.3079 87.6797 49.2377C86.3397 49.1675 85.2856 48.681 84.5173 47.7782C83.7552 46.8699 83.4108 45.7165 83.4841 44.318ZM85.476 44.0968L85.4562 44.4742C85.4084 45.387 85.5768 46.1468 85.9616 46.7537C86.3525 47.3551 86.9518 47.6769 87.7592 47.7193C88.5667 47.7616 89.1934 47.504 89.6392 46.9465C90.0911 46.3834 90.341 45.6455 90.3889 44.7327L90.4087 44.3553C90.4565 43.4425 90.2849 42.6854 89.894 42.084C89.5089 41.483 88.9126 41.1613 88.1051 41.1189C87.2977 41.0766 86.6681 41.3341 86.2164 41.8913C85.7706 42.4488 85.5238 43.1839 85.476 44.0968ZM95.7862 44.8571L95.772 45.1292C95.7257 46.0128 95.8955 46.7463 96.2815 47.3298C96.6678 47.9074 97.2677 48.2176 98.081 48.2602C98.9002 48.3031 99.5321 48.0575 99.9767 47.5234C100.422 46.9835 100.667 46.2717 100.713 45.3882L100.728 45.1161C100.773 44.2442 100.603 43.5195 100.217 42.9418C99.8305 42.3642 99.2306 42.0541 98.4173 42.0114C97.5981 41.9685 96.9662 42.2141 96.5216 42.7482C96.0771 43.2823 95.8319 43.9853 95.7862 44.8571ZM98.9884 40.5188C100.211 40.5829 101.152 41.0546 101.81 41.934C102.468 42.8134 102.763 43.9055 102.694 45.2103L102.679 45.4912C102.609 46.8312 102.146 47.8982 101.288 48.6923C100.437 49.4868 99.3443 49.849 98.0102 49.7791C96.6234 49.7064 95.557 49.231 94.8109 48.3529C94.071 47.4692 93.7512 46.0706 93.8515 44.1572L93.8791 43.6306C93.9892 41.53 94.4309 39.9308 95.2042 38.8331C95.9779 37.7295 97.2995 37.0858 99.1691 36.9022C100.154 36.8071 100.725 36.708 100.883 36.6048C101.047 36.5019 101.148 36.3751 101.185 36.2245L102.905 36.3147C102.81 37.0196 102.53 37.5477 102.065 37.8989C101.601 38.2442 100.742 38.4661 99.4868 38.5646C98.049 38.6829 97.0582 39.0593 96.5145 39.6938C95.9708 40.3283 95.6231 41.1961 95.4716 42.2971L95.5681 42.3022C95.8926 41.709 96.3476 41.2546 96.9333 40.9391C97.5251 40.6181 98.2102 40.478 98.9884 40.5188ZM103.511 53.4734L103.6 51.9379C103.75 51.9927 103.915 52.0394 104.095 52.0782C104.28 52.1173 104.458 52.1413 104.628 52.1501C105.031 52.1713 105.39 52.0405 105.704 51.7577C106.018 51.4749 106.349 50.8733 106.697 49.9527L106.671 49.9425L103.69 40.6595L105.594 40.7593L107.361 46.6783C107.431 46.9108 107.487 47.125 107.53 47.3208C107.578 47.517 107.621 47.704 107.659 47.882L107.712 47.8848C107.768 47.7117 107.83 47.5302 107.898 47.3401C107.967 47.1501 108.043 46.9428 108.125 46.7183L110.404 41.0114L112.186 41.1048L107.907 51.2043C107.552 52.054 107.11 52.6939 106.583 53.1239C106.056 53.554 105.421 53.7495 104.678 53.7106C104.432 53.6977 104.216 53.6717 104.031 53.6327C103.845 53.5936 103.672 53.5405 103.511 53.4734ZM114.972 43.6887C114.936 44.3909 115.047 44.8867 115.308 45.1761C115.569 45.4655 116.035 45.6279 116.708 45.6632C117.235 45.6908 117.705 45.6773 118.119 45.6227C118.532 45.5681 118.991 45.4894 119.495 45.3868L119.418 46.8525C118.933 46.9385 118.453 47.0132 117.981 47.0764C117.514 47.1341 116.912 47.1436 116.175 47.105C115.046 47.0458 114.226 46.7388 113.715 46.184C113.205 45.6233 112.979 44.7841 113.037 43.6665L113.169 41.1563L115.1 41.2575L114.972 43.6887ZM120.664 41.5491L120.186 50.686L118.255 50.5848L118.733 41.4479L120.664 41.5491ZM122.634 50.8143L123.113 41.6775L125.018 41.7773L124.74 47.0698C124.731 47.2512 124.717 47.4559 124.699 47.6838C124.688 47.9061 124.669 48.1046 124.642 48.2792L124.729 48.2926C124.819 48.1389 124.919 47.9798 125.027 47.8153C125.135 47.6509 125.253 47.4693 125.381 47.2706L128.985 41.9852L130.925 42.0869L130.446 51.2237L128.541 51.1239L128.819 45.8314C128.828 45.65 128.842 45.4453 128.86 45.2174C128.878 44.9837 128.897 44.7764 128.919 44.5957L128.804 44.5897C128.72 44.7437 128.627 44.906 128.524 45.0766C128.421 45.2473 128.303 45.4318 128.169 45.6301L124.574 50.916L122.634 50.8143ZM135.885 43.8342L135.546 47.2841C135.399 48.8547 135.132 49.9702 134.745 50.6306C134.359 51.2851 133.701 51.5879 132.77 51.5392C132.571 51.5288 132.385 51.5043 132.211 51.4659C132.037 51.4333 131.895 51.3877 131.787 51.3292L131.87 49.7494C131.961 49.7952 132.056 49.8295 132.155 49.8523C132.259 49.8695 132.373 49.8814 132.496 49.8878C132.935 49.9108 133.239 49.7126 133.407 49.2931C133.576 48.8677 133.717 48.0889 133.829 46.9565L134.278 42.2626L140.93 42.6112L140.452 51.7481L138.529 51.6474L138.931 43.9938L135.885 43.8342ZM142.909 51.8769L143.388 42.74L145.293 42.8399L145.015 48.1324C145.006 48.3138 144.992 48.5184 144.974 48.7463C144.963 48.9687 144.943 49.1672 144.917 49.3418L145.004 49.3552C145.094 49.2015 145.194 49.0424 145.302 48.8779C145.41 48.7134 145.528 48.5319 145.656 48.3332L149.26 43.0478L151.2 43.1494L150.721 52.2863L148.816 52.1865L149.094 46.8939C149.103 46.7125 149.117 46.5079 149.134 46.28C149.153 46.0463 149.172 45.839 149.193 45.6582L149.079 45.6522C148.995 45.8062 148.901 45.9686 148.799 46.1392C148.696 46.3098 148.578 46.4943 148.444 46.6927L144.849 51.9786L142.909 51.8769ZM157.158 48.1791L157.173 47.8982C157.246 46.4998 157.695 45.3909 158.518 44.5715C159.347 43.7524 160.432 43.378 161.772 43.4482C163.03 43.5142 163.966 43.8918 164.581 44.5812C165.202 45.2709 165.499 46.0463 165.472 46.9074L165.467 46.9951L163.598 46.8972L163.602 46.8182C163.627 46.3384 163.485 45.9173 163.175 45.5549C162.871 45.1928 162.377 44.9938 161.693 44.9579C160.891 44.9159 160.279 45.1801 159.856 45.7505C159.433 46.3151 159.198 47.0509 159.15 47.9579L159.13 48.3353C159.083 49.2364 159.237 49.9925 159.592 50.6038C159.948 51.215 160.532 51.5419 161.345 51.5845C162.047 51.6213 162.566 51.4725 162.9 51.138C163.234 50.8034 163.414 50.3992 163.439 49.9252L163.443 49.855L165.312 49.953L165.308 50.032C165.263 50.8863 164.893 51.6267 164.197 52.2533C163.501 52.8798 162.524 53.1601 161.266 53.0942C159.932 53.0243 158.896 52.5387 158.157 51.6375C157.418 50.7362 157.085 49.5834 157.158 48.1791ZM166.906 53.1345L167.384 43.9976L171.554 44.2161C172.613 44.2716 173.418 44.5163 173.971 44.9501C174.523 45.378 174.779 45.9899 174.737 46.7857C174.709 47.324 174.528 47.7575 174.193 48.0862C173.859 48.4148 173.423 48.6208 172.885 48.7041L172.884 48.7304C173.528 48.8639 174.022 49.1186 174.366 49.4946C174.716 49.8708 174.876 50.3486 174.845 50.9279C174.802 51.7529 174.47 52.3809 173.849 52.8119C173.234 53.2373 172.406 53.4228 171.364 53.3682L166.906 53.1345ZM169.098 47.9071L171.196 48.0171C171.734 48.0453 172.126 47.9543 172.372 47.7443C172.624 47.5286 172.76 47.2248 172.781 46.8328C172.8 46.4524 172.696 46.1536 172.467 45.9362C172.243 45.7191 171.863 45.5965 171.324 45.5683L169.227 45.4583L169.098 47.9071ZM168.89 51.8743L171.243 51.9976C171.793 52.0264 172.203 51.9277 172.473 51.7012C172.743 51.4748 172.888 51.1598 172.909 50.756C172.93 50.3698 172.817 50.053 172.572 49.8054C172.333 49.5523 171.935 49.4112 171.38 49.3821L169.027 49.2588L168.89 51.8743ZM176.485 49.192L176.5 48.9111C176.573 47.5185 177.036 46.4133 177.888 45.5955C178.747 44.7721 179.846 44.3955 181.186 44.4657C182.526 44.536 183.577 45.0252 184.34 45.9335C185.108 46.8363 185.455 47.984 185.382 49.3766L185.368 49.6575C185.294 51.056 184.828 52.1669 183.97 52.9903C183.117 53.8081 182.021 54.1819 180.681 54.1117C179.341 54.0415 178.287 53.555 177.519 52.6522C176.757 51.7439 176.412 50.5905 176.485 49.192ZM178.477 48.9707L178.457 49.3482C178.41 50.261 178.578 51.0208 178.963 51.6277C179.354 52.2291 179.953 52.5509 180.761 52.5933C181.568 52.6356 182.195 52.378 182.64 51.8205C183.092 51.2574 183.342 50.5195 183.39 49.6067L183.41 49.2293C183.458 48.3164 183.286 47.5594 182.895 46.958C182.51 46.3569 181.914 46.0353 181.106 45.9929C180.299 45.9506 179.669 46.2081 179.218 46.7653C178.772 47.3228 178.525 48.0579 178.477 48.9707ZM187.519 45.0528L189.441 45.1536L189.246 48.8838L191.975 49.0269L191.897 50.5102L189.168 50.3671L188.962 54.2904L187.04 54.1897L187.519 45.0528ZM190.932 49.9491L190.947 49.6683C191.02 48.2756 191.477 47.1701 192.318 46.3517C193.159 45.5274 194.235 45.1496 195.546 45.2183C196.862 45.2873 197.896 45.7756 198.646 46.6833C199.397 47.5852 199.736 48.7324 199.663 50.125L199.648 50.4059C199.575 51.8044 199.117 52.9157 198.276 53.74C197.435 54.5585 196.357 54.9332 195.04 54.8642C193.729 54.7955 192.699 54.3102 191.948 53.4084C191.198 52.5007 190.859 51.3476 190.932 49.9491ZM192.924 49.7367L192.905 50.0965C192.857 51.0152 193.016 51.7775 193.384 52.3835C193.757 52.9839 194.336 53.3047 195.12 53.3458C195.91 53.3872 196.519 53.1287 196.947 52.5702C197.381 52.0063 197.623 51.2649 197.671 50.3463L197.69 49.9864C197.738 49.0678 197.575 48.3082 197.202 47.7078C196.828 47.1073 196.25 46.7866 195.466 46.7455C194.687 46.7047 194.081 46.9634 193.647 47.5215C193.213 48.0796 192.972 48.818 192.924 49.7367ZM205.823 55.1741L206.493 42.3947L208.476 42.4987L207.89 53.6894L213.718 53.9948L213.634 55.5835L205.823 55.1741ZM215.46 55.6791L216.13 42.8998L218.113 43.0038L217.527 54.1945L223.355 54.4999L223.272 56.0885L215.46 55.6791ZM225.097 56.1842L225.767 43.4049L228.339 43.5396L231.377 52.9136C231.437 53.0987 231.492 53.2864 231.541 53.4767C231.589 53.667 231.629 53.8598 231.66 54.055L231.721 54.0582C231.778 53.8676 231.841 53.6802 231.909 53.496C231.978 53.3118 232.052 53.1309 232.131 52.9532L236.133 43.9481L238.731 44.0843L238.061 56.8636L236.112 56.7615L236.579 47.8616C236.588 47.6802 236.602 47.4756 236.62 47.2477C236.638 47.0198 236.663 46.8157 236.696 46.6356L236.626 46.6319C236.581 46.8114 236.521 47.0136 236.444 47.2385C236.368 47.4633 236.29 47.6646 236.21 47.8423L232.338 56.5637L230.644 56.4749L227.714 47.397C227.653 47.2119 227.594 47.0035 227.536 46.7716C227.483 46.5341 227.444 46.3267 227.419 46.1494L227.357 46.1461C227.366 46.3167 227.367 46.5192 227.36 46.7536C227.36 46.9883 227.355 47.1963 227.345 47.3777L226.879 56.2776L225.097 56.1842ZM49.1732 64.55L49.1879 64.2692C49.2612 62.8707 49.7095 61.7618 50.5328 60.9424C51.3619 60.1234 52.4465 59.7489 53.7865 59.8192C55.0445 59.8851 55.9811 60.2628 56.5962 60.9522C57.2172 61.6419 57.514 62.4172 57.4865 63.2783L57.4819 63.3661L55.6124 63.2681L55.6165 63.1891C55.6416 62.7093 55.4994 62.2882 55.1898 61.9258C54.8861 61.5637 54.3919 61.3647 53.7073 61.3288C52.9057 61.2868 52.2934 61.551 51.8704 62.1215C51.4477 62.6861 51.2125 63.4218 51.165 64.3288L51.1452 64.7062C51.098 65.6073 51.252 66.3635 51.6072 66.9747C51.9624 67.5859 52.5467 67.9128 53.36 67.9555C54.0622 67.9923 54.5805 67.8434 54.9148 67.5089C55.2492 67.1744 55.4288 66.7701 55.4537 66.2962L55.4573 66.2259L57.3268 66.3239L57.3227 66.4029C57.2779 67.2572 56.9076 67.9976 56.2118 68.6242C55.5159 69.2507 54.539 69.531 53.2809 69.4651C51.9468 69.3952 50.9103 68.9096 50.1713 68.0084C49.4323 67.1071 49.0996 65.9544 49.1732 64.55ZM59.3992 60.3686L66.9562 60.7646L66.4773 69.9015L64.5464 69.8003L64.9475 62.1467L61.2436 61.9526L60.8425 69.6062L58.9203 69.5054L59.3992 60.3686ZM68.6055 65.5684L68.6202 65.2876C68.6929 63.9008 69.1439 62.795 69.9734 61.9701C70.8087 61.1455 71.8613 60.7664 73.131 60.833C74.4066 60.8998 75.3712 61.3582 76.0249 62.208C76.6848 63.0523 76.978 64.1737 76.9047 65.5721L76.8661 66.3094L69.8182 65.94L69.8904 64.562L75.0162 64.8307L75.0263 64.6376C75.0582 64.029 74.9098 63.502 74.5811 63.0564C74.2585 62.6054 73.7637 62.3623 73.0967 62.3274C72.3126 62.2863 71.7061 62.5508 71.2773 63.1209C70.8543 63.6914 70.619 64.4301 70.5715 65.337L70.5517 65.7144C70.5041 66.6214 70.6725 67.3842 71.0566 68.0028C71.447 68.6159 72.0693 68.9448 72.9236 68.9895C73.4736 69.0184 73.954 68.9203 74.3648 68.6954C74.7758 68.4647 75.1131 68.1861 75.3767 67.8596L76.6362 68.8497C76.3243 69.3145 75.8426 69.7175 75.191 70.0589C74.5397 70.3944 73.7636 70.5386 72.8625 70.4913C71.4289 70.4162 70.3427 69.9251 69.604 69.018C68.8653 68.1109 68.5325 66.9611 68.6055 65.5684ZM85.4875 73.2653L85.6112 70.9042L78.4931 70.5312L78.9719 61.3943L80.8941 61.4951L80.493 69.1486L84.1969 69.3427L84.598 61.6892L86.5289 61.7904L86.1278 69.4439L87.4707 69.5143L87.2692 73.3586L85.4875 73.2653ZM88.7797 71.0703L89.2586 61.9334L91.1632 62.0332L90.8858 67.3258C90.8763 67.5072 90.8627 67.7118 90.8449 67.9397C90.8332 68.1621 90.814 68.3605 90.7872 68.5352L90.8746 68.5485C90.9648 68.3949 91.064 68.2358 91.1724 68.0713C91.2808 67.9068 91.3988 67.7252 91.5266 67.5266L95.1304 62.2412L97.0701 62.3428L96.5913 71.4797L94.6867 71.3799L94.9641 66.0873C94.9736 65.9059 94.9872 65.7013 95.005 65.4734C95.0231 65.2396 95.0428 65.0324 95.064 64.8516L94.9499 64.8456C94.8656 64.9996 94.772 65.1619 94.6692 65.3326C94.5663 65.5032 94.4481 65.6877 94.3145 65.8861L90.7195 71.172L88.7797 71.0703ZM98.6805 68.896C98.7302 67.9481 99.1401 67.2362 99.9102 66.7602C100.686 66.2845 101.654 66.0741 102.812 66.129L104.796 66.233L104.828 65.6273C104.854 65.1241 104.744 64.7106 104.497 64.3866C104.256 64.0572 103.814 63.8756 103.17 63.8418C102.532 63.8084 102.066 63.916 101.771 64.1646C101.483 64.4076 101.329 64.7076 101.31 65.0646L101.306 65.1523L99.4012 65.0525L99.4058 64.9647C99.4457 64.2041 99.8219 63.5754 100.534 63.0788C101.247 62.5764 102.174 62.3551 103.315 62.4149C104.456 62.4747 105.329 62.7815 105.934 63.3354C106.539 63.8834 106.813 64.6841 106.758 65.7373L106.54 69.9064C106.52 70.2809 106.531 70.6393 106.571 70.9818C106.618 71.3187 106.688 71.6157 106.78 71.8728L106.773 72.0133L104.903 71.9153C104.829 71.7706 104.765 71.5824 104.713 71.3508C104.666 71.1137 104.637 70.8834 104.626 70.6598C104.407 71.018 104.045 71.3276 103.538 71.5885C103.038 71.8439 102.41 71.9519 101.656 71.9123C100.772 71.866 100.042 71.5872 99.464 71.0758C98.8926 70.5588 98.6315 69.8322 98.6805 68.896ZM100.618 68.8656C100.593 69.3512 100.71 69.7417 100.971 70.037C101.237 70.3267 101.666 70.4871 102.257 70.518C102.865 70.5499 103.411 70.3732 103.895 69.9878C104.385 69.6028 104.642 69.1645 104.668 68.673L104.729 67.5144L103 67.4238C102.233 67.3836 101.65 67.4938 101.249 67.7545C100.854 68.0095 100.644 68.3799 100.618 68.8656ZM111.861 64.6053L111.521 68.0552C111.375 69.6258 111.108 70.7413 110.721 71.4017C110.335 72.0562 109.676 72.3591 108.746 72.3103C108.547 72.2999 108.361 72.2754 108.187 72.237C108.012 72.2044 107.871 72.1588 107.763 72.1004L107.845 70.5205C107.937 70.5664 108.032 70.6007 108.13 70.6234C108.235 70.6407 108.349 70.6525 108.472 70.6589C108.911 70.6819 109.214 70.4837 109.383 70.0642C109.552 69.6389 109.693 68.86 109.805 67.7276L110.253 63.0337L116.906 63.3824L116.427 72.5192L114.505 72.4185L114.906 64.765L111.861 64.6053ZM121.286 63.6119L121.125 66.6839L123.214 66.7933C124.361 66.8534 125.224 67.1715 125.804 67.7476C126.39 68.3181 126.659 69.0715 126.61 70.0077C126.561 70.9439 126.215 71.668 125.572 72.18C124.935 72.6923 124.043 72.9184 122.896 72.8583L118.885 72.648L119.364 63.5112L121.286 63.6119ZM122.973 68.2065L121.05 68.1057L120.882 71.3269L122.804 71.4276C123.459 71.462 123.929 71.337 124.214 71.0527C124.499 70.7625 124.654 70.3746 124.68 69.8889C124.704 69.4208 124.59 69.0335 124.336 68.7268C124.082 68.4143 123.628 68.2408 122.973 68.2065ZM128.65 63.9978L130.572 64.0986L130.377 67.8288L134.168 68.0275L134.364 64.2973L136.295 64.3985L135.816 73.5354L133.885 73.4342L134.09 69.5108L130.299 69.3121L130.093 73.2354L128.171 73.1347L128.65 63.9978ZM137.961 69.2032L137.976 68.9224C138.049 67.5297 138.512 66.4245 139.365 65.6067C140.223 64.7833 141.323 64.4067 142.663 64.477C144.002 64.5472 145.054 65.0365 145.816 65.9448C146.584 66.8476 146.932 67.9953 146.859 69.3879L146.844 69.6687C146.771 71.0672 146.305 72.1781 145.446 73.0015C144.593 73.8193 143.497 74.1931 142.157 74.1229C140.817 74.0527 139.763 73.5662 138.995 72.6634C138.233 71.7551 137.888 70.6017 137.961 69.2032ZM139.953 68.982L139.934 69.3594C139.886 70.2722 140.054 71.0321 140.439 71.639C140.83 72.2403 141.429 72.5622 142.237 72.6045C143.044 72.6468 143.671 72.3892 144.117 71.8317C144.568 71.2686 144.818 70.5307 144.866 69.6179L144.886 69.2405C144.934 68.3277 144.762 67.5706 144.371 66.9692C143.986 66.3682 143.39 66.0465 142.582 66.0042C141.775 65.9619 141.145 66.2193 140.694 66.7765C140.248 67.334 140.001 68.0692 139.953 68.982ZM159.662 77.1526L159.786 74.7916L153.458 74.4599L153.334 76.8209L151.561 76.728L151.762 72.8837L161.637 73.4012L161.435 77.2455L159.662 77.1526ZM155.579 66.8965L155.278 69.9436C155.2 70.7726 155.107 71.4307 154.999 71.918C154.897 72.3996 154.758 72.8207 154.581 73.181L152.632 73.0789C152.84 72.8023 153.023 72.3953 153.18 71.8579C153.338 71.3146 153.467 70.5292 153.568 69.5019L153.972 65.3249L160.695 65.6772L160.216 74.8141L158.285 74.7129L158.686 67.0594L155.579 66.8965ZM165.945 67.4398L165.605 70.8896C165.459 72.4603 165.192 73.5758 164.805 74.2361C164.419 74.8906 163.76 75.1935 162.83 75.1447C162.631 75.1343 162.445 75.1099 162.271 75.0714C162.096 75.0388 161.955 74.9933 161.847 74.9348L161.929 73.3549C162.021 73.4008 162.116 73.4351 162.214 73.4579C162.319 73.4751 162.433 73.4869 162.556 73.4934C162.995 73.5164 163.298 73.3181 163.467 72.8986C163.636 72.4733 163.777 71.6944 163.889 70.562L164.337 65.8681L170.99 66.2168L170.511 75.3537L168.589 75.2529L168.99 67.5994L165.945 67.4398ZM174.479 75.5616L172.39 75.4521L175.287 71.7227L177.211 71.9643L174.479 75.5616ZM178.463 75.7704L178.634 72.5054L176.642 72.4009L176.393 72.2911C175.269 72.2322 174.416 71.9323 173.835 71.3913C173.253 70.8445 172.985 70.1352 173.031 69.2633C173.077 68.3739 173.419 67.6789 174.055 67.1783C174.692 66.6778 175.572 66.4569 176.695 66.5158L180.864 66.7343L180.385 75.8711L178.463 75.7704ZM176.636 71.0013L178.708 71.1098L178.869 68.0203L176.798 67.9118C176.154 67.878 175.693 68.0005 175.415 68.2793C175.136 68.5581 174.985 68.9257 174.961 69.3821C174.937 69.8326 175.047 70.208 175.289 70.5082C175.538 70.8029 175.987 70.9672 176.636 71.0013ZM187.614 67.088L195.171 67.484L194.692 76.6209L192.761 76.5197L193.162 68.8662L189.458 68.6721L189.057 76.3256L187.135 76.2249L187.614 67.088ZM197.123 76.7483L197.602 67.6115L199.507 67.7113L199.229 73.0038C199.22 73.1852 199.206 73.3899 199.188 73.6178C199.177 73.8401 199.158 74.0386 199.131 74.2132L199.218 74.2266C199.308 74.0729 199.408 73.9138 199.516 73.7493C199.624 73.5849 199.742 73.4033 199.87 73.2046L203.474 67.9192L205.414 68.0209L204.935 77.1577L203.03 77.0579L203.308 71.7654C203.317 71.584 203.331 71.3793 203.349 71.1514C203.367 70.9177 203.386 70.7104 203.408 70.5296L203.293 70.5237C203.209 70.6777 203.115 70.84 203.013 71.0106C202.91 71.1813 202.792 71.3657 202.658 71.5641L199.063 76.85L197.123 76.7483ZM207.072 72.8251L207.086 72.5443C207.16 71.1458 207.608 70.0369 208.431 69.2175C209.26 68.3985 210.345 68.0241 211.685 68.0943C212.943 68.1602 213.88 68.5379 214.495 69.2273C215.116 69.917 215.413 70.6923 215.385 71.5534L215.38 71.6412L213.511 71.5432L213.515 71.4642C213.54 70.9844 213.398 70.5633 213.088 70.2009C212.785 69.8388 212.29 69.6398 211.606 69.6039C210.804 69.5619 210.192 69.8261 209.769 70.3966C209.346 70.9612 209.111 71.6969 209.064 72.6039L209.044 72.9813C208.997 73.8824 209.151 74.6386 209.506 75.2498C209.861 75.861 210.445 76.188 211.259 76.2306C211.961 76.2674 212.479 76.1185 212.813 75.784C213.148 75.4495 213.327 75.0452 213.352 74.5713L213.356 74.5011L215.225 74.599L215.221 74.678C215.176 75.5323 214.806 76.2727 214.11 76.8993C213.414 77.5258 212.438 77.8062 211.179 77.7402C209.845 77.6703 208.809 77.1847 208.07 76.2835C207.331 75.3823 206.998 74.2295 207.072 72.8251ZM216.468 75.069C216.518 74.1211 216.928 73.4092 217.698 72.9332C218.474 72.4575 219.441 72.2471 220.6 72.302L222.584 72.4059L222.615 71.8003C222.642 71.2971 222.531 70.8835 222.284 70.5596C222.043 70.2302 221.601 70.0486 220.958 70.0148C220.32 69.9814 219.854 70.089 219.559 70.3376C219.27 70.5806 219.117 70.8806 219.098 71.2375L219.093 71.3253L217.189 71.2255L217.193 71.1377C217.233 70.377 217.609 69.7484 218.322 69.2518C219.035 68.7494 219.962 68.5281 221.103 68.5878C222.244 68.6476 223.117 68.9545 223.721 69.5084C224.326 70.0564 224.601 70.8571 224.546 71.9103L224.327 76.0794C224.308 76.4539 224.318 76.8123 224.359 77.1548C224.406 77.4917 224.475 77.7887 224.568 78.0458L224.56 78.1862L222.691 78.0883C222.616 77.9435 222.553 77.7554 222.5 77.5238C222.454 77.2867 222.425 77.0564 222.413 76.8328C222.195 77.191 221.833 77.5006 221.326 77.7615C220.826 78.0169 220.198 78.1249 219.443 78.0853C218.56 78.039 217.829 77.7601 217.252 77.2488C216.68 76.7318 216.419 76.0052 216.468 75.069ZM218.406 75.0386C218.381 75.5242 218.498 75.9147 218.758 76.21C219.025 76.4997 219.453 76.6601 220.044 76.691C220.653 76.7229 221.199 76.5462 221.683 76.1608C222.172 75.7757 222.43 75.3375 222.456 74.8459L222.516 73.6874L220.787 73.5968C220.021 73.5566 219.437 73.6668 219.036 73.9274C218.642 74.1825 218.431 74.5529 218.406 75.0386ZM226.094 70.592L226.171 69.1087L233.763 69.5066L233.686 70.9899L230.851 70.8413L230.45 78.4949L228.527 78.3942L228.929 70.7406L226.094 70.592ZM234.474 74.2612L234.488 73.9804C234.561 72.5936 235.012 71.4877 235.841 70.6628C236.677 69.8382 237.729 69.4592 238.999 69.5258C240.275 69.5926 241.239 70.0509 241.893 70.9008C242.553 71.7451 242.846 72.8664 242.773 74.2649L242.734 75.0022L235.686 74.6328L235.758 73.2548L240.884 73.5235L240.894 73.3304C240.926 72.7218 240.778 72.1948 240.449 71.7492C240.127 71.2981 239.632 71.0551 238.965 71.0201C238.181 70.9791 237.574 71.2436 237.145 71.8137C236.722 72.3841 236.487 73.1228 236.44 74.0298L236.42 74.4072C236.372 75.3142 236.541 76.077 236.925 76.6956C237.315 77.3086 237.937 77.6376 238.792 77.6823C239.342 77.7112 239.822 77.6131 240.233 77.3882C240.644 77.1575 240.981 76.8788 241.245 76.5523L242.504 77.5425C242.192 78.0072 241.711 78.4103 241.059 78.7517C240.408 79.0872 239.632 79.2313 238.731 79.1841C237.297 79.109 236.211 78.6179 235.472 77.7108C234.733 76.8037 234.401 75.6538 234.474 74.2612ZM247.36 71.7066L247.021 75.1564C246.874 76.7271 246.607 77.8426 246.221 78.5029C245.834 79.1574 245.176 79.4603 244.246 79.4115C244.047 79.4011 243.86 79.3767 243.686 79.3382C243.512 79.3056 243.371 79.2601 243.262 79.2016L243.345 77.6217C243.436 77.6676 243.531 77.7019 243.63 77.7247C243.735 77.7419 243.849 77.7537 243.971 77.7602C244.41 77.7832 244.714 77.5849 244.883 77.1654C245.052 76.7401 245.192 75.9612 245.304 74.8288L245.753 70.1349L252.406 70.4836L251.927 79.6205L250.005 79.5197L250.406 71.8662L247.36 71.7066ZM254.081 75.2888L254.096 75.008C254.169 73.6212 254.62 72.5154 255.449 71.6904C256.285 70.8658 257.337 70.4868 258.607 70.5534C259.883 70.6202 260.847 71.0786 261.501 71.9284C262.161 72.7727 262.454 73.894 262.381 75.2925L262.342 76.0298L255.294 75.6604L255.366 74.2824L260.492 74.5511L260.502 74.358C260.534 73.7494 260.386 73.2224 260.057 72.7768C259.734 72.3257 259.24 72.0827 258.573 72.0478C257.789 72.0067 257.182 72.2712 256.753 72.8413C256.33 73.4118 256.095 74.1505 256.047 75.0574L256.028 75.4348C255.98 76.3418 256.148 77.1046 256.533 77.7232C256.923 78.3362 257.545 78.6652 258.399 78.7099C258.95 78.7388 259.43 78.6407 259.841 78.4158C260.252 78.1851 260.589 77.9064 260.853 77.5799L262.112 78.5701C261.8 79.0348 261.319 79.4379 260.667 79.7793C260.016 80.1148 259.239 80.2589 258.338 80.2117C256.905 80.1366 255.819 79.6455 255.08 78.7384C254.341 77.8313 254.008 76.6814 254.081 75.2888ZM263.969 80.2516L264.448 71.1147L266.352 71.2145L266.075 76.5071C266.066 76.6885 266.052 76.8931 266.034 77.121C266.022 77.3433 266.003 77.5418 265.977 77.7164L266.064 77.7298C266.154 77.5761 266.253 77.417 266.362 77.2526C266.47 77.0881 266.588 76.9065 266.716 76.7079L270.32 71.4224L272.259 71.5241L271.781 80.661L269.876 80.5611L270.153 75.2686C270.163 75.0872 270.176 74.8826 270.194 74.6547C270.212 74.4209 270.232 74.2137 270.253 74.0329L270.139 74.0269C270.055 74.1809 269.961 74.3432 269.858 74.5139C269.756 74.6845 269.637 74.869 269.504 75.0673L265.909 80.3532L263.969 80.2516ZM268.507 68.5551C268.917 68.5766 269.268 68.4776 269.561 68.2583C269.855 68.0331 270.094 67.6613 270.28 67.143L271.585 67.9331C271.277 68.6621 270.845 69.1822 270.289 69.4934C269.733 69.7987 269.116 69.9336 268.437 69.898C267.752 69.8621 267.152 69.6664 266.637 69.3108C266.128 68.9555 265.749 68.39 265.503 67.6143L266.92 66.9405C267.054 67.5167 267.249 67.9259 267.507 68.1682C267.764 68.4047 268.098 68.5336 268.507 68.5551ZM48.3249 90.9803L48.8037 81.8435L50.7083 81.9433L50.431 87.2358C50.4215 87.4172 50.4078 87.6219 50.39 87.8498C50.3783 88.0721 50.3591 88.2706 50.3324 88.4452L50.4197 88.4586C50.5099 88.3049 50.6092 88.1458 50.7175 87.9813C50.8259 87.8169 50.944 87.6353 51.0717 87.4366L54.6755 82.1512L56.6153 82.2528L56.1364 91.3897L54.2318 91.2899L54.5092 85.9974C54.5187 85.816 54.5323 85.6113 54.5502 85.3834C54.5683 85.1497 54.5879 84.9424 54.6091 84.7616L54.495 84.7557C54.4107 84.9097 54.3171 85.072 54.2143 85.2426C54.1115 85.4133 53.9933 85.5977 53.8596 85.7961L50.2646 91.082L48.3249 90.9803ZM63.356 82.6061L65.2782 82.7069L65.0827 86.4371L68.8744 86.6358L69.0699 82.9056L71.0008 83.0068L70.522 92.1436L68.591 92.0424L68.7966 88.1191L65.0049 87.9204L64.7993 91.8437L62.8772 91.743L63.356 82.6061ZM72.62 89.5604C72.6697 88.6125 73.0796 87.9006 73.8497 87.4246C74.6256 86.9489 75.593 86.7385 76.7519 86.7934L78.7355 86.8974L78.7672 86.2918C78.7936 85.7885 78.6833 85.375 78.4362 85.051C78.1953 84.7216 77.753 84.54 77.1094 84.5063C76.4716 84.4728 76.0054 84.5804 75.7107 84.829C75.4222 85.072 75.2686 85.372 75.2499 85.729L75.2453 85.8167L73.3407 85.7169L73.3453 85.6292C73.3851 84.8685 73.7613 84.2398 74.4738 83.7432C75.1867 83.2408 76.1136 83.0195 77.2546 83.0793C78.3956 83.1391 79.2684 83.4459 79.8731 83.9998C80.4781 84.5478 80.7529 85.3485 80.6977 86.4017L80.4792 90.5708C80.4596 90.9453 80.4702 91.3038 80.5109 91.6462C80.5578 91.9831 80.6273 92.2801 80.7194 92.5372L80.7121 92.6777L78.8426 92.5797C78.768 92.435 78.7045 92.2468 78.6521 92.0153C78.6059 91.7781 78.5769 91.5478 78.5651 91.3242C78.3469 91.6824 77.9845 91.992 77.4779 92.253C76.9775 92.5084 76.3499 92.6163 75.5951 92.5767C74.7116 92.5304 73.981 92.2516 73.4035 91.7402C72.8321 91.2232 72.5709 90.4967 72.62 89.5604ZM74.5578 89.53C74.5324 90.0156 74.6498 90.4061 74.9101 90.7014C75.1765 90.9911 75.6053 91.1515 76.1962 91.1825C76.8048 91.2143 77.3509 91.0376 77.8346 90.6522C78.3242 90.2672 78.5819 89.8289 78.6076 89.3374L78.6684 88.1788L76.9393 88.0882C76.1728 88.048 75.589 88.1582 75.1881 88.4189C74.7934 88.674 74.5833 89.0443 74.5578 89.53ZM86.2546 93.2234C84.8737 93.151 83.8721 92.7817 83.2499 92.1154C82.6279 91.4432 82.3394 90.68 82.3841 89.8257L82.3869 89.7731L84.2564 89.871L84.2536 89.9237C84.2297 90.3801 84.3695 90.7923 84.6729 91.1602C84.9822 91.5285 85.5288 91.7332 86.3129 91.7743C86.9683 91.8086 87.4813 91.7035 87.852 91.4589C88.2289 91.2087 88.4296 90.8496 88.4542 90.3815C88.4744 89.9953 88.3616 89.6843 88.1158 89.4484C87.8762 89.207 87.4755 89.0716 86.9138 89.0422L85.4304 88.9645L85.5031 87.5777L86.7319 87.6421C87.2936 87.6715 87.7003 87.5814 87.9518 87.3716C88.2092 87.1621 88.3481 86.8643 88.3683 86.4781C88.391 86.0451 88.2593 85.7037 87.9731 85.454C87.687 85.2044 87.2747 85.0654 86.7364 85.0372C86.0635 85.0019 85.546 85.1362 85.1839 85.4399C84.8221 85.7378 84.6277 86.1442 84.6007 86.6591L84.598 86.7117L82.7373 86.6142L82.74 86.5616C82.7912 85.5844 83.1771 84.8272 83.8976 84.2899C84.6181 83.7527 85.6074 83.517 86.8654 83.583C88.0474 83.6449 88.9302 83.9288 89.5139 84.4347C90.1038 84.935 90.3776 85.5889 90.3352 86.3963C90.3092 86.8937 90.1196 87.3209 89.7664 87.6779C89.4191 88.0352 88.9557 88.2574 88.3761 88.3443L88.3747 88.3707C89.0486 88.4999 89.5605 88.7526 89.9104 89.1288C90.2662 89.5054 90.4292 89.9775 90.3995 90.545C90.3507 91.4754 89.9388 92.1696 89.1638 92.6278C88.3946 93.0862 87.4249 93.2847 86.2546 93.2234ZM92.3153 93.2858L92.7941 84.1489L96.9632 84.3674C98.0223 84.4229 98.828 84.6675 99.3803 85.1013C99.9328 85.5293 100.188 86.1412 100.147 86.9369C100.118 87.4753 99.9372 87.9088 99.6032 88.2374C99.2691 88.5661 98.8329 88.7721 98.2946 88.8553L98.2932 88.8817C98.9375 89.0152 99.4317 89.2699 99.7758 89.6459C100.126 90.0221 100.285 90.4999 100.255 91.0792C100.212 91.9042 99.8797 92.5322 99.2587 92.9632C98.6438 93.3886 97.8155 93.574 96.774 93.5194L92.3153 93.2858ZM94.5079 88.0584L96.6056 88.1683C97.1439 88.1966 97.5359 88.1056 97.7816 87.8955C98.0335 87.6799 98.1697 87.3761 98.1903 86.984C98.2102 86.6037 98.1056 86.3048 97.8764 86.0875C97.6531 85.8704 97.2723 85.7478 96.7339 85.7196L94.6362 85.6096L94.5079 88.0584ZM94.3 92.0256L96.6522 92.1489C97.2022 92.1777 97.6123 92.0789 97.8823 91.8525C98.1523 91.6261 98.2979 91.311 98.3191 90.9073C98.3393 90.5211 98.2269 90.2042 97.9817 89.9567C97.7426 89.7036 97.3452 89.5625 96.7893 89.5333L94.437 89.4101L94.3 92.0256ZM101.847 91.0922C101.897 90.1443 102.307 89.4323 103.077 88.9564C103.853 88.4807 104.82 88.2703 105.979 88.3252L107.963 88.4291L107.995 87.8235C108.021 87.3203 107.911 86.9067 107.664 86.5828C107.423 86.2533 106.981 86.0717 106.337 86.038C105.699 86.0046 105.233 86.1122 104.938 86.3607C104.65 86.6038 104.496 86.9038 104.477 87.2607L104.473 87.3485L102.568 87.2487L102.573 87.1609C102.613 86.4002 102.989 85.7716 103.701 85.275C104.414 84.7725 105.341 84.5512 106.482 84.611C107.623 84.6708 108.496 84.9777 109.101 85.5316C109.706 86.0796 109.98 86.8802 109.925 87.9335L109.707 92.1026C109.687 92.477 109.698 92.8355 109.738 93.178C109.785 93.5149 109.855 93.8119 109.947 94.069L109.94 94.2094L108.07 94.1114C107.995 93.9667 107.932 93.7786 107.88 93.547C107.833 93.3099 107.804 93.0795 107.793 92.856C107.574 93.2142 107.212 93.5237 106.705 93.7847C106.205 94.0401 105.577 94.148 104.823 94.1085C103.939 94.0622 103.208 93.7833 102.631 93.2719C102.06 92.755 101.798 92.0284 101.847 91.0922ZM103.785 91.0617C103.76 91.5474 103.877 91.9379 104.138 92.2331C104.404 92.5229 104.833 92.6832 105.424 92.7142C106.032 92.7461 106.578 92.5694 107.062 92.184C107.552 91.7989 107.809 91.3606 107.835 90.8691L107.896 89.7106L106.167 89.6199C105.4 89.5798 104.817 89.69 104.416 89.9506C104.021 90.2057 103.811 90.5761 103.785 91.0617ZM115.028 86.8015L114.688 90.2514C114.541 91.822 114.275 92.9375 113.888 93.5979C113.502 94.2524 112.843 94.5552 111.913 94.5065C111.714 94.496 111.528 94.4716 111.354 94.4332C111.179 94.4005 111.038 94.355 110.929 94.2965L111.012 92.7166C111.104 92.7625 111.199 92.7968 111.297 92.8196C111.402 92.8368 111.516 92.8487 111.639 92.8551C112.078 92.8781 112.381 92.6798 112.55 92.2604C112.719 91.835 112.86 91.0562 112.972 89.9238L113.42 85.2299L120.073 85.5785L119.594 94.7154L117.672 94.6147L118.073 86.9611L115.028 86.8015ZM122.052 94.8442L122.531 85.7073L124.435 85.8071L124.158 91.0997C124.148 91.2811 124.135 91.4857 124.117 91.7136C124.105 91.936 124.086 92.1345 124.059 92.3091L124.147 92.3225C124.237 92.1688 124.336 92.0097 124.444 91.8452C124.553 91.6807 124.671 91.4992 124.799 91.3005L128.402 86.0151L130.342 86.1167L129.863 95.2536L127.959 95.1538L128.236 89.8612C128.246 89.6798 128.259 89.4752 128.277 89.2473C128.295 89.0136 128.315 88.8063 128.336 88.6255L128.222 88.6195C128.138 88.7735 128.044 88.9358 127.941 89.1065C127.838 89.2771 127.72 89.4616 127.587 89.66L123.992 94.9459L122.052 94.8442Z" fill="black"/>
<path d="M149.073 91.224L148.951 92.5173C148.793 94.2543 148.426 95.4257 147.848 96.0317C147.271 96.6378 146.357 96.908 145.106 96.8424C144.683 96.8203 144.34 96.7811 144.076 96.7248C143.813 96.6686 143.607 96.6093 143.458 96.547L143.649 92.9031C143.726 92.9374 143.798 92.9654 143.863 92.987C143.935 93.0089 144.025 93.0227 144.134 93.0284C144.388 93.0417 144.565 92.9541 144.666 92.7654C144.773 92.5711 144.853 92.2056 144.905 91.669L145.262 87.7975L154.989 88.3072L154.527 97.1089L149.886 96.8657L150.179 91.2819L149.073 91.224Z" fill="black"/>
<path d="M154.672 97.1165L156.693 88.3965L161.325 88.6393L160.772 91.0372C160.718 91.2586 160.649 91.5277 160.566 91.8445C160.489 92.1616 160.418 92.4214 160.352 92.6241L160.415 92.6364C160.543 92.4007 160.67 92.1771 160.796 91.9656C160.922 91.748 161.079 91.4744 161.266 91.1449L162.857 88.7196L167.543 88.9652L165.532 97.6856L160.9 97.4429L161.453 95.0359C161.525 94.7064 161.592 94.41 161.654 94.1466C161.723 93.8836 161.784 93.6413 161.838 93.42L161.783 93.4171C161.669 93.6353 161.551 93.8534 161.431 94.0713C161.311 94.2831 161.154 94.5627 160.96 94.9101L159.359 97.3621L154.672 97.1165Z" fill="black"/>
<path d="M172.994 92.4776L172.646 93.7591C172.18 95.4799 171.601 96.6403 170.909 97.2403C170.223 97.8406 169.254 98.108 168.004 98.0424C167.581 98.0203 167.24 97.9812 166.983 97.9253C166.725 97.8694 166.528 97.8106 166.392 97.7489L167.217 94.1382C167.294 94.1725 167.366 94.2005 167.431 94.2221C167.497 94.2437 167.584 94.2574 167.693 94.2631C167.946 94.2764 168.142 94.1897 168.279 94.0029C168.416 93.8102 168.559 93.448 168.708 92.9165L169.755 89.0811L179.472 89.5903L177.461 98.3108L172.82 98.0676L174.1 92.5356L172.994 92.4776Z" fill="black"/>
<path d="M185.147 98.7137L185.839 85.5156L197.46 86.1246L196.768 99.3227L191.964 99.0709L192.463 89.5531L190.451 89.4476L189.952 98.9654L185.147 98.7137Z" fill="black"/>
<path d="M197.842 103.115L198.021 100.215C198.243 100.263 198.465 100.305 198.687 100.341C198.91 100.377 199.124 100.401 199.329 100.411C199.758 100.434 200.127 100.383 200.437 100.26C200.752 100.137 200.965 99.8941 201.075 99.5302L201.003 99.5173L197.855 90.5537L202.705 90.8079L203.659 94.4483C203.7 94.5958 203.726 94.7275 203.738 94.8433C203.757 94.9533 203.777 95.0847 203.8 95.2373L203.845 95.2397C203.883 95.0902 203.914 94.9616 203.938 94.8537C203.968 94.7402 204.014 94.6093 204.077 94.4611L205.478 90.9533L209.721 91.1756L205.948 99.6765C205.243 101.233 204.473 102.272 203.64 102.791C202.812 103.318 201.788 103.549 200.568 103.485C200.03 103.457 199.505 103.411 198.993 103.348C198.481 103.291 198.098 103.213 197.842 103.115Z" fill="black"/>
<path d="M208.661 99.946L210.681 91.226L215.322 91.4692L214.041 97.0103L215.265 97.0744L216.537 91.5328L221.178 91.7761L219.906 97.3176L221.121 97.3813L222.402 91.8402L227.043 92.0834L225.032 100.804L208.661 99.946Z" fill="black"/>
<path d="M234.268 101.288L232.21 97.5534L235.723 95.3924L239.589 101.567L234.268 101.288ZM230.145 94.9819L232.792 95.1207L234.521 92.4753L239.597 92.7414L235.396 98.5021L229.976 98.218L230.145 94.9819ZM232.591 92.3742L232.129 101.176L227.479 100.932L227.94 92.1305L232.591 92.3742Z" fill="black"/>
<path d="M238.81 101.526L240.83 92.806L245.462 93.0487L244.909 95.4467C244.855 95.668 244.787 95.9371 244.703 96.2539C244.626 96.571 244.555 96.8309 244.49 97.0335L244.553 97.0459C244.68 96.8102 244.807 96.5866 244.933 96.375C245.06 96.1575 245.217 95.8839 245.404 95.5544L246.994 93.129L251.681 93.3746L249.669 102.095L245.037 101.852L245.591 99.4454C245.662 99.1159 245.729 98.8194 245.792 98.5561C245.86 98.293 245.921 98.0508 245.975 97.8294L245.921 97.8266C245.806 98.0448 245.689 98.2628 245.568 98.4807C245.448 98.6926 245.291 98.9722 245.097 99.3195L243.496 101.772L238.81 101.526Z" fill="black"/>
<path d="M252.977 93.4426L257.618 93.6858L256.985 96.3976L258.372 96.4703L258.996 93.758L263.637 94.0012L261.625 102.722L256.984 102.478L257.632 99.6583L256.254 99.5861L255.607 102.406L250.956 102.163L252.977 93.4426Z" fill="black"/>
<path d="M139.375 80.9971L142 81.1013L140.624 100.997L138 100.893L139.375 80.9971Z" fill="#FF3700"/>
<path d="M265.636 72.7229C264.631 71.7381 264.128 71.2456 264.107 70.8576C264.089 70.5217 264.241 70.1992 264.511 69.9992C264.824 69.7682 265.523 69.8417 266.923 69.9888L501.904 94.6863C512.034 95.751 517.099 96.2834 520.742 98.6674C523.947 100.764 526.399 103.828 527.743 107.414C529.27 111.492 528.68 116.55 527.499 126.667L519.364 196.366C518.207 206.275 517.629 211.23 515.264 214.808C513.184 217.956 510.167 220.37 506.64 221.71C502.631 223.233 497.67 222.712 487.747 221.669L305.731 202.538C295.577 201.471 290.5 200.937 286.853 198.547C283.644 196.444 281.192 193.371 279.852 189.777C278.33 185.69 278.934 180.621 280.144 170.484L288.509 100.371C288.714 98.6509 288.817 97.7906 288.688 96.9725C288.575 96.2478 288.329 95.5501 287.964 94.914C287.552 94.1959 286.933 93.5896 285.695 92.3769L265.636 72.7229Z" fill="#FF0000"/>
<path d="M311.329 94.9323L311.149 96.6417L304.331 95.9251L304.511 94.2157L311.329 94.9323ZM310.025 96.5038L310.169 95.1344C310.342 93.4834 310.146 92.2321 309.581 91.3806C309.023 90.5233 308.181 90.0354 307.054 89.917C305.999 89.8061 305.161 89.993 304.541 90.4776C303.921 90.9558 303.564 91.6417 303.47 92.5352L303.449 92.7392L301.263 92.5095L301.285 92.3055C301.432 90.907 302.03 89.821 303.08 89.0477C304.138 88.2685 305.524 87.9691 307.24 88.1494C309.014 88.3359 310.371 89.0709 311.309 90.3544C312.249 91.6315 312.604 93.3545 312.376 95.5236L312.288 96.3685C312.032 98.7966 311.291 100.525 310.063 101.555C308.836 102.585 307.361 103.009 305.638 102.828C303.936 102.649 302.653 102.053 301.791 101.039C300.936 100.02 300.579 98.8333 300.721 97.4801L300.738 97.3247L302.933 97.5554L302.917 97.7011C302.827 98.5622 303.013 99.3085 303.477 99.9398C303.948 100.572 304.727 100.945 305.815 101.059C307.064 101.191 308.036 100.851 308.73 100.04C309.431 99.2236 309.863 98.0448 310.025 96.5038ZM313.777 94.9049L313.948 93.2732L322.31 94.1521L322.139 95.7838L319.012 95.4551L318.128 103.866L316.01 103.643L316.894 95.2325L313.777 94.9049ZM322.816 99.4292L322.849 99.1184C323.01 97.5839 323.584 96.3906 324.571 95.5385C325.564 94.6806 326.799 94.3293 328.275 94.4844C329.745 94.6389 330.877 95.239 331.67 96.2847C332.464 97.3239 332.781 98.6108 332.619 100.145L332.587 100.456C332.425 101.997 331.847 103.197 330.853 104.054C329.861 104.906 328.629 105.254 327.159 105.1C325.683 104.945 324.548 104.347 323.754 103.308C322.967 102.263 322.654 100.97 322.816 99.4292ZM325.02 99.2975L324.976 99.7151C324.871 100.719 325.014 101.565 325.406 102.254C325.799 102.944 326.442 103.335 327.335 103.429C328.229 103.523 328.939 103.274 329.466 102.681C329.993 102.088 330.309 101.29 330.415 100.287L330.459 99.8691C330.564 98.8656 330.417 98.022 330.018 97.3385C329.625 96.6492 328.986 96.2579 328.099 96.1646C327.212 96.0714 326.501 96.3208 325.968 96.9128C325.441 97.499 325.125 98.2939 325.02 99.2975ZM342.612 97.9356L342.046 101.735C341.788 103.443 341.425 104.648 340.959 105.352C340.499 106.05 339.761 106.346 338.745 106.239C338.524 106.216 338.319 106.178 338.128 106.125C337.943 106.079 337.792 106.024 337.674 105.959L337.857 104.221C337.956 104.271 338.06 104.311 338.168 104.342C338.276 104.373 338.398 104.396 338.534 104.41C339.013 104.46 339.359 104.258 339.57 103.802C339.782 103.346 339.978 102.506 340.159 101.281L340.938 96.11L348.252 96.8786L347.196 106.921L345.079 106.698L345.963 98.2877L342.612 97.9356ZM349.816 102.267L349.849 101.956C350.01 100.422 350.584 99.2284 351.57 98.3763C352.564 97.5184 353.799 97.1671 355.275 97.3222C356.745 97.4767 357.876 98.0768 358.67 99.1225C359.464 100.162 359.78 101.449 359.619 102.983L359.586 103.294C359.424 104.835 358.847 106.034 357.853 106.892C356.86 107.744 355.629 108.092 354.159 107.938C352.683 107.782 351.548 107.185 350.754 106.146C349.967 105.101 349.654 103.808 349.816 102.267ZM352.02 102.135L351.976 102.553C351.87 103.556 352.014 104.403 352.406 105.092C352.798 105.782 353.441 106.173 354.335 106.267C355.228 106.361 355.939 106.112 356.466 105.519C356.993 104.926 357.309 104.128 357.415 103.125L357.458 102.707C357.564 101.703 357.417 100.86 357.017 100.176C356.625 99.4869 355.985 99.0957 355.098 99.0024C354.211 98.9092 353.501 99.1586 352.967 99.7506C352.441 100.337 352.125 101.132 352.02 102.135ZM367.679 109.074L364.408 104.135L365.906 102.868L370.214 109.34L367.679 109.074ZM362.845 102.556L364.7 102.751L368.472 99.0039L370.861 99.255L365.568 104.492L362.674 104.188L362.845 102.556ZM364.325 98.568L363.27 108.61L361.152 108.388L362.208 98.3455L364.325 98.568ZM371.135 106.462C371.245 105.413 371.741 104.65 372.623 104.173C373.505 103.69 374.58 103.515 375.849 103.648L378.054 103.88L378.126 103.2C378.185 102.637 378.086 102.171 377.83 101.804C377.575 101.43 377.095 101.206 376.389 101.132C375.69 101.059 375.17 101.148 374.829 101.4C374.488 101.652 374.297 101.979 374.254 102.381L374.243 102.488L372.156 102.258L372.167 102.152C372.255 101.316 372.705 100.647 373.518 100.143C374.337 99.6334 375.375 99.4446 376.631 99.5767C377.887 99.7087 378.831 100.096 379.464 100.739C380.104 101.375 380.364 102.273 380.242 103.432L379.761 108.007C379.717 108.428 379.708 108.826 379.734 109.202C379.76 109.578 379.819 109.911 379.913 110.203L379.897 110.358L377.838 110.142C377.764 109.97 377.705 109.758 377.659 109.504C377.621 109.245 377.602 108.988 377.603 108.732C377.34 109.117 376.923 109.44 376.352 109.701C375.782 109.955 375.08 110.038 374.244 109.95C373.273 109.848 372.485 109.497 371.881 108.897C371.276 108.296 371.027 107.485 371.135 106.462ZM373.268 106.539C373.212 107.07 373.323 107.504 373.602 107.84C373.881 108.177 374.344 108.38 374.991 108.448C375.658 108.518 376.274 108.357 376.839 107.965C377.405 107.566 377.716 107.095 377.773 106.551L377.907 105.278L375.994 105.077C375.146 104.988 374.492 105.073 374.033 105.333C373.58 105.593 373.325 105.995 373.268 106.539ZM385.909 102.486L385.343 106.286C385.085 107.993 384.722 109.199 384.255 109.903C383.796 110.601 383.058 110.896 382.041 110.79C381.821 110.766 381.616 110.728 381.425 110.676C381.24 110.63 381.088 110.575 380.971 110.51L381.153 108.772C381.253 108.821 381.357 108.862 381.465 108.893C381.573 108.924 381.695 108.946 381.831 108.961C382.31 109.011 382.655 108.808 382.867 108.353C383.078 107.897 383.275 107.057 383.456 105.832L384.235 100.661L391.548 101.429L390.493 111.472L388.376 111.249L389.26 102.838L385.909 102.486ZM396.356 101.935L396.002 105.305L398.303 105.547C399.566 105.679 400.499 106.079 401.104 106.744C401.714 107.411 401.966 108.259 401.857 109.288C401.749 110.324 401.326 111.105 400.59 111.63C399.861 112.155 398.865 112.352 397.602 112.219L393.183 111.754L394.238 101.712L396.356 101.935ZM397.955 107.081L395.838 106.859L395.465 110.413L397.582 110.636C398.301 110.711 398.826 110.6 399.159 110.301C399.491 110.002 399.686 109.584 399.742 109.046C399.797 108.528 399.692 108.092 399.428 107.737C399.165 107.375 398.674 107.157 397.955 107.081ZM404.436 102.784L406.553 103.006L406.123 107.105L410.299 107.544L410.73 103.445L412.847 103.668L411.791 113.71L409.674 113.488L410.127 109.176L405.951 108.737L405.498 113.049L403.381 112.826L404.436 102.784ZM414.218 110.99C414.328 109.941 414.824 109.178 415.706 108.701C416.588 108.218 417.663 108.043 418.932 108.176L421.137 108.408L421.209 107.728C421.268 107.165 421.169 106.7 420.913 106.332C420.658 105.959 420.178 105.735 419.472 105.66C418.773 105.587 418.253 105.676 417.912 105.928C417.571 106.181 417.38 106.507 417.337 106.909L417.326 107.016L415.239 106.787L415.25 106.68C415.338 105.845 415.788 105.175 416.601 104.671C417.42 104.162 418.458 103.973 419.714 104.105C420.97 104.237 421.914 104.624 422.547 105.267C423.187 105.904 423.447 106.801 423.325 107.96L422.844 112.535C422.8 112.956 422.791 113.354 422.817 113.73C422.843 114.106 422.902 114.439 422.996 114.731L422.98 114.886L420.921 114.67C420.847 114.498 420.788 114.286 420.742 114.032C420.704 113.773 420.685 113.516 420.686 113.261C420.423 113.645 420.006 113.968 419.435 114.229C418.865 114.483 418.163 114.566 417.327 114.479C416.356 114.377 415.568 114.025 414.964 113.425C414.359 112.825 414.11 112.013 414.218 110.99ZM416.351 111.067C416.295 111.598 416.406 112.032 416.685 112.369C416.964 112.706 417.427 112.908 418.074 112.976C418.741 113.046 419.357 112.885 419.922 112.493C420.488 112.094 420.799 111.623 420.856 111.079L420.99 109.807L419.077 109.606C418.229 109.516 417.575 109.601 417.116 109.861C416.663 110.121 416.408 110.523 416.351 111.067ZM426.913 115.3L424.621 115.059L428.011 111.114L430.113 111.482L426.913 115.3ZM431.284 115.759L431.661 112.165L429.466 111.935L429.196 111.798C427.966 111.669 427.047 111.288 426.439 110.654C425.831 110.021 425.578 109.225 425.679 108.267C425.781 107.289 426.197 106.544 426.925 106.031C427.653 105.519 428.632 105.327 429.863 105.456L434.456 105.939L433.401 115.981L431.284 115.759ZM429.55 110.392L431.823 110.631L432.18 107.232L429.907 106.993C429.202 106.919 428.686 107.028 428.361 107.321C428.035 107.614 427.846 108.01 427.794 108.509C427.742 109.001 427.842 109.42 428.094 109.768C428.352 110.109 428.838 110.317 429.55 110.392ZM440.792 116.758L441.847 106.716L444.742 107.02L446.686 113.745C446.791 114.116 446.858 114.381 446.887 114.541C446.916 114.702 446.941 114.865 446.963 115.031L447.041 115.039C447.097 114.881 447.155 114.73 447.216 114.586C447.278 114.435 447.399 114.189 447.579 113.848L450.889 107.666L453.745 107.966L452.689 118.009L450.64 117.793L451.328 111.247C451.367 110.878 451.399 110.603 451.424 110.423C451.451 110.236 451.482 110.066 451.517 109.912L451.43 109.903C451.375 110.054 451.312 110.218 451.241 110.394C451.171 110.563 451.045 110.825 450.864 111.179L447.503 117.464L445.803 117.285L443.806 110.408C443.717 110.071 443.653 109.806 443.615 109.612C443.583 109.412 443.557 109.233 443.534 109.073L443.447 109.064C443.443 109.221 443.435 109.39 443.423 109.572C443.417 109.755 443.396 110.014 443.36 110.351L442.666 116.955L440.792 116.758ZM455.29 113.353L455.322 113.042C455.484 111.507 456.058 110.314 457.044 109.462C458.037 108.604 459.272 108.253 460.749 108.408C462.218 108.562 463.35 109.163 464.144 110.208C464.938 111.247 465.254 112.534 465.093 114.069L465.06 114.38C464.898 115.921 464.32 117.12 463.327 117.978C462.334 118.829 461.103 119.178 459.633 119.023C458.157 118.868 457.021 118.271 456.227 117.232C455.44 116.187 455.128 114.894 455.29 113.353ZM457.493 113.221L457.449 113.639C457.344 114.642 457.487 115.489 457.88 116.178C458.272 116.867 458.915 117.259 459.808 117.353C460.702 117.447 461.412 117.197 461.939 116.605C462.466 116.012 462.783 115.214 462.888 114.21L462.932 113.793C463.038 112.789 462.891 111.946 462.491 111.262C462.099 110.573 461.459 110.181 460.572 110.088C459.685 109.995 458.975 110.244 458.441 110.836C457.915 111.423 457.599 112.217 457.493 113.221ZM474.024 122.893L474.299 120.28L467.345 119.549L467.07 122.162L465.118 121.956L465.564 117.712L476.422 118.854L475.976 123.098L474.024 122.893ZM470.113 111.336L469.603 114.69C469.476 115.587 469.339 116.299 469.192 116.827C469.045 117.355 468.866 117.814 468.655 118.204L466.518 117.979C466.766 117.678 466.989 117.237 467.187 116.655C467.393 116.068 467.578 115.217 467.741 114.102L468.439 109.511L475.83 110.288L474.775 120.33L472.657 120.107L473.541 111.697L470.113 111.336ZM477.686 115.707L477.719 115.396C477.879 113.868 478.44 112.673 479.401 111.812C480.369 110.951 481.552 110.594 482.951 110.741C484.356 110.889 485.393 111.45 486.063 112.424C486.741 113.392 486.998 114.646 486.836 116.187L486.751 116.993L478.982 116.177L479.14 114.671L484.802 115.266L484.824 115.063C484.894 114.389 484.76 113.796 484.422 113.282C484.09 112.763 483.555 112.464 482.817 112.387C481.956 112.296 481.274 112.555 480.771 113.164C480.27 113.766 479.966 114.565 479.861 115.562L479.817 115.98C479.712 116.983 479.855 117.836 480.246 118.539C480.637 119.234 481.303 119.632 482.241 119.73C482.85 119.794 483.386 119.713 483.848 119.487C484.318 119.255 484.704 118.968 485.009 118.627L486.351 119.779C485.978 120.277 485.423 120.696 484.687 121.038C483.951 121.373 483.084 121.488 482.087 121.383C480.514 121.218 479.347 120.614 478.586 119.572C477.825 118.53 477.525 117.241 477.686 115.707ZM492.024 113.639L491.457 117.439C491.199 119.146 490.837 120.352 490.37 121.056C489.91 121.754 489.172 122.049 488.156 121.943C487.936 121.92 487.73 121.882 487.539 121.829C487.354 121.783 487.203 121.728 487.085 121.663L487.268 119.925C487.368 119.974 487.471 120.015 487.58 120.046C487.688 120.077 487.81 120.099 487.946 120.114C488.425 120.164 488.77 119.961 488.982 119.506C489.193 119.05 489.389 118.21 489.571 116.985L490.35 111.814L497.663 112.582L496.607 122.625L494.49 122.402L495.374 113.992L492.024 113.639ZM502.47 113.088L502.116 116.458L504.418 116.7C505.681 116.832 506.614 117.232 507.218 117.897C507.829 118.564 508.08 119.412 507.972 120.441C507.863 121.477 507.441 122.258 506.705 122.783C505.975 123.308 504.979 123.505 503.717 123.372L499.298 122.907L500.353 112.865L502.47 113.088ZM504.07 118.234L501.953 118.012L501.579 121.566L503.697 121.789C504.415 121.864 504.941 121.753 505.273 121.454C505.606 121.155 505.8 120.737 505.857 120.199C505.911 119.681 505.807 119.245 505.543 118.89C505.28 118.528 504.789 118.31 504.07 118.234ZM513.213 119.068L513.54 117.266L522.407 118.198L522.08 120L513.213 119.068ZM296.507 124.119L300.408 110.831L301.622 110.959L301.273 112.316L301.254 112.314C301.702 111.91 302.288 111.595 303.012 111.37C303.743 111.146 304.565 111.081 305.478 111.177C306.779 111.314 307.682 111.91 308.187 112.964C308.698 114.013 308.753 115.295 308.352 116.811L308.076 117.754C307.644 119.372 306.906 120.6 305.862 121.44C304.818 122.279 303.684 122.635 302.461 122.506C301.548 122.41 300.819 122.216 300.273 121.923C299.729 121.623 299.324 121.237 299.06 120.764L297.77 124.252L296.507 124.119ZM299.458 118.557C299.585 118.976 299.872 119.383 300.322 119.777C300.779 120.166 301.489 120.411 302.454 120.512C303.458 120.617 304.342 120.426 305.107 119.937C305.878 119.448 306.414 118.742 306.714 117.818L307.09 116.482C307.405 115.481 307.344 114.692 306.907 114.116C306.476 113.541 305.788 113.203 304.843 113.104C303.917 113.007 303.123 113.09 302.46 113.354C301.798 113.612 301.29 113.961 300.936 114.402L299.458 118.557ZM309.082 119.952C309.391 118.754 310.038 117.892 311.023 117.367C312.015 116.836 313.191 116.642 314.551 116.785L317.425 117.087L317.789 115.682C317.977 115.204 317.92 114.809 317.619 114.496C317.318 114.183 316.676 113.974 315.692 113.871C314.72 113.769 313.962 113.853 313.416 114.123C312.872 114.386 312.52 114.772 312.362 115.279L312.298 115.517L311.045 115.386L311.11 115.137C311.367 114.13 311.942 113.356 312.837 112.815C313.732 112.274 314.807 112.069 316.063 112.202C317.294 112.331 318.179 112.689 318.72 113.276C319.267 113.857 319.382 114.701 319.062 115.806L317.581 121.68C317.466 122.093 317.399 122.479 317.381 122.837C317.363 123.195 317.386 123.505 317.45 123.767L317.407 123.9L316.202 123.774C316.137 123.583 316.104 123.334 316.104 123.027C316.104 122.719 316.129 122.417 316.179 122.121C315.794 122.546 315.207 122.906 314.416 123.203C313.633 123.494 312.752 123.588 311.775 123.485C310.706 123.373 309.919 123.018 309.412 122.422C308.912 121.819 308.802 120.996 309.082 119.952ZM310.36 120.125C310.178 120.617 310.261 121.005 310.611 121.291C310.968 121.57 311.573 121.755 312.428 121.845C313.322 121.939 314.19 121.837 315.033 121.539C315.883 121.236 316.404 120.764 316.596 120.123L317.152 118.659L314.472 118.378C313.371 118.262 312.466 118.34 311.756 118.613C311.053 118.886 310.588 119.39 310.36 120.125ZM322.072 118.283L321.708 119.501C321.421 120.368 321.489 121.118 321.914 121.752C322.338 122.386 323.143 122.765 324.327 122.89C325.512 123.014 326.508 122.824 327.314 122.32C328.119 121.815 328.67 121.123 328.965 120.245L329.328 119.036C329.65 118.029 329.595 117.241 329.164 116.672C328.74 116.097 327.916 115.745 326.692 115.616C325.482 115.489 324.484 115.666 323.701 116.146C322.924 116.621 322.381 117.333 322.072 118.283ZM327.298 113.873C328.755 114.026 329.77 114.585 330.343 115.548C330.922 116.513 330.994 117.79 330.558 119.381L330.295 120.296C329.872 121.836 329.089 123.02 327.948 123.849C326.807 124.679 325.489 125.015 323.993 124.858C322.543 124.705 321.479 124.138 320.804 123.157C320.135 122.171 320.034 120.825 320.501 119.119L320.828 117.975C321.582 115.41 322.49 113.532 323.551 112.34C324.619 111.143 325.761 110.592 326.975 110.687C328.365 110.729 329.193 110.724 329.461 110.674C329.728 110.623 329.9 110.481 329.977 110.247L331.706 110.428C331.552 110.897 331.23 111.308 330.741 111.662C330.253 112.01 329.101 112.135 327.285 112.036C326.329 111.916 325.48 112.144 324.738 112.721C323.998 113.291 323.392 114.258 322.921 115.623L322.979 115.629C323.408 115.039 323.971 114.571 324.669 114.225C325.373 113.88 326.249 113.763 327.298 113.873ZM331.852 120.244L332.114 119.338C332.547 117.714 333.342 116.472 334.499 115.612C335.663 114.753 336.996 114.402 338.498 114.56C340.007 114.718 341.09 115.316 341.747 116.354C342.403 117.392 342.511 118.736 342.069 120.385L341.807 121.29C341.365 122.939 340.563 124.187 339.401 125.033C338.239 125.874 336.91 126.215 335.414 126.058C333.912 125.9 332.829 125.305 332.165 124.273C331.508 123.235 331.404 121.892 331.852 120.244ZM333.465 119.284L333.093 120.58C332.781 121.562 332.847 122.364 333.292 122.987C333.738 123.604 334.553 123.974 335.738 124.099C336.93 124.224 337.934 124.045 338.75 123.561C339.568 123.071 340.136 122.335 340.455 121.354L340.817 120.057C341.147 119.037 341.085 118.226 340.631 117.622C340.178 117.011 339.356 116.643 338.165 116.518C336.98 116.393 335.979 116.576 335.161 117.066C334.351 117.551 333.786 118.29 333.465 119.284ZM344.42 117.175L344.715 115.488L353.184 116.378L352.879 118.064L349.285 117.687L346.64 126.973L345.377 126.84L348.013 117.553L344.42 117.175ZM352.379 124.502C352.688 123.304 353.335 122.443 354.32 121.918C355.312 121.387 356.488 121.193 357.847 121.336L360.722 121.638L361.086 120.233C361.273 119.755 361.217 119.36 360.916 119.047C360.615 118.733 359.972 118.525 358.988 118.422C358.017 118.32 357.259 118.404 356.713 118.674C356.168 118.937 355.817 119.322 355.659 119.829L355.594 120.068L354.342 119.936L354.407 119.688C354.663 118.681 355.239 117.906 356.134 117.366C357.029 116.825 358.104 116.62 359.36 116.752C360.59 116.881 361.476 117.24 362.016 117.827C362.564 118.408 362.678 119.251 362.359 120.357L360.878 126.23C360.762 126.644 360.695 127.029 360.677 127.388C360.659 127.746 360.683 128.056 360.747 128.318L360.703 128.451L359.499 128.324C359.434 128.134 359.401 127.885 359.401 127.577C359.4 127.27 359.425 126.968 359.476 126.672C359.091 127.096 358.503 127.457 357.713 127.754C356.929 128.044 356.049 128.138 355.071 128.036C354.003 127.923 353.215 127.569 352.708 126.972C352.209 126.37 352.099 125.547 352.379 124.502ZM353.657 124.676C353.474 125.167 353.558 125.556 353.907 125.841C354.264 126.121 354.87 126.306 355.725 126.396C356.618 126.49 357.486 126.388 358.33 126.09C359.18 125.787 359.701 125.314 359.892 124.673L360.449 123.21L357.768 122.928C356.668 122.813 355.763 122.891 355.053 123.163C354.35 123.436 353.885 123.941 353.657 124.676ZM363.698 123.591L363.96 122.685C364.403 121.023 365.183 119.77 366.3 118.925C367.423 118.081 368.69 117.733 370.102 117.881C371.507 118.029 372.481 118.567 373.025 119.494C373.576 120.423 373.621 121.74 373.16 123.446L372.905 124.745L364.485 123.86L364.774 122.231L371.874 122.977L371.905 123.236C372.222 122.156 372.274 121.32 372.061 120.729C371.849 120.13 371.018 119.755 369.567 119.602C368.57 119.498 367.677 119.715 366.887 120.253C366.104 120.793 365.552 121.583 365.234 122.623L364.862 123.919C364.52 125.055 364.575 125.928 365.028 126.539C365.488 127.15 366.323 127.519 367.534 127.647C368.265 127.724 368.908 127.772 369.463 127.791C370.018 127.803 370.578 127.708 371.142 127.506L371.735 128.216C371.265 128.703 370.656 129.052 369.907 129.261C369.159 129.464 368.293 129.514 367.309 129.41C365.755 129.247 364.651 128.666 363.996 127.668C363.343 126.663 363.243 125.304 363.698 123.591ZM375.168 120.407L375.463 118.72L383.932 119.61L383.627 121.296L380.034 120.918L377.389 130.205L376.126 130.072L378.762 120.785L375.168 120.407ZM388.047 126.15L388.309 125.245C388.741 123.621 389.536 122.379 390.694 121.518C391.858 120.659 393.191 120.308 394.693 120.466C396.201 120.624 397.284 121.223 397.941 122.26C398.598 123.298 398.705 124.642 398.264 126.291L398.002 127.196C397.56 128.845 396.758 130.093 395.595 130.94C394.433 131.78 393.104 132.121 391.609 131.964C390.107 131.806 389.024 131.211 388.36 130.179C387.703 129.141 387.598 127.798 388.047 126.15ZM389.66 125.19L389.288 126.487C388.975 127.468 389.041 128.271 389.486 128.894C389.932 129.51 390.748 129.88 391.933 130.005C393.124 130.13 394.128 129.951 394.945 129.467C395.762 128.977 396.33 128.241 396.65 127.26L397.012 125.963C397.341 124.944 397.279 124.132 396.826 123.528C396.373 122.917 395.551 122.549 394.359 122.424C393.174 122.3 392.173 122.482 391.356 122.973C390.546 123.457 389.98 124.196 389.66 125.19ZM400.762 127.653C400.428 128.711 400.539 129.558 401.094 130.192C401.656 130.821 402.528 131.217 403.709 131.38L406.142 123.643C404.894 123.564 403.822 123.762 402.928 124.238C402.04 124.708 401.429 125.478 401.094 126.549L400.762 127.653ZM410.35 127.522C410.685 126.451 410.571 125.604 410.008 124.982C409.452 124.354 408.587 123.952 407.414 123.777L404.97 131.523C406.218 131.608 407.286 131.412 408.174 130.936C409.069 130.461 409.683 129.691 410.018 128.626L410.35 127.522ZM403.38 133.201C401.897 132.98 400.767 132.37 399.988 131.372C399.216 130.374 399.059 129.029 399.519 127.336L399.751 126.526C400.205 124.826 401.059 123.583 402.313 122.799C403.567 122.014 404.952 121.668 406.467 121.762L407.626 118.398L408.899 118.532L407.74 121.896C409.222 122.117 410.35 122.727 411.122 123.724C411.901 124.723 412.063 126.072 411.61 127.772L411.377 128.582C410.918 130.275 410.061 131.514 408.807 132.299C407.559 133.084 406.174 133.43 404.652 133.335L403.754 135.431L402.482 135.297L403.38 133.201ZM416.668 124.769L414.818 130.603C414.418 131.851 413.974 132.744 413.485 133.282C413.004 133.814 412.43 134.045 411.763 133.974C411.452 133.942 411.246 133.91 411.144 133.88C411.043 133.85 410.946 133.804 410.855 133.742L411.175 131.998C411.274 132.054 411.371 132.1 411.465 132.136C411.554 132.165 411.679 132.188 411.841 132.205C412.178 132.241 412.496 132.104 412.797 131.795C413.105 131.481 413.38 131.042 413.623 130.478L415.808 122.96L423.441 123.762L420.51 134.737L419.238 134.603L421.874 125.316L416.668 124.769ZM423.394 131.966C423.703 130.768 424.35 129.907 425.335 129.382C426.327 128.851 427.503 128.657 428.862 128.8L431.737 129.102L432.101 127.697C432.289 127.219 432.232 126.824 431.931 126.51C431.63 126.197 430.987 125.989 430.003 125.886C429.032 125.784 428.274 125.868 427.728 126.137C427.183 126.401 426.832 126.786 426.674 127.293L426.609 127.532L425.357 127.4L425.422 127.152C425.678 126.145 426.254 125.37 427.149 124.83C428.044 124.289 429.119 124.084 430.375 124.216C431.605 124.345 432.491 124.704 433.031 125.291C433.579 125.872 433.693 126.715 433.374 127.821L431.893 133.694C431.777 134.108 431.711 134.493 431.693 134.852C431.675 135.21 431.698 135.52 431.762 135.782L431.718 135.915L430.514 135.788C430.449 135.598 430.416 135.349 430.416 135.041C430.415 134.734 430.44 134.432 430.491 134.136C430.106 134.56 429.518 134.921 428.728 135.218C427.945 135.508 427.064 135.602 426.086 135.5C425.018 135.387 424.23 135.033 423.724 134.436C423.224 133.834 423.114 133.011 423.394 131.966ZM424.672 132.14C424.489 132.631 424.573 133.02 424.923 133.305C425.279 133.585 425.885 133.77 426.74 133.86C427.633 133.954 428.502 133.852 429.345 133.554C430.195 133.251 430.716 132.778 430.907 132.137L431.464 130.674L428.783 130.392C427.683 130.277 426.778 130.355 426.068 130.627C425.365 130.9 424.9 131.405 424.672 132.14ZM433.913 136.145L436.854 125.172L438.165 125.31L435.909 133.409C435.857 133.594 435.8 133.801 435.736 134.03C435.673 134.259 435.612 134.465 435.553 134.649L435.544 134.648C435.651 134.495 435.767 134.331 435.89 134.154C436.014 133.97 436.157 133.792 436.319 133.619L443.205 125.84L445.226 126.052L442.295 137.026L440.974 136.888L443.254 128.741C443.3 128.556 443.342 128.368 443.382 128.176C443.428 127.984 443.474 127.796 443.52 127.611L443.656 127.625C443.502 127.779 443.369 127.925 443.256 128.064C443.144 128.196 443.004 128.352 442.834 128.53L435.894 136.354L433.913 136.145ZM441.675 123.214C442.231 123.273 442.682 123.124 443.028 122.767C443.38 122.405 443.722 121.924 444.053 121.323L445.315 122.301C444.748 122.843 444.14 123.303 443.491 123.68C442.844 124.05 442.167 124.199 441.461 124.124C440.755 124.05 440.194 123.752 439.778 123.231C439.362 122.703 439.118 122.16 439.045 121.602L440.466 120.976C440.409 121.461 440.457 121.94 440.61 122.415C440.769 122.89 441.124 123.156 441.675 123.214ZM447.828 126.326L449.101 126.459L447.806 131.027L453.798 131.656L455.083 127.088L456.356 127.222L453.415 138.195L452.143 138.061L453.483 133.342L447.501 132.713L446.16 137.433L444.888 137.299L447.828 126.326ZM460.697 133.658L461.024 131.856L469.891 132.788L469.564 134.59L460.697 133.658ZM297.486 133.774L305.8 134.648L304.744 144.69L302.627 144.468L303.511 136.057L299.432 135.628L298.548 144.039L296.43 143.817L297.486 133.774ZM307.335 140.033L307.368 139.723C307.529 138.188 308.103 136.995 309.089 136.143C310.083 135.285 311.318 134.933 312.794 135.089C314.264 135.243 315.395 135.843 316.189 136.889C316.983 137.928 317.299 139.215 317.138 140.75L317.105 141.06C316.943 142.601 316.366 143.801 315.372 144.659C314.379 145.51 313.148 145.858 311.678 145.704C310.202 145.549 309.067 144.952 308.272 143.912C307.485 142.867 307.173 141.574 307.335 140.033ZM309.538 139.902L309.495 140.319C309.389 141.323 309.533 142.169 309.925 142.859C310.317 143.548 310.96 143.94 311.854 144.034C312.747 144.127 313.457 143.878 313.985 143.285C314.512 142.693 314.828 141.895 314.933 140.891L314.977 140.473C315.083 139.47 314.936 138.626 314.536 137.943C314.144 137.253 313.504 136.862 312.617 136.769C311.73 136.676 311.02 136.925 310.486 137.517C309.96 138.103 309.644 138.898 309.538 139.902ZM327.449 142.147C327.281 143.747 326.724 144.961 325.779 145.792C324.834 146.622 323.643 146.962 322.206 146.811C320.801 146.663 319.764 146.187 319.096 145.384C318.434 144.581 318.153 143.707 318.252 142.762L318.261 142.674L320.291 142.888L320.284 142.956C320.227 143.5 320.359 143.985 320.681 144.411C321.01 144.832 321.576 145.085 322.379 145.169C323.22 145.258 323.897 145.015 324.409 144.44C324.922 143.859 325.231 143.063 325.338 142.053L325.405 141.412C325.508 140.435 325.364 139.618 324.975 138.961C324.586 138.305 323.987 137.934 323.177 137.849C322.387 137.766 321.784 137.899 321.368 138.248C320.959 138.591 320.726 139.029 320.67 139.559L320.663 139.627L318.633 139.414L318.653 139.318C318.766 138.374 319.225 137.581 320.033 136.939C320.846 136.298 321.956 136.052 323.361 136.199C324.785 136.349 325.87 136.928 326.615 137.936C327.36 138.944 327.649 140.244 327.481 141.837L327.449 142.147ZM326.486 141.035L326.327 142.54L321.384 142.021L321.542 140.515L326.486 141.035ZM328.869 138.722L329.041 137.091L337.403 137.97L337.231 139.601L334.104 139.273L333.22 147.683L331.103 147.461L331.987 139.05L328.869 138.722ZM337.909 143.247L337.941 142.936C338.103 141.402 338.676 140.208 339.663 139.356C340.656 138.498 341.891 138.147 343.368 138.302C344.837 138.457 345.969 139.057 346.762 140.102C347.557 141.142 347.873 142.428 347.712 143.963L347.679 144.274C347.517 145.815 346.939 147.014 345.946 147.872C344.953 148.723 343.722 149.072 342.252 148.917C340.776 148.762 339.64 148.165 338.846 147.126C338.059 146.081 337.747 144.788 337.909 143.247ZM340.112 143.115L340.068 143.533C339.963 144.536 340.106 145.383 340.499 146.072C340.891 146.761 341.534 147.153 342.427 147.247C343.321 147.341 344.031 147.091 344.558 146.499C345.085 145.906 345.402 145.108 345.507 144.104L345.551 143.687C345.657 142.683 345.51 141.84 345.11 141.156C344.718 140.467 344.078 140.075 343.191 139.982C342.304 139.889 341.594 140.138 341.06 140.73C340.534 141.317 340.218 142.112 340.112 143.115ZM349.245 149.368L350.301 139.325L353.195 139.63L355.139 146.354C355.244 146.725 355.311 146.991 355.34 147.151C355.369 147.311 355.395 147.474 355.416 147.64L355.494 147.648C355.55 147.49 355.608 147.339 355.669 147.195C355.731 147.045 355.852 146.799 356.032 146.458L359.343 140.276L362.198 140.576L361.142 150.618L359.093 150.403L359.781 143.857C359.82 143.488 359.852 143.213 359.878 143.032C359.904 142.845 359.935 142.675 359.971 142.522L359.883 142.512C359.828 142.664 359.765 142.827 359.694 143.003C359.624 143.173 359.498 143.434 359.317 143.788L355.956 150.073L354.256 149.894L352.259 143.017C352.17 142.68 352.107 142.415 352.068 142.221C352.037 142.022 352.01 141.842 351.987 141.683L351.9 141.673C351.896 141.83 351.888 141.999 351.876 142.181C351.87 142.364 351.849 142.624 351.814 142.96L351.119 149.565L349.245 149.368ZM362.641 154.86L362.827 153.181C362.99 153.251 363.17 153.309 363.368 153.356C363.572 153.41 363.768 153.447 363.956 153.467C364.402 153.52 364.808 153.396 365.173 153.094C365.539 152.792 365.941 152.14 366.38 151.139L366.352 151.126L363.596 140.723L365.694 140.943L367.304 147.583C367.369 147.839 367.419 148.077 367.455 148.296C367.498 148.51 367.531 148.72 367.556 148.926L367.614 148.932C367.687 148.737 367.766 148.539 367.853 148.338C367.94 148.131 368.036 147.906 368.14 147.662L370.997 141.501L372.959 141.707L367.652 152.589C367.201 153.517 366.67 154.204 366.06 154.65C365.457 155.098 364.747 155.278 363.931 155.193C363.653 155.163 363.412 155.122 363.208 155.067C363.004 155.013 362.815 154.944 362.641 154.86ZM376.762 156.345L376.948 154.666C377.111 154.735 377.292 154.793 377.49 154.84C377.694 154.894 377.889 154.931 378.077 154.951C378.523 155.005 378.929 154.88 379.295 154.578C379.66 154.276 380.063 153.625 380.502 152.623L380.474 152.611L377.718 142.207L379.816 142.428L381.425 149.068C381.49 149.323 381.54 149.561 381.576 149.781C381.619 149.995 381.653 150.204 381.677 150.41L381.735 150.416C381.808 150.221 381.888 150.023 381.974 149.823C382.062 149.616 382.157 149.39 382.262 149.146L385.118 142.985L387.08 143.191L381.773 154.073C381.322 155.001 380.792 155.688 380.182 156.135C379.578 156.582 378.869 156.763 378.053 156.677C377.774 156.648 377.533 156.606 377.33 156.552C377.126 156.497 376.937 156.429 376.762 156.345ZM393.557 143.645L393.966 141.906C394.225 140.817 394.787 139.922 395.653 139.221C396.519 138.512 397.519 138.041 398.653 137.808L400.102 139.224C399.903 139.549 399.701 139.995 399.497 140.564C399.294 141.126 399.085 141.749 398.869 142.432L398.46 144.16L393.557 143.645ZM400.202 144.343L400.611 142.604C400.87 141.515 401.432 140.62 402.298 139.919C403.164 139.211 404.164 138.74 405.298 138.506L406.748 139.922C406.548 140.247 406.346 140.694 406.142 141.263C405.939 141.825 405.73 142.447 405.514 143.13L405.105 144.859L400.202 144.343ZM416.729 156.461L411.024 150.514L415.852 149.391L423.256 157.147L416.729 156.461ZM409.921 148.681L413.756 149.084L421.779 145.304L426.106 145.759L413.763 151.796L409.222 151.319L409.921 148.681ZM404.86 155.213L408.82 143.942L413.905 144.477L409.945 155.747L404.86 155.213ZM423.801 157.204L426.425 149.4L431.361 149.919L429.819 154.52C429.752 154.744 429.691 154.917 429.634 155.041C429.585 155.165 429.52 155.346 429.437 155.582L429.416 155.58C429.623 155.385 429.766 155.231 429.842 155.117C429.92 154.995 430.137 154.849 430.493 154.678L439.737 150.799L444.801 151.332L442.176 159.135L437.241 158.616L438.789 153.962C438.858 153.782 438.905 153.646 438.928 153.555C438.952 153.464 438.991 153.302 439.044 153.07L439.226 153.09C438.991 153.266 438.839 153.384 438.768 153.441C438.704 153.499 438.483 153.616 438.104 153.793L428.854 157.735L423.801 157.204ZM453.009 154.733L452.088 155.576C451.47 157.484 450.664 158.717 449.669 159.275C448.681 159.833 447.518 160.042 446.179 159.901C445.281 159.807 444.72 159.737 444.494 159.692C444.261 159.646 444.084 159.591 443.961 159.528L444.668 156.805C444.77 156.859 444.881 156.903 445 156.937C445.119 156.964 445.325 156.993 445.617 157.023C445.931 157.056 446.291 156.95 446.698 156.705C447.113 156.46 447.484 155.841 447.812 154.845L449.33 151.808L465.889 153.548L463.265 161.352L458.308 160.831L460.305 155.499L453.009 154.733ZM474.076 156.947L473.156 157.79C472.538 159.698 471.731 160.931 470.736 161.489C469.749 162.048 468.585 162.256 467.246 162.116C466.349 162.021 465.787 161.952 465.562 161.906C465.329 161.86 465.151 161.806 465.028 161.742L465.736 159.019C465.838 159.073 465.949 159.117 466.067 159.151C466.187 159.178 466.393 159.207 466.685 159.238C466.998 159.271 467.359 159.164 467.766 158.919C468.181 158.675 468.552 158.055 468.88 157.06L470.398 154.022L486.957 155.762L484.333 163.566L479.376 163.045L481.373 157.714L474.076 156.947ZM494.66 156.572L493.911 158.146L501.464 158.94C503.302 159.133 504.527 159.528 505.142 160.126C505.763 160.724 505.92 161.554 505.614 162.616C505.31 163.657 504.69 164.391 503.752 164.818C502.814 165.246 501.426 165.363 499.589 165.169L487.089 163.856L489.713 156.052L494.66 156.572ZM499.826 161.165L493.363 160.486L492.567 162.196L499.041 162.876C499.533 162.928 499.896 162.901 500.13 162.796C500.364 162.691 500.545 162.476 500.673 162.151C500.802 161.812 500.816 161.576 500.715 161.443C500.621 161.31 500.325 161.218 499.826 161.165ZM505.678 165.809L508.302 158.006L513.281 158.529L510.657 166.333L505.678 165.809ZM522.547 151.758L522.146 153.412C521.888 154.501 521.326 155.36 520.461 155.989C519.602 156.619 518.582 157.11 517.4 157.461L515.89 156.103C516.083 155.706 516.266 155.239 516.437 154.702C516.616 154.167 516.817 153.554 517.041 152.865L517.44 151.222L522.547 151.758ZM529.192 152.457L528.791 154.111C528.533 155.2 527.971 156.059 527.106 156.688C526.247 157.318 525.227 157.808 524.045 158.159L522.535 156.801C522.728 156.404 522.911 155.937 523.082 155.401C523.261 154.865 523.462 154.253 523.686 153.563L524.085 151.92L529.192 152.457ZM294.046 159.686L294.072 159.437C294.203 158.194 294.655 157.225 295.43 156.532C296.205 155.833 297.191 155.546 298.388 155.672C299.501 155.789 300.317 156.171 300.836 156.817C301.36 157.464 301.59 158.166 301.526 158.924L301.518 159.002L299.847 158.826L299.854 158.764C299.898 158.339 299.794 157.959 299.541 157.624C299.289 157.288 298.854 157.088 298.238 157.023C297.523 156.948 296.964 157.156 296.562 157.648C296.16 158.135 295.916 158.78 295.832 159.583L295.797 159.917C295.712 160.72 295.813 161.403 296.1 161.967C296.392 162.527 296.898 162.845 297.618 162.92C298.25 162.987 298.719 162.879 299.027 162.597C299.339 162.311 299.518 161.96 299.561 161.546L299.567 161.491L301.237 161.667L301.231 161.729C301.151 162.485 300.785 163.128 300.133 163.656C299.485 164.185 298.602 164.391 297.484 164.273C296.292 164.148 295.387 163.665 294.768 162.825C294.155 161.98 293.915 160.934 294.046 159.686ZM302.519 164.567L303.374 156.432L305.076 156.611L304.583 161.304C304.566 161.459 304.545 161.64 304.518 161.847C304.497 162.049 304.473 162.227 304.446 162.381L304.516 162.389C304.602 162.267 304.697 162.133 304.802 161.987C304.911 161.841 305.027 161.683 305.15 161.513L308.611 156.982L310.336 157.164L309.481 165.298L307.78 165.12L308.274 160.419C308.29 160.264 308.312 160.083 308.339 159.876C308.371 159.665 308.401 159.482 308.428 159.328L308.319 159.316C308.243 159.444 308.152 159.584 308.047 159.735C307.947 159.887 307.834 160.045 307.706 160.21L304.244 164.748L302.519 164.567ZM311.621 161.533L311.647 161.284C311.778 160.041 312.23 159.073 313.005 158.379C313.78 157.68 314.766 157.394 315.963 157.519C317.076 157.636 317.892 158.018 318.411 158.664C318.935 159.311 319.165 160.014 319.101 160.771L319.093 160.849L317.422 160.674L317.429 160.611C317.473 160.187 317.369 159.806 317.116 159.471C316.864 159.135 316.429 158.935 315.813 158.87C315.098 158.795 314.539 159.004 314.137 159.496C313.735 159.982 313.491 160.627 313.407 161.43L313.372 161.764C313.287 162.567 313.388 163.25 313.675 163.815C313.967 164.374 314.473 164.692 315.193 164.768C315.825 164.834 316.294 164.726 316.602 164.444C316.915 164.158 317.093 163.807 317.136 163.393L317.142 163.339L318.812 163.514L318.806 163.576C318.726 164.333 318.36 164.975 317.708 165.503C317.061 166.032 316.177 166.238 315.059 166.12C313.867 165.995 312.962 165.512 312.343 164.672C311.731 163.828 311.49 162.781 311.621 161.533ZM319.956 159.51L320.095 158.189L326.847 158.899L326.708 160.22L324.191 159.955L323.474 166.769L321.757 166.589L322.473 159.775L319.956 159.51ZM327.207 163.171L327.233 162.922C327.363 161.69 327.818 160.724 328.598 160.026C329.379 159.322 330.337 159.03 331.471 159.149C332.605 159.269 333.445 159.723 333.991 160.514C334.536 161.299 334.744 162.316 334.613 163.564L334.543 164.225L328.273 163.566L328.403 162.33L332.956 162.809L332.975 162.63C333.036 162.092 332.929 161.617 332.653 161.206C332.383 160.79 331.952 160.551 331.362 160.489C330.662 160.415 330.109 160.624 329.701 161.116C329.298 161.608 329.055 162.258 328.97 163.066L328.935 163.392C328.85 164.2 328.967 164.888 329.284 165.455C329.602 166.023 330.141 166.347 330.902 166.427C331.394 166.478 331.828 166.411 332.204 166.226C332.58 166.04 332.892 165.808 333.141 165.531L334.219 166.485C333.916 166.882 333.464 167.217 332.865 167.489C332.27 167.762 331.574 167.856 330.777 167.772C329.497 167.638 328.548 167.148 327.93 166.303C327.318 165.453 327.077 164.409 327.207 163.171ZM335.681 168.052L336.536 159.917L338.874 160.163L340.454 165.608C340.542 165.921 340.595 166.141 340.613 166.269C340.636 166.392 340.655 166.517 340.668 166.644L340.745 166.652C340.784 166.53 340.826 166.412 340.869 166.296C340.918 166.181 341.015 165.981 341.16 165.698L343.847 160.686L346.162 160.929L345.307 169.064L343.644 168.889L344.202 163.582C344.234 163.277 344.26 163.054 344.28 162.915C344.306 162.771 344.33 162.643 344.352 162.53L344.282 162.523C344.239 162.633 344.192 162.757 344.141 162.893C344.091 163.024 343.987 163.235 343.831 163.528L341.112 168.623L339.729 168.478L338.115 162.903C338.04 162.623 337.989 162.408 337.963 162.259C337.937 162.104 337.917 161.969 337.903 161.852L337.826 161.844C337.824 161.959 337.818 162.087 337.809 162.227C337.805 162.363 337.788 162.573 337.758 162.858L337.196 168.211L335.681 168.052ZM348.19 161.142L349.915 161.324L349.566 164.641L352.931 164.995L353.279 161.677L355.004 161.858L354.149 169.993L352.424 169.812L352.792 166.316L349.427 165.962L349.06 169.458L347.335 169.277L348.19 161.142ZM358.772 162.254L358.486 164.982L360.335 165.176C361.361 165.284 362.12 165.61 362.612 166.154C363.111 166.693 363.316 167.38 363.229 168.214C363.141 169.048 362.797 169.679 362.197 170.109C361.602 170.533 360.792 170.691 359.767 170.584L356.193 170.208L357.048 162.073L358.772 162.254ZM360.061 166.436L358.352 166.256L358.051 169.123L359.76 169.303C360.34 169.364 360.763 169.274 361.029 169.035C361.301 168.792 361.46 168.452 361.505 168.017C361.549 167.597 361.466 167.246 361.255 166.962C361.044 166.672 360.647 166.497 360.061 166.436ZM363.947 171.023L364.802 162.888L366.527 163.069L365.672 171.204L363.947 171.023ZM367.796 167.437L367.822 167.188C367.951 165.956 368.406 164.99 369.187 164.292C369.968 163.588 370.925 163.296 372.06 163.415C373.194 163.535 374.034 163.989 374.579 164.78C375.125 165.565 375.333 166.582 375.201 167.83L375.132 168.491L368.862 167.832L368.992 166.596L373.545 167.075L373.564 166.896C373.625 166.358 373.518 165.883 373.242 165.472C372.971 165.056 372.541 164.817 371.95 164.755C371.251 164.682 370.698 164.89 370.29 165.382C369.887 165.874 369.644 166.524 369.559 167.332L369.524 167.658C369.439 168.466 369.556 169.154 369.873 169.721C370.19 170.289 370.73 170.613 371.491 170.693C371.983 170.744 372.417 170.677 372.793 170.492C373.169 170.306 373.481 170.074 373.73 169.797L374.808 170.751C374.505 171.148 374.053 171.483 373.454 171.755C372.859 172.028 372.163 172.122 371.366 172.038C370.086 171.904 369.137 171.414 368.519 170.569C367.907 169.719 367.666 168.675 367.796 167.437ZM379.907 165.811L380.046 164.49L386.798 165.2L386.659 166.521L384.142 166.256L383.425 173.07L381.708 172.89L382.424 166.076L379.907 165.811ZM386.869 176.708L388.064 165.333L389.649 165.5L389.597 166.523L389.643 166.528C389.869 166.222 390.207 165.977 390.655 165.794C391.104 165.611 391.603 165.548 392.152 165.606C393.188 165.715 393.977 166.182 394.518 167.009C395.065 167.836 395.275 168.854 395.148 170.06L395.122 170.309C394.995 171.516 394.58 172.47 393.878 173.171C393.177 173.867 392.313 174.162 391.288 174.054C390.738 173.996 390.272 173.85 389.888 173.616C389.505 173.377 389.219 173.082 389.03 172.733L388.594 176.889L386.869 176.708ZM389.198 171.14C389.307 171.497 389.516 171.825 389.825 172.125C390.139 172.425 390.537 172.6 391.019 172.651C391.723 172.725 392.267 172.528 392.652 172.06C393.042 171.588 393.278 170.958 393.361 170.171L393.396 169.837C393.479 169.05 393.378 168.387 393.094 167.849C392.816 167.307 392.322 166.998 391.613 166.924C391.131 166.873 390.708 166.962 390.343 167.191C389.985 167.415 389.713 167.688 389.527 168.009L389.198 171.14ZM396.373 170.441L396.399 170.192C396.528 168.959 396.983 167.994 397.764 167.295C398.545 166.592 399.502 166.3 400.637 166.419C401.771 166.538 402.611 166.993 403.156 167.784C403.702 168.569 403.91 169.586 403.778 170.834L403.709 171.494L397.439 170.835L397.569 169.6L402.122 170.079L402.141 169.9C402.202 169.362 402.095 168.887 401.819 168.476C401.548 168.06 401.118 167.821 400.527 167.759C399.828 167.685 399.275 167.894 398.867 168.385C398.464 168.877 398.221 169.527 398.136 170.335L398.101 170.662C398.016 171.47 398.133 172.157 398.45 172.725C398.767 173.292 399.307 173.616 400.068 173.696C400.56 173.748 400.994 173.681 401.37 173.495C401.746 173.31 402.058 173.078 402.307 172.8L403.385 173.754C403.081 174.152 402.63 174.487 402.03 174.759C401.436 175.031 400.74 175.126 399.943 175.042C398.663 174.908 397.714 174.418 397.096 173.572C396.484 172.722 396.243 171.679 396.373 170.441ZM406.631 171.424L406.605 171.673C406.522 172.455 406.639 173.114 406.955 173.65C407.27 174.186 407.79 174.492 408.516 174.568C409.241 174.645 409.813 174.453 410.233 173.995C410.659 173.537 410.912 172.917 410.995 172.134L411.021 171.886C411.101 171.119 410.981 170.468 410.661 169.931C410.345 169.395 409.827 169.09 409.107 169.014C408.377 168.937 407.802 169.128 407.382 169.587C406.962 170.045 406.711 170.658 406.631 171.424ZM409.684 167.708C410.772 167.822 411.59 168.288 412.138 169.105C412.686 169.922 412.899 170.91 412.777 172.07L412.75 172.319C412.625 173.51 412.161 174.441 411.357 175.111C410.559 175.781 409.567 176.054 408.38 175.929C407.142 175.799 406.21 175.324 405.584 174.504C404.964 173.679 404.743 172.415 404.923 170.711L404.971 170.252C405.167 168.388 405.636 166.984 406.38 166.041C407.128 165.098 408.339 164.589 410.012 164.513C410.896 164.475 411.41 164.417 411.555 164.338C411.705 164.254 411.8 164.146 411.84 164.014L413.379 164.176C413.261 164.797 412.985 165.253 412.552 165.542C412.124 165.827 411.342 165.986 410.208 166.019C408.921 166.056 408.021 166.347 407.508 166.89C406.996 167.428 406.647 168.177 406.463 169.137L406.548 169.146C406.87 168.629 407.3 168.243 407.841 167.985C408.381 167.728 408.996 167.635 409.684 167.708ZM414.01 172.294L414.036 172.046C414.167 170.803 414.632 169.835 415.433 169.145C416.234 168.448 417.23 168.163 418.422 168.288C419.613 168.413 420.528 168.9 421.167 169.747C421.812 170.59 422.069 171.633 421.938 172.876L421.912 173.125C421.781 174.373 421.312 175.345 420.506 176.041C419.705 176.732 418.709 177.014 417.518 176.889C416.326 176.764 415.411 176.28 414.771 175.438C414.133 174.591 413.879 173.543 414.01 172.294ZM415.796 172.191L415.761 172.525C415.676 173.339 415.789 174.024 416.103 174.58C416.421 175.137 416.941 175.454 417.661 175.53C418.381 175.605 418.954 175.404 419.382 174.925C419.809 174.446 420.065 173.8 420.151 172.987L420.186 172.653C420.271 171.84 420.155 171.157 419.836 170.605C419.517 170.048 418.998 169.731 418.278 169.656C417.563 169.581 416.992 169.782 416.565 170.261C416.138 170.735 415.882 171.378 415.796 172.191ZM423.074 177.238L423.929 169.103L427.643 169.493C428.586 169.592 429.295 169.847 429.77 170.259C430.245 170.67 430.446 171.23 430.371 171.94C430.321 172.417 430.14 172.796 429.827 173.077C429.515 173.353 429.116 173.515 428.629 173.564L428.627 173.587C429.198 173.736 429.627 173.988 429.914 174.343C430.207 174.693 430.327 175.122 430.274 175.63C430.197 176.365 429.869 176.912 429.292 177.271C428.721 177.624 427.972 177.752 427.044 177.655L423.074 177.238ZM425.282 172.67L427.147 172.866C427.629 172.917 427.986 172.855 428.219 172.68C428.453 172.5 428.588 172.237 428.624 171.89C428.66 171.553 428.581 171.283 428.388 171.08C428.194 170.876 427.857 170.749 427.375 170.698L425.51 170.502L425.282 172.67ZM424.912 176.197L427.01 176.418C427.496 176.469 427.865 176.4 428.115 176.212C428.371 176.019 428.518 175.746 428.555 175.394C428.591 175.052 428.506 174.766 428.299 174.535C428.094 174.298 427.745 174.154 427.253 174.103L425.155 173.882L424.912 176.197ZM431.717 175.726C431.806 174.877 432.209 174.259 432.925 173.874C433.642 173.483 434.515 173.342 435.546 173.45L437.302 173.635L437.358 173.099C437.405 172.653 437.327 172.278 437.123 171.974C436.925 171.67 436.538 171.488 435.963 171.428C435.393 171.368 434.974 171.442 434.706 171.649C434.438 171.857 434.288 172.119 434.255 172.435L434.247 172.505L432.546 172.326L432.554 172.248C432.625 171.575 432.988 171.032 433.644 170.619C434.306 170.206 435.144 170.054 436.159 170.16C437.174 170.267 437.94 170.581 438.456 171.101C438.972 171.621 439.181 172.35 439.083 173.288L438.691 177.009C438.657 177.341 438.649 177.66 438.669 177.965C438.695 178.267 438.743 178.534 438.813 178.766L438.8 178.89L437.122 178.714C437.068 178.583 437.023 178.413 436.987 178.205C436.957 177.992 436.942 177.787 436.942 177.587C436.731 177.895 436.395 178.153 435.933 178.361C435.472 178.569 434.907 178.638 434.238 178.568C433.456 178.486 432.818 178.202 432.325 177.715C431.832 177.223 431.629 176.56 431.717 175.726ZM433.454 175.791C433.409 176.221 433.498 176.573 433.72 176.848C433.943 177.118 434.316 177.28 434.839 177.335C435.383 177.392 435.879 177.261 436.326 176.941C436.779 176.622 437.028 176.245 437.073 175.81L437.182 174.777L435.644 174.615C434.965 174.544 434.442 174.615 434.074 174.827C433.706 175.035 433.5 175.356 433.454 175.791ZM441.395 170.938L443.12 171.12L442.772 174.437L446.136 174.791L446.485 171.473L448.209 171.655L447.354 179.79L445.63 179.608L445.997 176.112L442.633 175.758L442.265 179.255L440.54 179.073L441.395 170.938ZM449.398 180.004L450.253 171.869L451.954 172.048L451.461 176.741C451.445 176.897 451.423 177.078 451.396 177.284C451.375 177.486 451.351 177.664 451.324 177.819L451.394 177.826C451.48 177.704 451.576 177.57 451.68 177.424C451.79 177.278 451.906 177.12 452.028 176.95L455.49 172.42L457.215 172.601L456.36 180.736L454.658 180.557L455.152 175.857C455.168 175.701 455.19 175.52 455.217 175.313C455.25 175.102 455.279 174.919 455.306 174.765L455.197 174.754C455.121 174.882 455.03 175.022 454.925 175.173C454.826 175.325 454.712 175.483 454.585 175.648L451.123 180.186L449.398 180.004ZM459.903 181.108L458.046 180.913L460.825 177.717L462.521 178.021L459.903 181.108ZM463.453 181.482L463.759 178.576L462.003 178.391L461.772 178.273C460.772 178.168 460.024 177.861 459.527 177.353C459.031 176.84 458.824 176.195 458.906 175.418C458.989 174.626 459.328 174.023 459.921 173.608C460.515 173.189 461.312 173.032 462.312 173.137L466.033 173.528L465.178 181.663L463.453 181.482ZM462.048 177.139L463.889 177.333L464.178 174.582L462.337 174.389C461.767 174.329 461.349 174.418 461.083 174.657C460.823 174.892 460.672 175.211 460.629 175.615C460.587 176.014 460.669 176.353 460.876 176.631C461.082 176.909 461.473 177.079 462.048 177.139ZM477.233 182.93L474.566 178.934L475.767 177.89L479.284 183.145L477.233 182.93ZM473.303 177.646L474.794 177.803L477.886 174.774L479.828 174.978L475.494 179.22L473.163 178.975L473.303 177.646ZM474.506 174.419L473.651 182.553L471.926 182.372L472.781 174.237L474.506 174.419ZM479.916 180.792C480.006 179.943 480.408 179.325 481.124 178.94C481.841 178.549 482.715 178.408 483.746 178.516L485.501 178.701L485.558 178.165C485.605 177.719 485.526 177.344 485.323 177.04C485.124 176.736 484.737 176.554 484.162 176.494C483.593 176.434 483.174 176.508 482.906 176.715C482.638 176.923 482.487 177.185 482.454 177.501L482.447 177.571L480.745 177.392L480.753 177.314C480.824 176.641 481.187 176.098 481.844 175.685C482.505 175.272 483.343 175.12 484.358 175.226C485.374 175.333 486.139 175.647 486.655 176.167C487.172 176.687 487.38 177.416 487.282 178.354L486.891 182.075C486.856 182.407 486.849 182.726 486.869 183.031C486.895 183.333 486.943 183.6 487.012 183.832L486.999 183.956L485.321 183.78C485.267 183.649 485.222 183.479 485.186 183.271C485.156 183.058 485.141 182.852 485.141 182.653C484.931 182.961 484.595 183.219 484.133 183.427C483.671 183.635 483.106 183.704 482.438 183.634C481.656 183.552 481.018 183.267 480.524 182.781C480.031 182.289 479.829 181.626 479.916 180.792ZM481.653 180.857C481.608 181.287 481.697 181.639 481.919 181.914C482.142 182.184 482.516 182.346 483.039 182.401C483.583 182.458 484.078 182.327 484.525 182.007C484.978 181.688 485.227 181.311 485.273 180.876L485.381 179.843L483.843 179.681C483.164 179.61 482.641 179.681 482.273 179.893C481.906 180.101 481.699 180.422 481.653 180.857ZM494.047 184.697L491.379 180.701L492.581 179.657L496.098 184.913L494.047 184.697ZM490.116 179.414L491.608 179.57L494.7 176.541L496.642 176.745L492.308 180.987L489.977 180.742L490.116 179.414ZM491.32 176.186L490.465 184.321L488.74 184.139L489.595 176.004L491.32 176.186ZM499.759 188.565L499.912 187.191C500.042 187.247 500.186 187.296 500.344 187.339C500.507 187.382 500.664 187.411 500.814 187.427C501.171 187.465 501.496 187.368 501.787 187.137C502.084 186.906 502.408 186.388 502.76 185.581L502.729 185.57L500.503 177.151L502.205 177.33L503.504 182.682C503.556 182.892 503.595 183.087 503.623 183.268C503.657 183.445 503.684 183.615 503.703 183.78L503.75 183.784C503.813 183.629 503.88 183.468 503.95 183.303C504.02 183.132 504.097 182.949 504.18 182.754L506.463 177.777L508.056 177.945L503.774 186.772C503.42 187.499 502.996 188.042 502.503 188.398C502.01 188.755 501.437 188.899 500.784 188.83C500.567 188.807 500.376 188.774 500.213 188.731C500.05 188.688 499.899 188.632 499.759 188.565ZM300.582 184.473L297.246 178.85L301.576 177.635L306.351 185.08L300.582 184.473ZM294.795 176.658L298.865 177.085L303.645 174.023L308.394 174.522L298.928 180.499L293.888 179.97L294.795 176.658ZM298.536 173.486L295.639 183.954L290.734 183.438L293.631 172.971L298.536 173.486ZM307.685 179.957L307.754 179.679C308.227 177.981 309.388 176.741 311.238 175.96C313.094 175.18 315.287 174.923 317.819 175.189C320.351 175.455 322.275 176.145 323.591 177.259C324.914 178.373 325.339 179.78 324.866 181.478L324.798 181.755C324.317 183.466 323.155 184.712 321.312 185.493C319.47 186.269 317.282 186.523 314.751 186.257C312.219 185.991 310.288 185.304 308.958 184.195C307.635 183.081 307.211 181.668 307.685 179.957ZM312.852 179.94L312.617 180.77C312.434 181.398 312.615 181.886 313.161 182.231C313.708 182.57 314.532 182.797 315.633 182.913C316.733 183.029 317.638 182.983 318.347 182.776C319.064 182.563 319.51 182.142 319.688 181.513L319.922 180.683C320.106 180.054 319.922 179.57 319.368 179.231C318.815 178.891 317.997 178.664 316.916 178.551C315.828 178.436 314.923 178.482 314.201 178.687C313.486 178.894 313.036 179.311 312.852 179.94ZM325.212 187.062L328.109 176.595L334.558 177.272L335.888 182.184C335.927 182.562 335.946 182.812 335.946 182.937C335.947 183.055 335.939 183.191 335.923 183.347L336.001 183.355C336.067 183.224 336.148 183.105 336.244 182.998C336.347 182.891 336.543 182.646 336.832 182.264L340.492 177.896L347.048 178.585L344.141 189.052L339.159 188.528L340.574 183.286C340.708 182.887 340.811 182.591 340.884 182.395C340.963 182.201 341.048 182.013 341.139 181.833L341.071 181.826C340.997 181.975 340.903 182.119 340.79 182.258C340.684 182.391 340.5 182.623 340.236 182.956L335.896 188.185L332.098 187.786L330.767 181.951C330.753 181.713 330.737 181.496 330.718 181.297C330.707 181.093 330.71 180.907 330.728 180.739L330.66 180.732C330.617 180.891 330.572 181.069 330.525 181.267C330.484 181.466 330.401 181.765 330.274 182.164L328.845 187.444L325.212 187.062ZM349.165 178.808L364.734 180.444L361.827 190.91L356.922 190.395L358.924 183.211L353.185 182.608L351.173 189.791L346.268 189.275L349.165 178.808ZM371.756 181.182L370.913 184.246L376.274 184.809C377.938 184.984 379.077 185.424 379.69 186.13C380.303 186.836 380.432 187.822 380.077 189.087C379.735 190.341 379.09 191.219 378.14 191.722C377.191 192.224 375.884 192.388 374.22 192.213L363.944 191.133L366.841 180.666L371.756 181.182ZM374.224 187.5L370.155 187.072L369.606 188.831L373.686 189.26C374.106 189.304 374.429 189.283 374.655 189.195C374.887 189.102 375.059 188.868 375.17 188.493C375.271 188.163 375.243 187.928 375.087 187.787C374.939 187.641 374.651 187.545 374.224 187.5ZM383.352 182.401L388.266 182.917L387.291 186.409L390.884 186.786L389.99 190.061L386.397 189.683L385.36 193.384L380.455 192.868L383.352 182.401ZM388.276 188.427L388.345 188.15C388.818 186.451 389.966 185.211 391.79 184.427C393.62 183.644 395.775 183.383 398.255 183.643C400.735 183.904 402.627 184.59 403.93 185.703C405.24 186.816 405.659 188.222 405.186 189.92L405.108 190.196C404.633 191.907 403.478 193.154 401.641 193.936C399.811 194.719 397.656 194.981 395.176 194.72C392.696 194.459 390.804 193.773 389.501 192.66C388.204 191.549 387.796 190.138 388.276 188.427ZM393.262 188.45L393.059 189.166C392.846 189.889 392.997 190.409 393.514 190.726C394.038 191.036 394.866 191.251 395.999 191.37C397.048 191.48 397.923 191.441 398.624 191.253C399.331 191.065 399.787 190.612 399.994 189.894L400.206 189.18C400.411 188.475 400.239 187.963 399.69 187.643C399.141 187.324 398.336 187.108 397.274 186.997C396.141 186.877 395.236 186.92 394.56 187.124C393.891 187.328 393.458 187.771 393.262 188.45ZM406.543 188.216L407.438 184.932L421.793 186.441L420.907 189.726L416.177 189.229L414.175 196.412L409.261 195.896L411.273 188.713L406.543 188.216ZM421.162 191.884L421.23 191.606C421.701 189.927 422.846 188.692 424.663 187.902C426.489 187.105 428.612 186.834 431.033 187.088C433.481 187.346 435.277 188.009 436.421 189.078C437.566 190.148 437.908 191.503 437.447 193.144L437.1 194.482L424.28 193.134L424.815 191.129L432.808 191.969L432.844 192.1C432.969 191.589 432.862 191.179 432.521 190.868C432.188 190.552 431.361 190.324 430.04 190.185C428.946 190.07 428.065 190.138 427.397 190.388C426.736 190.64 426.302 191.118 426.097 191.823L425.863 192.653C425.661 193.391 425.807 193.933 426.301 194.28C426.802 194.62 427.68 194.857 428.936 194.989C429.785 195.078 430.53 195.087 431.172 195.017C431.822 194.942 432.458 194.714 433.08 194.334L435.984 196.603C435.317 197.338 434.31 197.835 432.96 198.092C431.617 198.35 430.033 198.384 428.207 198.192C425.649 197.923 423.714 197.248 422.4 196.167C421.093 195.087 420.68 193.659 421.162 191.884ZM436.108 204.766L440.343 188.391L445.082 188.889L444.821 190.158L444.812 190.157C445.285 189.761 446 189.473 446.955 189.292C447.911 189.104 448.952 189.07 450.078 189.188C452.105 189.401 453.616 190.035 454.612 191.089C455.614 192.143 455.882 193.513 455.417 195.199L455.338 195.485C454.867 197.158 453.883 198.396 452.384 199.201C450.893 200 449.169 200.297 447.214 200.091C446.1 199.974 445.135 199.755 444.318 199.433C443.501 199.112 442.939 198.725 442.633 198.274L441.012 205.282L436.108 204.766ZM443.422 194.969C443.552 195.356 443.898 195.707 444.46 196.021C445.029 196.336 445.751 196.54 446.625 196.632C447.629 196.737 448.444 196.669 449.072 196.427C449.7 196.186 450.095 195.785 450.259 195.227L450.491 194.416C450.655 193.857 450.515 193.407 450.073 193.066C449.632 192.719 448.887 192.49 447.838 192.38C446.944 192.286 446.161 192.328 445.488 192.506C444.822 192.678 444.332 192.918 444.018 193.225L443.422 194.969ZM458.446 190.294L463.361 190.81L462.385 194.301L468.144 194.907L469.13 191.416L474.034 191.932L471.137 202.399L466.223 201.883L467.26 198.182L461.491 197.576L460.454 201.277L455.549 200.761L458.446 190.294ZM474.19 197.457L474.258 197.179C474.731 195.481 475.893 194.242 477.742 193.461C479.598 192.68 481.792 192.423 484.324 192.689C486.855 192.956 488.78 193.645 490.096 194.759C491.419 195.874 491.844 197.28 491.371 198.978L491.303 199.256C490.822 200.966 489.66 202.212 487.817 202.994C485.974 203.769 483.787 204.024 481.256 203.757C478.724 203.491 476.793 202.804 475.463 201.695C474.14 200.581 473.715 199.168 474.19 197.457ZM479.357 197.44L479.122 198.27C478.938 198.899 479.119 199.386 479.666 199.731C480.213 200.07 481.037 200.298 482.137 200.413C483.238 200.529 484.143 200.483 484.852 200.276C485.568 200.064 486.015 199.643 486.193 199.013L486.427 198.184C486.611 197.555 486.426 197.071 485.873 196.731C485.319 196.391 484.502 196.165 483.421 196.051C482.333 195.937 481.428 195.982 480.706 196.188C479.99 196.394 479.541 196.812 479.357 197.44ZM491.503 204.54L494.4 194.073L499.315 194.589L498.08 199.33C498.02 199.526 497.951 199.748 497.873 199.995C497.795 200.236 497.723 200.454 497.657 200.65L497.686 200.653C497.81 200.47 497.933 200.293 498.056 200.123C498.179 199.946 498.365 199.766 498.613 199.582L504.86 195.172L509.852 195.697L506.946 206.163L502.041 205.648L503.304 200.821C503.358 200.624 503.416 200.414 503.479 200.192C503.548 199.97 503.612 199.761 503.672 199.564L503.711 199.568C503.574 199.75 503.445 199.917 503.325 200.068C503.205 200.212 503.014 200.379 502.752 200.567L496.486 205.064L491.503 204.54ZM503.126 191.023C503.638 191.076 504.067 190.978 504.415 190.726C504.762 190.468 505.079 190.069 505.365 189.53L507.616 190.905C506.855 191.984 506.037 192.697 505.163 193.043C504.295 193.391 503.398 193.516 502.472 193.419C501.553 193.322 500.77 193.014 500.124 192.494C499.485 191.969 499.134 191.14 499.07 190.007L502.031 189.209C501.95 189.665 501.989 190.069 502.149 190.419C502.309 190.77 502.634 190.971 503.126 191.023ZM288.644 203.329L291.541 192.861L296.455 193.378L295.22 198.118C295.16 198.315 295.091 198.537 295.013 198.784C294.935 199.025 294.863 199.243 294.797 199.439L294.826 199.442C294.95 199.259 295.073 199.082 295.196 198.911C295.319 198.734 295.505 198.554 295.754 198.371L302.001 193.961L306.993 194.485L304.086 204.952L299.181 204.436L300.445 199.61C300.498 199.413 300.556 199.203 300.619 198.98C300.688 198.759 300.753 198.549 300.812 198.353L300.851 198.357C300.714 198.539 300.586 198.705 300.465 198.856C300.345 199.001 300.154 199.167 299.892 199.356L293.626 203.852L288.644 203.329ZM309.1 194.707L321.066 195.965L320.171 199.248L313.12 198.507L311.108 205.69L306.203 205.174L309.1 194.707ZM318.288 212.493L322.522 196.118L327.262 196.616L327.001 197.884L326.991 197.883C327.465 197.488 328.179 197.2 329.134 197.019C330.09 196.831 331.131 196.797 332.258 196.915C334.285 197.128 335.796 197.761 336.791 198.815C337.793 199.87 338.062 201.24 337.597 202.926L337.517 203.212C337.047 204.884 336.063 206.123 334.564 206.928C333.073 207.727 331.349 208.023 329.394 207.818C328.28 207.701 327.315 207.482 326.497 207.16C325.68 206.838 325.119 206.452 324.812 206.001L323.192 213.009L318.288 212.493ZM325.602 202.696C325.731 203.083 326.077 203.434 326.64 203.748C327.209 204.063 327.931 204.267 328.805 204.359C329.808 204.464 330.624 204.396 331.252 204.154C331.879 203.912 332.275 203.512 332.438 202.953L332.671 202.143C332.834 201.584 332.695 201.134 332.253 200.793C331.812 200.446 331.067 200.217 330.018 200.107C329.124 200.013 328.341 200.055 327.667 200.233C327.001 200.405 326.511 200.645 326.197 200.952L325.602 202.696ZM345.54 198.537L344.698 201.6L350.059 202.164C351.723 202.339 352.862 202.779 353.475 203.485C354.088 204.191 354.217 205.177 353.861 206.442C353.52 207.696 352.874 208.574 351.925 209.076C350.975 209.579 349.668 209.743 348.004 209.568L337.729 208.488L340.626 198.02L345.54 198.537ZM348.009 204.855L343.939 204.427L343.391 206.186L347.47 206.615C347.891 206.659 348.214 206.637 348.439 206.55C348.672 206.456 348.844 206.222 348.955 205.848C349.055 205.518 349.027 205.283 348.872 205.142C348.724 204.996 348.436 204.9 348.009 204.855ZM354.084 210.207L356.991 199.74L361.925 200.259L359.027 210.726L354.084 210.207Z" fill="black"/>
<rect x="295.879" y="79.4033" width="239.447" height="129.502" rx="18" transform="rotate(6 295.879 79.4033)" stroke="black" stroke-width="3"/>
</svg>
