<svg width="42" height="42" viewBox="0 0 42 42" fill="none" xmlns="http://www.w3.org/2000/svg">
<path d="M21 0C32.5979 5.6694e-05 42 9.40218 42 21C41.9999 32.5977 32.5978 41.9999 21 42C9.40215 42 0.000123705 32.5977 0 21C0 9.40215 9.40208 0 21 0ZM29.5859 12.6484C28.7961 12.6625 27.5838 13.0845 21.7529 15.5098C19.7104 16.3593 15.6278 18.118 9.50586 20.7852C8.51202 21.1804 7.99174 21.5672 7.94434 21.9453C7.85373 22.671 8.89816 22.8969 10.2129 23.3242C11.2851 23.6727 12.7277 24.0805 13.4775 24.0967C14.1577 24.1114 14.9168 23.8313 15.7549 23.2559C21.4748 19.3948 24.4279 17.4434 24.6133 17.4014C24.744 17.3717 24.9252 17.3343 25.0479 17.4434C25.1704 17.5526 25.1585 17.759 25.1455 17.8145C25.0415 18.2577 19.6729 23.1408 19.3594 23.4658C18.1778 24.693 16.8333 25.4444 18.9062 26.8105C20.7003 27.9928 21.7446 28.7475 23.5928 29.959C24.7739 30.7332 25.7004 31.6513 26.9199 31.5391C27.481 31.4874 28.0601 30.9593 28.3545 29.3857C29.0502 25.6666 30.4183 17.6086 30.7344 14.2881C30.762 13.9975 30.7272 13.6256 30.6992 13.4619C30.6713 13.2985 30.6128 13.065 30.4004 12.8926C30.1488 12.6884 29.7597 12.6454 29.5859 12.6484Z" fill="black"/>
</svg>
