<svg width="161" height="42" viewBox="0 0 161 42" fill="none" xmlns="http://www.w3.org/2000/svg">
<path d="M153.289 19.4651L146.853 27.4429L146.213 19.4651H140.836H139.164H136.963C137.827 17.1318 138.495 15.2429 138.495 15.2429L138.858 14.3096H131.753L131.419 15.2429L129.887 19.4651H123.841C122.838 19.4651 122.337 19.4651 122.337 19.4651C116.124 19.4651 112.641 20.8873 111.193 23.554C110.357 21.1096 107.599 19.4651 103.336 19.4651C99.6585 19.4651 96.3989 20.554 93.9751 22.2873C92.7214 20.554 90.2419 19.4651 86.7872 19.4651C82.8311 19.4651 79.4043 20.7318 76.8969 22.6651C75.7547 20.7318 73.1637 19.4651 69.4583 19.4651C68.1768 19.4651 66.9788 19.5985 65.8365 19.8429L66.3937 18.3096C66.3937 18.2873 66.4216 18.2651 66.4216 18.2429L67.8425 14.3096H60.766L56.2527 26.7096C56.1413 26.954 56.0298 27.1985 55.9463 27.4651C55.7512 28.0429 55.6119 28.5985 55.5562 29.1318C54.9712 32.5985 56.8656 35.1985 62.1312 35.3762C62.6048 35.4207 63.1063 35.4429 63.6635 35.4429C67.3967 35.4429 70.8792 34.1762 73.4423 32.2429C74.5289 34.1762 77.0641 35.4429 80.9924 35.4429C84.4749 35.4429 87.7623 34.354 90.2419 32.6207C91.4398 34.354 93.8915 35.4429 97.5412 35.4429C105.453 35.4429 111.36 35.4429 115.26 35.4429C120.749 35.4429 123.841 34.5762 125.457 32.7096C125.457 34.5096 126.738 35.4429 129.97 35.4429C132.589 35.4429 136.099 34.9762 140.919 34.0429L133.926 41.9985H141.003L160.365 19.4651H153.289ZM70.127 27.4429C69.4583 29.2651 67.341 30.7318 65.3908 30.7318C63.4406 30.7318 62.3819 29.2651 63.0505 27.4429C63.7192 25.6207 65.8365 24.154 67.7867 24.154C69.7369 24.154 70.7956 25.6207 70.127 27.4429ZM87.428 27.4429C86.7594 29.2651 84.642 30.7318 82.6918 30.7318C80.7416 30.7318 79.6829 29.2651 80.3516 27.4429C81.0202 25.6207 83.1376 24.154 85.0878 24.154C87.038 24.154 88.0967 25.6207 87.428 27.4429ZM96.9283 27.4429C97.5969 25.6207 99.7143 24.154 101.664 24.154C103.615 24.154 104.673 25.6207 104.005 27.4429C103.364 29.2429 101.274 30.6873 99.3521 30.7318C99.2964 30.7318 99.2406 30.7318 99.1849 30.7318C97.2904 30.6873 96.2875 29.2429 96.9283 27.4429ZM119.69 30.154C119.328 30.8207 116.542 30.7096 115.845 30.7318C115.845 30.7318 114.006 30.7318 108.992 30.7318C109.911 29.7318 110.635 28.6207 111.053 27.4429C111.109 27.3318 111.137 27.1985 111.165 27.0873C111.917 27.9318 113.477 28.6873 116.514 29.1762C119.411 29.6207 119.941 29.4873 119.69 30.154ZM126.683 28.354C126.07 26.4873 123.479 25.7318 119.829 25.3762C118.297 25.2207 117.433 25.1762 117.628 24.6429C117.768 24.2429 118.548 24.154 120.191 24.154C121.222 24.154 122.448 24.154 123.869 24.154H128.215L126.683 28.354ZM133.731 28.3762C133.731 28.3318 134.428 26.4651 135.264 24.154H139.749L140.473 30.1318C133.09 31.3985 132.923 31.0651 133.731 28.3762Z" fill="black"/>
<path d="M1.36864 25.0889L10.4788 0H24.4367L21.6228 7.77778C21.595 7.82222 21.5671 7.86667 21.5393 7.91111L14.1285 28.4444H21.0378C18.1403 34.2 15.8837 38.7111 14.2678 41.9778C1.50794 41.8667 -2.05813 34.5778 1.06218 25.9556M14.2957 42L31.1231 22.6889H23.9909L30.2037 10.3111C40.8462 11.2 45.861 17.8889 42.9078 25.9778C39.7597 34.6667 26.9719 42 14.5464 42C14.4628 42 14.3792 42 14.2957 42Z" fill="black"/>
</svg>
